<svg width="21" height="20" viewBox="0 0 21 20" fill="none" xmlns="http://www.w3.org/2000/svg">
<path d="M2.21069 19.8962C1.60275 19.8962 1.08232 19.6798 0.649391 19.2468C0.216464 18.8139 0 18.2935 0 17.6855V2.21069C0 1.60275 0.216464 1.08232 0.649391 0.649391C1.08232 0.216464 1.60275 0 2.21069 0H17.6855C18.2935 0 18.8139 0.216464 19.2468 0.649391C19.6798 1.08232 19.8962 1.60275 19.8962 2.21069V4.42138H17.6855V2.21069H2.21069V17.6855H17.6855V15.4748H19.8962V17.6855C19.8962 18.2935 19.6798 18.8139 19.2468 19.2468C18.8139 19.6798 18.2935 19.8962 17.6855 19.8962H2.21069ZM15.4748 15.4748L13.9274 13.9274L16.7736 11.0535H6.63207V8.84276H16.7736L13.9274 5.96887L15.4748 4.42138L21.0016 9.94811L15.4748 15.4748Z" fill="#383838"/>
</svg>
