<svg width="25" height="23" viewBox="0 0 25 23" fill="none" xmlns="http://www.w3.org/2000/svg">
<path d="M1.33239 12.3944C1.31174 12.1878 1.29624 11.9812 1.28592 11.7746C1.27559 11.5681 1.27042 11.3615 1.27042 11.1549C1.27042 9.60563 1.55962 8.15446 2.13803 6.80141C2.71643 5.44836 3.51174 4.27089 4.52394 3.26901C5.53615 2.26714 6.71362 1.47183 8.05634 0.883099C9.39906 0.294366 10.8451 0 12.3944 0C13.9437 0 15.3948 0.294366 16.7479 0.883099C18.1009 1.47183 19.2784 2.26714 20.2803 3.26901C21.2822 4.27089 22.0775 5.44836 22.6662 6.80141C23.2549 8.15446 23.5493 9.60563 23.5493 11.1549C23.5493 11.3615 23.5441 11.5681 23.5338 11.7746C23.5235 11.9812 23.508 12.1878 23.4873 12.3944H20.9775C21.0188 12.1878 21.0446 11.9812 21.0549 11.7746C21.0653 11.5681 21.0704 11.3615 21.0704 11.1549C21.0704 10.9484 21.0653 10.7418 21.0549 10.5352C21.0446 10.3286 21.0188 10.1221 20.9775 9.91549H17.3211C17.3418 10.1221 17.3521 10.3286 17.3521 10.5352V11.7746C17.3521 11.9812 17.3418 12.1878 17.3211 12.3944H14.8732V11.3718C14.8732 11.1239 14.8681 10.8761 14.8577 10.6282C14.8474 10.3803 14.8319 10.1427 14.8113 9.91549H10.0085C9.98779 10.1427 9.9723 10.3803 9.96197 10.6282C9.95164 10.8761 9.94648 11.1239 9.94648 11.3718V12.3944H7.49859C7.47793 12.1878 7.46761 11.9812 7.46761 11.7746V10.5352C7.46761 10.3286 7.47793 10.1221 7.49859 9.91549H3.84225C3.80094 10.1221 3.77512 10.3286 3.76479 10.5352C3.75446 10.7418 3.7493 10.9484 3.7493 11.1549C3.7493 11.3615 3.75446 11.5681 3.76479 11.7746C3.77512 11.9812 3.80094 12.1878 3.84225 12.3944H1.33239ZM4.58592 7.43662H7.77746C7.94272 6.54836 8.1493 5.74789 8.39718 5.03521C8.64507 4.32253 8.91362 3.677 9.20282 3.09859C8.21127 3.47042 7.31268 4.03333 6.50704 4.78732C5.70141 5.54131 5.06103 6.42441 4.58592 7.43662ZM10.3493 7.43662H14.4394C14.2329 6.54836 13.9746 5.68075 13.6648 4.8338C13.3549 3.98685 12.9315 3.20188 12.3944 2.47887C11.8573 3.20188 11.4286 3.98685 11.1085 4.8338C10.7883 5.68075 10.5352 6.54836 10.3493 7.43662ZM17.0423 7.43662H20.2338C19.7587 6.42441 19.1131 5.54131 18.2972 4.78732C17.4812 4.03333 16.5775 3.47042 15.5859 3.09859C15.8751 3.71831 16.1488 4.37418 16.407 5.0662C16.6653 5.75822 16.877 6.54836 17.0423 7.43662ZM11.1549 22.3099V21.0704C11.1549 20.0376 10.7934 19.1596 10.0704 18.4366C9.34742 17.7136 8.46948 17.3521 7.43662 17.3521H0V14.8732H7.43662C8.42817 14.8732 9.35258 15.0901 10.2099 15.5239C11.0671 15.9577 11.7953 16.5671 12.3944 17.3521C12.9934 16.5671 13.7216 15.9577 14.5789 15.5239C15.4361 15.0901 16.3606 14.8732 17.3521 14.8732H24.7887V17.3521H17.3521C16.3192 17.3521 15.4413 17.7136 14.7183 18.4366C13.9953 19.1596 13.6338 20.0376 13.6338 21.0704V22.3099H11.1549Z" fill="#383838"/>
</svg>
