<svg width="25" height="23" viewBox="0 0 25 23" fill="none" xmlns="http://www.w3.org/2000/svg">
<path d="M11.1549 22.3099V19.831H21.0704V11.031C21.0704 8.61409 20.2286 6.56385 18.5451 4.88028C16.8615 3.19671 14.8113 2.35493 12.3944 2.35493C9.97746 2.35493 7.92723 3.19671 6.24366 4.88028C4.56009 6.56385 3.71831 8.61409 3.71831 11.031V18.5915H2.47887C1.79718 18.5915 1.21362 18.3488 0.728169 17.8634C0.242723 17.3779 0 16.7944 0 16.1127V13.6338C0 13.2 0.108451 12.792 0.325352 12.4099C0.542254 12.0277 0.846948 11.723 1.23944 11.4958L1.33239 9.85352C1.49765 8.44883 1.90563 7.14742 2.55634 5.9493C3.20704 4.75117 4.023 3.70798 5.00423 2.81972C5.98545 1.93146 7.11127 1.23944 8.38169 0.743662C9.65211 0.247887 10.9897 0 12.3944 0C13.7991 0 15.1315 0.247887 16.3916 0.743662C17.6516 1.23944 18.7775 1.92629 19.769 2.80423C20.7606 3.68216 21.5765 4.72019 22.2169 5.91831C22.8573 7.11643 23.2704 8.41784 23.4563 9.82254L23.5493 11.4338C23.9418 11.6197 24.2465 11.8986 24.4634 12.2704C24.6803 12.6423 24.7887 13.0347 24.7887 13.4479V16.2986C24.7887 16.7117 24.6803 17.1042 24.4634 17.4761C24.2465 17.8479 23.9418 18.1268 23.5493 18.3127V19.831C23.5493 20.5127 23.3066 21.0962 22.8211 21.5817C22.3357 22.0671 21.7521 22.3099 21.0704 22.3099H11.1549ZM8.67606 13.6338C8.32488 13.6338 8.03052 13.515 7.79296 13.2775C7.5554 13.0399 7.43662 12.7455 7.43662 12.3944C7.43662 12.0432 7.5554 11.7488 7.79296 11.5113C8.03052 11.2737 8.32488 11.1549 8.67606 11.1549C9.02723 11.1549 9.3216 11.2737 9.55916 11.5113C9.79671 11.7488 9.91549 12.0432 9.91549 12.3944C9.91549 12.7455 9.79671 13.0399 9.55916 13.2775C9.3216 13.515 9.02723 13.6338 8.67606 13.6338ZM16.1127 13.6338C15.7615 13.6338 15.4671 13.515 15.2296 13.2775C14.992 13.0399 14.8732 12.7455 14.8732 12.3944C14.8732 12.0432 14.992 11.7488 15.2296 11.5113C15.4671 11.2737 15.7615 11.1549 16.1127 11.1549C16.4639 11.1549 16.7582 11.2737 16.9958 11.5113C17.2333 11.7488 17.3521 12.0432 17.3521 12.3944C17.3521 12.7455 17.2333 13.0399 16.9958 13.2775C16.7582 13.515 16.4639 13.6338 16.1127 13.6338ZM4.98873 11.7127C4.84413 9.523 5.50516 7.64319 6.97183 6.07324C8.4385 4.50329 10.2667 3.71831 12.4563 3.71831C14.2948 3.71831 15.9113 4.30188 17.3056 5.46901C18.7 6.63615 19.5418 8.12864 19.831 9.94648C17.9512 9.92582 16.2211 9.41972 14.6408 8.42817C13.0606 7.43662 11.8469 6.0939 11 4.4C10.6695 6.05258 9.9723 7.52441 8.90845 8.81549C7.8446 10.1066 6.53803 11.0723 4.98873 11.7127Z" fill="#383838"/>
</svg>
