<svg width="25" height="20" viewBox="0 0 25 20" fill="none" xmlns="http://www.w3.org/2000/svg">
<path d="M12.3944 16.1127C12.7455 16.1127 13.0399 15.9939 13.2775 15.7563C13.515 15.5188 13.6338 15.2244 13.6338 14.8732C13.6338 14.5221 13.515 14.2277 13.2775 13.9901C13.0399 13.7526 12.7455 13.6338 12.3944 13.6338C12.0432 13.6338 11.7488 13.7526 11.5113 13.9901C11.2737 14.2277 11.1549 14.5221 11.1549 14.8732C11.1549 15.2244 11.2737 15.5188 11.5113 15.7563C11.7488 15.9939 12.0432 16.1127 12.3944 16.1127ZM12.3944 11.1549C12.7455 11.1549 13.0399 11.0362 13.2775 10.7986C13.515 10.561 13.6338 10.2667 13.6338 9.91549C13.6338 9.56432 13.515 9.26995 13.2775 9.03239C13.0399 8.79484 12.7455 8.67606 12.3944 8.67606C12.0432 8.67606 11.7488 8.79484 11.5113 9.03239C11.2737 9.26995 11.1549 9.56432 11.1549 9.91549C11.1549 10.2667 11.2737 10.561 11.5113 10.7986C11.7488 11.0362 12.0432 11.1549 12.3944 11.1549ZM12.3944 6.19718C12.7455 6.19718 13.0399 6.0784 13.2775 5.84085C13.515 5.60329 13.6338 5.30892 13.6338 4.95775C13.6338 4.60657 13.515 4.31221 13.2775 4.07465C13.0399 3.83709 12.7455 3.71831 12.3944 3.71831C12.0432 3.71831 11.7488 3.83709 11.5113 4.07465C11.2737 4.31221 11.1549 4.60657 11.1549 4.95775C11.1549 5.30892 11.2737 5.60329 11.5113 5.84085C11.7488 6.0784 12.0432 6.19718 12.3944 6.19718ZM22.3099 19.831H2.47887C1.79718 19.831 1.21362 19.5883 0.728169 19.1028C0.242723 18.6174 0 18.0338 0 17.3521V12.3944C0.68169 12.3944 1.26526 12.1516 1.7507 11.6662C2.23615 11.1808 2.47887 10.5972 2.47887 9.91549C2.47887 9.2338 2.23615 8.65024 1.7507 8.16479C1.26526 7.67934 0.68169 7.43662 0 7.43662V2.47887C0 1.79718 0.242723 1.21362 0.728169 0.728169C1.21362 0.242723 1.79718 0 2.47887 0H22.3099C22.9915 0 23.5751 0.242723 24.0606 0.728169C24.546 1.21362 24.7887 1.79718 24.7887 2.47887V7.43662C24.107 7.43662 23.5235 7.67934 23.038 8.16479C22.5526 8.65024 22.3099 9.2338 22.3099 9.91549C22.3099 10.5972 22.5526 11.1808 23.038 11.6662C23.5235 12.1516 24.107 12.3944 24.7887 12.3944V17.3521C24.7887 18.0338 24.546 18.6174 24.0606 19.1028C23.5751 19.5883 22.9915 19.831 22.3099 19.831ZM22.3099 17.3521V14.1915C21.5455 13.7371 20.9413 13.1329 20.4972 12.3789C20.0531 11.6249 19.831 10.8038 19.831 9.91549C19.831 9.02723 20.0531 8.2061 20.4972 7.45211C20.9413 6.69812 21.5455 6.0939 22.3099 5.63944V2.47887H2.47887V5.63944C3.24319 6.0939 3.84742 6.69812 4.29155 7.45211C4.73568 8.2061 4.95775 9.02723 4.95775 9.91549C4.95775 10.8038 4.73568 11.6249 4.29155 12.3789C3.84742 13.1329 3.24319 13.7371 2.47887 14.1915V17.3521H22.3099Z" fill="#FF8800"/>
</svg>
