<svg width="314" height="125" viewBox="0 0 314 125" fill="none" xmlns="http://www.w3.org/2000/svg">
<path d="M96.7042 1.424V15.644C96.7042 15.812 96.6202 15.98 96.4522 16.148C96.3082 16.292 96.1522 16.364 95.9842 16.364H82.9522C82.4482 16.364 82.0042 16.16 81.6202 15.752L78.1282 12.224C77.7442 11.84 77.5522 11.42 77.5522 10.964V1.424C77.5522 1.28 77.6242 1.136 77.7682 0.991998C77.9122 0.823999 78.0802 0.739999 78.2722 0.739999H82.2322C82.4242 0.739999 82.5922 0.823999 82.7362 0.991998C82.8802 1.16 82.9522 1.304 82.9522 1.424V3.692C82.9522 3.86 83.0122 4.028 83.1322 4.196C83.2762 4.34 83.4562 4.412 83.6722 4.412H90.6562C90.8482 4.412 91.0042 4.34 91.1242 4.196C91.2442 4.028 91.3042 3.86 91.3042 3.692V1.352C91.3042 0.943999 91.5442 0.739999 92.0242 0.739999H95.8042C96.4042 0.739999 96.7042 0.967999 96.7042 1.424ZM91.3042 10.964V9.416C91.3042 8.936 91.0762 8.696 90.6202 8.696L83.7082 8.732C83.5402 8.732 83.3722 8.816 83.2042 8.984C83.0362 9.128 82.9522 9.284 82.9522 9.452V11C82.9522 11.456 83.1922 11.684 83.6722 11.684H90.6562C90.8242 11.684 90.9682 11.612 91.0882 11.468C91.2322 11.324 91.3042 11.156 91.3042 10.964ZM101.276 23.204C101.276 23.612 101.036 23.816 100.556 23.816H90.3682C89.8882 23.816 89.6482 24.068 89.6482 24.572V30.476C89.6482 30.956 89.4082 31.196 88.9282 31.196H84.9682C84.7522 31.196 84.5722 31.124 84.4282 30.98C84.3082 30.86 84.2482 30.716 84.2482 30.548V24.572C84.2482 24.38 84.1882 24.212 84.0682 24.068C83.9482 23.924 83.7922 23.852 83.6002 23.852H73.6642C73.0642 23.852 72.7642 23.612 72.7642 23.132V19.172C72.7642 18.956 72.8602 18.788 73.0522 18.668C73.2682 18.524 73.4602 18.452 73.6282 18.452H100.556C100.724 18.452 100.88 18.524 101.024 18.668C101.192 18.788 101.276 18.932 101.276 19.1V23.204ZM121.187 1.784V22.484C121.187 22.652 121.103 22.82 120.935 22.988C120.791 23.132 120.635 23.204 120.467 23.204H110.279C109.775 23.204 109.331 23 108.947 22.592L105.455 19.064C105.071 18.68 104.879 18.26 104.879 17.804V1.784C104.879 1.616 104.951 1.46 105.095 1.316C105.239 1.148 105.407 1.064 105.599 1.064H109.559C109.751 1.064 109.919 1.148 110.063 1.316C110.207 1.484 110.279 1.64 110.279 1.784V6.212C110.279 6.692 110.507 6.932 110.963 6.932H115.139C115.331 6.932 115.487 6.86 115.607 6.716C115.727 6.548 115.787 6.38 115.787 6.212V1.712C115.787 1.304 116.027 1.1 116.507 1.1L120.287 1.064C120.887 1.064 121.187 1.304 121.187 1.784ZM115.787 17.084V13.016C115.787 12.536 115.547 12.296 115.067 12.296L111.035 12.332C110.843 12.332 110.663 12.416 110.495 12.584C110.351 12.728 110.279 12.884 110.279 13.052V17.12C110.279 17.576 110.519 17.804 110.999 17.804H115.139C115.307 17.804 115.451 17.732 115.571 17.588C115.715 17.42 115.787 17.252 115.787 17.084ZM132.671 24.284C132.671 24.5 132.563 24.68 132.347 24.824C132.155 24.944 131.975 25.004 131.807 25.004L127.991 25.04C127.847 25.04 127.691 24.968 127.523 24.824C127.355 24.68 127.271 24.524 127.271 24.356V1.784C127.271 1.352 127.511 1.136 127.991 1.136H131.771C132.371 1.136 132.671 1.376 132.671 1.856V24.284ZM160.935 5.06C160.935 5.516 160.695 5.744 160.215 5.744H147.903C147.423 5.744 147.183 5.96 147.183 6.392V6.968H160.215C160.359 6.968 160.515 7.04 160.683 7.184C160.851 7.328 160.935 7.472 160.935 7.616V10.64C160.935 11.072 160.695 11.288 160.215 11.288L147.183 11.252V12.512H160.215C160.359 12.512 160.515 12.584 160.683 12.728C160.851 12.872 160.935 13.016 160.935 13.16V16.58C160.935 16.988 160.695 17.192 160.215 17.192H142.503C142.311 17.192 142.143 17.12 141.999 16.976C141.855 16.808 141.783 16.64 141.783 16.472V6.104C141.783 5.624 141.975 5.192 142.359 4.808L145.887 1.316C146.295 0.907999 146.727 0.704 147.183 0.704H160.215C160.383 0.704 160.539 0.787999 160.683 0.955998C160.851 1.1 160.935 1.256 160.935 1.424V5.06ZM165.507 23.564C165.507 23.972 165.267 24.176 164.787 24.176H154.563C154.083 24.176 153.843 24.428 153.843 24.932V30.476C153.843 30.956 153.603 31.196 153.123 31.196H149.163C148.971 31.196 148.803 31.124 148.659 30.98C148.515 30.836 148.443 30.692 148.443 30.548V24.932C148.443 24.452 148.227 24.212 147.795 24.212H137.895C137.295 24.212 136.995 23.972 136.995 23.492V19.532C136.995 19.316 137.091 19.148 137.283 19.028C137.499 18.884 137.691 18.812 137.859 18.812H164.787C164.931 18.812 165.087 18.884 165.255 19.028C165.423 19.172 165.507 19.316 165.507 19.46V23.564ZM182.609 4.772C184.313 6.476 185.165 8.54 185.165 10.964C185.165 13.388 184.313 15.464 182.609 17.192C180.905 18.896 178.841 19.748 176.417 19.748C173.993 19.748 171.929 18.896 170.225 17.192C168.521 15.464 167.669 13.388 167.669 10.964C167.669 8.54 168.521 6.476 170.225 4.772C171.929 3.068 173.993 2.216 176.417 2.216C178.841 2.216 180.905 3.068 182.609 4.772ZM178.685 13.268C179.309 12.62 179.621 11.852 179.621 10.964C179.621 10.076 179.309 9.32 178.685 8.696C178.061 8.072 177.305 7.76 176.417 7.76C175.529 7.76 174.761 8.072 174.113 8.696C173.489 9.32 173.177 10.076 173.177 10.964C173.177 11.852 173.489 12.62 174.113 13.268C174.761 13.892 175.529 14.204 176.417 14.204C177.305 14.204 178.061 13.892 178.685 13.268ZM196.181 24.284C196.181 24.5 196.073 24.68 195.857 24.824C195.665 24.944 195.485 25.004 195.317 25.004H191.501C191.357 25.004 191.201 24.932 191.033 24.788C190.865 24.644 190.781 24.5 190.781 24.356V14.6C190.781 14.048 190.541 13.772 190.061 13.772H186.497C186.353 13.772 186.197 13.7 186.029 13.556C185.861 13.412 185.777 13.268 185.777 13.124V8.984C185.777 8.576 186.017 8.372 186.497 8.372H190.061C190.277 8.372 190.445 8.3 190.565 8.156C190.709 7.988 190.781 7.808 190.781 7.616V1.784C190.781 1.352 191.021 1.136 191.501 1.136H195.281C195.881 1.136 196.181 1.376 196.181 1.856V24.284ZM225.147 13.844C225.147 14.012 225.063 14.18 224.895 14.348C224.751 14.492 224.595 14.564 224.427 14.564H209.955C209.451 14.564 209.007 14.36 208.623 13.952L205.131 10.424C204.747 10.04 204.555 9.62 204.555 9.164V1.424C204.555 1.256 204.627 1.1 204.771 0.955998C204.915 0.787999 205.083 0.704 205.275 0.704H209.235C209.427 0.704 209.595 0.787999 209.739 0.955998C209.883 1.124 209.955 1.28 209.955 1.424V8.48C209.955 8.936 210.195 9.164 210.675 9.164H224.427C224.907 9.164 225.147 9.392 225.147 9.848V13.844ZM228.999 21.296C228.999 21.512 228.891 21.692 228.675 21.836C228.483 21.956 228.303 22.016 228.135 22.016H201.207C201.063 22.016 200.907 21.944 200.739 21.8C200.571 21.656 200.487 21.5 200.487 21.332V17.264C200.487 16.856 200.727 16.652 201.207 16.652H228.099C228.699 16.652 228.999 16.88 228.999 17.336V21.296ZM224.391 34.544C224.391 34.712 224.307 34.868 224.139 35.012C223.995 35.18 223.839 35.264 223.671 35.264H210.675C210.195 35.264 209.751 35.06 209.343 34.652L205.851 31.16C205.467 30.776 205.275 30.344 205.275 29.864V24.284C205.275 24.14 205.347 23.996 205.491 23.852C205.635 23.684 205.803 23.6 205.995 23.6H209.955C210.147 23.6 210.315 23.684 210.459 23.852C210.603 24.02 210.675 24.164 210.675 24.284V29.216C210.675 29.648 210.915 29.864 211.395 29.864H223.671C223.719 29.864 223.791 29.876 223.887 29.9C223.983 29.924 224.091 29.984 224.211 30.08C224.331 30.2 224.391 30.356 224.391 30.548V34.544ZM236.921 35.948H232.601L234.041 27.452H240.521L236.921 35.948Z" fill="#333333"/>
<path d="M20.0547 73.3438V75.1016H11.4766V81.9922H9.29688V75.1016H0.835938V73.3438H20.0547ZM5.42969 61.8359V64.5781H15.4141V61.8359H17.6406V70.9531H3.22656V61.8359H5.42969ZM5.42969 69.1719H15.4141V66.3594H5.42969V69.1719ZM28.8906 64.8359C28.8906 67.6484 30.8594 70.2969 34.0469 71.375L32.8984 73.1328C30.543 72.3008 28.7969 70.625 27.8594 68.5156C26.9453 70.8711 25.1406 72.7109 22.6797 73.625L21.4375 71.8672C24.7656 70.7188 26.6875 67.9062 26.6875 64.7656V62.2812H28.8906V64.8359ZM38.1016 60.9688V67.2969H41.1484V69.1953H38.1016V76.4609H35.875V60.9688H38.1016ZM39.0156 79.7422V81.5469H24.8125V74.9609H27.0859V79.7422H39.0156ZM49.1875 62.4922C52.5156 62.4688 54.8828 64.5312 54.9062 67.4844C54.8828 70.4375 52.5156 72.5 49.1875 72.5C45.8828 72.5 43.4453 70.4375 43.4688 67.4844C43.4453 64.5312 45.8828 62.4688 49.1875 62.4922ZM49.1875 64.4141C47.1484 64.4141 45.6484 65.6328 45.6719 67.4844C45.6484 69.3359 47.1484 70.5547 49.1875 70.5547C51.2266 70.5547 52.7266 69.3359 52.7266 67.4844C52.7266 65.6328 51.2266 64.4141 49.1875 64.4141ZM59.7109 60.9922V82.0391H57.4844V60.9922H59.7109ZM42.4609 75.6641C46.2812 75.6641 51.5781 75.6172 56.1719 74.9609L56.3359 76.5781C51.5781 77.4922 46.4922 77.5156 42.7422 77.5156L42.4609 75.6641ZM86.4531 60.9922V73.3906H84.2266V70.2734H79.6562V71.9844H69.9062V62.5625H79.6562V64.2969H84.2266V60.9922H86.4531ZM72.1094 64.3438V70.2031H77.4766V64.3438H72.1094ZM79.4219 73.9766C83.8281 73.9766 86.5234 75.4297 86.5234 77.9844C86.5234 80.5156 83.8281 81.9688 79.4219 81.9453C75.0156 81.9688 72.2969 80.5156 72.3203 77.9844C72.2969 75.4297 75.0156 73.9766 79.4219 73.9766ZM79.4219 75.6875C76.3516 75.7109 74.5234 76.5078 74.5234 77.9844C74.5234 79.3906 76.3516 80.2344 79.4219 80.2344C82.4922 80.2344 84.3203 79.3906 84.3203 77.9844C84.3203 76.5078 82.4922 75.7109 79.4219 75.6875ZM79.6562 68.4688H84.2266V66.0781H79.6562V68.4688ZM108.906 77.4922V79.3203H89.6875V77.4922H98.1016V72.5H100.305V77.4922H108.906ZM100.352 63.9219C100.352 67.25 104.008 70.3672 108.062 71.0469L107.102 72.875C103.703 72.1953 100.574 70.0977 99.1797 67.2031C97.7969 70.0859 94.7031 72.2188 91.3281 72.875L90.3438 71.0469C94.375 70.3672 98.0078 67.25 98.0078 63.9219V62.3281H100.352V63.9219ZM129.625 70.625V72.3359H110.406V70.625H129.625ZM127.258 73.8125V78.4297H114.93V80.1641H127.914V81.7344H112.703V76.9531H125.055V75.4062H112.68V73.8125H127.258ZM127.211 61.5312V66.0781H115.07V67.6719H127.562V69.2422H112.867V64.6016H124.984V63.1016H112.82V61.5312H127.211ZM154.539 60.9922V76.5781H152.312V70.7891H149.031V68.9141H152.312V66.7109H149.031V64.8828H152.312V60.9922H154.539ZM148.797 62.6328V64.4375H146.781V71.4688C147.672 71.3984 148.527 71.3281 149.359 71.2344L149.453 72.875C145.422 73.5078 140.711 73.5781 137.336 73.6016L137.055 71.7266L139.609 71.7031V64.4375H137.641V62.6328H148.797ZM155.078 79.7422V81.5469H140.852V75.3125H143.102V79.7422H155.078ZM141.766 71.6797C142.715 71.6562 143.676 71.6328 144.648 71.5859V64.4375H141.766V71.6797ZM175.211 60.9922V82.0391H172.984V60.9922H175.211ZM168.789 62.8906V70.5547H161.242V75.1484C164.641 75.1367 167.617 74.9844 171.133 74.3984L171.344 76.2266C167.617 76.8594 164.453 77 160.75 77H158.969V68.7734H166.516V64.6953H158.945V62.8906H168.789ZM194.875 60.9922V69.5H198.25V71.3516H194.875V81.9922H192.672V60.9922H194.875ZM190.844 64.2734V66.1016H178.398V64.2734H183.578V61.2734H185.805V64.2734H190.844ZM184.703 67.6484C187.703 67.6484 189.906 69.6641 189.93 72.5234C189.906 75.4062 187.703 77.3984 184.703 77.4219C181.68 77.3984 179.477 75.4062 179.477 72.5234C179.477 69.6641 181.68 67.6484 184.703 67.6484ZM184.703 69.4766C182.922 69.4766 181.586 70.7188 181.609 72.5234C181.586 74.3516 182.922 75.5703 184.703 75.5469C186.484 75.5703 187.797 74.3516 187.797 72.5234C187.797 70.7188 186.484 69.4766 184.703 69.4766ZM217.305 60.9922V81.9922H215.195V60.9922H217.305ZM212.875 61.5312V80.9609H210.766V71.2109H206.664C205.41 73.6484 203.418 75.7812 200.453 77.5156L199.188 75.9219C203.641 73.2734 205.785 69.7461 206.172 65.4219H200.172V63.5938H208.375C208.363 65.6445 208.082 67.6016 207.438 69.4297H210.766V61.5312H212.875ZM243.367 61.0156V76.4844H241.141V71.0234H235.938C234.941 72.207 233.418 72.9219 231.672 72.9219C228.508 72.9219 226.164 70.7188 226.164 67.625C226.164 64.5078 228.508 62.3047 231.672 62.2812C233.406 62.293 234.918 63.0078 235.914 64.1797H241.141V61.0156H243.367ZM243.93 79.7422V81.5469H229.727V74.8672H231.953V79.7422H243.93ZM231.672 64.2734C229.703 64.2734 228.297 65.6328 228.297 67.625C228.297 69.6172 229.703 70.9531 231.672 70.9531C233.57 70.9531 235 69.6172 235 67.625C235 65.6328 233.57 64.2734 231.672 64.2734ZM236.898 65.9844C237.039 66.4883 237.133 67.0391 237.133 67.625C237.133 68.1875 237.051 68.7266 236.898 69.2188H241.141V65.9844H236.898ZM264.109 60.9922V71.6797H261.883V69.6641H256.562V67.9297H261.883V65.6562H256.82C255.52 68.9141 252.355 71.0586 247.703 72.1484L246.93 70.3203C251.969 69.207 254.699 66.875 255.062 63.7812H248.031V61.9531H257.5C257.5 62.6328 257.441 63.2773 257.336 63.8984H261.883V60.9922H264.109ZM264.109 72.5703V77.8906H252.625V80H264.742V81.7812H250.422V76.2031H261.883V74.3281H250.375V72.5703H264.109ZM283.703 60.9922V69.5H287.078V71.3516H283.703V81.9922H281.5V60.9922H283.703ZM279.672 64.2734V66.1016H267.227V64.2734H272.406V61.2734H274.633V64.2734H279.672ZM273.531 67.6484C276.531 67.6484 278.734 69.6641 278.758 72.5234C278.734 75.4062 276.531 77.3984 273.531 77.4219C270.508 77.3984 268.305 75.4062 268.305 72.5234C268.305 69.6641 270.508 67.6484 273.531 67.6484ZM273.531 69.4766C271.75 69.4766 270.414 70.7188 270.438 72.5234C270.414 74.3516 271.75 75.5703 273.531 75.5469C275.312 75.5703 276.625 74.3516 276.625 72.5234C276.625 70.7188 275.312 69.4766 273.531 69.4766ZM305.078 67.1328V68.9141H290.617V61.7422H292.82V67.1328H305.078ZM307.281 71.5625V73.3438H288.062V71.5625H307.281ZM305.219 79.6719V81.5H290.453V75.3359H292.68V79.6719H305.219ZM39.4375 98.375V99.7109C39.4375 101.188 39.4375 103.32 38.9453 105.969L36.0156 105.688C36.3906 103.637 36.4844 102.09 36.5078 100.812H28.4688V98.375H39.4375ZM34.1406 103.297V107.375C36.2617 107.293 38.4414 107.129 40.4453 106.836L40.6094 108.992C36.1797 109.812 31.1641 109.883 27.4609 109.906L27.2031 107.516C28.3984 107.516 29.7461 107.516 31.1641 107.469V103.297H34.1406ZM44.6641 96.8281V103.32H47.2422V105.828H44.6641V112.789H41.5938V96.8281H44.6641ZM45.3203 115.391V117.781H30.3438V111.359H33.3438V115.391H45.3203ZM60.2266 98V99.3828C60.2031 100.766 60.2031 102.664 59.7109 104.984L56.7812 104.773C57.1211 102.98 57.2031 101.586 57.2266 100.391H49.2109V98H60.2266ZM54.8828 102.758V106.438C57.0156 106.367 59.1836 106.227 61.1875 105.992L61.3516 108.078C56.9219 108.852 52.0469 108.969 48.2031 108.969L47.9453 106.578C49.1641 106.566 50.5 106.566 51.9062 106.531V102.758H54.8828ZM65.4062 96.8281V102.078H68.0078V104.562H65.4062V109.836H62.3359V96.8281H65.4062ZM58.1406 110.094C62.7109 110.094 65.5469 111.617 65.5469 114.055C65.5469 116.633 62.7109 118.109 58.1406 118.109C53.5703 118.109 50.7109 116.633 50.7109 114.055C50.7109 111.617 53.5703 110.094 58.1406 110.094ZM58.1406 112.391C55.3281 112.391 53.7578 112.977 53.7578 114.055C53.7578 115.273 55.3281 115.789 58.1406 115.789C60.9297 115.789 62.4766 115.273 62.4766 114.055C62.4766 112.977 60.9297 112.391 58.1406 112.391ZM92.9453 96.8281V118.156H90.1094V107.445H88.0469V117.125H85.3047V97.1797H88.0469V105.055H90.1094V96.8281H92.9453ZM83.0547 99.2891V101.703H78.1094V110.797C80.1719 110.785 82 110.68 84.0625 110.305L84.2734 112.742C81.6719 113.234 79.3984 113.305 76.5859 113.328H75.1094V99.2891H83.0547ZM114.695 106.508V108.922H106.445V110.492C110.16 110.773 112.352 112.109 112.375 114.312C112.352 116.773 109.562 118.156 104.945 118.156C100.258 118.156 97.4688 116.773 97.4688 114.312C97.4688 112.098 99.6836 110.762 103.469 110.492V108.922H95.2422V106.508H114.695ZM104.945 112.695C101.992 112.719 100.492 113.234 100.516 114.312C100.492 115.344 101.992 115.906 104.945 115.906C107.828 115.906 109.352 115.344 109.375 114.312C109.352 113.234 107.828 112.719 104.945 112.695ZM112.938 97.7422V100.086H107.148C107.652 101.586 109.82 103.027 113.875 103.367L112.82 105.711C108.801 105.324 106.082 103.801 104.945 101.727C103.82 103.801 101.148 105.324 97.0938 105.711L96.1094 103.367C100.059 103.027 102.238 101.574 102.789 100.086H97.0234V97.7422H112.938ZM133.68 98.6797V100.766C133.656 103.367 133.656 106.297 132.883 110.586L129.953 110.328C130.656 106.426 130.68 103.52 130.68 101.047H117.906V98.6797H133.68ZM135.438 113.117V115.555H115.984V113.117H120.133V106.414H123.109V113.117H125.453V106.414H128.406V113.117H135.438ZM156.18 107.82V110.164H136.68V107.82H144.93V106.508H139.117V97.3438H153.906V99.6406H142.117V100.836H153.414V102.992H142.117V104.211H154.094V106.508H147.93V107.82H156.18ZM146.43 111.148C151.141 111.125 153.836 112.391 153.859 114.641C153.836 116.938 151.141 118.156 146.43 118.156C141.648 118.156 138.953 116.938 138.953 114.641C138.953 112.391 141.648 111.125 146.43 111.148ZM146.43 113.352C143.359 113.352 141.93 113.75 141.953 114.641C141.93 115.555 143.359 115.953 146.43 115.953C149.43 115.953 150.836 115.555 150.859 114.641C150.836 113.75 149.43 113.352 146.43 113.352ZM182.688 113.445V115.273H163.469V113.445H182.688ZM167.898 98.4453V102.219H178.211V98.4453H180.414V109.461H165.672V98.4453H167.898ZM167.898 107.703H178.211V103.977H167.898V107.703ZM202.117 97.0156V112.625H200.008V105.008H197.43V112.062H195.344V97.3906H197.43V103.18H200.008V97.0156H202.117ZM202.727 115.742V117.547H188.195V111.172H190.398V115.742H202.727ZM193.07 98.7734V104.938H187.305V107.773C189.906 107.773 191.887 107.633 194.195 107.188L194.43 108.969C191.781 109.461 189.602 109.555 186.531 109.555H185.148V103.25H190.938V100.555H185.102V98.7734H193.07ZM221.969 106.953V108.781H207.344V98.8672H221.781V100.695H209.547V106.953H221.969ZM224.172 113.375V115.227H204.953V113.375H224.172ZM243.109 96.9922V108.266H240.883V96.9922H243.109ZM231.555 109.273V111.641H240.906V109.273H243.109V117.734H229.375V109.273H231.555ZM231.555 115.906H240.906V113.398H231.555V115.906ZM231.719 97.9531C234.93 97.9531 237.297 99.9453 237.297 102.828C237.297 105.711 234.93 107.703 231.719 107.68C228.508 107.703 226.117 105.711 226.117 102.828C226.117 99.9453 228.508 97.9531 231.719 97.9531ZM231.719 99.8281C229.727 99.8047 228.297 101.047 228.297 102.828C228.297 104.633 229.727 105.852 231.719 105.852C233.688 105.852 235.117 104.633 235.117 102.828C235.117 101.047 233.688 99.8047 231.719 99.8281ZM263.875 96.9922V117.992H261.648V96.9922H263.875ZM249.93 99.0312V110.727C252.988 110.703 256.211 110.457 259.586 109.766L259.891 111.641C256.164 112.391 252.789 112.648 249.484 112.648H247.727V99.0312H249.93ZM283.539 96.9922V105.125H286.914V106.953H283.539V118.039H281.312V96.9922H283.539ZM277.891 99.0078V100.812H270.297V110.961C273.824 110.949 276.473 110.797 279.461 110.258L279.742 112.133C276.461 112.719 273.672 112.836 269.758 112.812H268.07V99.0078H277.891Z" fill="#333333"/>
</svg>
