<svg width="597" height="42" viewBox="0 0 597 42" fill="none" xmlns="http://www.w3.org/2000/svg">
<path d="M16.7579 3.024C14.2099 3.36 12.8519 4.662 12.6839 6.93H16.4219V14.406H8.94591V8.652C8.94591 7.616 9.01591 6.706 9.15591 5.922C9.29591 5.11 9.56191 4.298 9.95391 3.486C10.3739 2.646 10.9899 1.932 11.8019 1.344C12.6419 0.756001 13.6779 0.308001 14.9099 1.78814e-06L16.7579 3.024ZM7.76991 3.024C6.59391 3.192 5.62791 3.612 4.87191 4.284C4.14391 4.928 3.75191 5.81 3.69591 6.93H7.47591V14.406H-8.97273e-05V8.652C-8.97273e-05 7.588 0.0699103 6.664 0.20991 5.88C0.34991 5.096 0.60191 4.284 0.96591 3.444C1.35791 2.576 1.95991 1.862 2.77191 1.302C3.61191 0.714001 4.66191 0.280002 5.92191 1.78814e-06L7.76991 3.024ZM78.9629 20.076C79.2709 20.776 79.1449 21.224 78.5849 21.42L74.0909 23.184C73.4189 23.464 72.9849 23.338 72.7889 22.806L68.1269 9.534C68.0149 9.282 67.8189 9.17 67.5389 9.198C67.2589 9.226 67.0769 9.366 66.9929 9.618L62.5829 22.806C62.3869 23.366 61.9529 23.52 61.2809 23.268L56.9129 21.798C56.3529 21.602 56.2129 21.168 56.4929 20.496L63.1289 1.596C63.2689 1.204 63.8009 1.008 64.7249 1.008H70.5209C70.8289 1.008 71.1369 1.078 71.4449 1.218C71.7809 1.358 71.9769 1.484 72.0329 1.596L78.9629 20.076ZM94.9649 6.468C94.9649 6.692 94.8809 6.888 94.7129 7.056C94.5449 7.224 94.3769 7.308 94.2089 7.308H88.8749C88.6789 7.308 88.4829 7.378 88.2869 7.518C88.1189 7.658 88.0349 7.84 88.0349 8.064V22.386C88.0349 23.114 87.7549 23.478 87.1949 23.478H82.5749C82.3229 23.478 82.1129 23.366 81.9449 23.142C81.8049 22.89 81.7349 22.666 81.7349 22.47V7.308C81.7349 6.86 81.9449 6.384 82.3649 5.88L86.5649 1.638C86.9849 1.218 87.4749 1.008 88.0349 1.008H94.1249C94.6849 1.008 94.9649 1.288 94.9649 1.848V6.468ZM88.0769 40.068C88.0769 40.264 87.9789 40.446 87.7829 40.614C87.6149 40.81 87.4329 40.908 87.2369 40.908H75.3509C74.7909 40.908 74.2729 40.67 73.7969 40.194L69.7229 36.12C69.2749 35.672 69.0509 35.168 69.0509 34.608V26.838C69.0509 26.67 69.1349 26.502 69.3029 26.334C69.4709 26.138 69.6669 26.04 69.8909 26.04H74.5109C74.7349 26.04 74.9309 26.138 75.0989 26.334C75.2669 26.53 75.3509 26.698 75.3509 26.838V33.852C75.3509 34.356 75.6309 34.608 76.1909 34.608H87.2369C87.2929 34.608 87.3769 34.622 87.4889 34.65C87.6009 34.678 87.7269 34.748 87.8669 34.86C88.0069 35 88.0769 35.182 88.0769 35.406V40.068ZM120.09 2.604C121.854 4.34 122.736 6.44 122.736 8.904C122.736 11.368 121.868 13.482 120.132 15.246C118.396 16.982 116.282 17.85 113.79 17.85C111.298 17.85 109.184 16.982 107.448 15.246C105.712 13.482 104.844 11.368 104.844 8.904C104.844 6.44 105.712 4.34 107.448 2.604C109.212 0.868001 111.326 1.78814e-06 113.79 1.78814e-06C116.254 1.78814e-06 118.354 0.868001 120.09 2.604ZM115.764 10.92C116.324 10.36 116.604 9.688 116.604 8.904C116.604 8.12 116.324 7.462 115.764 6.93C115.232 6.37 114.574 6.09 113.79 6.09C113.006 6.09 112.334 6.37 111.774 6.93C111.242 7.462 110.976 8.12 110.976 8.904C110.976 9.688 111.242 10.36 111.774 10.92C112.334 11.48 113.006 11.76 113.79 11.76C114.574 11.76 115.232 11.48 115.764 10.92ZM130.296 23.772C130.296 24.024 130.17 24.234 129.918 24.402C129.694 24.542 129.484 24.612 129.288 24.612H97.8721C97.7041 24.612 97.5221 24.528 97.3261 24.36C97.1301 24.192 97.0321 24.01 97.0321 23.814V19.488C97.0321 19.012 97.3121 18.774 97.8721 18.774H129.246C129.946 18.774 130.296 19.04 130.296 19.572V23.772ZM124.92 40.068C124.92 40.264 124.836 40.446 124.668 40.614C124.5 40.81 124.304 40.908 124.08 40.908H103.5C103.248 40.908 103.038 40.81 102.87 40.614C102.73 40.446 102.66 40.292 102.66 40.152V35.91C102.66 35.854 102.66 35.756 102.66 35.616C102.604 34.944 102.814 34.552 103.29 34.44L110.64 32.466C110.808 32.41 110.906 32.312 110.934 32.172C110.962 32.032 110.92 31.906 110.808 31.794C110.724 31.654 110.598 31.584 110.43 31.584H103.458C102.898 31.584 102.618 31.318 102.618 30.786V26.544C102.618 26.348 102.702 26.166 102.87 25.998C103.066 25.802 103.262 25.704 103.458 25.704H118.662C119.11 25.704 119.614 25.942 120.174 26.418L124.71 30.072C124.99 30.296 125.144 30.59 125.172 30.954C125.2 31.318 125.046 31.57 124.71 31.71L116.52 34.104C116.24 34.188 116.142 34.356 116.226 34.608C116.338 34.888 116.534 35.028 116.814 35.028H124.08C124.64 35.028 124.92 35.294 124.92 35.826V40.068ZM179.245 17.598C179.245 17.794 179.147 17.99 178.951 18.186C178.783 18.354 178.601 18.438 178.405 18.438H161.521C160.933 18.438 160.415 18.2 159.967 17.724L155.893 13.608C155.445 13.16 155.221 12.67 155.221 12.138V1.428C155.221 1.232 155.305 1.05 155.473 0.882C155.641 0.686001 155.837 0.588002 156.061 0.588002H160.681C160.905 0.588002 161.101 0.686001 161.269 0.882C161.437 1.078 161.521 1.26 161.521 1.428V11.34C161.521 11.872 161.801 12.138 162.361 12.138H178.405C178.965 12.138 179.245 12.404 179.245 12.936V17.598ZM183.739 26.838C183.739 27.314 183.459 27.552 182.899 27.552H171.013C170.453 27.552 170.173 27.846 170.173 28.434V35.322C170.173 35.882 169.893 36.162 169.333 36.162H164.713C164.461 36.162 164.251 36.078 164.083 35.91C163.943 35.77 163.873 35.602 163.873 35.406V28.434C163.873 28.21 163.803 28.014 163.663 27.846C163.523 27.678 163.341 27.594 163.117 27.594H151.525C150.825 27.594 150.475 27.314 150.475 26.754V22.134C150.475 21.882 150.587 21.686 150.811 21.546C151.063 21.378 151.287 21.294 151.483 21.294H182.899C183.095 21.294 183.277 21.378 183.445 21.546C183.641 21.686 183.739 21.854 183.739 22.05V26.838ZM254.181 15.918C254.181 16.114 254.083 16.31 253.887 16.506C253.719 16.674 253.537 16.758 253.341 16.758H236.457C235.869 16.758 235.351 16.52 234.903 16.044L230.829 11.928C230.381 11.48 230.157 10.99 230.157 10.458V1.428C230.157 1.232 230.241 1.05 230.409 0.882C230.577 0.686001 230.773 0.588002 230.997 0.588002H235.617C235.841 0.588002 236.037 0.686001 236.205 0.882C236.373 1.078 236.457 1.26 236.457 1.428V9.66C236.457 10.192 236.737 10.458 237.297 10.458H253.341C253.901 10.458 254.181 10.724 254.181 11.256V15.918ZM258.675 24.612C258.675 24.864 258.549 25.074 258.297 25.242C258.073 25.382 257.863 25.452 257.667 25.452H226.251C226.083 25.452 225.901 25.368 225.705 25.2C225.509 25.032 225.411 24.85 225.411 24.654V19.908C225.411 19.432 225.691 19.194 226.251 19.194H257.625C258.325 19.194 258.675 19.46 258.675 19.992V24.612ZM253.299 40.068C253.299 40.264 253.201 40.446 253.005 40.614C252.837 40.81 252.655 40.908 252.459 40.908H237.297C236.737 40.908 236.219 40.67 235.743 40.194L231.669 36.12C231.221 35.672 230.997 35.168 230.997 34.608V28.098C230.997 27.93 231.081 27.762 231.249 27.594C231.417 27.398 231.613 27.3 231.837 27.3H236.457C236.681 27.3 236.877 27.398 237.045 27.594C237.213 27.79 237.297 27.958 237.297 28.098V33.852C237.297 34.356 237.577 34.608 238.137 34.608H252.459C252.515 34.608 252.599 34.622 252.711 34.65C252.823 34.678 252.949 34.748 253.089 34.86C253.229 35 253.299 35.182 253.299 35.406V40.068ZM295.78 25.998C295.78 26.194 295.696 26.39 295.528 26.586C295.36 26.754 295.164 26.838 294.94 26.838H290.32C290.096 26.838 289.9 26.74 289.732 26.544C289.564 26.348 289.48 26.166 289.48 25.998V8.064C289.48 7.56 289.2 7.308 288.64 7.308H278.854C278.294 7.308 278.014 7.042 278.014 6.51V1.848C278.014 1.652 278.098 1.47 278.266 1.302C278.462 1.106 278.658 1.008 278.854 1.008H289.48C289.984 1.008 290.488 1.246 290.992 1.722L295.108 5.796C295.556 6.244 295.78 6.748 295.78 7.308V25.998ZM315.688 6.468C315.688 6.692 315.604 6.888 315.436 7.056C315.268 7.224 315.1 7.308 314.932 7.308H309.598C309.402 7.308 309.206 7.378 309.01 7.518C308.842 7.658 308.758 7.84 308.758 8.064V27.846C308.758 28.574 308.478 28.938 307.918 28.938H303.298C303.046 28.938 302.836 28.826 302.668 28.602C302.528 28.35 302.458 28.126 302.458 27.93V7.308C302.458 6.86 302.668 6.384 303.088 5.88L307.288 1.638C307.708 1.218 308.198 1.008 308.758 1.008H314.848C315.408 1.008 315.688 1.288 315.688 1.848V6.468ZM346.674 32.004C346.674 34.608 345.75 36.82 343.902 38.64C342.054 40.488 339.842 41.412 337.266 41.412C334.69 41.412 332.478 40.488 330.63 38.64C328.782 36.82 327.858 34.608 327.858 32.004C327.858 29.428 328.782 27.23 330.63 25.41C332.478 23.562 334.69 22.638 337.266 22.638C339.842 22.638 342.054 23.562 343.902 25.41C345.75 27.23 346.674 29.428 346.674 32.004ZM339.576 34.314C340.22 33.67 340.542 32.9 340.542 32.004C340.542 31.108 340.22 30.338 339.576 29.694C338.932 29.05 338.162 28.728 337.266 28.728C336.37 28.728 335.6 29.05 334.956 29.694C334.312 30.338 333.99 31.108 333.99 32.004C333.99 32.9 334.312 33.67 334.956 34.314C335.6 34.958 336.37 35.28 337.266 35.28C338.162 35.28 338.932 34.958 339.576 34.314ZM338.736 18.816C339.072 19.404 338.946 19.852 338.358 20.16L333.864 22.344C333.248 22.624 332.814 22.498 332.562 21.966L328.32 12.894C328.18 12.642 327.984 12.53 327.732 12.558C327.48 12.586 327.298 12.726 327.186 12.978L323.196 21.966C322.944 22.554 322.51 22.708 321.894 22.428L317.526 20.538C316.966 20.286 316.826 19.852 317.106 19.236L322.65 6.888H318.03C317.834 6.888 317.638 6.818 317.442 6.678C317.274 6.51 317.19 6.328 317.19 6.132V1.764C317.19 1.26 317.47 1.008 318.03 1.008H337.266C337.966 1.008 338.316 1.288 338.316 1.848V6.048C338.316 6.3 338.19 6.51 337.938 6.678C337.714 6.818 337.504 6.888 337.308 6.888H332.94L338.736 18.816ZM355.284 6.468C355.284 6.692 355.2 6.888 355.032 7.056C354.864 7.224 354.696 7.308 354.528 7.308H349.194C348.998 7.308 348.802 7.378 348.606 7.518C348.438 7.658 348.354 7.84 348.354 8.064V20.286C348.354 21.014 348.074 21.378 347.514 21.378H342.894C342.642 21.378 342.432 21.266 342.264 21.042C342.124 20.79 342.054 20.566 342.054 20.37V7.308C342.054 6.86 342.264 6.384 342.684 5.88L346.884 1.638C347.304 1.218 347.794 1.008 348.354 1.008H354.444C355.004 1.008 355.284 1.288 355.284 1.848V6.468ZM403.994 13.356C404.134 13.468 404.162 13.664 404.078 13.944C404.022 14.224 403.854 14.476 403.574 14.7L400.004 17.262C399.584 17.57 399.15 17.444 398.702 16.884L391.268 7.266C391.044 7.07 390.904 6.986 390.848 7.014C390.82 7.014 390.722 7.126 390.554 7.35L383.036 16.842C382.756 17.178 382.56 17.388 382.448 17.472C382.336 17.528 382.098 17.472 381.734 17.304L378.164 15.078C377.52 14.686 377.38 14.252 377.744 13.776L382.742 6.972H379.34C379.116 6.972 378.92 6.888 378.752 6.72C378.584 6.552 378.5 6.356 378.5 6.132V1.848C378.5 1.624 378.584 1.428 378.752 1.26C378.92 1.092 379.116 1.008 379.34 1.008H402.566C402.79 1.008 402.986 1.092 403.154 1.26C403.322 1.428 403.406 1.624 403.406 1.848V6.132C403.406 6.356 403.322 6.552 403.154 6.72C402.986 6.888 402.79 6.972 402.566 6.972H399.206L403.994 13.356ZM407.48 23.352C407.48 23.604 407.354 23.814 407.102 23.982C406.878 24.122 406.668 24.192 406.472 24.192H375.056C374.888 24.192 374.706 24.108 374.51 23.94C374.314 23.772 374.216 23.59 374.216 23.394V18.648C374.216 18.172 374.496 17.934 375.056 17.934H406.43C407.13 17.934 407.48 18.2 407.48 18.732V23.352ZM402.104 40.068C402.104 40.264 402.02 40.446 401.852 40.614C401.684 40.81 401.488 40.908 401.264 40.908H380.684C380.432 40.908 380.222 40.81 380.054 40.614C379.914 40.446 379.844 40.292 379.844 40.152V35.91C379.844 35.854 379.844 35.756 379.844 35.616C379.788 34.944 379.998 34.552 380.474 34.44L387.824 32.466C387.992 32.41 388.09 32.312 388.118 32.172C388.146 32.032 388.104 31.906 387.992 31.794C387.908 31.654 387.782 31.584 387.614 31.584H380.642C380.082 31.584 379.802 31.318 379.802 30.786V26.544C379.802 26.348 379.886 26.166 380.054 25.998C380.25 25.802 380.446 25.704 380.642 25.704H395.846C396.294 25.704 396.798 25.942 397.358 26.418L401.894 30.072C402.174 30.296 402.328 30.59 402.356 30.954C402.384 31.318 402.23 31.57 401.894 31.71L393.704 34.104C393.424 34.188 393.326 34.356 393.41 34.608C393.522 34.888 393.718 35.028 393.998 35.028H401.264C401.824 35.028 402.104 35.294 402.104 35.826V40.068ZM427.769 25.998C427.769 26.194 427.685 26.39 427.517 26.586C427.349 26.754 427.153 26.838 426.929 26.838H422.309C422.085 26.838 421.889 26.74 421.721 26.544C421.553 26.348 421.469 26.166 421.469 25.998V8.064C421.469 7.56 421.189 7.308 420.629 7.308H410.843C410.283 7.308 410.003 7.042 410.003 6.51V1.848C410.003 1.652 410.087 1.47 410.255 1.302C410.451 1.106 410.647 1.008 410.843 1.008H421.469C421.973 1.008 422.477 1.246 422.981 1.722L427.097 5.796C427.545 6.244 427.769 6.748 427.769 7.308V25.998ZM442.427 28.098C442.427 28.35 442.301 28.56 442.049 28.728C441.825 28.868 441.615 28.938 441.419 28.938H436.967C436.799 28.938 436.617 28.854 436.421 28.686C436.225 28.518 436.127 28.35 436.127 28.182V18.06C436.127 17.416 435.847 17.094 435.287 17.094H429.869C429.701 17.094 429.519 17.01 429.323 16.842C429.127 16.674 429.029 16.506 429.029 16.338V11.508C429.029 11.032 429.309 10.794 429.869 10.794H435.287C435.539 10.794 435.735 10.71 435.875 10.542C436.043 10.346 436.127 10.136 436.127 9.912V1.848C436.127 1.344 436.407 1.092 436.967 1.092H441.377C442.077 1.092 442.427 1.372 442.427 1.932V28.098ZM473.636 9.744C473.636 12.348 472.712 14.574 470.864 16.422C469.044 18.242 466.832 19.152 464.228 19.152C461.624 19.152 459.398 18.242 457.55 16.422C455.73 14.574 454.82 12.348 454.82 9.744C454.82 7.168 455.73 4.97 457.55 3.15C459.398 1.302 461.624 0.378002 464.228 0.378002C466.832 0.378002 469.044 1.302 470.864 3.15C472.712 4.97 473.636 7.168 473.636 9.744ZM467.168 9.744C467.168 8.932 466.874 8.246 466.286 7.686C465.726 7.098 465.04 6.804 464.228 6.804C463.416 6.804 462.716 7.098 462.128 7.686C461.568 8.246 461.288 8.932 461.288 9.744C461.288 10.584 461.568 11.298 462.128 11.886C462.716 12.446 463.416 12.726 464.228 12.726C465.04 12.726 465.726 12.446 466.286 11.886C466.874 11.298 467.168 10.584 467.168 9.744ZM480.734 25.578C480.734 26.054 480.454 26.292 479.894 26.292H468.848C468.288 26.292 468.008 26.586 468.008 27.174V31.962C468.008 32.522 467.728 32.802 467.168 32.802H462.548C462.296 32.802 462.086 32.732 461.918 32.592C461.778 32.424 461.708 32.242 461.708 32.046V27.174C461.708 26.95 461.638 26.754 461.498 26.586C461.358 26.418 461.176 26.334 460.952 26.334H448.52C447.82 26.334 447.47 26.054 447.47 25.494V20.874C447.47 20.622 447.582 20.426 447.806 20.286C448.058 20.118 448.282 20.034 448.478 20.034H479.894C480.09 20.034 480.272 20.118 480.44 20.286C480.636 20.426 480.734 20.594 480.734 20.79V25.578ZM475.358 40.068C475.358 40.264 475.26 40.446 475.064 40.614C474.896 40.81 474.714 40.908 474.518 40.908H459.356C458.796 40.908 458.278 40.67 457.802 40.194L453.728 36.12C453.28 35.672 453.056 35.168 453.056 34.608V28.938C453.056 28.77 453.14 28.602 453.308 28.434C453.476 28.238 453.672 28.14 453.896 28.14H458.516C458.74 28.14 458.936 28.238 459.104 28.434C459.272 28.63 459.356 28.798 459.356 28.938V33.852C459.356 34.356 459.636 34.608 460.196 34.608H474.518C474.574 34.608 474.658 34.622 474.77 34.65C474.882 34.678 475.008 34.748 475.148 34.86C475.288 35 475.358 35.182 475.358 35.406V40.068ZM520.359 1.848V20.958C520.359 21.154 520.261 21.35 520.065 21.546C519.897 21.714 519.715 21.798 519.519 21.798H508.053C507.465 21.798 506.947 21.56 506.499 21.084L502.425 16.968C501.977 16.52 501.753 16.03 501.753 15.498V1.848C501.753 1.652 501.837 1.47 502.005 1.302C502.173 1.106 502.369 1.008 502.593 1.008H507.213C507.437 1.008 507.633 1.106 507.801 1.302C507.969 1.498 508.053 1.68 508.053 1.848V4.494C508.053 5.054 508.319 5.334 508.851 5.334H513.303C513.527 5.334 513.709 5.25 513.849 5.082C513.989 4.886 514.059 4.69 514.059 4.494V1.764C514.059 1.288 514.339 1.05 514.899 1.05L519.309 1.008C520.009 1.008 520.359 1.288 520.359 1.848ZM514.059 14.658V12.432C514.059 11.872 513.779 11.592 513.219 11.592L508.935 11.634C508.711 11.634 508.501 11.732 508.305 11.928C508.137 12.096 508.053 12.278 508.053 12.474V14.7C508.053 15.232 508.333 15.498 508.893 15.498H513.303C513.499 15.498 513.667 15.414 513.807 15.246C513.975 15.05 514.059 14.854 514.059 14.658ZM539.427 6.468C539.427 6.692 539.343 6.888 539.175 7.056C539.007 7.224 538.839 7.308 538.671 7.308H533.337C533.141 7.308 532.945 7.378 532.749 7.518C532.581 7.658 532.497 7.84 532.497 8.064V20.706C532.497 21.434 532.217 21.798 531.657 21.798H527.037C526.785 21.798 526.575 21.686 526.407 21.462C526.267 21.21 526.197 20.986 526.197 20.79V7.308C526.197 6.86 526.407 6.384 526.827 5.88L531.027 1.638C531.447 1.218 531.937 1.008 532.497 1.008H538.587C539.147 1.008 539.427 1.288 539.427 1.848V6.468ZM530.817 32.004C530.817 34.608 529.893 36.82 528.045 38.64C526.197 40.488 523.985 41.412 521.409 41.412C518.833 41.412 516.621 40.488 514.773 38.64C512.925 36.82 512.001 34.608 512.001 32.004C512.001 29.428 512.925 27.23 514.773 25.41C516.621 23.562 518.833 22.638 521.409 22.638C523.985 22.638 526.197 23.562 528.045 25.41C529.893 27.23 530.817 29.428 530.817 32.004ZM523.719 34.314C524.363 33.67 524.685 32.9 524.685 32.004C524.685 31.108 524.363 30.338 523.719 29.694C523.075 29.05 522.305 28.728 521.409 28.728C520.513 28.728 519.743 29.05 519.099 29.694C518.455 30.338 518.133 31.108 518.133 32.004C518.133 32.9 518.455 33.67 519.099 34.314C519.743 34.958 520.513 35.28 521.409 35.28C522.305 35.28 523.075 34.958 523.719 34.314ZM560.964 1.848V20.538C560.964 20.734 560.866 20.93 560.67 21.126C560.502 21.294 560.32 21.378 560.124 21.378H548.658C548.07 21.378 547.552 21.14 547.104 20.664L543.03 16.548C542.582 16.1 542.358 15.61 542.358 15.078V1.848C542.358 1.652 542.442 1.47 542.61 1.302C542.778 1.106 542.974 1.008 543.198 1.008H547.818C548.042 1.008 548.238 1.106 548.406 1.302C548.574 1.498 548.658 1.68 548.658 1.848V4.074C548.658 4.634 548.924 4.914 549.456 4.914H553.908C554.132 4.914 554.314 4.83 554.454 4.662C554.594 4.466 554.664 4.27 554.664 4.074V1.764C554.664 1.288 554.944 1.05 555.504 1.05L559.914 1.008C560.614 1.008 560.964 1.288 560.964 1.848ZM554.664 14.238V12.012C554.664 11.452 554.384 11.172 553.824 11.172L549.54 11.214C549.316 11.214 549.106 11.312 548.91 11.508C548.742 11.676 548.658 11.858 548.658 12.054V14.28C548.658 14.812 548.938 15.078 549.498 15.078H553.908C554.104 15.078 554.272 14.994 554.412 14.826C554.58 14.63 554.664 14.434 554.664 14.238ZM574.782 20.538C574.782 20.79 574.656 21 574.404 21.168C574.18 21.308 573.97 21.378 573.774 21.378H569.322C569.154 21.378 568.972 21.294 568.776 21.126C568.58 20.958 568.482 20.79 568.482 20.622V15.12C568.482 14.476 568.202 14.154 567.642 14.154H563.064C562.896 14.154 562.714 14.07 562.518 13.902C562.322 13.734 562.224 13.566 562.224 13.398V8.568C562.224 8.092 562.504 7.854 563.064 7.854H567.642C567.894 7.854 568.09 7.77 568.23 7.602C568.398 7.406 568.482 7.196 568.482 6.972V1.848C568.482 1.344 568.762 1.092 569.322 1.092H573.732C574.432 1.092 574.782 1.372 574.782 1.932V20.538ZM573.144 23.898V40.068C573.144 40.264 573.046 40.446 572.85 40.614C572.682 40.81 572.5 40.908 572.304 40.908H560.418C559.83 40.908 559.312 40.67 558.864 40.194L554.79 36.078C554.342 35.63 554.118 35.14 554.118 34.608V23.898C554.118 23.73 554.202 23.562 554.37 23.394C554.538 23.198 554.734 23.1 554.958 23.1H559.578C559.802 23.1 559.998 23.198 560.166 23.394C560.334 23.59 560.418 23.758 560.418 23.898V26.544C560.418 26.74 560.488 26.936 560.628 27.132C560.796 27.3 561.006 27.384 561.258 27.384H566.088C566.312 27.384 566.494 27.3 566.634 27.132C566.774 26.936 566.844 26.74 566.844 26.544V23.814C566.844 23.338 567.124 23.1 567.684 23.1H572.094C572.794 23.1 573.144 23.366 573.144 23.898ZM566.844 34.608V33.222C566.844 32.662 566.578 32.382 566.046 32.382L561.3 32.424C561.104 32.424 560.908 32.522 560.712 32.718C560.516 32.886 560.418 33.068 560.418 33.264V34.65C560.418 35.182 560.698 35.448 561.258 35.448H566.088C566.284 35.448 566.452 35.364 566.592 35.196C566.76 35.028 566.844 34.832 566.844 34.608ZM597.005 5.88C597.005 10.752 595.017 13.608 591.041 14.448L589.193 11.424C591.629 11.172 592.987 9.912 593.267 7.644H589.529V0.168H597.005V5.88ZM588.059 5.88C588.059 10.808 586.071 13.664 582.095 14.448L580.247 11.424C582.683 11.172 584.041 9.912 584.321 7.644H580.583V0.168H588.059V5.88Z" fill="#383838"/>
<path d="M48.4679 1.428V18.018C48.4679 18.214 48.3699 18.41 48.1739 18.606C48.0059 18.774 47.8239 18.858 47.6279 18.858H32.4239C31.8359 18.858 31.3179 18.62 30.8699 18.144L26.7959 14.028C26.3479 13.58 26.1239 13.09 26.1239 12.558V1.428C26.1239 1.26 26.2079 1.092 26.3759 0.924C26.5439 0.728001 26.7399 0.630001 26.9639 0.630001H31.5839C31.8079 0.630001 32.0039 0.728001 32.1719 0.924C32.3399 1.12 32.4239 1.288 32.4239 1.428V4.074C32.4239 4.27 32.4939 4.466 32.6339 4.662C32.8019 4.83 33.0119 4.914 33.2639 4.914H41.4119C41.6359 4.914 41.8179 4.83 41.9579 4.662C42.0979 4.466 42.1679 4.27 42.1679 4.074V1.344C42.1679 0.868001 42.4479 0.630001 43.0079 0.630001H47.4179C48.1179 0.630001 48.4679 0.896001 48.4679 1.428ZM42.1679 12.558V10.752C42.1679 10.192 41.9019 9.912 41.3699 9.912L33.3059 9.954C33.1099 9.954 32.9139 10.052 32.7179 10.248C32.5219 10.416 32.4239 10.598 32.4239 10.794V12.6C32.4239 13.132 32.7039 13.398 33.2639 13.398H41.4119C41.6079 13.398 41.7759 13.314 41.9159 13.146C42.0839 12.978 42.1679 12.782 42.1679 12.558ZM53.8019 26.838C53.8019 27.314 53.5219 27.552 52.9619 27.552H41.0759C40.5159 27.552 40.2359 27.846 40.2359 28.434V35.322C40.2359 35.882 39.9559 36.162 39.3959 36.162H34.7759C34.5239 36.162 34.3139 36.078 34.1459 35.91C34.0059 35.77 33.9359 35.602 33.9359 35.406V28.434C33.9359 28.21 33.8659 28.014 33.7259 27.846C33.5859 27.678 33.4039 27.594 33.1799 27.594H21.5879C20.8879 27.594 20.5379 27.314 20.5379 26.754V22.134C20.5379 21.882 20.6499 21.686 20.8739 21.546C21.1259 21.378 21.3499 21.294 21.5459 21.294H52.9619C53.1579 21.294 53.3399 21.378 53.5079 21.546C53.7039 21.686 53.8019 21.854 53.8019 22.05V26.838ZM206.968 1.848V25.998C206.968 26.194 206.87 26.39 206.674 26.586C206.506 26.754 206.324 26.838 206.128 26.838H194.242C193.654 26.838 193.136 26.6 192.688 26.124L188.614 22.008C188.166 21.56 187.942 21.07 187.942 20.538V1.848C187.942 1.652 188.026 1.47 188.194 1.302C188.362 1.106 188.558 1.008 188.782 1.008H193.402C193.626 1.008 193.822 1.106 193.99 1.302C194.158 1.498 194.242 1.68 194.242 1.848V7.014C194.242 7.574 194.508 7.854 195.04 7.854H199.912C200.136 7.854 200.318 7.77 200.458 7.602C200.598 7.406 200.668 7.21 200.668 7.014V1.764C200.668 1.288 200.948 1.05 201.508 1.05L205.918 1.008C206.618 1.008 206.968 1.288 206.968 1.848ZM200.668 19.698V14.952C200.668 14.392 200.388 14.112 199.828 14.112L195.124 14.154C194.9 14.154 194.69 14.252 194.494 14.448C194.326 14.616 194.242 14.798 194.242 14.994V19.74C194.242 20.272 194.522 20.538 195.082 20.538H199.912C200.108 20.538 200.276 20.454 200.416 20.286C200.584 20.09 200.668 19.894 200.668 19.698ZM220.366 28.098C220.366 28.35 220.24 28.56 219.988 28.728C219.764 28.868 219.554 28.938 219.358 28.938L214.906 28.98C214.738 28.98 214.556 28.896 214.36 28.728C214.164 28.56 214.066 28.378 214.066 28.182V1.848C214.066 1.344 214.346 1.092 214.906 1.092H219.316C220.016 1.092 220.366 1.372 220.366 1.932V28.098Z" fill="#00BCE6"/>
</svg>
