<svg width="26" height="29" viewBox="0 0 26 29" fill="none" xmlns="http://www.w3.org/2000/svg">
<path d="M11.2625 23.1625L6.23333 18.1333L8.2875 16.0792L11.2625 19.0542L17.2125 13.1042L19.2667 15.1583L11.2625 23.1625ZM2.83333 28.3333C2.05417 28.3333 1.38715 28.0559 0.832292 27.501C0.277431 26.9462 0 26.2792 0 25.5V5.66667C0 4.8875 0.277431 4.22049 0.832292 3.66563C1.38715 3.11076 2.05417 2.83333 2.83333 2.83333H4.25V0H7.08333V2.83333H18.4167V0H21.25V2.83333H22.6667C23.4458 2.83333 24.1128 3.11076 24.6677 3.66563C25.2226 4.22049 25.5 4.8875 25.5 5.66667V25.5C25.5 26.2792 25.2226 26.9462 24.6677 27.501C24.1128 28.0559 23.4458 28.3333 22.6667 28.3333H2.83333ZM2.83333 25.5H22.6667V11.3333H2.83333V25.5ZM2.83333 8.5H22.6667V5.66667H2.83333V8.5Z" fill="#383838"/>
</svg>
