<svg width="34" height="31" viewBox="0 0 34 31" fill="none" xmlns="http://www.w3.org/2000/svg">
<path d="M16.5509 30.5376C14.6083 30.5376 12.7888 30.1685 11.0922 29.4303C9.39569 28.6922 7.91932 27.695 6.66311 26.4387C5.40689 25.1825 4.40969 23.7062 3.67151 22.0096C2.93332 20.3131 2.56423 18.4935 2.56423 16.5509C2.56423 14.6083 2.93332 12.7888 3.67151 11.0922C4.40969 9.39569 5.40689 7.91932 6.66311 6.66311C7.91932 5.40689 9.39569 4.40969 11.0922 3.67151C12.7888 2.93332 14.6083 2.56423 16.5509 2.56423C18.4935 2.56423 20.3131 2.93332 22.0096 3.67151C23.7062 4.40969 25.1825 5.40689 26.4387 6.66311C27.695 7.91932 28.6922 9.39569 29.4303 11.0922C30.1685 12.7888 30.5376 14.6083 30.5376 16.5509C30.5376 18.4935 30.1685 20.3131 29.4303 22.0096C28.6922 23.7062 27.695 25.1825 26.4387 26.4387C25.1825 27.695 23.7062 28.6922 22.0096 29.4303C20.3131 30.1685 18.4935 30.5376 16.5509 30.5376ZM20.9023 23.078L23.078 20.9023L18.105 15.9293V8.78054H14.9968V17.1726L20.9023 23.078ZM6.60483 0L8.78054 2.17571L2.17571 8.78054L0 6.60483L6.60483 0ZM26.497 0L33.1018 6.60483L30.9261 8.78054L24.3213 2.17571L26.497 0ZM16.5509 27.4295C19.5814 27.4295 22.1521 26.374 24.263 24.263C26.374 22.1521 27.4295 19.5814 27.4295 16.5509C27.4295 13.5205 26.374 10.9498 24.263 8.83881C22.1521 6.72786 19.5814 5.67238 16.5509 5.67238C13.5205 5.67238 10.9498 6.72786 8.83881 8.83881C6.72786 10.9498 5.67238 13.5205 5.67238 16.5509C5.67238 19.5814 6.72786 22.1521 8.83881 24.263C10.9498 26.374 13.5205 27.4295 16.5509 27.4295Z" fill="#383838"/>
</svg>
