<svg xmlns="http://www.w3.org/2000/svg" viewBox="0 0 207.86 90.27"><defs><style>.cls-1{fill:#46c671;}.cls-2{fill:#7cce55;}.cls-3{fill:#b2eae7;}.cls-4{fill:#f4d1d7;}.cls-5{fill:#fefaef;}.cls-6{fill:#89cadf;}.cls-7{fill:#22d9ff;}.cls-8{fill:#faa262;}.cls-9{fill:#ece659;}.cls-10{fill:#494949;}.cls-11{fill:#f5cb97;}.cls-12{fill:#00a29b;}.cls-13{fill:#eadb1f;}.cls-14{fill:#ff6059;}.cls-15{fill:#00908c;}.cls-16{fill:#e4af2d;}.cls-17{fill:#cad8ca;}.cls-18{fill:#ef4e00;}.cls-19{fill:#ffc5ae;}.cls-20{fill:#fbc4af;}.cls-21{fill:none;stroke:#82331c;stroke-linecap:round;stroke-linejoin:round;stroke-width:2px;}</style></defs><g id="Layer_2" data-name="Layer 2"><g id="Layer_1-2" data-name="Layer 1"><path class="cls-1" d="M0,57.83s216.32-3.33,207.61-3.78-54.08-29.79-60.5-30.71-7.33,1.37-11,1.83-1.38-3.66-8.25-4.58S110,24.26,104.14,25.17s.81,2.29-30.92-9.62c-14.63-5.49-25.5-1.7-36.44,2.7a15.85,15.85,0,0,0-5.1,3.33C24.07,29-.38,53.33,0,57.83Z"/><path class="cls-2" d="M144,43.64S156.46,27,164.21,28.21,183.46,52,189,54s-55.48,1.31-55.48,1.31Z"/><rect class="cls-3" x="91.82" y="47.52" width="16.43" height="14.21"/><rect class="cls-3" x="94.78" y="53.03" width="18.37" height="14.37"/><rect class="cls-3" x="111.21" y="51.36" width="16.01" height="10.52"/><rect class="cls-3" x="81.65" y="64.57" width="13.13" height="8.77"/><rect class="cls-3" x="123.51" y="64.57" width="25.62" height="13.83"/><rect class="cls-3" x="138.69" y="52.78" width="8.1" height="8.1"/><rect class="cls-3" x="157.51" y="75.17" width="7.77" height="5.03"/><rect class="cls-3" x="133.68" y="74.91" width="6.96" height="6.96"/><rect class="cls-3" x="112.47" y="77.84" width="13.49" height="6.33"/><rect class="cls-3" x="107.93" y="75.17" width="3.23" height="3.23"/><rect class="cls-3" x="101.92" y="66.7" width="13.15" height="6.33"/><rect class="cls-4" x="88.22" y="76.78" width="4.37" height="1.61"/><rect class="cls-4" x="92.58" y="62.68" width="14.92" height="10.66"/><rect class="cls-4" x="110.64" y="53.93" width="8.75" height="8.75"/><rect class="cls-4" x="88.22" y="53.03" width="13.14" height="7.18"/><rect class="cls-4" x="78.94" y="82.95" width="12.29" height="6.51"/><rect class="cls-4" x="98.08" y="71.48" width="15.07" height="8.72"/><rect class="cls-4" x="130.27" y="57.54" width="13.79" height="7.66"/><rect class="cls-4" x="111.25" y="65.2" width="8.14" height="8.14"/><rect class="cls-4" x="80.08" y="71.62" width="8.58" height="8.58"/><rect class="cls-4" x="97.61" y="77.69" width="8.01" height="8.01"/><rect class="cls-5" x="131.15" y="71.48" width="8.72" height="8.72"/><rect class="cls-5" x="80.08" y="51.27" width="12.5" height="8.32"/><rect class="cls-5" x="110.64" y="53.93" width="12.87" height="6.28"/><rect class="cls-5" x="142.79" y="57.76" width="10" height="6.81"/><rect class="cls-5" x="119.39" y="71.48" width="16.12" height="6.11"/><rect class="cls-6" x="105.62" y="56.79" width="15.6" height="7.77"/><rect class="cls-6" x="88.22" y="68.95" width="9.4" height="9.44"/><rect class="cls-6" x="78.94" y="59.59" width="7.8" height="7.8"/><rect class="cls-6" x="139.87" y="63.24" width="12.91" height="4.77"/><rect class="cls-6" x="152.32" y="64.97" width="6.08" height="6.08"/><rect class="cls-6" x="117.07" y="80.2" width="1.49" height="1.49"/><rect class="cls-6" x="74.4" y="67.39" width="4.53" height="1.88"/><rect class="cls-6" x="127.45" y="60.07" width="5.66" height="2.6"/><rect class="cls-7" x="78.94" y="55.43" width="7.4" height="1.64"/><rect class="cls-7" x="88.22" y="56.79" width="17.4" height="0.96"/><rect class="cls-7" x="111.16" y="55.52" width="4.07" height="4.07"/><rect class="cls-7" x="133.11" y="60.99" width="6.76" height="0.39"/><rect class="cls-7" x="122.25" y="62.36" width="14.07" height="2.2"/><rect class="cls-7" x="115.32" y="69.27" width="5.9" height="4.07"/><rect class="cls-7" x="88.67" y="65.62" width="8.94" height="3.33"/><rect class="cls-7" x="77.41" y="71.62" width="16.53" height="2.92"/><rect class="cls-7" x="129" y="67.29" width="14.36" height="1.04"/><rect class="cls-7" x="76.67" y="78.4" width="7.71" height="1.81"/><rect class="cls-8" x="88.22" y="57.76" width="9.4" height="7.87"/><rect class="cls-8" x="117.07" y="59.59" width="10.38" height="4.9"/><rect class="cls-8" x="122.25" y="54.62" width="11.89" height="6.7"/><rect class="cls-8" x="149.12" y="59.59" width="12.48" height="6.03"/><rect class="cls-8" x="91.22" y="75.91" width="16.27" height="7.04"/><rect class="cls-8" x="121.22" y="80.86" width="3.99"/><rect class="cls-8" x="149.12" y="71.48" width="8.39" height="8.72"/><rect class="cls-8" x="99.36" y="52.72" width="10.18" height="6.06"/><rect class="cls-3" x="37.51" y="51.67" width="14.18" height="10.24"/><rect class="cls-3" x="46.11" y="44.57" width="13.41" height="13.41"/><rect class="cls-4" x="37.51" y="67.39" width="19.74" height="8.45"/><rect class="cls-4" x="26.99" y="56.79" width="14.64" height="7.77"/><rect class="cls-4" x="47.38" y="57.98" width="12.14" height="7.22"/><rect class="cls-6" x="26.99" y="64.57" width="14.64" height="8.77"/><rect class="cls-6" x="20.13" y="60.99" width="11.44" height="8.28"/><rect class="cls-6" x="47.38" y="80.2" width="9.89" height="6"/><rect class="cls-6" x="29.73" y="80.2" width="10.06" height="5.49"/><rect class="cls-6" x="15.87" y="74.53" width="13.87" height="5.67"/><rect class="cls-7" x="34.77" y="65.62" width="6.86" height="3.33"/><rect class="cls-7" x="47.38" y="67.39" width="7.97" height="1.88"/><rect class="cls-7" x="41.63" y="73.34" width="5.75" height="2.5"/><rect class="cls-7" x="52.33" y="73.67" width="7.19" height="7.19"/><rect class="cls-7" x="21.04" y="73.34" width="8.69" height="1.19"/><rect class="cls-8" x="37.51" y="51.67" width="9.87" height="6.3"/><rect class="cls-8" x="53.45" y="61.59" width="3.8" height="10.03"/><rect class="cls-8" x="34.77" y="68.95" width="9.74" height="6.89"/><rect class="cls-8" x="42.99" y="61.59" width="8.38" height="5.81"/><rect class="cls-8" x="21.04" y="73.34" width="13.27" height="8.35"/><rect class="cls-8" x="44.5" y="75.84" width="7.82" height="5.02"/><path class="cls-9" d="M81.73,58.16a5.09,5.09,0,0,0-5.08-5.07h-10l15,24Z"/><path class="cls-9" d="M56.68,58.16V84.07a5.09,5.09,0,0,0,5.07,5.07H76.57L56.75,57.47A5.38,5.38,0,0,0,56.68,58.16Z"/><path class="cls-10" d="M81.73,84.07v-7l-15-24H61.75a5.07,5.07,0,0,0-5,4.38L76.57,89.14h.08A5.1,5.1,0,0,0,81.73,84.07Z"/><path class="cls-11" d="M74.88,54.88c.89.38,4,1.73,4.87,2.67a1.12,1.12,0,0,0,.8.37c.77,0,2.06-.29,2-2-.13-2-3.9-4.38-5.15-5.12a1.07,1.07,0,0,0-.82-.12l-2.64.71a1.08,1.08,0,0,0-.56,1.71l1.14,1.42A1,1,0,0,0,74.88,54.88Z"/><path class="cls-12" d="M85.38,51.88C85.13,48.52,80,46.11,80,46.11c-1-.89-.79-11.67-.68-16.16A7.25,7.25,0,0,0,82,27.1c1.7-3.21.84-7-1.9-8.44a5.57,5.57,0,0,0-5.9.67c-2-.33-2.48-1-2.48-1L60.45,21.07v1c-2.29-2.6-5.92-3.22-8.26-1.35s-2.57,5.81-.3,8.65S58,33,60.39,31.05c0,0-1.08,15.65-3.66,16.27s-4.35,4.93-4.15,7.12,1,2,1,2l21.18-.74c1.27,0-.11-3.23-.11-3.23.55,1.8,9.23.46,9.23.46C86.18,52.63,85.38,51.88,85.38,51.88Z"/><path class="cls-13" d="M76.85,6.19a3.57,3.57,0,0,0-3.56-3.57h-.13A3.57,3.57,0,0,0,69.72,0a3.51,3.51,0,0,0-2.15.73,3.56,3.56,0,0,0-5.62,2,3.41,3.41,0,0,0-.85-.11,3.56,3.56,0,0,0-3.56,3.57,3,3,0,0,0,0,.52,3.55,3.55,0,0,0,.72,6.42,3.55,3.55,0,0,0,3.55,3.34h.27a6.71,6.71,0,0,0,12.31-2.4,3.56,3.56,0,0,0,2.42-3.37,3.53,3.53,0,0,0-.8-2.25A3.57,3.57,0,0,0,76.85,6.19ZM64.56,7h0l0,0Z"/><rect class="cls-14" x="60.14" y="16.06" width="13.74" height="4.76" rx="2.18"/><path class="cls-14" d="M60.14,18.44s-6.47,2.61-5.44,14.13,1.3,14,1.68,14.36,3.74,5,4.72,4.53,1.43-9.45.75-12.55S59.76,22.66,63,20.82,60.14,18.44,60.14,18.44Z"/><path class="cls-15" d="M73,52.31a.82.82,0,0,1-.73-.44C71.1,49.52,72,46,72.21,45.2l-.87-16.3a.8.8,0,0,1,.76-.85.81.81,0,0,1,.85.76l.88,16.44a.67.67,0,0,1,0,.28c-.3,1-.9,3.94,0,5.6a.81.81,0,0,1-.36,1.09A.77.77,0,0,1,73,52.31Z"/><path class="cls-16" d="M81.4,57.49a.22.22,0,0,1-.19-.13c-.58-1.47-2.94-2.54-3-2.55a.2.2,0,0,1-.1-.26.21.21,0,0,1,.27-.11c.1.05,2.54,1.14,3.18,2.77a.2.2,0,0,1-.11.26Z"/><path class="cls-16" d="M82.07,56.68a.2.2,0,0,1-.19-.13,4.73,4.73,0,0,0-2.11-2.06.21.21,0,0,1,.19-.37,5.15,5.15,0,0,1,2.3,2.3.19.19,0,0,1-.13.25Z"/><path class="cls-9" d="M137.27,58.67a5.09,5.09,0,0,0-5.07-5.08h-10l15,24Z"/><path class="cls-9" d="M112.23,58.67v25.9a5.08,5.08,0,0,0,5.07,5.07h14.82L112.3,58A5.35,5.35,0,0,0,112.23,58.67Z"/><path class="cls-10" d="M137.27,84.57V77.62l-15-24H117.3a5.07,5.07,0,0,0-5,4.38l19.82,31.67h.08A5.08,5.08,0,0,0,137.27,84.57Z"/><rect class="cls-9" x="15.78" y="81.01" width="153.6" height="9.26"/><rect class="cls-7" x="22.8" y="52.72" width="8.76" height="8.27"/><rect class="cls-4" x="31.56" y="44.57" width="10.88" height="13.41"/><rect class="cls-5" x="13.46" y="52.72" width="9.34" height="17.15"/><rect class="cls-5" x="28.48" y="38.64" width="6.18" height="14.45"/><rect class="cls-17" x="15.87" y="47.4" width="4.26" height="8.12"/><rect class="cls-4" x="9.58" y="61.91" width="11.46" height="11.43"/><rect class="cls-3" x="42.99" y="40.18" width="5.77" height="14.75"/><rect class="cls-4" x="24.59" y="44.07" width="4.8" height="12.18"/><rect class="cls-3" x="16.98" y="36.32" width="6.28" height="16.49"/><path class="cls-18" d="M126.28,29.91s6.81-7.63,10.16-5.62c0,0-.73,12-5.05,10.62A7.41,7.41,0,0,1,126.28,29.91Z"/><path class="cls-18" d="M124.08,29.91s-6.81-7.63-10.16-5.62c0,0,.73,12,5,10.62A7.41,7.41,0,0,0,124.08,29.91Z"/><path class="cls-18" d="M121.72,29.44s4,.76,5.69,0,5.28,6.36,4.91,7.75-3.93,2.74-5.29,3.21a5.68,5.68,0,0,1-4.78-.64c-1.43-1-3.55-.8-4.43-2.8S121.72,29.44,121.72,29.44Z"/><path class="cls-19" d="M113.92,24.33l.42,3.51s3.15.06,3.94-2.8C118.28,25,115.39,23.18,113.92,24.33Z"/><path class="cls-19" d="M136.44,24.33,136,27.84s-3.15.06-3.94-2.8C132.08,25,135,23.18,136.44,24.33Z"/><path class="cls-20" d="M117.83,36.4a1.3,1.3,0,0,1,.57-.27l.08,0h.44l.08,0a.21.21,0,0,0,.26-.15.21.21,0,0,0-.14-.26,1.86,1.86,0,0,0-1.5.32.21.21,0,1,0,.21.37Z"/><path class="cls-20" d="M117.9,37.08a1,1,0,0,1,.25-.12l.16,0s.09,0,0,0h.35l.15,0,.07,0h0s0,0,0,0a.22.22,0,0,0,.29-.08.21.21,0,0,0-.08-.29,1.58,1.58,0,0,0-1.49.08.21.21,0,1,0,.21.37Z"/><path class="cls-20" d="M118.87,37.89l0-.06h0l0,0,0,0s0,0,0,0l0,0,.06,0h0s0,0,0,0a.7.7,0,0,1,.14,0h.05l.13,0a.18.18,0,0,0,.16,0,.26.26,0,0,0,.1-.13.23.23,0,0,0,0-.16.31.31,0,0,0-.13-.1.84.84,0,0,0-1,.38.23.23,0,0,0,.08.29.21.21,0,0,0,.29-.08Z"/><path class="cls-20" d="M132.22,37.5a1.78,1.78,0,0,0-.41-.6,1.65,1.65,0,0,0-.63-.36.21.21,0,1,0-.11.41l.08,0h0s-.05,0,0,0l.13.06.13.09s0,0,0,0,0,0,0,0l.06.05.1.11,0,0s0,0,0,0l0,0,.07.12a.25.25,0,0,1,0,.07l0,0s0,0,0,0a.2.2,0,0,0,.26.15.22.22,0,0,0,.15-.26Z"/><path class="cls-20" d="M132,37.9a1.47,1.47,0,0,0-1.2-.5.21.21,0,0,0-.21.21.21.21,0,0,0,.21.22H131l.14,0,.07,0,.06,0s0,0,0,0l0,0,.06,0,.12.07s0,0,0,0h0l.06,0,.1.11a.21.21,0,0,0,.3-.3Z"/><path class="cls-20" d="M132.38,36.75a2.88,2.88,0,0,0-1.14-.77.21.21,0,0,0-.26.15.22.22,0,0,0,.15.26h0s0,0,0,0h.06l.14.07a2.26,2.26,0,0,1,.26.16l.06,0,0,0h0l0,0,.06,0a2.39,2.39,0,0,1,.23.22.21.21,0,1,0,.3-.3Z"/><path class="cls-18" d="M122.25,39.76s-2.55,11.16-3.17,13.08,5.76,3.85,7.2,3.53,4.92-1.76,5.43-2.89-6.08-15-3.5-15.43S122.25,39.76,122.25,39.76Z"/><path class="cls-20" d="M134.81,48.87c-.44-1.91-1.29-3.49-.21-5.75.62-1.29,2.4-2.06,3.28-2.67a.31.31,0,0,0-.18-.56c-2.29,0-7.68-.59-7.88,4.63C130.73,46.5,132.32,48.81,134.81,48.87Z"/><path class="cls-18" d="M129.82,44.52c0,.15,0,.3,0,.47.13,7.2-1.56,3.15-1.56,3.15l-2.48,8.22s8.08-.26,9-4.1a6.9,6.9,0,0,0,0-3.39C132.32,48.81,130.73,46.5,129.82,44.52Z"/><path class="cls-21" d="M129.82,47.52s-4.25-.59-4,2.92"/></g></g></svg>