<svg xmlns="http://www.w3.org/2000/svg" viewBox="0 0 82.71 60.96"><defs><style>.cls-1{fill:#a8cacc;}.cls-2{fill:#9bc5c6;}.cls-3{fill:#6caeb7;}.cls-4{fill:#9fc8d6;}.cls-5{fill:#c0feff;}.cls-6{fill:#91aab5;}.cls-7{fill:#822119;}.cls-8{fill:#ff8f57;}.cls-9{fill:#c15f34;}.cls-10{fill:#ba3a2c;}.cls-11{fill:#fff;}</style></defs><g id="Layer_2" data-name="Layer 2"><g id="Layer_1-2" data-name="Layer 1"><path class="cls-1" d="M22.27,57.9V32.72S2.77,29.59,0,57.9Z"/><path class="cls-2" d="M26.67,57.9V32.72S7.17,29.59,4.39,57.9Z"/><path class="cls-3" d="M32.9,57.9V32.72S13.4,29.59,10.63,57.9Z"/><rect class="cls-4" x="33.72" width="47.85" height="59.38" rx="2"/><rect class="cls-4" x="17.95" y="12.25" width="21.14" height="47.06" rx="2"/><rect class="cls-5" x="37.72" y="14.02" width="6.73" height="7.75"/><rect class="cls-5" x="46" y="14.02" width="6.73" height="7.75"/><rect class="cls-5" x="54.28" y="14.02" width="6.73" height="7.75"/><rect class="cls-5" x="62.56" y="14.02" width="6.73" height="7.75"/><rect class="cls-5" x="70.85" y="14.02" width="6.73" height="7.75"/><rect class="cls-6" x="38.19" y="23.74" width="6.73" height="7.75"/><rect class="cls-5" x="46.47" y="23.74" width="6.73" height="7.75"/><rect class="cls-5" x="54.75" y="23.74" width="6.73" height="7.75"/><rect class="cls-5" x="63.04" y="23.74" width="6.73" height="7.75"/><rect class="cls-5" x="71.32" y="23.74" width="6.73" height="7.75"/><rect class="cls-7" x="57.39" y="29.99" width="24.18" height="29.38"/><rect class="cls-8" x="74.79" y="16.99" width="7.92" height="43.98" rx="2"/><rect class="cls-8" x="65.52" y="37.93" width="7.92" height="23.03" rx="2"/><rect class="cls-7" x="36.03" y="31.15" width="24.18" height="28.23"/><rect class="cls-8" x="29.76" y="16.99" width="7.92" height="43.98" rx="2"/><rect class="cls-8" x="56.25" y="16.99" width="7.92" height="43.98" rx="2"/><path class="cls-8" d="M36,17s16.35,11.34,22.09,8V35L36,35.78Z"/><rect class="cls-9" x="29.76" y="36.97" width="7.92" height="4"/><rect class="cls-9" x="29.76" y="44.46" width="7.92" height="4"/><rect class="cls-9" x="56.25" y="36.97" width="7.92" height="4"/><rect class="cls-9" x="29.76" y="27.99" width="34.4" height="4"/><rect class="cls-9" x="56.25" y="44.46" width="7.92" height="4"/><rect class="cls-9" x="65.52" y="47.45" width="7.92" height="2.67"/><rect class="cls-9" x="65.52" y="53.14" width="7.92" height="2.63"/><rect class="cls-10" x="66.94" y="46.46" width="5.08" height="9.87"/><rect class="cls-5" x="37.68" y="4.05" width="6.73" height="7.75"/><rect class="cls-11" x="19.5" y="16.48" width="3.11" height="7.75"/><rect class="cls-11" x="19.5" y="26.12" width="3.11" height="7.75"/><rect class="cls-11" x="19.5" y="35.76" width="3.11" height="7.75"/><rect class="cls-11" x="19.5" y="45.39" width="3.11" height="7.75"/><rect class="cls-11" x="23.56" y="16.48" width="3.11" height="7.75"/><rect class="cls-11" x="23.56" y="26.12" width="3.11" height="7.75"/><rect class="cls-11" x="23.56" y="35.76" width="3.11" height="7.75"/><rect class="cls-11" x="23.56" y="45.39" width="3.11" height="7.75"/><rect class="cls-5" x="45.96" y="4.05" width="6.73" height="7.75"/><rect class="cls-5" x="54.25" y="4.05" width="6.73" height="7.75"/><rect class="cls-5" x="62.53" y="4.05" width="6.73" height="7.75"/><rect class="cls-5" x="70.81" y="4.05" width="6.73" height="7.75"/></g></g></svg>