<svg xmlns="http://www.w3.org/2000/svg" viewBox="0 0 97.52 62.31"><defs><style>.cls-1{fill:#70b4f2;}.cls-2{fill:#feffff;}.cls-3{fill:#d5edf7;}.cls-4{fill:#f2f2f2;}.cls-5{fill:#fffffe;}</style></defs><g id="Layer_2" data-name="Layer 2"><g id="Layer_1-2" data-name="Layer 1"><path class="cls-1" d="M82.61,6.44,5.47,34.83a4.54,4.54,0,0,0-3,4.26V56.76A4.55,4.55,0,0,0,7,61.31H84.18a4.55,4.55,0,0,0,4.54-4.55v-46A4.54,4.54,0,0,0,82.61,6.44Z"/><path class="cls-2" d="M93.45,7.71,2.61,38.8c-1.53.52-2.7,0-2.6-1.16l.24-3c.1-1.18,1.44-2.58,3-3.11L95.28.19c1.51-.52,2.49.07,2.18,1.31L96.7,4.58A5.31,5.31,0,0,1,93.45,7.71Z"/><rect class="cls-2" x="28.12" y="35.97" width="4.59" height="25.33"/><rect class="cls-3" x="32.71" y="38.75" width="5.7" height="22.56"/><rect class="cls-3" x="42.76" y="38.75" width="5.7" height="22.56"/><rect class="cls-3" x="52.81" y="38.75" width="5.7" height="22.56"/><rect class="cls-3" x="62.86" y="38.75" width="5.7" height="22.56"/><rect class="cls-3" x="72.9" y="38.75" width="5.7" height="22.56"/><rect class="cls-2" x="28.12" y="35.97" width="51.79" height="5.56" rx="2.78"/><path class="cls-4" d="M26.57,62.31H15.75a1.55,1.55,0,0,1-1.54-1.75L21,6a1.55,1.55,0,0,1,1.54-1.36h4a1.55,1.55,0,0,1,1.55,1.55V60.75A1.56,1.56,0,0,1,26.57,62.31Z"/><path class="cls-5" d="M51.77,29.34a2.17,2.17,0,0,1,1.75,1.93A2.45,2.45,0,0,1,51.23,34a5.43,5.43,0,0,1-2.64-.31c-.12.31-.56.22-.81.19s-.72,0-.7-.36c.06-1.33.19-4,.16-6.15a.77.77,0,0,1-.47-.36c-.16-.44-.1-.79.28-.94a7.84,7.84,0,0,1,2.36-.42,5.55,5.55,0,0,1,2.26.34,1.89,1.89,0,0,1,1.13,1.49A1.85,1.85,0,0,1,51.77,29.34Zm-1.35,1.13L49,30.62c0,.65-.09,1.15-.15,1.66a4.22,4.22,0,0,0,1.69.14c.7-.07,1.26-.31,1.25-1.11C51.75,30.73,51.22,30.33,50.42,30.47Zm-1.34-3.21c0,.63,0,1.09,0,1.87L50,29a1.1,1.1,0,0,0,1.06-1.3C50.94,27.22,50.33,27,49.08,27.26Z"/><path class="cls-5" d="M54.34,26.82a1,1,0,0,1,1-1.17,32.8,32.8,0,0,1,3.78.23c.31.06.32.43.33.7s-.06.52-.34.57-1.83.2-2.55.22l-.06,1.75a24.9,24.9,0,0,1,3.12.17c.21.06.2.31.19.54s0,.82-.31.84l-3,.16-.05,1.3a20.07,20.07,0,0,1,3.05.16c.21.06.2.32.2.54s0,.83-.32.86c-.67,0-3.22.19-4.17.23-.43,0-.57-.17-.59-.57Z"/><path class="cls-5" d="M66.24,25.79c.43.29.72.7.57.9-.4.69-1.13,1.85-1.91,3.07.83,1.3,1.57,2.53,1.89,3.13.18.32-.25.59-.48.76s-.58.48-.76.21l-1.72-2.47a18.71,18.71,0,0,1-2,2.59c-.29.24-.66-.14-.85-.32s-.51-.44-.33-.71c.46-.72,1.25-1.91,2.05-3.16-.84-1.17-1.65-2.29-2.19-3-.16-.14,0-.54.39-.89s.81-.59,1-.41a23.54,23.54,0,0,1,1.9,2.55c.61-1,1.15-1.87,1.5-2.5C65.41,25.4,65.84,25.54,66.24,25.79Z"/><path class="cls-5" d="M72.68,27.6c-.24.11-.3,0-1,0a3.18,3.18,0,0,0-1,.14,2.06,2.06,0,0,0-1.25,2.06c0,1.2.35,2.27,1.73,2.51a4.69,4.69,0,0,0,1.27-.08c.44-.11.71-.11.87.13a.85.85,0,0,1-.08,1.13A3.35,3.35,0,0,1,70.9,34c-1.54-.1-3.31-1-3.31-3.83a4.1,4.1,0,0,1,1.63-3.66,3.93,3.93,0,0,1,3.56-.27A.91.91,0,0,1,72.68,27.6Z"/><path class="cls-5" d="M74.16,30.06a8.67,8.67,0,0,1,2.26-4.13,1.37,1.37,0,0,1,1.61-.4c.29.11.87.57.7,1a5.36,5.36,0,0,1,1,4c-.21,1.62-1.17,3.65-3.59,3.45C74.6,33.83,73.68,32.56,74.16,30.06Zm2.33,2.46c.76,0,1.41-1.35,1.48-1.82a3.77,3.77,0,0,0-.5-2.85,4.58,4.58,0,0,0-1.25,1.94C75.66,31.26,75.75,32.54,76.49,32.52Z"/></g></g></svg>