<svg width="115" height="57" viewBox="0 0 115 57" fill="none" xmlns="http://www.w3.org/2000/svg">
<path d="M113.284 29.6597H1.07347C0.480609 29.6597 0 30.1403 0 30.7331C0 31.326 0.480609 31.8066 1.07347 31.8066H113.284C113.877 31.8066 114.358 31.326 114.358 30.7331C114.358 30.1403 113.877 29.6597 113.284 29.6597Z" fill="#73A5AE"/>
<path d="M112.211 34.4836H2.14694C0.961219 34.4836 0 35.4434 0 36.6273C0 37.8112 0.961219 38.7709 2.14694 38.7709H112.211C113.397 38.7709 114.358 37.8112 114.358 36.6273C114.358 35.4434 113.397 34.4836 112.211 34.4836Z" fill="#73A5AE"/>
<path d="M91.4836 1.96803C91.4836 0.881117 90.604 0 89.5189 0C88.4338 0 87.5542 0.881117 87.5542 1.96803V53.0706C87.5542 54.1575 88.4338 55.0386 89.5189 55.0386C90.604 55.0386 91.4836 54.1575 91.4836 53.0706V1.96803Z" fill="#73A5AE"/>
<path d="M82.3723 1.96803C82.3723 0.881117 81.4927 0 80.4076 0C79.3225 0 78.4429 0.881117 78.4429 1.96803V53.0706C78.4429 54.1575 79.3225 55.0386 80.4076 55.0386C81.4927 55.0386 82.3723 54.1575 82.3723 53.0706V1.96803Z" fill="#73A5AE"/>
<path d="M36.0539 1.96803C36.0539 0.881117 35.1743 0 34.0892 0C33.0041 0 32.1245 0.881117 32.1245 1.96803V53.0706C32.1245 54.1575 33.0041 55.0386 34.0892 55.0386C35.1743 55.0386 36.0539 54.1575 36.0539 53.0706V1.96803Z" fill="#73A5AE"/>
<path d="M26.9426 1.96803C26.9426 0.881117 26.063 0 24.9779 0C23.8928 0 23.0132 0.881117 23.0132 1.96803V53.0706C23.0132 54.1575 23.8928 55.0386 24.9779 55.0386C26.063 55.0386 26.9426 54.1575 26.9426 53.0706V1.96803Z" fill="#73A5AE"/>
<path d="M26.9428 42.5281C26.9428 42.5281 28.7717 39.6721 29.6597 40.2022C30.5476 40.7323 32.1247 41.6335 32.1247 42.5281C32.1247 43.4226 32.8801 36.6306 32.8801 36.6306H24.9814L26.9428 42.5281Z" fill="#73A5AE"/>
<path d="M26.9428 14.6509C26.9428 14.6509 28.7717 11.7949 29.6597 12.3317C30.5476 12.8684 32.1247 13.7563 32.1247 14.6509C32.1247 15.5454 32.8801 8.75342 32.8801 8.75342H24.9814L26.9428 14.6509Z" fill="#73A5AE"/>
<path d="M26.9428 5.85119C26.9428 5.85119 28.7717 8.70715 29.6597 8.17042C30.5476 7.63368 32.1247 6.73912 32.1247 5.85119C32.1247 4.96325 32.8801 11.742 32.8801 11.742H24.9814L26.9428 5.85119Z" fill="#73A5AE"/>
<path d="M82.3725 14.6509C82.3725 14.6509 84.2014 11.7949 85.096 12.3317C85.9905 12.8684 87.5544 13.7563 87.5544 14.6509C87.5544 15.5454 88.3098 8.75342 88.3098 8.75342H80.4111L82.3725 14.6509Z" fill="#73A5AE"/>
<path d="M82.3725 5.85119C82.3725 5.85119 84.2014 8.70715 85.096 8.17042C85.9905 7.63368 87.5544 6.73912 87.5544 5.85119C87.5544 4.96325 88.3098 11.742 88.3098 11.742H80.4111L82.3725 5.85119Z" fill="#73A5AE"/>
<path d="M82.3725 42.5281C82.3725 42.5281 84.2014 39.6721 85.096 40.2022C85.9905 40.7323 87.5544 41.6335 87.5544 42.5281C87.5544 43.4226 88.3098 36.6306 88.3098 36.6306H80.4111L82.3725 42.5281Z" fill="#73A5AE"/>
<path d="M38.2409 52.176H20.0117V57H38.2409V52.176Z" fill="#73A5AE"/>
<path d="M94.3527 52.176H76.1235V57H94.3527V52.176Z" fill="#73A5AE"/>
<path d="M2.07414 31.3891L1.85547 30.0638C19.084 27.1681 24.2923 8.76666 24.3387 8.61426L25.6176 8.96546C25.5646 9.12449 20.1509 28.3144 2.07414 31.3891Z" fill="#73A5AE"/>
<path d="M57.8018 31.3891C39.7582 28.3144 34.3113 9.12449 34.2583 8.93232L35.5372 8.61426C35.5902 8.7998 40.7919 27.1681 58.0204 30.1168L57.8018 31.3891Z" fill="#73A5AE"/>
<path d="M56.4965 31.3891L56.2778 30.0638C73.5064 27.135 78.7081 8.74682 78.7611 8.56128L80.04 8.91248C79.987 9.12452 74.5732 28.3145 56.4965 31.3891Z" fill="#73A5AE"/>
<path d="M112.224 31.389C94.1474 28.3144 88.7337 9.12442 88.6807 8.93225L89.9595 8.58105C90.0059 8.76659 95.2143 27.1349 112.443 30.0836L112.224 31.389Z" fill="#73A5AE"/>
<path d="M6.56014 30.7329H5.23486V35.9147H6.56014V30.7329Z" fill="#73A5AE"/>
<path d="M3.2535 30.7329H1.92822V35.9147H3.2535V30.7329Z" fill="#73A5AE"/>
<path d="M9.95271 30.7329H8.62744V35.9147H9.95271V30.7329Z" fill="#73A5AE"/>
<path d="M13.3521 30.7329H12.0269V35.9147H13.3521V30.7329Z" fill="#73A5AE"/>
<path d="M16.7447 30.7329H15.4194V35.9147H16.7447V30.7329Z" fill="#73A5AE"/>
<path d="M20.1378 30.7329H18.8125V35.9147H20.1378V30.7329Z" fill="#73A5AE"/>
<path d="M23.5367 30.7329H22.2114V35.9147H23.5367V30.7329Z" fill="#73A5AE"/>
<path d="M26.9298 30.7329H25.6045V35.9147H26.9298V30.7329Z" fill="#73A5AE"/>
<path d="M30.3219 30.7329H28.9966V35.9147H30.3219V30.7329Z" fill="#73A5AE"/>
<path d="M33.7218 30.7329H32.3965V35.9147H33.7218V30.7329Z" fill="#73A5AE"/>
<path d="M37.1143 30.7329H35.7891V35.9147H37.1143V30.7329Z" fill="#73A5AE"/>
<path d="M40.5069 30.7329H39.1816V35.9147H40.5069V30.7329Z" fill="#73A5AE"/>
<path d="M43.9063 30.7329H42.5811V35.9147H43.9063V30.7329Z" fill="#73A5AE"/>
<path d="M47.2989 30.7329H45.9736V35.9147H47.2989V30.7329Z" fill="#73A5AE"/>
<path d="M50.6983 30.7329H49.373V35.9147H50.6983V30.7329Z" fill="#73A5AE"/>
<path d="M54.0909 30.7329H52.7656V35.9147H54.0909V30.7329Z" fill="#73A5AE"/>
<path d="M57.484 30.7329H56.1587V35.9147H57.484V30.7329Z" fill="#73A5AE"/>
<path d="M60.8829 30.7329H59.5576V35.9147H60.8829V30.7329Z" fill="#73A5AE"/>
<path d="M64.276 30.7329H62.9507V35.9147H64.276V30.7329Z" fill="#73A5AE"/>
<path d="M67.6685 30.7329H66.3433V35.9147H67.6685V30.7329Z" fill="#73A5AE"/>
<path d="M71.0679 30.7329H69.7427V35.9147H71.0679V30.7329Z" fill="#73A5AE"/>
<path d="M74.4605 30.7329H73.1353V35.9147H74.4605V30.7329Z" fill="#73A5AE"/>
<path d="M77.8531 30.7329H76.5278V35.9147H77.8531V30.7329Z" fill="#73A5AE"/>
<path d="M81.2525 30.7329H79.9272V35.9147H81.2525V30.7329Z" fill="#73A5AE"/>
<path d="M84.6456 30.7329H83.3203V35.9147H84.6456V30.7329Z" fill="#73A5AE"/>
<path d="M88.0445 30.7329H86.7192V35.9147H88.0445V30.7329Z" fill="#73A5AE"/>
<path d="M91.4376 30.7329H90.1123V35.9147H91.4376V30.7329Z" fill="#73A5AE"/>
<path d="M94.8297 30.7329H93.5044V35.9147H94.8297V30.7329Z" fill="#73A5AE"/>
<path d="M98.2296 30.7329H96.9043V35.9147H98.2296V30.7329Z" fill="#73A5AE"/>
<path d="M101.622 30.7329H100.296V35.9147H101.622V30.7329Z" fill="#73A5AE"/>
<path d="M105.015 30.7329H103.689V35.9147H105.015V30.7329Z" fill="#73A5AE"/>
<path d="M11.5899 27.5193H10.9272V29.7126H11.5899V27.5193Z" fill="#73A5AE"/>
<path d="M13.8028 25.4055H13.1401V29.706H13.8028V25.4055Z" fill="#73A5AE"/>
<path d="M16.0157 23.4839H15.353V29.7127H16.0157V23.4839Z" fill="#73A5AE"/>
<path d="M18.2359 21.5491H17.5732V29.7061H18.2359V21.5491Z" fill="#73A5AE"/>
<path d="M20.4488 18.6863H19.7861V29.7126H20.4488V18.6863Z" fill="#73A5AE"/>
<path d="M22.6621 15.1875H21.9995V29.7125H22.6621V15.1875Z" fill="#73A5AE"/>
<path d="M24.8819 27.5193H24.2192V29.7126H24.8819V27.5193Z" fill="#73A5AE"/>
<path d="M27.0953 27.5193H26.4326V29.7126H27.0953V27.5193Z" fill="#73A5AE"/>
<path d="M33.7412 27.5193H33.0786V29.7126H33.7412V27.5193Z" fill="#73A5AE"/>
<path d="M35.9546 27.5193H35.292V29.7126H35.9546V27.5193Z" fill="#73A5AE"/>
<path d="M38.1744 15.5918H37.5117V29.7126H38.1744V15.5918Z" fill="#73A5AE"/>
<path d="M40.3877 19.7466H39.7251V29.7126H40.3877V19.7466Z" fill="#73A5AE"/>
<path d="M42.6011 21.9597H41.9385V29.7126H42.6011V21.9597Z" fill="#73A5AE"/>
<path d="M44.814 24.2659H44.1514V29.7127H44.814V24.2659Z" fill="#73A5AE"/>
<path d="M47.0337 26.0217H46.3711V29.706H47.0337V26.0217Z" fill="#73A5AE"/>
<path d="M49.2471 27.5193H48.5845V29.7126H49.2471V27.5193Z" fill="#73A5AE"/>
<path d="M64.753 27.5193H64.0903V29.7126H64.753V27.5193Z" fill="#73A5AE"/>
<path d="M66.9659 26.3464H66.3032V29.7126H66.9659V26.3464Z" fill="#73A5AE"/>
<path d="M69.1861 24.9749H68.5234V29.7127H69.1861V24.9749Z" fill="#73A5AE"/>
<path d="M71.399 22.9736H70.7363V29.7126H71.399V22.9736Z" fill="#73A5AE"/>
<path d="M73.6123 20.3828H72.9497V29.7127H73.6123V20.3828Z" fill="#73A5AE"/>
<path d="M75.8321 17.063H75.1694V29.7061H75.8321V17.063Z" fill="#73A5AE"/>
<path d="M77.9722 14.2002H77.3096V29.7059H77.9722V14.2002Z" fill="#73A5AE"/>
<path d="M80.1128 27.5193H79.4502V29.7126H80.1128V27.5193Z" fill="#73A5AE"/>
<path d="M82.253 27.5193H81.5903V29.7126H82.253V27.5193Z" fill="#73A5AE"/>
<path d="M88.6739 27.5193H88.0112V29.7126H88.6739V27.5193Z" fill="#73A5AE"/>
<path d="M90.8208 27.5193H90.1582V29.7126H90.8208V27.5193Z" fill="#73A5AE"/>
<path d="M92.9615 16.2412H92.2988V29.7126H92.9615V16.2412Z" fill="#73A5AE"/>
<path d="M95.1016 18.9182H94.439V29.7059H95.1016V18.9182Z" fill="#73A5AE"/>
<path d="M97.2417 22.3374H96.5791V29.7125H97.2417V22.3374Z" fill="#73A5AE"/>
<path d="M99.3824 24.2659H98.7197V29.7127H99.3824V24.2659Z" fill="#73A5AE"/>
<path d="M101.522 26.0217H100.86V29.706H101.522V26.0217Z" fill="#73A5AE"/>
<path d="M103.663 27.5193H103V29.7126H103.663V27.5193Z" fill="#73A5AE"/>
<path d="M105.803 28.6125H105.141V29.7059H105.803V28.6125Z" fill="#73A5AE"/>
</svg>
