<svg xmlns="http://www.w3.org/2000/svg" viewBox="0 0 102.02 75.04"><defs><style>.cls-1{fill:#f7a59c;}.cls-2{fill:#6d350f;}.cls-3{fill:#edfced;}.cls-4{fill:#fff;}.cls-5{fill:#e9432d;}.cls-6{fill:#60b9da;}.cls-7{fill:#a2d8d8;}.cls-8{fill:#00619f;}</style></defs><g id="Layer_2" data-name="Layer 2"><g id="Layer_1-2" data-name="Layer 1"><path class="cls-1" d="M67.67,4.33,20.47,60.05a1.26,1.26,0,0,1-1.81.1l-7.32-6.79a1.26,1.26,0,0,1,0-1.82L63.4.36a1.26,1.26,0,0,1,1.74,0L67.57,2.6A1.25,1.25,0,0,1,67.67,4.33Z"/><path class="cls-2" d="M14.37,53.94V48.88a.54.54,0,0,1,.54-.53.54.54,0,0,1,.54.53v2.48L66.08,1.18a.53.53,0,1,1,.75.76Z"/><line class="cls-2" x1="25.77" y1="53.79" x2="68.45" y2="3.41"/><path class="cls-2" d="M25.77,54.33a.53.53,0,0,1-.35-.13.55.55,0,0,1-.06-.76L68,3.07A.54.54,0,0,1,68.8,3a.55.55,0,0,1,.06.76L26.18,54.14A.56.56,0,0,1,25.77,54.33Z"/><path class="cls-2" d="M34.28,46.43a.55.55,0,0,1-.38-.15l-6.34-6.16a.55.55,0,0,1,0-.76.54.54,0,0,1,.76,0l6.34,6.16a.53.53,0,0,1,0,.76A.51.51,0,0,1,34.28,46.43Z"/><path class="cls-2" d="M29.65,52.05a.54.54,0,0,1-.37-.16L22.5,45.3a.54.54,0,0,1,0-.76.53.53,0,0,1,.76,0L30,51.12a.55.55,0,0,1,0,.76A.56.56,0,0,1,29.65,52.05Z"/><path class="cls-2" d="M33.29,45.45H22.88a.54.54,0,0,1-.54-.54.54.54,0,0,1,.54-.54H33.29a.54.54,0,0,1,.54.54A.54.54,0,0,1,33.29,45.45Z"/><path class="cls-2" d="M28.25,40.27a.54.54,0,0,1,0-1.07l9.66-.28a.54.54,0,0,1,0,1.08l-9.66.27Z"/><path class="cls-2" d="M38.17,30.31a.54.54,0,0,1-.07-1.07L47,28.07a.54.54,0,0,1,.14,1.07L38.24,30.3Z"/><path class="cls-2" d="M43.28,25.13a.54.54,0,0,1-.53-.44.54.54,0,0,1,.43-.63l8.46-1.58a.53.53,0,1,1,.2,1.05l-8.46,1.59Z"/><path class="cls-2" d="M48.13,20.22a.54.54,0,0,1-.52-.41.53.53,0,0,1,.39-.65l8.3-2.08a.54.54,0,0,1,.65.39.55.55,0,0,1-.39.66l-8.3,2.07Z"/><path class="cls-2" d="M53.62,15a.52.52,0,0,1-.51-.37.55.55,0,0,1,.34-.68l7.37-2.42a.54.54,0,1,1,.34,1L53.79,15Z"/><path class="cls-2" d="M58.5,10.21A.52.52,0,0,1,58,9.88a.53.53,0,0,1,.29-.7l7.18-3a.54.54,0,0,1,.71.28.55.55,0,0,1-.29.71l-7.19,3A.52.52,0,0,1,58.5,10.21Z"/><path class="cls-2" d="M33.08,35.24a.53.53,0,0,1-.53-.51.52.52,0,0,1,.5-.56l9.35-.59a.54.54,0,0,1,.57.51.52.52,0,0,1-.5.56l-9.35.59Z"/><path class="cls-2" d="M38.84,40.9a.55.55,0,0,1-.38-.15l-5.85-5.68a.54.54,0,1,1,.75-.77L39.21,40a.53.53,0,0,1,0,.76A.52.52,0,0,1,38.84,40.9Z"/><path class="cls-2" d="M43.28,35.24a.55.55,0,0,1-.38-.15L37.66,30a.53.53,0,0,1,0-.75.54.54,0,0,1,.76,0l5.24,5.07a.53.53,0,0,1,0,.75A.52.52,0,0,1,43.28,35.24Z"/><path class="cls-2" d="M48.11,30a.53.53,0,0,1-.37-.15l-4.6-4.44a.54.54,0,1,1,.75-.77l4.59,4.43a.54.54,0,0,1,0,.76A.56.56,0,0,1,48.11,30Z"/><path class="cls-2" d="M52.63,24.39a.55.55,0,0,1-.38-.15l-4.14-4a.54.54,0,0,1,0-.76.55.55,0,0,1,.76,0l4.14,4a.54.54,0,0,1,0,.76A.51.51,0,0,1,52.63,24.39Z"/><path class="cls-2" d="M57.46,19.13a.53.53,0,0,1-.37-.15L53.25,15.3a.54.54,0,0,1,0-.76.55.55,0,0,1,.76,0l3.84,3.68a.54.54,0,0,1,0,.76A.56.56,0,0,1,57.46,19.13Z"/><path class="cls-2" d="M61.91,13.49a.55.55,0,0,1-.37-.15l-3.41-3.25a.53.53,0,0,1,0-.75.53.53,0,0,1,.76,0l3.41,3.24a.53.53,0,0,1,0,.76A.52.52,0,0,1,61.91,13.49Z"/><rect class="cls-2" x="72.21" y="48.88" width="1.07" height="3.77"/><rect class="cls-2" x="68.58" y="48.88" width="1.07" height="3.77"/><path class="cls-2" d="M76.29,53.19a.54.54,0,0,1-.54-.54V48.88a.54.54,0,0,1,1.08,0v3.77A.54.54,0,0,1,76.29,53.19Z"/><path class="cls-2" d="M79.84,53.19a.54.54,0,0,1-.54-.54V48.88a.54.54,0,0,1,1.08,0v3.77A.54.54,0,0,1,79.84,53.19Z"/><path class="cls-2" d="M83.39,53.19a.54.54,0,0,1-.54-.54V48.88a.54.54,0,0,1,1.07,0v3.77A.54.54,0,0,1,83.39,53.19Z"/><path class="cls-2" d="M86.94,53.19a.54.54,0,0,1-.54-.54V48.88a.54.54,0,0,1,1.07,0v3.77A.54.54,0,0,1,86.94,53.19Z"/><path class="cls-2" d="M94,53.19a.54.54,0,0,1-.53-.54V48.88a.54.54,0,0,1,1.07,0v3.77A.54.54,0,0,1,94,53.19Z"/><path class="cls-2" d="M90.48,53.19a.54.54,0,0,1-.53-.54V48.88a.54.54,0,0,1,1.07,0v3.77A.54.54,0,0,1,90.48,53.19Z"/><path class="cls-2" d="M97.58,53.19a.54.54,0,0,1-.54-.54V48.88a.54.54,0,0,1,1.08,0v3.77A.54.54,0,0,1,97.58,53.19Z"/><path class="cls-2" d="M101.35,53.19a.54.54,0,0,1-.54-.54V48.88a.54.54,0,0,1,1.07,0v3.77A.54.54,0,0,1,101.35,53.19Z"/><path class="cls-2" d="M101.35,49.42H69.12a.54.54,0,1,1,0-1.07h32.23a.54.54,0,0,1,0,1.07Z"/><path class="cls-1" d="M100,56.45H70.48c-1.12,0-2-.21-2-.46V52.65H102V56C102,56.24,101.11,56.45,100,56.45Z"/><path class="cls-3" d="M100,73.8H70.48a2,2,0,0,1-2-2V55.69H102V71.77A2,2,0,0,1,100,73.8Z"/><rect class="cls-2" x="3.76" y="48.86" width="1.07" height="3.77"/><rect class="cls-2" x="0.14" y="48.86" width="1.07" height="3.77"/><path class="cls-2" d="M7.84,53.17a.54.54,0,0,1-.54-.54V48.86a.54.54,0,0,1,.54-.53.54.54,0,0,1,.54.53v3.77A.54.54,0,0,1,7.84,53.17Z"/><path class="cls-2" d="M11.39,53.17a.54.54,0,0,1-.54-.54V48.86a.54.54,0,0,1,1.08,0v3.77A.54.54,0,0,1,11.39,53.17Z"/><path class="cls-2" d="M14.94,53.17a.54.54,0,0,1-.54-.54V48.86a.54.54,0,0,1,1.08,0v3.77A.54.54,0,0,1,14.94,53.17Z"/><path class="cls-2" d="M18.49,53.17a.54.54,0,0,1-.54-.54V48.86a.54.54,0,0,1,1.07,0v3.77A.54.54,0,0,1,18.49,53.17Z"/><path class="cls-2" d="M25.58,53.17a.54.54,0,0,1-.53-.54V48.86a.54.54,0,0,1,1.07,0v3.77A.54.54,0,0,1,25.58,53.17Z"/><path class="cls-2" d="M22,53.17a.54.54,0,0,1-.54-.54V48.86a.54.54,0,0,1,1.07,0v3.77A.54.54,0,0,1,22,53.17Z"/><path class="cls-2" d="M29.13,53.17a.54.54,0,0,1-.53-.54V48.86a.54.54,0,0,1,1.07,0v3.77A.54.54,0,0,1,29.13,53.17Z"/><path class="cls-2" d="M32.9,53.17a.54.54,0,0,1-.54-.54V48.86a.54.54,0,0,1,1.08,0v3.77A.54.54,0,0,1,32.9,53.17Z"/><path class="cls-2" d="M32.9,49.4H.67a.54.54,0,0,1,0-1.07H32.9a.54.54,0,1,1,0,1.07Z"/><path class="cls-1" d="M31.54,56.88H2c-1.12,0-2-.23-2-.51V52.63H33.57v3.74C33.57,56.65,32.66,56.88,31.54,56.88Z"/><path class="cls-3" d="M31.54,73.78H2a2,2,0,0,1-2-2V55.67H33.57V71.75A2,2,0,0,1,31.54,73.78Z"/><polygon class="cls-4" points="44.18 68.44 44.18 58.06 63.54 58.06 68.16 68.44 44.18 68.44"/><path class="cls-5" d="M82.83,59.25S70.2,66.51,41.36,66.51V75H74.25S82.88,72.05,82.83,59.25Z"/><rect class="cls-6" x="47.22" y="50.8" width="12.06" height="7.26" transform="translate(106.5 108.86) rotate(180)"/><rect class="cls-7" x="59.84" y="61.03" width="2.38" height="2.38" transform="translate(122.06 124.43) rotate(180)"/><rect class="cls-7" x="54.48" y="61.03" width="2.38" height="2.38" transform="translate(111.34 124.43) rotate(180)"/><rect class="cls-7" x="49.12" y="61.03" width="2.38" height="2.38" transform="translate(100.61 124.43) rotate(180)"/><rect class="cls-7" x="54.74" y="53.15" width="2.38" height="2.38" transform="translate(111.86 108.67) rotate(180)"/><rect class="cls-7" x="49.38" y="53.15" width="2.38" height="2.38" transform="translate(101.14 108.67) rotate(180)"/><rect class="cls-4" x="54.34" y="47.95" width="3.03" height="2.85" transform="translate(111.7 98.75) rotate(180)"/><rect class="cls-8" x="54.34" y="45.94" width="3.03" height="2.01" transform="translate(111.7 93.89) rotate(180)"/><rect class="cls-4" x="49.13" y="47.95" width="3.03" height="2.85" transform="translate(101.3 98.75) rotate(180)"/><rect class="cls-8" x="49.13" y="45.94" width="3.03" height="2.01" transform="translate(101.3 93.89) rotate(180)"/></g></g></svg>