<svg xmlns="http://www.w3.org/2000/svg" viewBox="0 0 32.57 31.93"><defs><style>.cls-1{fill:#fff;}.cls-2{fill:#ed644f;}</style></defs><g id="Layer_2" data-name="Layer 2"><g id="Layer_1-2" data-name="Layer 1"><rect class="cls-1" x="15.2" y="1.08" width="2.17" height="10.07" rx="1.08"/><rect class="cls-1" x="15.2" y="-15.2" width="2.17" height="32.57" rx="1.08" transform="translate(15.2 17.37) rotate(-90)"/><path class="cls-2" d="M19.76,8.77h-7A5.57,5.57,0,0,0,8,11.55l-3.47,6a5.53,5.53,0,0,0,0,5.56l3.47,6a5.57,5.57,0,0,0,4.82,2.78h7a5.54,5.54,0,0,0,4.81-2.78l3.48-6a5.58,5.58,0,0,0,0-5.56l-3.48-6A5.54,5.54,0,0,0,19.76,8.77Z"/><path class="cls-1" d="M24.64,19.63H7.92a1.43,1.43,0,0,1-1.11-2.31L10,11.94a1.68,1.68,0,0,1,1.42-.79h9.7a1.68,1.68,0,0,1,1.43.79l3.19,5.38A1.42,1.42,0,0,1,24.64,19.63Z"/></g></g></svg>