<svg width="80" height="30" viewBox="0 0 80 30" fill="none" xmlns="http://www.w3.org/2000/svg">
<path fill-rule="evenodd" clip-rule="evenodd" d="M31.3661 0.0388862C34.8303 0.0393444 38.1992 1.18748 40.9582 3.30795C43.7172 5.42843 45.7148 8.40469 46.6459 11.7822C47.6484 11.4571 48.6951 11.2931 49.7479 11.2962C51.6788 11.2909 53.5724 11.835 55.2127 12.8662C56.853 13.8975 58.174 15.3746 59.0252 17.129C60.2274 16.1044 61.7462 15.5385 63.3178 15.5296C64.8893 15.5208 66.4143 16.0695 67.6276 17.0805C68.841 18.0915 69.6661 19.5009 69.9596 21.0637C70.2531 22.6265 69.9964 24.244 69.2341 25.6351H72.9988C73.28 25.6351 73.5585 25.6912 73.8184 25.8001C74.0782 25.9091 74.3143 26.0688 74.5132 26.2701C74.7121 26.4714 74.8698 26.7104 74.9774 26.9734C75.0851 27.2364 75.1405 27.5183 75.1405 27.803C75.1379 28.3762 74.9112 28.9252 74.5098 29.3296C74.1084 29.7341 73.5651 29.9611 72.9988 29.9611H2.13205C1.56738 29.9586 1.02654 29.7304 0.627248 29.3262C0.227957 28.922 0.00252656 28.3746 1.08419e-10 27.803C-5.69421e-06 27.2297 0.224314 26.6798 0.623878 26.2735C1.02344 25.8672 1.56572 25.6377 2.13205 25.6351H4.22569C3.71445 24.3838 3.45332 23.0424 3.45737 21.6883C3.45992 18.9226 4.54644 16.2709 6.47843 14.3153C8.41043 12.3597 11.03 11.2599 13.7623 11.2573C14.5644 11.2559 15.3639 11.3505 16.1441 11.5392C17.1109 8.20848 19.1173 5.28425 21.863 3.20414C24.6088 1.12403 27.9462 -9.46733e-05 31.3758 5.9803e-09L31.3661 0.0388862ZM77.8007 25.674H77.8584C78.4256 25.6766 78.9688 25.9058 79.3699 26.3118C79.771 26.7178 79.9975 27.2677 80 27.8419C79.995 28.4143 79.7674 28.9618 79.3666 29.3657C78.9658 29.7696 78.4239 29.9975 77.8584 30H77.8007C77.236 29.9974 76.6952 29.7692 76.2959 29.3651C75.8966 28.9609 75.6712 28.4135 75.6687 27.8419C75.6687 27.2686 75.893 26.7187 76.2925 26.3124C76.6921 25.9061 77.2344 25.6766 77.8007 25.674Z" fill="white" fill-opacity="0.77"/>
</svg>
