<svg width="117" height="27" viewBox="0 0 117 27" fill="none" xmlns="http://www.w3.org/2000/svg">
<path d="M49.191 5.99861C47.6429 5.9958 46.1128 5.66719 44.7 5.03415C43.2872 4.40111 42.0235 3.47781 40.991 2.3243C39.9604 3.48003 38.697 4.40484 37.2838 5.03806C35.8707 5.67129 34.3396 5.99864 32.791 5.99864C31.2425 5.99864 29.7114 5.67129 28.2982 5.03806C26.8851 4.40484 25.6217 3.48003 24.591 2.3243C23.5612 3.47982 22.2986 4.40449 20.8862 5.03765C19.4737 5.6708 17.9434 5.99812 16.3955 5.99812C14.8477 5.99812 13.3173 5.6708 11.9049 5.03765C10.4924 4.40449 9.22987 3.47982 8.2 2.3243C7.16751 3.47781 5.9038 4.40111 4.49104 5.03415C3.07828 5.66719 1.5481 5.9958 0 5.99861L0 4.20626C1.46028 4.20304 2.899 3.85375 4.19818 3.18702C5.49737 2.52029 6.62003 1.55511 7.4741 0.370635C7.55739 0.257616 7.66607 0.165748 7.79138 0.102436C7.91669 0.0391236 8.05512 0.00613987 8.19552 0.00613987C8.33591 0.00613987 8.47435 0.0391236 8.59966 0.102436C8.72497 0.165748 8.83365 0.257616 8.91694 0.370635C9.77023 1.55677 10.8934 2.52293 12.1938 3.18935C13.4941 3.85576 14.9343 4.20332 16.3955 4.20332C17.8567 4.20332 19.2969 3.85576 20.5973 3.18935C21.8976 2.52293 23.0208 1.55677 23.8741 0.370635C23.9566 0.257683 24.0645 0.165617 24.189 0.101814C24.3134 0.0380105 24.4511 0.00423831 24.591 0.00319984C24.7324 0.002833 24.8719 0.0359367 24.9981 0.0997968C25.1243 0.163657 25.2335 0.256464 25.3169 0.370635C26.1693 1.55672 27.2916 2.52293 28.5913 3.1894C29.8909 3.85588 31.3305 4.20348 32.791 4.20348C34.2516 4.20348 35.6912 3.85588 36.9908 3.1894C38.2905 2.52293 39.4128 1.55672 40.2651 0.370635C40.3482 0.255875 40.4573 0.162446 40.5835 0.0980191C40.7097 0.0335924 40.8494 0 40.991 0C41.1327 0 41.2724 0.0335924 41.3986 0.0980191C41.5247 0.162446 41.6339 0.255875 41.7169 0.370635C42.571 1.55511 43.6937 2.52029 44.9929 3.18702C46.292 3.85375 47.7308 4.20304 49.191 4.20626V5.99861Z" fill="white"/>
<path d="M116.591 26.9986C115.043 26.9958 113.513 26.6672 112.1 26.0341C110.687 25.4011 109.424 24.4778 108.391 23.3243C107.36 24.48 106.097 25.4048 104.684 26.0381C103.271 26.6713 101.74 26.9986 100.191 26.9986C98.6425 26.9986 97.1114 26.6713 95.6982 26.0381C94.2851 25.4048 93.0217 24.48 91.991 23.3243C90.9612 24.4798 89.6986 25.4045 88.2862 26.0376C86.8737 26.6708 85.3434 26.9981 83.7955 26.9981C82.2477 26.9981 80.7173 26.6708 79.3049 26.0376C77.8924 25.4045 76.6299 24.4798 75.6 23.3243C74.5693 24.48 73.306 25.4048 71.8928 26.0381C70.4796 26.6713 68.9486 26.9986 67.4 26.9986C65.8514 26.9986 64.3204 26.6713 62.9072 26.0381C61.494 25.4048 60.2307 24.48 59.2 23.3243C58.1675 24.4778 56.9038 25.4011 55.491 26.0341C54.0783 26.6672 52.5481 26.9958 51 26.9986V25.2063C52.4603 25.203 53.899 24.8537 55.1982 24.187C56.4974 23.5203 57.62 22.5551 58.4741 21.3706C58.5575 21.2565 58.6668 21.1637 58.793 21.0998C58.9191 21.0359 59.0586 21.0028 59.2 21.0032C59.3414 21.0028 59.4809 21.0359 59.6071 21.0998C59.7332 21.1637 59.8425 21.2565 59.9259 21.3706C60.7782 22.5567 61.9006 23.5229 63.2002 24.1894C64.4999 24.8559 65.9394 25.2035 67.4 25.2035C68.8606 25.2035 70.3002 24.8559 71.5998 24.1894C72.8994 23.5229 74.0218 22.5567 74.8741 21.3706C74.9574 21.2576 75.0661 21.1657 75.1914 21.1024C75.3167 21.0391 75.4551 21.0061 75.5955 21.0061C75.7359 21.0061 75.8743 21.0391 75.9997 21.1024C76.125 21.1657 76.2336 21.2576 76.3169 21.3706C77.1693 22.5567 78.2916 23.5229 79.5913 24.1894C80.8909 24.8559 82.3305 25.2035 83.791 25.2035C85.2516 25.2035 86.6912 24.8559 87.9908 24.1894C89.2905 23.5229 90.4128 22.5567 91.2651 21.3706C91.3482 21.2559 91.4573 21.1624 91.5835 21.098C91.7097 21.0336 91.8494 21 91.991 21C92.1327 21 92.2724 21.0336 92.3986 21.098C92.5247 21.1624 92.6339 21.2559 92.7169 21.3706C93.5693 22.5567 94.6916 23.5229 95.9913 24.1894C97.2909 24.8559 98.7305 25.2035 100.191 25.2035C101.652 25.2035 103.091 24.8559 104.391 24.1894C105.69 23.5229 106.813 22.5567 107.665 21.3706C107.749 21.2565 107.858 21.1637 107.984 21.0998C108.11 21.0359 108.25 21.0028 108.391 21.0032C108.531 21.0042 108.669 21.038 108.793 21.1018C108.918 21.1656 109.025 21.2577 109.108 21.3706C109.964 22.5564 111.087 23.5229 112.388 24.1911C113.689 24.8593 115.129 25.2102 116.591 25.2152V26.9986Z" fill="white"/>
</svg>
