<svg width="138" height="10" viewBox="0 0 138 10" fill="none" xmlns="http://www.w3.org/2000/svg">
<path d="M46.4713 5.66695C45.0088 5.66429 43.5632 5.35385 42.2285 4.75581C40.8939 4.15777 39.7001 3.28553 38.7246 2.19579C37.751 3.28762 36.5574 4.16129 35.2224 4.75951C33.8874 5.35773 32.441 5.66698 30.978 5.66698C29.5151 5.66698 28.0687 5.35773 26.7336 4.75951C25.3986 4.16129 24.2051 3.28762 23.2314 2.19579C22.2585 3.28742 21.0657 4.16097 19.7314 4.75912C18.397 5.35726 16.9513 5.66648 15.489 5.66648C14.0267 5.66648 12.581 5.35726 11.2467 4.75912C9.91232 4.16097 8.71955 3.28742 7.74662 2.19579C6.77122 3.28553 5.57738 4.15777 4.24273 4.75581C2.90809 5.35385 1.46251 5.66429 0 5.66695L0 3.9737C1.37954 3.97065 2.73871 3.64067 3.96607 3.01081C5.19342 2.38094 6.25401 1.46913 7.06086 0.350142C7.13954 0.243373 7.24222 0.156584 7.3606 0.0967723C7.47898 0.0369604 7.60976 0.0058004 7.74239 0.0058004C7.87502 0.0058004 8.0058 0.0369604 8.12418 0.0967723C8.24256 0.156584 8.34523 0.243373 8.42392 0.350142C9.23004 1.4707 10.2911 2.38344 11.5196 3.01301C12.748 3.64258 14.1086 3.97092 15.489 3.97092C16.8694 3.97092 18.23 3.64258 19.4584 3.01301C20.6869 2.38344 21.748 1.4707 22.5541 0.350142C22.6321 0.243436 22.7339 0.15646 22.8515 0.0961845C22.9692 0.0359089 23.0992 0.00400398 23.2314 0.00302292C23.365 0.00267636 23.4968 0.0339497 23.6159 0.0942791C23.7351 0.154608 23.8384 0.242284 23.9172 0.350142C24.7224 1.47065 25.7827 2.38344 27.0104 3.01306C28.2382 3.64269 29.5982 3.97107 30.978 3.97107C32.3578 3.97107 33.7178 3.64269 34.9456 3.01306C36.1734 2.38344 37.2337 1.47065 38.0389 0.350142C38.1174 0.241727 38.2205 0.153464 38.3397 0.0925997C38.4589 0.0317351 38.5908 0 38.7246 0C38.8585 0 38.9904 0.0317351 39.1096 0.0925997C39.2288 0.153464 39.3319 0.241727 39.4104 0.350142C40.2173 1.46913 41.2778 2.38094 42.5052 3.01081C43.7326 3.64067 45.0917 3.97065 46.4713 3.9737V5.66695Z" fill="white"/>
<path d="M138 9.98481C136.538 9.98216 135.092 9.67171 133.757 9.07367C132.423 8.47563 131.229 7.60339 130.254 6.51365C129.28 7.60548 128.086 8.47916 126.751 9.07737C125.416 9.67559 123.97 9.98484 122.507 9.98484C121.044 9.98484 119.598 9.67559 118.263 9.07737C116.927 8.47916 115.734 7.60548 114.76 6.51365C113.787 7.60528 112.595 8.47883 111.26 9.07698C109.926 9.67513 108.48 9.98435 107.018 9.98435C105.556 9.98435 104.11 9.67513 102.776 9.07698C101.441 8.47883 100.248 7.60528 99.2755 6.51365C98.3018 7.60548 97.1083 8.47916 95.7733 9.07737C94.4382 9.67559 92.9918 9.98484 91.5289 9.98484C90.066 9.98484 88.6195 9.67559 87.2845 9.07737C85.9495 8.47916 84.756 7.60548 83.7823 6.51365C82.8069 7.60339 81.613 8.47563 80.2784 9.07367C78.9437 9.67171 77.4982 9.98216 76.0356 9.98481V8.29156C77.4152 8.28852 78.7744 7.95854 80.0017 7.32867C81.2291 6.69881 82.2897 5.78699 83.0965 4.66801C83.1753 4.56015 83.2785 4.47247 83.3977 4.41214C83.5169 4.35181 83.6487 4.32054 83.7823 4.32089C83.9159 4.32054 84.0476 4.35181 84.1668 4.41214C84.286 4.47247 84.3892 4.56015 84.468 4.66801C85.2732 5.78851 86.3335 6.7013 87.5613 7.33093C88.7891 7.96055 90.1491 8.28893 91.5289 8.28893C92.9087 8.28893 94.2687 7.96055 95.4965 7.33093C96.7243 6.7013 97.7846 5.78851 98.5897 4.66801C98.6684 4.56124 98.7711 4.47445 98.8895 4.41464C99.0079 4.35483 99.1386 4.32367 99.2713 4.32367C99.4039 4.32367 99.5347 4.35483 99.6531 4.41464C99.7715 4.47445 99.8741 4.56124 99.9528 4.66801C100.758 5.78851 101.818 6.7013 103.046 7.33093C104.274 7.96055 105.634 8.28893 107.014 8.28893C108.393 8.28893 109.753 7.96055 110.981 7.33093C112.209 6.7013 113.269 5.78851 114.075 4.66801C114.153 4.55959 114.256 4.47133 114.375 4.41046C114.495 4.3496 114.626 4.31787 114.76 4.31787C114.894 4.31787 115.026 4.3496 115.145 4.41046C115.264 4.47133 115.368 4.55959 115.446 4.66801C116.251 5.78851 117.312 6.7013 118.539 7.33093C119.767 7.96055 121.127 8.28893 122.507 8.28893C123.887 8.28893 125.247 7.96055 126.475 7.33093C127.702 6.7013 128.763 5.78851 129.568 4.66801C129.647 4.56015 129.75 4.47247 129.869 4.41214C129.988 4.35181 130.12 4.32054 130.254 4.32089C130.386 4.32187 130.516 4.35378 130.633 4.41406C130.751 4.47433 130.853 4.5613 130.931 4.66801C131.739 5.78822 132.801 6.70127 134.03 7.33252C135.258 7.96377 136.619 8.29531 138 8.30003V9.98481Z" fill="white"/>
</svg>
