<svg width="53" height="31" viewBox="0 0 53 31" fill="none" xmlns="http://www.w3.org/2000/svg">
<path d="M4.89551 21.7486H40.285L32.442 10.0564H4.89551V21.7486Z" fill="white"/>
<path d="M53 17.033H30.9026L27.0894 20.5334H10.6337V17.033H0V30.3732H40.2853C40.2853 30.3732 51.7249 28.7853 53 17.033Z" fill="#00619F"/>
<path d="M28.7375 10.0562H7.56641V2.41772H25.2852L28.7375 10.0562Z" fill="white"/>
<path d="M45.8908 17.033H49.5356V10.0441H45.8908V17.033Z" fill="#60B9DA"/>
<path d="M26.0551 14.9761H28.918V12.1132H26.0551V14.9761Z" fill="#A2D8D8"/>
<path d="M20.5214 14.9761H23.3843V12.1132H20.5214V14.9761Z" fill="#A2D8D8"/>
<path d="M14.9882 14.9761H17.8511V12.1132H14.9882V14.9761Z" fill="#A2D8D8"/>
<path d="M9.45496 14.9761H12.3179V12.1132H9.45496V14.9761Z" fill="#A2D8D8"/>
<path d="M21.8563 7.6626H24.7192V4.79968H21.8563V7.6626Z" fill="#A2D8D8"/>
<path d="M16.3236 7.6626H19.1865V4.79968H16.3236V7.6626Z" fill="#A2D8D8"/>
<path d="M10.7904 7.6626H13.6533V4.79968H10.7904V7.6626Z" fill="#A2D8D8"/>
<path d="M7.56636 2.41772L25.2852 2.41772V-0.000114679L7.56636 -0.000114679V2.41772Z" fill="#E9432D"/>
</svg>
