<svg width="158" height="24" viewBox="0 0 158 24" fill="none" xmlns="http://www.w3.org/2000/svg">
<path d="M114.845 5.98965C113.297 5.98683 111.767 5.65823 110.354 5.02518C108.941 4.39214 107.677 3.46885 106.645 2.31533C105.612 3.46885 104.349 4.39214 102.936 5.02518C101.523 5.65823 99.9929 5.98683 98.4448 5.98965C96.8968 5.98627 95.3668 5.65741 93.9541 5.02441C92.5414 4.39141 91.2777 3.46841 90.2448 2.31533C89.2141 3.46861 87.9519 4.39184 86.5406 5.02491C85.1293 5.65799 83.6005 5.9867 82.0538 5.98965C80.5057 5.98683 78.9755 5.65823 77.5627 5.02518C76.15 4.39214 74.8863 3.46885 73.8538 2.31533C72.8213 3.46885 71.5576 4.39214 70.1448 5.02518C68.7321 5.65823 67.2019 5.98683 65.6538 5.98965C64.1058 5.98627 62.5758 5.65741 61.1631 5.02441C59.7504 4.39141 58.4866 3.46841 57.4538 2.31533C56.4226 3.46817 55.1605 4.3911 53.7493 5.02414C52.338 5.65717 50.8094 5.98614 49.2627 5.98965C47.7146 5.98683 46.1845 5.65823 44.7717 5.02518C43.3589 4.39214 42.0952 3.46885 41.0627 2.31533C40.0299 3.46841 38.7661 4.39141 37.3534 5.02441C35.9408 5.65741 34.4107 5.98627 32.8627 5.98965C31.3146 5.98683 29.7844 5.65823 28.3717 5.02518C26.9589 4.39214 25.6952 3.46885 24.6627 2.31533C23.6302 3.46885 22.3665 4.39214 20.9538 5.02518C19.541 5.65823 18.0108 5.98683 16.4627 5.98965C14.9039 5.99681 13.3613 5.67299 11.9369 5.03958C10.5125 4.40618 9.23881 3.47763 8.2 2.31533C7.16716 3.46841 5.90338 4.39141 4.4907 5.02441C3.07802 5.65741 1.54801 5.98627 0 5.98965V4.1973C1.46543 4.20005 2.91054 3.85453 4.21624 3.18922C5.52194 2.5239 6.65085 1.55784 7.50995 0.370631C7.59324 0.257613 7.70192 0.165745 7.82723 0.102432C7.95254 0.0391199 8.09097 0.00613426 8.23137 0.00613426C8.37177 0.00613426 8.51019 0.0391199 8.6355 0.102432C8.76081 0.165745 8.86949 0.257613 8.95278 0.370631C9.80838 1.55353 10.9314 2.51753 12.2302 3.18409C13.529 3.85064 14.967 4.20088 16.4269 4.20626C17.8883 4.20229 19.328 3.85273 20.6285 3.18612C21.9291 2.51951 23.0535 1.55475 23.9099 0.370631C23.9925 0.257679 24.1003 0.165617 24.2248 0.101814C24.3493 0.0380105 24.487 0.00423792 24.6269 0.00319946C24.7683 0.00283261 24.9078 0.035932 25.0339 0.0997921C25.1601 0.163652 25.2694 0.256461 25.3528 0.370631C26.2069 1.55511 27.3295 2.52028 28.6287 3.18701C29.9279 3.85374 31.3666 4.20304 32.8269 4.20626C34.287 4.20232 35.7255 3.85271 37.0246 3.18603C38.3236 2.51936 39.4464 1.55458 40.301 0.370631C40.3844 0.256461 40.4937 0.163652 40.6198 0.0997921C40.746 0.035932 40.8855 0.00283261 41.0269 0.00319946C41.1668 0.00423792 41.3045 0.0380105 41.429 0.101814C41.5535 0.165617 41.6613 0.257679 41.7438 0.370631C42.6003 1.55475 43.7247 2.51951 45.0252 3.18612C46.3257 3.85273 47.7655 4.20229 49.2269 4.20626C50.6868 4.20088 52.1247 3.85064 53.4236 3.18409C54.7224 2.51753 55.8454 1.55353 56.701 0.370631C56.7843 0.257613 56.893 0.165745 57.0183 0.102432C57.1436 0.0391199 57.282 0.00613426 57.4224 0.00613426C57.5628 0.00613426 57.7012 0.0391199 57.8265 0.102432C57.9518 0.165745 58.0605 0.257613 58.1438 0.370631C58.9984 1.55458 60.1212 2.51936 61.4202 3.18603C62.7193 3.85271 64.1578 4.20232 65.6179 4.20626C67.0782 4.20304 68.5169 3.85374 69.8161 3.18701C71.1153 2.52028 72.238 1.55511 73.092 0.370631C73.1753 0.257613 73.284 0.165745 73.4093 0.102432C73.5346 0.0391199 73.673 0.00613426 73.8134 0.00613426C73.9538 0.00613426 74.0923 0.0391199 74.2176 0.102432C74.3429 0.165745 74.4516 0.257613 74.5349 0.370631C75.3913 1.55475 76.5158 2.51951 77.8163 3.18612C79.1168 3.85273 80.5565 4.20229 82.0179 4.20626C83.4781 4.20232 84.9165 3.85271 86.2156 3.18603C87.5147 2.51936 88.6375 1.55458 89.492 0.370631C89.5746 0.257679 89.6824 0.165617 89.8069 0.101814C89.9314 0.0380105 90.0691 0.00423792 90.209 0.00319946C90.3504 0.00283261 90.4898 0.035932 90.616 0.0997921C90.7422 0.163652 90.8514 0.256461 90.9349 0.370631C91.7905 1.55353 92.9134 2.51753 94.2123 3.18409C95.5111 3.85064 96.9491 4.20088 98.409 4.20626C99.8692 4.20304 101.308 3.85374 102.607 3.18701C103.906 2.52028 105.029 1.55511 105.883 0.370631C105.966 0.255871 106.075 0.162445 106.201 0.0980181C106.328 0.0335914 106.467 0 106.609 0C106.751 0 106.89 0.0335914 107.016 0.0980181C107.143 0.162445 107.252 0.255871 107.335 0.370631C108.192 1.56002 109.321 2.52821 110.627 3.19517C111.933 3.86214 113.378 4.20871 114.845 4.20626V5.98965Z" fill="white"/>
<path d="M157.173 24.0044C155.624 23.9993 154.094 23.6688 152.682 23.0343C151.269 22.3997 150.005 21.4754 148.973 20.3211C147.945 21.4791 146.683 22.4061 145.27 23.0409C143.857 23.6757 142.326 24.004 140.778 24.004C139.229 24.004 137.698 23.6757 136.285 23.0409C134.872 22.4061 133.61 21.4791 132.582 20.3211C131.553 21.4794 130.29 22.4065 128.877 23.0413C127.463 23.6762 125.931 24.0045 124.382 24.0045C122.833 24.0045 121.301 23.6762 119.887 23.0413C118.474 22.4065 117.211 21.4794 116.182 20.3211C115.153 21.4794 113.89 22.4065 112.477 23.0413C111.063 23.6762 109.531 24.0045 107.982 24.0045C106.433 24.0045 104.901 23.6762 103.487 23.0413C102.074 22.4065 100.811 21.4794 99.782 20.3211C98.7537 21.4791 97.4916 22.4061 96.079 23.0409C94.6663 23.6757 93.1352 24.004 91.5865 24.004C90.0378 24.004 88.5066 23.6757 87.094 23.0409C85.6813 22.4061 84.4193 21.4791 83.391 20.3211C82.3618 21.4794 81.099 22.4065 79.6856 23.0413C78.2722 23.6762 76.7404 24.0045 75.191 24.0045C73.6415 24.0045 72.1097 23.6762 70.6963 23.0413C69.2829 22.4065 68.0201 21.4794 66.991 20.3211C65.9653 21.4695 64.7107 22.3906 63.3077 23.0249C61.9047 23.6593 60.3844 23.9929 58.8447 24.0044V22.212C60.3046 22.2066 61.7426 21.8564 63.0414 21.1898C64.3403 20.5233 65.4632 19.5593 66.3188 18.3764C66.4004 18.2618 66.5078 18.168 66.6324 18.1026C66.7569 18.0372 66.8951 18.0021 67.0358 18C67.1779 18.0007 67.3179 18.0351 67.4441 18.1006C67.5704 18.166 67.6792 18.2606 67.7617 18.3764C68.614 19.5625 69.7363 20.5287 71.036 21.1952C72.3356 21.8616 73.7752 22.2092 75.2358 22.2092C76.6963 22.2092 78.1359 21.8616 79.4356 21.1952C80.7352 20.5287 81.8575 19.5625 82.7099 18.3764C82.7929 18.2616 82.9021 18.1682 83.0282 18.1038C83.1544 18.0394 83.2941 18.0058 83.4358 18.0058C83.5774 18.0058 83.7171 18.0394 83.8433 18.1038C83.9695 18.1682 84.0786 18.2616 84.1617 18.3764C85.014 19.5625 86.1363 20.5287 87.436 21.1952C88.7356 21.8616 90.1752 22.2092 91.6358 22.2092C93.0963 22.2092 94.5359 21.8616 95.8356 21.1952C97.1352 20.5287 98.2575 19.5625 99.1099 18.3764C99.1932 18.2634 99.3018 18.1715 99.4271 18.1082C99.5525 18.0449 99.6909 18.0119 99.8313 18.0119C99.9717 18.0119 100.11 18.0449 100.235 18.1082C100.361 18.1715 100.469 18.2634 100.553 18.3764C101.406 19.5625 102.529 20.5287 103.83 21.1951C105.13 21.8615 106.57 22.2091 108.031 22.2091C109.492 22.2091 110.933 21.8615 112.233 21.1951C113.533 20.5287 114.657 19.5625 115.51 18.3764C115.591 18.2618 115.699 18.168 115.823 18.1026C115.948 18.0372 116.086 18.0021 116.227 18C116.369 18.0007 116.509 18.0351 116.635 18.1006C116.761 18.166 116.87 18.2606 116.953 18.3764C117.805 19.5625 118.927 20.5287 120.227 21.1952C121.527 21.8616 122.966 22.2092 124.427 22.2092C125.887 22.2092 127.327 21.8616 128.627 21.1952C129.926 20.5287 131.049 19.5625 131.901 18.3764C131.984 18.2634 132.093 18.1715 132.218 18.1082C132.343 18.0449 132.482 18.0119 132.622 18.0119C132.763 18.0119 132.901 18.0449 133.026 18.1082C133.152 18.1715 133.26 18.2634 133.344 18.3764C134.197 19.5625 135.32 20.5287 136.621 21.1951C137.921 21.8615 139.361 22.2091 140.822 22.2091C142.283 22.2091 143.724 21.8615 145.024 21.1951C146.324 20.5287 147.448 19.5625 148.301 18.3764C148.384 18.2634 148.493 18.1715 148.618 18.1082C148.743 18.0449 148.882 18.0119 149.022 18.0119C149.163 18.0119 149.301 18.0449 149.426 18.1082C149.552 18.1715 149.66 18.2634 149.744 18.3764C150.598 19.5603 151.721 20.5251 153.02 21.1918C154.319 21.8585 155.758 22.2081 157.218 22.212L157.173 24.0044Z" fill="white"/>
</svg>
