<svg xmlns="http://www.w3.org/2000/svg" viewBox="0 0 143.25 111.46"><defs><style>.cls-1{fill:#7cce55;}.cls-2{fill:#46c671;}.cls-3{fill:#c0dd72;}.cls-4{fill:#ba8380;}.cls-5{fill:#fff;}.cls-6{fill:#9b9b9b;}</style></defs><g id="Layer_2" data-name="Layer 2"><g id="Layer_1-2" data-name="Layer 1"><path class="cls-1" d="M5.43,103.45,56.09,61.89a2.44,2.44,0,0,1,.33-.23,15.14,15.14,0,0,1,15,.1c6.89,4,51.92,30.48,70.58,41.47a2.56,2.56,0,0,1-1.31,4.76H7.06A2.56,2.56,0,0,1,5.43,103.45Z"/><path class="cls-2" d="M.62,103.45,33.85,61.89a1.61,1.61,0,0,1,.22-.23,7.11,7.11,0,0,1,9.83.1c4.52,4,34.07,30.48,46.31,41.47,1.47,1.32.85,4.76-.86,4.76H1.68C.11,108-.6,105,.62,103.45Z"/><rect class="cls-3" x="109.83" y="76.46" width="22.34" height="22.34" rx="11.17"/><rect class="cls-4" x="119.81" y="83.85" width="2.53" height="27.61" rx="1.26"/><rect class="cls-4" x="117.43" y="87.86" width="2.17" height="9.08" rx="1.08" transform="translate(-29.67 117.42) rotate(-47.53)"/><rect class="cls-4" x="120.38" y="93.64" width="6.14" height="2.03" rx="1.02" transform="translate(-32.07 98.07) rotate(-38.74)"/><rect class="cls-5" x="74.7" y="25.66" width="10.58" height="74.1"/><rect class="cls-5" x="65.89" y="99.77" width="28.2" height="11.69" rx="2.39"/><path class="cls-5" d="M67.18,10.38H92.8a1.55,1.55,0,0,1,1.51,1.86L91.12,27.58a1.55,1.55,0,0,1-1.51,1.23h-19a1.56,1.56,0,0,1-1.51-1.21L65.68,12.26A1.54,1.54,0,0,1,67.18,10.38Z"/><polygon class="cls-6" points="75.41 13.53 84.57 13.53 83.58 25.66 76.29 25.66 75.41 13.53"/><polygon class="cls-6" points="69.08 13.53 73.41 13.53 74.7 25.66 71.24 25.66 69.08 13.53"/><polygon class="cls-6" points="90.89 13.53 86.57 13.53 85.28 25.66 88.73 25.66 90.89 13.53"/><rect class="cls-5" x="74.35" y="7.92" width="11.27" height="3.2" rx="1.6"/><ellipse class="cls-5" cx="79.99" cy="7.41" rx="3.29" ry="2.12"/><rect class="cls-5" x="78.75" width="2.48" height="7.04" rx="1.24"/></g></g></svg>