<svg width="104" height="34" viewBox="0 0 104 34" fill="none" xmlns="http://www.w3.org/2000/svg">
<path fill-rule="evenodd" clip-rule="evenodd" d="M51.1587 10.2927C51.7889 10.2905 52.4144 10.3995 53.0059 10.6146C52.9538 10.2274 52.9285 9.83717 52.9302 9.44656C52.9277 7.50562 53.5305 5.61115 54.6564 4.02146C55.7823 2.43177 57.3765 1.22423 59.2217 0.563496C61.0668 -0.0972409 63.0732 -0.179023 64.967 0.329313C66.8609 0.837649 68.5502 1.91136 69.8045 3.40404C70.3675 2.86371 71.0791 2.49952 71.8502 2.35703C72.6213 2.21454 73.4178 2.30006 74.14 2.6029C74.8623 2.90574 75.4782 3.41246 75.9109 4.0597C76.3435 4.70693 76.5736 5.46595 76.5724 6.24185V6.3317C77.4983 6.58975 78.3025 7.16244 78.8435 7.94903C79.695 6.0936 81.1436 4.56921 82.9632 3.61382C84.7829 2.65842 86.8711 2.32578 88.902 2.66783C90.9329 3.00988 92.7921 4.00737 94.1895 5.50459C95.5869 7.00181 96.4437 8.9145 96.6263 10.9441C97.2765 11.1574 97.8779 11.4953 98.3961 11.9385C98.9142 12.3818 99.339 12.9216 99.6462 13.5272C99.9535 14.1328 100.137 14.7924 100.187 15.4682C100.236 16.1439 100.15 16.8228 99.9346 17.4658H102.206C102.442 17.4628 102.677 17.5067 102.896 17.5948C103.115 17.6829 103.314 17.8135 103.481 17.9789C103.648 18.1442 103.78 18.3411 103.87 18.5577C103.959 18.7744 104.003 19.0065 104 19.2404C104 19.7058 103.813 20.1522 103.481 20.482C103.149 20.8118 102.699 20.998 102.228 21H41.7715C41.301 20.998 40.8504 20.8118 40.5184 20.482C40.1864 20.1522 40 19.7058 40 19.2404C40 18.7757 40.1866 18.3301 40.5189 18.0015C40.8511 17.6729 41.3017 17.4883 41.7715 17.4883H46.1093C45.8874 16.899 45.7746 16.2751 45.7762 15.6463C45.7782 14.2322 46.3449 12.8762 47.353 11.8734C48.3612 10.8707 49.729 10.3025 51.1587 10.2927Z" fill="white" fill-opacity="0.46"/>
<path fill-rule="evenodd" clip-rule="evenodd" d="M0.220337 34H40.713C40.9013 33.43 40.998 32.8374 41 32.2412C40.998 30.6789 40.3282 29.1811 39.1376 28.0763C37.947 26.9716 36.3327 26.3501 34.6489 26.3483C34.1554 26.3479 33.6636 26.402 33.1839 26.5094C32.5841 24.6206 31.3384 22.9641 29.6349 21.7899C27.9313 20.6157 25.8623 19.9875 23.7402 20.0002C21.6181 20.0128 19.558 20.6657 17.8708 21.8601C16.1837 23.0545 14.9611 24.7258 14.3875 26.6216C12.9344 26.1965 11.365 26.2697 9.96517 26.8278C8.5653 27.3859 7.42796 28.3919 6.76018 29.6626C6.14688 29.2113 5.40903 28.9294 4.63108 28.849C3.85312 28.7687 3.0665 28.8932 2.36125 29.2083C1.65601 29.5234 1.06064 30.0164 0.643284 30.6309C0.225929 31.2453 0.0034523 31.9564 0.00133133 32.6827C-0.0110664 33.1304 0.0631142 33.5766 0.220337 34Z" fill="white" fill-opacity="0.64"/>
</svg>
