<svg width="93" height="6" viewBox="0 0 93 6" fill="none" xmlns="http://www.w3.org/2000/svg">
<path d="M92.8917 5.67239C91.4288 5.66761 89.9831 5.35537 88.6486 4.75592C87.3141 4.15648 86.1204 3.28321 85.1451 2.19276C84.1737 3.28679 82.9814 4.16251 81.6468 4.76222C80.3123 5.36193 78.8658 5.672 77.4027 5.672C75.9396 5.672 74.4932 5.36193 73.1586 4.76222C71.8241 4.16251 70.6318 3.28679 69.6603 2.19276C68.6881 3.28699 67.4951 4.16283 66.1599 4.76261C64.8246 5.36238 63.3775 5.67248 61.9137 5.67248C60.45 5.67248 59.0028 5.36238 57.6676 4.76261C56.3324 4.16283 55.1393 3.28699 54.1671 2.19276C53.1949 3.28699 52.0018 4.16283 50.6666 4.76261C49.3314 5.36238 47.8842 5.67248 46.4205 5.67248C44.9567 5.67248 43.5096 5.36238 42.1743 4.76261C40.8391 4.16283 39.6461 3.28699 38.6739 2.19276C37.7024 3.28679 36.5101 4.16251 35.1756 4.76222C33.841 5.36193 32.3946 5.672 30.9315 5.672C29.4684 5.672 28.0219 5.36193 26.6874 4.76222C25.3528 4.16251 24.1605 3.28679 23.1891 2.19276C22.2168 3.28699 21.0238 4.16283 19.6886 4.76261C18.3533 5.36238 16.9062 5.67248 15.4424 5.67248C13.9787 5.67248 12.5315 5.36238 11.1963 4.76261C9.86108 4.16283 8.66806 3.28699 7.69583 2.19276C6.72691 3.2777 5.54162 4.14781 4.21619 4.74709C2.89077 5.34637 1.45457 5.66157 0 5.67239V3.97914C1.37917 3.97405 2.73762 3.64318 3.96465 3.01348C5.19168 2.38378 6.25257 1.47308 7.06086 0.355583C7.13792 0.247314 7.23939 0.158708 7.35706 0.0969338C7.47472 0.0351597 7.60528 0.00195267 7.73816 0C7.87247 0.000621101 8.00471 0.033191 8.12396 0.0950202C8.2432 0.156849 8.34602 0.246163 8.42392 0.355583C9.22912 1.47609 10.2894 2.38888 11.5172 3.0185C12.745 3.64813 14.105 3.97651 15.4848 3.97651C16.8646 3.97651 18.2246 3.64813 19.4524 3.0185C20.6801 2.38888 21.7404 1.47609 22.5456 0.355583C22.6241 0.247168 22.7272 0.158906 22.8464 0.0980416C22.9656 0.037177 23.0976 0.00544352 23.2314 0.00544352C23.3652 0.00544352 23.4972 0.037177 23.6164 0.0980416C23.7356 0.158906 23.8387 0.247168 23.9172 0.355583C24.7224 1.47609 25.7827 2.38888 27.0104 3.0185C28.2382 3.64813 29.5982 3.97651 30.978 3.97651C32.3578 3.97651 33.7178 3.64813 34.9456 3.0185C36.1734 2.38888 37.2337 1.47609 38.0389 0.355583C38.1176 0.248813 38.2202 0.162024 38.3386 0.102213C38.457 0.0424007 38.5878 0.0112391 38.7204 0.0112391C38.8531 0.0112391 38.9838 0.0424007 39.1022 0.102213C39.2206 0.162024 39.3233 0.248813 39.402 0.355583C40.2081 1.47614 41.2691 2.38888 42.4976 3.01845C43.7261 3.64802 45.0867 3.97636 46.467 3.97636C47.8474 3.97636 49.208 3.64802 50.4365 3.01845C51.6649 2.38888 52.726 1.47614 53.5321 0.355583C53.6092 0.247314 53.7107 0.158708 53.8283 0.0969338C53.946 0.0351597 54.0765 0.00195267 54.2094 0C54.3437 0.000621101 54.476 0.033191 54.5952 0.0950202C54.7145 0.156849 54.8173 0.246163 54.8952 0.355583C55.7004 1.47609 56.7607 2.38888 57.9885 3.0185C59.2162 3.64813 60.5762 3.97651 61.9561 3.97651C63.3359 3.97651 64.6959 3.64813 65.9236 3.0185C67.1514 2.38888 68.2117 1.47609 69.0169 0.355583C69.0956 0.248813 69.1983 0.162024 69.3167 0.102213C69.435 0.0424007 69.5658 0.0112391 69.6984 0.0112391C69.8311 0.0112391 69.9618 0.0424007 70.0802 0.102213C70.1986 0.162024 70.3013 0.248813 70.38 0.355583C71.1861 1.47614 72.2472 2.38888 73.4756 3.01845C74.7041 3.64802 76.0647 3.97636 77.4451 3.97636C78.8254 3.97636 80.186 3.64802 81.4145 3.01845C82.6429 2.38888 83.704 1.47614 84.5102 0.355583C84.5888 0.248813 84.6915 0.162024 84.8099 0.102213C84.9283 0.0424007 85.0591 0.0112391 85.1917 0.0112391C85.3243 0.0112391 85.4551 0.0424007 85.5735 0.102213C85.6919 0.162024 85.7945 0.248813 85.8732 0.355583C86.6805 1.47407 87.7412 2.38551 88.9685 3.01532C90.1957 3.64513 91.5547 3.97541 92.9341 3.97914L92.8917 5.67239Z" fill="white"/>
</svg>
