<svg width="42" height="30" viewBox="0 0 42 30" fill="none" xmlns="http://www.w3.org/2000/svg">
<path d="M38.6499 22.5001V12.1201H19.2899L14.6699 22.5001H38.6499Z" fill="white"/>
<path d="M0 13.3101C0 13.3101 12.63 20.5601 41.47 20.5601V29.1001H8.58C8.58 29.1001 0 26.1101 0 13.3101Z" fill="#60B9DA"/>
<path d="M35.6098 4.86011H23.5498V12.1201H35.6098V4.86011Z" fill="#00619F"/>
<path d="M22.9899 15.0801H20.6099V17.4601H22.9899V15.0801Z" fill="#A2D8D8"/>
<path d="M28.3502 15.0801H25.9702V17.4601H28.3502V15.0801Z" fill="#A2D8D8"/>
<path d="M33.7198 15.0801H31.3398V17.4601H33.7198V15.0801Z" fill="#A2D8D8"/>
<path d="M28.09 7.19995H25.71V9.57995H28.09V7.19995Z" fill="#A2D8D8"/>
<path d="M33.4498 7.19995H31.0698V9.57995H33.4498V7.19995Z" fill="#A2D8D8"/>
<path d="M28.5002 2.01001H25.4702V4.86001H28.5002V2.01001Z" fill="white"/>
<path d="M28.5002 0H25.4702V2.01H28.5002V0Z" fill="#E9432D"/>
<path d="M33.6999 2.01001H30.6699V4.86001H33.6999V2.01001Z" fill="white"/>
<path d="M33.6999 0H30.6699V2.01H33.6999V0Z" fill="#E9432D"/>
</svg>
