<svg xmlns="http://www.w3.org/2000/svg" viewBox="0 0 83.87 101.51"><defs><style>.cls-1{fill:#4dc5ef;}.cls-2{fill:#41a6d8;}.cls-3{fill:#5ecdea;}.cls-4{fill:#8de1ff;}</style></defs><g id="Layer_2" data-name="Layer 2"><g id="Layer_1-2" data-name="Layer 1"><path class="cls-1" d="M48.9,30.92v70.45H76V1.41A1.4,1.4,0,0,0,74.32,0C68.94,1.16,52.3,6.58,48.9,30.92Z"/><path class="cls-1" d="M1.91,53H17.48a0,0,0,0,1,0,0v48.36a0,0,0,0,1,0,0H0a0,0,0,0,1,0,0V54.88A1.91,1.91,0,0,1,1.91,53Z"/><rect class="cls-1" x="26.83" y="53.01" width="13.99" height="48.36"/><path class="cls-2" d="M8.74,4.35v97h10V12a3.25,3.25,0,0,0-1-2.38l-6.6-6.26A1.41,1.41,0,0,0,8.74,4.35Z"/><path class="cls-3" d="M24.32,10.56H18.74v90.78H29V12.53A7.81,7.81,0,0,0,24.32,10.56Z"/><path class="cls-2" d="M32.45,20.05s-.37-4.73-3.5-7.52v88.81h3.5Z"/><rect class="cls-2" x="76" y="53.01" width="3.93" height="48.36"/><path class="cls-1" d="M83.15,53H79.94v48.36h3.93V53.72A.71.71,0,0,0,83.15,53Z"/><rect class="cls-4" x="50.84" y="31.62" width="10.9" height="1.08"/><rect class="cls-4" x="63.39" y="31.62" width="10.9" height="1.08"/><rect class="cls-4" x="50.84" y="29.56" width="10.9" height="1.08"/><rect class="cls-4" x="63.39" y="29.56" width="10.9" height="1.08"/><rect class="cls-4" x="50.84" y="27.49" width="10.9" height="1.08"/><rect class="cls-4" x="63.39" y="27.49" width="10.9" height="1.08"/><rect class="cls-4" x="51.29" y="25.42" width="10.46" height="1.08"/><rect class="cls-4" x="63.39" y="25.42" width="10.9" height="1.08"/><rect class="cls-4" x="51.78" y="23.36" width="9.96" height="1.08"/><rect class="cls-4" x="63.39" y="23.36" width="10.9" height="1.08"/><rect class="cls-4" x="52.37" y="21.29" width="9.37" height="1.08"/><rect class="cls-4" x="63.39" y="21.29" width="10.9" height="1.08"/><rect class="cls-4" x="53" y="19.23" width="8.75" height="1.08"/><rect class="cls-4" x="63.39" y="19.23" width="10.9" height="1.08"/><rect class="cls-4" x="53.99" y="17.16" width="7.75" height="1.08"/><rect class="cls-4" x="63.39" y="17.16" width="10.9" height="1.08"/><rect class="cls-4" x="55.08" y="15.1" width="6.67" height="1.08"/><rect class="cls-4" x="63.39" y="15.1" width="10.9" height="1.08"/><rect class="cls-4" x="56.76" y="13.03" width="4.98" height="1.08"/><rect class="cls-4" x="63.39" y="13.03" width="10.9" height="1.08"/><rect class="cls-4" x="58.54" y="10.97" width="3.2" height="1.08"/><rect class="cls-4" x="63.39" y="10.97" width="10.9" height="1.08"/><rect class="cls-4" x="63.39" y="8.9" width="10.9" height="1.08"/><rect class="cls-4" x="63.39" y="6.84" width="10.9" height="1.08"/><rect class="cls-4" x="65.61" y="4.77" width="8.69" height="1.08"/><rect class="cls-4" x="69.8" y="2.71" width="4.49" height="1.08"/><rect class="cls-4" x="50.84" y="33.69" width="10.9" height="1.08"/><rect class="cls-4" x="63.39" y="33.69" width="10.9" height="1.08"/><rect class="cls-4" x="50.84" y="35.75" width="10.9" height="1.08"/><rect class="cls-4" x="63.39" y="35.75" width="10.9" height="1.08"/><rect class="cls-4" x="50.84" y="37.82" width="10.9" height="1.08"/><rect class="cls-4" x="63.39" y="37.82" width="10.9" height="1.08"/><rect class="cls-4" x="50.84" y="39.88" width="10.9" height="1.08"/><rect class="cls-4" x="63.39" y="39.88" width="10.9" height="1.08"/><rect class="cls-4" x="50.84" y="41.95" width="10.9" height="1.08"/><rect class="cls-4" x="63.39" y="41.95" width="10.9" height="1.08"/><rect class="cls-4" x="50.84" y="44.01" width="10.9" height="1.08"/><rect class="cls-4" x="63.39" y="44.01" width="10.9" height="1.08"/><rect class="cls-4" x="50.84" y="46.08" width="10.9" height="1.08"/><rect class="cls-4" x="63.39" y="46.08" width="10.9" height="1.08"/><rect class="cls-4" x="50.84" y="48.14" width="10.9" height="1.08"/><rect class="cls-4" x="63.39" y="48.14" width="10.9" height="1.08"/><rect class="cls-4" x="50.84" y="50.21" width="10.9" height="1.08"/><rect class="cls-4" x="63.39" y="50.21" width="10.9" height="1.08"/><rect class="cls-4" x="50.84" y="52.27" width="10.9" height="1.08"/><rect class="cls-4" x="63.39" y="52.27" width="10.9" height="1.08"/><rect class="cls-4" x="50.84" y="54.34" width="10.9" height="1.08"/><rect class="cls-4" x="63.39" y="54.34" width="10.9" height="1.08"/><rect class="cls-4" x="50.84" y="56.41" width="10.9" height="1.08"/><rect class="cls-4" x="63.39" y="56.41" width="10.9" height="1.08"/><rect class="cls-4" x="50.84" y="58.47" width="10.9" height="1.08"/><rect class="cls-4" x="63.39" y="58.47" width="10.9" height="1.08"/><rect class="cls-4" x="50.84" y="60.54" width="10.9" height="1.08"/><rect class="cls-4" x="63.39" y="60.54" width="10.9" height="1.08"/><rect class="cls-4" x="50.84" y="62.6" width="10.9" height="1.08"/><rect class="cls-4" x="63.39" y="62.6" width="10.9" height="1.08"/><rect class="cls-4" x="50.84" y="64.67" width="10.9" height="1.08"/><rect class="cls-4" x="63.39" y="64.67" width="10.9" height="1.08"/><rect class="cls-4" x="50.84" y="66.73" width="10.9" height="1.08"/><rect class="cls-4" x="63.39" y="66.73" width="10.9" height="1.08"/><rect class="cls-4" x="50.84" y="68.8" width="10.9" height="1.08"/><rect class="cls-4" x="63.39" y="68.8" width="10.9" height="1.08"/><rect class="cls-4" x="50.84" y="70.86" width="10.9" height="1.08"/><rect class="cls-4" x="63.39" y="70.86" width="10.9" height="1.08"/><rect class="cls-4" x="50.84" y="72.93" width="10.9" height="1.08"/><rect class="cls-4" x="63.39" y="72.93" width="10.9" height="1.08"/><rect class="cls-4" x="50.84" y="74.99" width="10.9" height="1.08"/><rect class="cls-4" x="63.39" y="74.99" width="10.9" height="1.08"/><rect class="cls-4" x="50.84" y="77.06" width="10.9" height="1.08"/><rect class="cls-4" x="63.39" y="77.06" width="10.9" height="1.08"/><rect class="cls-4" x="50.84" y="79.12" width="10.9" height="1.08"/><rect class="cls-4" x="63.39" y="79.12" width="10.9" height="1.08"/><rect class="cls-4" x="50.84" y="81.19" width="10.9" height="1.08"/><rect class="cls-4" x="63.39" y="81.19" width="10.9" height="1.08"/><rect class="cls-4" x="50.84" y="83.26" width="10.9" height="1.08"/><rect class="cls-4" x="63.39" y="83.26" width="10.9" height="1.08"/><rect class="cls-4" x="50.84" y="85.32" width="10.9" height="1.08"/><rect class="cls-4" x="63.39" y="85.32" width="10.9" height="1.08"/><rect class="cls-4" x="50.84" y="87.39" width="10.9" height="1.08"/><rect class="cls-4" x="63.39" y="87.39" width="10.9" height="1.08"/><rect class="cls-4" x="50.84" y="89.45" width="10.9" height="1.08"/><rect class="cls-4" x="63.39" y="89.45" width="10.9" height="1.08"/><rect class="cls-4" x="50.84" y="91.52" width="10.9" height="1.08"/><rect class="cls-4" x="63.39" y="91.52" width="10.9" height="1.08"/><rect class="cls-4" x="50.84" y="93.58" width="10.9" height="1.08"/><rect class="cls-4" x="63.39" y="93.58" width="10.9" height="1.08"/><rect class="cls-4" x="50.84" y="95.65" width="10.9" height="1.08"/><rect class="cls-4" x="63.39" y="95.65" width="10.9" height="1.08"/><rect class="cls-4" x="50.84" y="97.71" width="10.9" height="1.08"/><rect class="cls-4" x="63.39" y="97.71" width="10.9" height="1.08"/><rect class="cls-4" x="50.84" y="99.78" width="10.9" height="1.08"/><rect class="cls-4" x="63.39" y="99.78" width="10.9" height="1.08"/><rect class="cls-4" x="19.86" y="13.68" width="7.97" height="1.08"/><rect class="cls-4" x="19.86" y="15.74" width="7.97" height="1.08"/><rect class="cls-4" x="19.86" y="17.81" width="7.97" height="1.08"/><rect class="cls-4" x="19.86" y="19.87" width="7.97" height="1.08"/><rect class="cls-4" x="19.86" y="21.94" width="7.97" height="1.08"/><rect class="cls-4" x="19.86" y="24" width="7.97" height="1.08"/><rect class="cls-4" x="19.86" y="26.07" width="7.97" height="1.08"/><rect class="cls-4" x="19.86" y="28.14" width="7.97" height="1.08"/><rect class="cls-4" x="19.86" y="30.2" width="7.97" height="1.08"/><rect class="cls-4" x="19.86" y="32.27" width="7.97" height="1.08"/><rect class="cls-4" x="19.86" y="34.33" width="7.97" height="1.08"/><rect class="cls-4" x="19.86" y="36.4" width="7.97" height="1.08"/><rect class="cls-4" x="19.86" y="38.46" width="7.97" height="1.08"/><rect class="cls-4" x="19.86" y="40.53" width="7.97" height="1.08"/><rect class="cls-4" x="19.86" y="42.59" width="7.97" height="1.08"/><rect class="cls-4" x="19.86" y="44.66" width="7.97" height="1.08"/><rect class="cls-4" x="19.86" y="46.72" width="7.97" height="1.08"/><rect class="cls-4" x="19.86" y="48.79" width="7.97" height="1.08"/><rect class="cls-4" x="19.86" y="50.85" width="7.97" height="1.08"/><rect class="cls-4" x="19.86" y="52.92" width="7.97" height="1.08"/><rect class="cls-4" x="19.86" y="54.99" width="7.97" height="1.08"/><rect class="cls-4" x="19.86" y="57.05" width="7.97" height="1.08"/><rect class="cls-4" x="19.86" y="59.12" width="7.97" height="1.08"/><rect class="cls-4" x="19.86" y="61.18" width="7.97" height="1.08"/><rect class="cls-4" x="19.86" y="63.25" width="7.97" height="1.08"/><rect class="cls-4" x="19.86" y="65.31" width="7.97" height="1.08"/><rect class="cls-4" x="19.86" y="67.38" width="7.97" height="1.08"/><rect class="cls-4" x="19.86" y="69.44" width="7.97" height="1.08"/><rect class="cls-4" x="19.86" y="71.51" width="7.97" height="1.08"/><rect class="cls-4" x="19.86" y="73.57" width="7.97" height="1.08"/><rect class="cls-4" x="19.86" y="75.64" width="7.97" height="1.08"/><rect class="cls-4" x="19.86" y="77.7" width="7.97" height="1.08"/><rect class="cls-4" x="19.86" y="79.77" width="7.97" height="1.08"/><rect class="cls-4" x="19.86" y="81.84" width="7.97" height="1.08"/><rect class="cls-4" x="19.86" y="83.9" width="7.97" height="1.08"/><rect class="cls-4" x="19.86" y="85.97" width="7.97" height="1.08"/><rect class="cls-4" x="19.86" y="88.03" width="7.97" height="1.08"/><rect class="cls-4" x="19.86" y="90.1" width="7.97" height="1.08"/><rect class="cls-4" x="19.86" y="92.16" width="7.97" height="1.08"/><rect class="cls-4" x="19.86" y="94.23" width="7.97" height="1.08"/><rect class="cls-4" x="19.86" y="96.29" width="7.97" height="1.08"/><rect class="cls-4" x="19.86" y="98.36" width="7.97" height="1.08"/><rect class="cls-4" x="19.86" y="100.42" width="7.97" height="1.08"/><path class="cls-2" d="M47.15,27.93v0a1.75,1.75,0,0,0-2.35-.53c-2.33,1.35-6.64,4.38-6.18,8.1.64,5.07,0,65.89,0,65.89H55.72V51.62a3.22,3.22,0,0,0-.09-.76C55,48.41,51.4,34.49,47.15,27.93Z"/></g></g></svg>