<svg xmlns="http://www.w3.org/2000/svg" viewBox="0 0 86.98 50.9"><defs><style>.cls-1{fill:#743a00;}.cls-2{fill:#fff803;}.cls-3{fill:#ffb70e;}</style></defs><g id="Layer_2" data-name="Layer 2"><g id="Layer_1-2" data-name="Layer 1"><rect class="cls-1" x="2.82" y="31.18" width="84.17" height="3.09" rx="1.54"/><rect class="cls-1" y="42.18" width="84.17" height="3.09" rx="1.54"/><path class="cls-1" d="M7,44H7a1.11,1.11,0,0,1-1.14-1.61l3.54-8.73a2.76,2.76,0,0,1,2.43-1.58h0a1.11,1.11,0,0,1,1.14,1.61L9.39,42.39A2.79,2.79,0,0,1,7,44Z"/><path class="cls-1" d="M15.13,44h0A1.11,1.11,0,0,1,14,42.43l3.53-8.74A2.8,2.8,0,0,1,20,32.12h0a1.11,1.11,0,0,1,1.14,1.6l-3.53,8.74A2.8,2.8,0,0,1,15.13,44Z"/><path class="cls-1" d="M23.29,44.1h0a1.11,1.11,0,0,1-1.14-1.61l3.54-8.73a2.76,2.76,0,0,1,2.43-1.58h0a1.11,1.11,0,0,1,1.14,1.61l-3.54,8.73A2.76,2.76,0,0,1,23.29,44.1Z"/><path class="cls-1" d="M31.46,44.17h0a1.11,1.11,0,0,1-1.14-1.61l3.53-8.73a2.79,2.79,0,0,1,2.43-1.58h0a1.11,1.11,0,0,1,1.14,1.61l-3.53,8.73A2.79,2.79,0,0,1,31.46,44.17Z"/><path class="cls-1" d="M39.62,44.23h0a1.11,1.11,0,0,1-1.14-1.6L42,33.89a2.78,2.78,0,0,1,2.43-1.57h0a1.11,1.11,0,0,1,1.14,1.6l-3.54,8.74A2.77,2.77,0,0,1,39.62,44.23Z"/><path class="cls-1" d="M47.79,44.3h0a1.11,1.11,0,0,1-1.14-1.61L50.18,34a2.79,2.79,0,0,1,2.43-1.58h0A1.11,1.11,0,0,1,53.75,34l-3.53,8.73A2.79,2.79,0,0,1,47.79,44.3Z"/><path class="cls-1" d="M56,44.37h0a1.11,1.11,0,0,1-1.14-1.61L58.35,34a2.77,2.77,0,0,1,2.43-1.58h0a1.11,1.11,0,0,1,1.14,1.61l-3.54,8.73A2.76,2.76,0,0,1,56,44.37Z"/><path class="cls-1" d="M64.12,44.43h0A1.11,1.11,0,0,1,63,42.83l3.53-8.74a2.8,2.8,0,0,1,2.43-1.57h0a1.11,1.11,0,0,1,1.15,1.6l-3.54,8.74A2.78,2.78,0,0,1,64.12,44.43Z"/><path class="cls-1" d="M72.28,44.5h0a1.11,1.11,0,0,1-1.14-1.61l3.54-8.73a2.77,2.77,0,0,1,2.43-1.58h0a1.11,1.11,0,0,1,1.14,1.61l-3.53,8.73A2.79,2.79,0,0,1,72.28,44.5Z"/><rect class="cls-1" x="60.19" y="35.98" width="7.34" height="14.91" rx="2.97"/><rect class="cls-2" x="62.27" y="11.03" width="3.19" height="4.42"/><path class="cls-1" d="M65.46,2.25a1.6,1.6,0,0,0-3.19,0V11h3.19Z"/><path class="cls-1" d="M62.27,40a1.6,1.6,0,0,0,3.19,0v-6.9H62.27Z"/><rect class="cls-2" x="62.27" y="19.87" width="3.19" height="4.42"/><rect class="cls-2" x="62.27" y="28.72" width="3.19" height="4.42"/><rect class="cls-1" x="62.27" y="15.45" width="3.19" height="4.42"/><rect class="cls-1" x="62.27" y="24.3" width="3.19" height="4.42"/><polygon class="cls-1" points="31.09 5.8 28.96 8.98 36.07 8.98 38.2 5.8 31.09 5.8"/><path class="cls-2" d="M25.16,5.8a1.59,1.59,0,1,0,0,3.18H29L31.09,5.8Z"/><polygon class="cls-2" points="38.2 5.8 36.07 8.98 43.18 8.98 45.31 5.8 38.2 5.8"/><path class="cls-1" d="M63,5.8H59.52L57.39,9H63A1.59,1.59,0,1,0,63,5.8Z"/><polygon class="cls-1" points="45.31 5.8 43.18 8.98 50.29 8.98 52.41 5.8 45.31 5.8"/><polygon class="cls-2" points="52.41 5.8 50.29 8.98 57.4 8.98 59.52 5.8 52.41 5.8"/><circle class="cls-1" cx="32.41" cy="11.29" r="2.23"/><circle class="cls-1" cx="37.96" cy="11.29" r="2.23"/><circle class="cls-1" cx="50.72" cy="11.29" r="2.23"/><circle class="cls-1" cx="56.42" cy="11.29" r="2.23"/><rect class="cls-3" x="43.87" y="-1.84" width="2.86" height="18.12" transform="translate(9.14 35.45) rotate(-47.02)"/><rect class="cls-3" x="36.62" y="5.96" width="17.94" height="2.86" transform="translate(8.13 34.4) rotate(-45)"/><rect class="cls-3" x="62.55" y="16.03" width="2.86" height="18.12" transform="translate(2.01 54.8) rotate(-47.02)"/><rect class="cls-3" x="55.3" y="23.82" width="17.94" height="2.86" transform="translate(0.97 52.84) rotate(-45)"/></g></g></svg>