<svg xmlns="http://www.w3.org/2000/svg" viewBox="0 0 35.64 83.57"><defs><style>.cls-1{fill:#b4b7b2;}.cls-2{fill:#ff7373;}.cls-3{fill:#fff;}.cls-4{fill:#5466cc;}</style></defs><g id="Layer_2" data-name="Layer 2"><g id="Layer_1-2" data-name="Layer 1"><rect class="cls-1" x="8.95" y="21.47" width="2.09" height="2.87"/><circle class="cls-2" cx="13.96" cy="19.83" r="7.07"/><path class="cls-3" d="M6.57,20H21.35a0,0,0,0,1,0,0V76.78a2.84,2.84,0,0,1-2.84,2.84H9.41a2.84,2.84,0,0,1-2.84-2.84V20A0,0,0,0,1,6.57,20Z"/><rect class="cls-3" x="12.26" y="12.05" width="3.89" height="1.54" rx="0.51"/><rect class="cls-3" y="25.71" width="27.92" height="7.17"/><rect class="cls-2" x="6.16" y="18.6" width="15.6" height="1.49" rx="0.51"/><rect class="cls-3" x="13.49" width="1.44" height="12.76" rx="0.51"/><rect class="cls-4" y="25.71" width="27.92" height="1.49" rx="0.51"/><rect class="cls-4" y="32.14" width="27.92" height="1.49" rx="0.51"/><rect class="cls-4" x="2.55" y="28.1" width="3.54" height="2.84" rx="0.51"/><rect class="cls-4" x="8.95" y="28.1" width="3.54" height="2.84" rx="0.51"/><rect class="cls-4" x="15.36" y="28.1" width="3.54" height="2.84" rx="0.51"/><rect class="cls-4" x="21.76" y="28.1" width="3.54" height="2.84" rx="0.51"/><rect class="cls-4" x="12.92" y="21.47" width="2.09" height="2.87" rx="0.51"/><rect class="cls-4" x="8.95" y="21.47" width="2.09" height="2.87" rx="0.51"/><rect class="cls-4" x="16.88" y="21.47" width="2.09" height="2.87" rx="0.51"/><rect class="cls-4" x="13.06" y="40.79" width="1.49" height="2.1" rx="0.51"/><rect class="cls-4" x="13.06" y="49.02" width="1.49" height="2.1" rx="0.51"/><rect class="cls-4" x="13.06" y="57.24" width="1.49" height="2.1" rx="0.51"/><path class="cls-4" d="M14.12,76.94a10.78,10.78,0,0,1,10-10.73c-.26,0-.52,0-.79,0a10.75,10.75,0,0,0-8.75,17,.94.94,0,0,0,.77.38h1.1A10.68,10.68,0,0,1,14.12,76.94Z"/><path class="cls-2" d="M24.88,66.18c-.27,0-.53,0-.79,0a10.78,10.78,0,0,0-10,10.73,10.63,10.63,0,0,0,2,6.2,1,1,0,0,0,.86.43h2.4a8.63,8.63,0,0,1,4.73-15.23c.26,0,.52,0,.79,0A8.63,8.63,0,0,1,30.4,83.57h2.4a1,1,0,0,0,.86-.43,10.63,10.63,0,0,0,2-6.2A10.78,10.78,0,0,0,24.88,66.18Z"/></g></g></svg>