<svg width="521" height="492" viewBox="0 0 521 492" fill="none" xmlns="http://www.w3.org/2000/svg">
<path d="M512.5 191.301V187C511.009 187.002 509.544 187.396 508.253 188.143C506.962 188.89 505.891 189.963 505.146 191.256L508.879 193.406C509.244 192.768 509.771 192.237 510.407 191.867C511.043 191.498 511.765 191.302 512.5 191.301Z" fill="#E9432D"/>
<path d="M516.122 193.406L519.854 191.256C519.11 189.963 518.038 188.89 516.747 188.143C515.456 187.396 513.991 187.002 512.5 187V191.301C513.236 191.302 513.958 191.498 514.594 191.867C515.23 192.237 515.757 192.768 516.122 193.406Z" fill="white"/>
<path d="M508.303 195.498C508.306 194.762 508.505 194.04 508.878 193.406L505.146 191.256C504.395 192.546 504 194.012 504 195.505C504 196.997 504.395 198.464 505.146 199.754L508.878 197.597C508.503 196.961 508.304 196.237 508.303 195.498Z" fill="white"/>
<path d="M512.5 199.702V203.997C513.991 203.996 515.455 203.602 516.746 202.857C518.037 202.111 519.109 201.038 519.854 199.747L516.122 197.59C515.758 198.23 515.231 198.762 514.595 199.133C513.959 199.504 513.236 199.7 512.5 199.702Z" fill="white"/>
<path d="M519.854 191.256L516.122 193.407C516.502 194.038 516.703 194.761 516.703 195.498C516.703 196.236 516.502 196.959 516.122 197.59L519.854 199.748C520.605 198.457 521 196.991 521 195.498C521 194.006 520.605 192.54 519.854 191.249V191.256Z" fill="#E9432D"/>
<path d="M508.878 197.59L505.146 199.747C505.891 201.038 506.963 202.111 508.254 202.857C509.545 203.602 511.009 203.996 512.5 203.997V199.702C511.764 199.7 511.041 199.504 510.405 199.133C509.769 198.762 509.242 198.23 508.878 197.59Z" fill="#E9432D"/>
<path d="M501.505 157.797V154C500.188 154 498.894 154.347 497.754 155.006C496.614 155.666 495.668 156.615 495.012 157.757L498.305 159.66C498.627 159.095 499.093 158.625 499.655 158.298C500.216 157.971 500.855 157.798 501.505 157.797Z" fill="#60B9DA"/>
<path d="M504.696 159.66L507.993 157.757C507.337 156.616 506.392 155.668 505.253 155.009C504.114 154.349 502.821 154.001 501.505 154V157.797C502.153 157.8 502.79 157.974 503.35 158.301C503.91 158.628 504.374 159.096 504.696 159.66Z" fill="white"/>
<path d="M497.797 161.504C497.8 160.855 497.975 160.218 498.305 159.659L495.012 157.757C494.349 158.895 494 160.189 494 161.507C494 162.824 494.349 164.118 495.012 165.257L498.305 163.358C497.974 162.796 497.799 162.156 497.797 161.504Z" fill="white"/>
<path d="M501.505 165.217V169.009C502.822 169.009 504.116 168.662 505.256 168.004C506.397 167.345 507.344 166.398 508.002 165.257L504.696 163.358C504.373 163.92 503.908 164.388 503.348 164.714C502.788 165.04 502.153 165.213 501.505 165.217Z" fill="white"/>
<path d="M508.002 157.757L504.695 159.659C505.034 160.217 505.213 160.857 505.213 161.509C505.213 162.161 505.034 162.801 504.695 163.358L507.993 165.261C508.653 164.121 509 162.828 509 161.511C509 160.194 508.653 158.901 507.993 157.761L508.002 157.757Z" fill="#60B9DA"/>
<path d="M498.305 163.358L495.012 165.257C495.669 166.398 496.615 167.345 497.755 168.004C498.895 168.663 500.188 169.009 501.505 169.009V165.217C500.855 165.215 500.218 165.042 499.656 164.716C499.094 164.39 498.629 163.922 498.305 163.358Z" fill="#60B9DA"/>
<path d="M328.021 311.719C330.104 313.44 333.727 311.931 333.923 312.746C334.119 313.561 336.527 312.746 336.874 317.078C337.222 321.411 336.806 326.943 338.022 327.645C339.237 328.347 339.644 329.004 340.686 330.597C341.728 332.189 343.811 336.673 342.95 339.654C342.09 342.636 342.264 343.639 340.686 346.591C339.108 349.542 338.316 350.365 338.21 352.274C338.105 354.184 339.637 354.871 338.852 355.527C338.067 356.184 336.587 354.637 334.089 355.527C331.591 356.418 328.511 354.561 327.621 353.263C326.73 351.965 325.666 352.402 324.73 353.263C323.794 354.123 316.427 359.467 316.729 361.354C317.031 363.241 320.08 364.592 318.858 365.181C317.635 365.77 313.385 366.162 312.064 365.181C310.744 364.2 307.204 362.215 306.781 360.018C306.358 357.822 307.438 345.934 306.781 344.817C306.598 344.568 306.366 344.358 306.099 344.202C305.832 344.046 305.536 343.946 305.23 343.908C304.923 343.871 304.611 343.897 304.315 343.984C304.018 344.072 303.743 344.219 303.505 344.417C302.486 345.217 304.403 350.621 303.241 350.644C302.079 350.666 285.956 353.414 284.273 351.202C282.59 348.991 277.737 345.806 278.401 344.583C279.065 343.36 281.239 341.692 281.194 339.941C281.148 338.19 281.02 337.526 283.232 336.627C285.443 335.729 286.017 334.514 285.443 333.608C284.869 332.703 282.016 333.314 282.99 331.993C283.964 330.672 285.458 328.627 285.058 327.932C284.658 327.238 283.737 326.559 283.035 327.079C282.333 327.6 281.058 329.563 280.333 329.344C279.609 329.125 277.08 326.906 277.442 326.287C277.805 325.668 279.503 324.204 279.224 323.517C279.181 323.373 279.109 323.239 279.014 323.123C278.919 323.007 278.801 322.911 278.668 322.841C278.536 322.77 278.39 322.727 278.241 322.714C278.091 322.7 277.94 322.717 277.797 322.762C277.208 322.943 271.004 333.472 269.827 333.472C268.649 333.472 265.396 332.65 265.373 330.733C265.351 328.815 268.121 327.94 267.864 326.604C267.607 325.268 266.105 323.313 264.483 325.758C262.86 328.204 260.935 328.944 262.294 330.536C263.652 332.129 264.724 331.691 264.083 332.853C263.441 334.016 260.641 333.925 262.015 335.412C263.388 336.899 265.849 337.201 265.977 338.665C266.105 340.13 265.222 342.771 263.713 342.439C262.203 342.107 263.003 343.904 261.645 344.266C260.286 344.628 258.218 345.458 257.924 346.794C257.629 348.13 259.561 349.195 258.89 349.67C258.218 350.146 255.055 348.878 254.836 349.059C254.618 349.24 256.837 350.765 256.135 351.451C255.433 352.138 255.38 352.621 254.052 352.493C252.723 352.365 253.131 350.349 252.323 351.406C251.515 352.463 252.67 353.414 252.685 354.252C252.7 355.09 252.323 357.565 251.447 358.305C250.572 359.045 249.183 360.645 245.213 359.731C241.243 358.818 240.111 359.399 239.612 359.996C239.114 360.592 241.205 380.669 239.084 382.549C236.963 384.428 237.22 384.813 236.435 384.715C235.65 384.617 235.265 382.201 233.71 382.775C232.155 383.349 230.54 383.643 230.2 384.745C229.861 385.847 229.445 387.628 231.242 388.934C233.038 390.24 235.016 391.357 235.016 393.131C235.046 394.656 235.236 396.174 235.582 397.66C235.884 399.343 239.356 399.924 237.703 401.554C236.05 403.185 235.325 405.547 232.887 406.717C230.449 407.887 230.245 407.472 229.506 407.849C228.766 408.227 231.159 410.408 230.63 411.193C230.102 411.978 227.611 414.914 225.558 413.835C223.505 412.755 220.139 400.822 220.916 399.999C221.694 399.177 222.826 399.441 223.09 398.701C223.354 397.961 217.452 391.629 217.142 387.802C216.833 383.975 218.01 382.518 217.837 381.62C217.663 380.722 216.146 376.05 216.667 375.106C216.759 374.968 216.812 374.807 216.821 374.641C216.829 374.475 216.793 374.31 216.716 374.162C216.639 374.015 216.523 373.891 216.382 373.804C216.241 373.716 216.078 373.668 215.912 373.665C215.565 373.665 213.935 376.412 212.357 377.092C210.78 377.771 209.874 377.62 209.119 376.744C208.364 375.869 207.67 375.491 207.149 375.793C206.628 376.095 205.33 376.314 208.538 384.549C211.746 392.784 209.225 398.573 209.534 401.215C209.844 403.856 214.818 411.382 214.697 413.631C214.576 415.88 215.995 419.669 214.787 420.779C213.58 421.888 211.187 424.22 207.67 422.424C204.153 420.628 202.688 421.722 203.247 419.473C203.805 417.224 201.473 407.547 199.609 407.2C197.744 406.853 196.529 405.245 195.956 406.762C195.382 408.279 192.114 408.785 190.672 408.589C189.23 408.393 187.902 407.547 187.245 408.325C186.589 409.102 186.121 410.37 186.687 411.095C187.253 411.819 193.321 410.453 194.62 411.706C195.918 412.959 196.967 415.359 196.401 416.303C195.835 417.246 197.276 419.209 195.752 419.994C194.227 420.779 195.148 421.866 192.28 421.035C189.412 420.205 188.317 417.654 186.438 417.873C184.558 418.092 183.215 419.782 183.562 420.552C183.909 421.322 189.125 423.669 189.245 424.636C189.366 425.602 190.536 427.24 188.672 428.017C186.808 428.794 185.69 429.67 184.996 430.968C184.302 432.267 184.294 432.184 182.822 432.621C181.35 433.059 181.441 432.704 180.913 434.176C180.384 435.648 182.649 437.693 179.486 437.278C176.324 436.863 175.191 437.739 175.365 435.301C175.539 432.863 177.365 432.35 178.135 430.364C178.492 429.398 178.653 428.371 178.609 427.342C178.565 426.313 178.317 425.303 177.878 424.371C177.124 423.073 172.595 419.692 171.199 417.344C169.802 414.997 168.602 408.71 168.776 408.038C168.949 407.366 158.548 376.095 161.296 371.582C164.043 367.068 169.795 354.071 165.07 353.248C160.345 352.425 163.266 355.067 161.296 359.739C159.326 364.411 158.397 378.714 151.483 376.193C144.57 373.672 142.517 370.91 143.181 365.166C143.845 359.422 146.743 349.029 146.743 349.029C146.743 349.029 144.856 342.756 144.328 344.59C144.328 344.59 142.864 350.327 142.705 351.285C142.547 352.244 142.6 356.071 141.566 357.943C140.531 359.814 139.407 362.864 138.003 363.4C136.599 363.936 136.184 365.068 135.331 365.611C134.478 366.155 130.432 366.404 129.021 367.159C127.61 367.913 124.492 371.159 124.492 372.178C124.492 373.197 125.307 378.329 124.492 379.356C123.677 380.382 112.046 381.869 109.797 380.745C107.547 379.62 107.457 370.072 107.887 369.121C108.317 368.17 113.17 339.798 114.831 338.326C116.492 336.854 117.307 334.076 117.095 333.337C116.884 332.597 110.257 330.566 108.529 331.525C106.8 332.484 102.928 342.749 102.754 344.047C102.581 345.345 101.66 364.426 100.822 366.638C99.9843 368.849 98.0672 370.08 97.0482 371.831C96.0292 373.582 97.0482 378.261 95.5386 379.635C94.0291 381.009 81.9826 379.016 81.6203 377.771C81.258 376.525 81.8241 375.431 81.6203 375.054C81.4165 374.676 51.0967 374.442 49.7985 375.657C48.5003 376.873 48.4776 397.131 47.9191 398.852C47.3605 400.573 45.7529 403.245 45.934 404.89C46.1152 406.536 48.7871 409.57 50.4627 409.744C52.1384 409.917 59.3088 406.8 60.441 407.743C61.5732 408.687 64.1697 414.076 64.0866 416.159C64.0036 418.243 62.5167 420.764 63.1281 422.749C63.7394 424.734 64.9471 425.443 63.9885 427.526C63.0299 429.61 62.6073 429.036 62.4337 431.949C62.2601 434.863 65.7321 435.157 61.5657 436.727C57.3992 438.297 55.7538 436.984 56.184 438.992C56.6142 440.999 57.2256 438.124 56.886 443.158C56.5463 448.193 57.7917 448.328 54.8028 450.276C51.8138 452.223 52.3648 451.921 51.4213 453.914C50.4778 455.906 50.7269 453.876 48.7267 456.344C46.7265 458.812 47.1417 457.265 46.9983 460.337C46.8548 463.409 42.6054 461.213 47.6021 463.794C52.5988 466.375 54.3952 464.692 53.3234 467.621C52.2516 470.549 52.5686 469.289 51.2402 472.489C49.9117 475.689 50.6363 473.78 50.1986 478.293C49.7608 482.807 50.9533 481.267 48.1833 484.505C45.4132 487.743 46.1302 488.181 42.7488 489.132C39.3674 490.083 38.756 490 38.4012 489.132C38.0465 488.264 37.971 488.528 39.0126 485.924C40.0542 483.32 41.5185 483.969 40.2278 482.717C38.9371 481.464 37.3068 481.879 36.0463 482.309C34.7858 482.739 34.1518 483.818 34.0612 481.931C33.9706 480.045 34.899 480.18 35.3745 478.55C35.85 476.92 36.7256 476.248 33.7064 475.75C30.6873 475.252 30.2495 475.682 30.9439 473.433C31.6383 471.183 29.9023 471.787 32.9366 470.489C35.9708 469.191 37.4653 471.123 36.1444 468.051C34.8235 464.979 32.2573 466.541 34.8084 464.987C37.3596 463.432 38.756 464.76 38.756 463.288C38.756 461.816 40.1674 460.465 38.1974 458.91C36.2274 457.356 34.6726 458.337 32.5063 457.341C30.3401 456.344 27.9776 452.253 22.8752 451.136C22.8752 451.136 14.1952 450.623 15.501 448.366C16.8068 446.109 19.6674 446.192 20.4826 446.373C21.2977 446.555 23.5017 447.83 24.3169 446.962C25.1321 446.094 27.6153 443.498 26.7473 442.109C25.8793 440.72 22.3469 440.063 21.2826 438.939C20.2184 437.814 17.9993 436.312 19.5617 435.165C21.1241 434.018 20.6184 435.354 22.5809 434.033C24.5433 432.712 25.2075 429.791 24.4452 428.243C23.6829 426.696 20.4977 425.096 19.5542 423.971C18.6107 422.847 18.4069 419.216 16.535 418.424C14.6632 417.631 8.72299 417.722 8.54939 416.076C8.37578 414.431 9.76459 413.057 8.54939 412.265C7.33418 411.472 4.0735 413.299 3.18285 412.431C2.2922 411.563 1.03925 401.494 3.18285 400.467C5.32644 399.441 6.8964 400.377 6.8964 399.516C6.8964 398.656 7.22851 397.35 10.5043 397.252C13.7801 397.154 42.4393 390.18 43.0658 389.221C43.6923 388.262 43.6093 381.673 42.5676 381.673C41.526 381.673 24.6943 383.749 24.0074 382.186C23.3206 380.624 22.8073 376.903 23.8414 376.02C24.8754 375.137 28.4305 372.601 30.1665 373.001C31.9025 373.401 33.6461 373.672 34.4235 372.736C35.2009 371.8 36.7633 371.801 37.6238 371.801C38.4842 371.801 38.3786 367.981 39.707 367.71C41.0354 367.438 42.3941 367.71 41.2694 366.698C40.1448 365.687 30.2269 353.354 34.6499 350.931C39.073 348.508 45.9717 351.014 49.3154 349.021C52.6592 347.028 55.3537 343.217 54.9537 341.473C54.5537 339.73 48.2512 336.235 48.1606 331.585C48.07 326.936 47.7304 320.558 46.1755 320.475C44.6207 320.392 41.3147 322.385 39.6693 321.426C38.0238 320.467 38.5975 318.143 35.2538 317.879C31.9101 317.614 21.3128 311.976 19.992 309.802C18.6711 307.628 19.3127 305.749 16.6105 304.768C13.9084 303.787 11.7497 304.081 11.7497 300.239C11.7497 296.397 9.77214 293.446 7.90027 291.182C6.0284 288.917 4.39805 286.072 5.90008 284.162C7.40211 282.253 9.49287 282.419 12.0893 282.592C14.6858 282.766 15.6897 281.641 17.8786 281.294C20.0674 280.947 32.3101 280.781 34.2122 282.947C36.1142 285.113 35.7821 285.717 39.4202 285.03C43.0583 284.343 46.5378 281.905 50.2589 282.079C53.98 282.253 54.7877 284.162 55.8217 282.683C56.8558 281.203 55.9953 276.086 57.988 275.392C59.9806 274.697 66.2906 273.346 68.0493 273.406C69.8079 273.467 68.6607 271.897 73.6951 271.753C78.7295 271.61 83.3186 272.704 84.0206 274.614C84.7225 276.524 86.7906 279.996 84.1866 281.822C81.5826 283.649 79.8541 282.162 79.756 284.245C79.6579 286.328 82.5412 293.348 84.1036 293.008C85.666 292.669 87.9455 292.797 88.1719 291.793C88.3983 290.789 85.5754 282.139 86.9039 281.649C88.2323 281.158 90.5948 281.883 91.8553 281.135C93.1158 280.388 89.372 277.543 89.4173 275.852C89.4626 274.161 90.7231 271.686 89.6815 270.901C88.6399 270.116 84.0508 267.202 84.9942 266.138C85.9377 265.074 85.6056 263.798 86.9039 263.7C88.2021 263.602 91.5534 266.651 92.1119 265.866C92.6704 265.081 92.7233 255.986 92.0213 254.544C91.3194 253.103 86.9039 247.834 87.0775 245.977C87.2511 244.121 87.1605 240.135 86.217 238.482C85.2735 236.829 81.2354 230.519 82.3751 228.814C83.5149 227.108 85.5 227.342 86.7076 225.696C87.9153 224.051 89.923 220.919 91.5609 220.134C92.9564 219.499 94.2926 218.741 95.5537 217.869C96.9501 216.941 97.1237 213.959 99.5465 213.786C101.969 213.612 107.706 216.141 110.74 215.439C113.774 214.737 120.975 215.695 121.156 214.684C121.337 213.673 117.163 209.129 117.382 207.831C117.601 206.532 122.666 204.094 124.062 204.358C125.458 204.623 128.493 211.559 130.568 212.767C132.644 213.974 138.554 206.178 142.539 204.185C146.525 202.192 153.733 196.109 158.594 197.505C163.454 198.901 166.662 200.456 171.085 199.935C175.508 199.415 187.736 198.977 191.125 197.935C194.514 196.894 199.541 195.769 204.047 192.131C205.025 191.229 205.894 190.216 206.636 189.112C212.176 181.42 221.316 163.313 221.837 159.856C222.441 155.78 224.434 144.421 227.121 142.164C229.808 139.907 232.842 136.692 239.869 137.635C246.896 138.579 255.923 143.009 259.041 140.239C262.158 137.469 265.026 136.594 263.728 130.616C262.43 124.638 261.297 123.581 266.589 119.415C271.88 115.248 269.796 113.173 273.095 113.256C276.393 113.339 284.545 114.01 285.926 115.777C287.307 117.543 290.878 117.679 294.229 114.388C297.58 111.097 294.485 105.451 301.256 104.757C308.026 104.062 308.192 106.319 312.797 104.666C317.401 103.013 315.74 103.111 316.948 102.855C318.156 102.598 320.631 103.421 322.737 102.658C322.978 102.472 323.187 102.248 323.356 101.994C324.012 101 324.4 99.8537 324.481 98.6656C324.813 95.6465 323.092 86.5286 325.862 85.1323C328.632 83.7359 328.723 86.4683 329.855 85.1323C330.987 83.7963 329.379 76.9806 332.119 76.2862C334.859 75.5918 337.652 73.0934 338.157 71.2517C338.663 69.4101 337.335 66.3985 337.569 64.3152C337.803 62.232 339.584 62.9868 339.584 61.4848C339.584 59.9828 340.497 53.2878 342.731 52.2839C344.966 51.2801 346.324 51.0083 347.102 47.8609C347.879 44.7134 341.705 36.8108 341.705 36.8108C341.705 36.8108 333.168 32.1236 333.923 29.6554C334.678 27.1873 343.116 30.3498 345.147 30.2517C347.177 30.1536 349.328 28.9761 351.23 29.9875C353.132 30.9989 355.125 32.116 362.084 32.3349C369.043 32.5538 363.315 36.7504 366.87 37.9505C370.425 39.1506 372.002 38.1015 374.946 40.2753C377.889 42.4491 380.644 47.7552 386.162 47.1891C391.679 46.623 395.71 40.7432 398.54 39.3393C401.371 37.9354 403.069 36.9844 404.579 36.0334C406.088 35.0823 407.704 31.1046 409.96 28.7044C412.217 26.3042 411.689 17.6166 410.813 16.5297C409.938 15.4428 403.884 12.2651 404.579 10.7027C405.273 9.14029 409.485 2 411.696 2C413.104 2.04997 414.476 2.45723 415.683 3.18346C416.889 3.90969 417.892 4.93101 418.595 6.15133C420.052 8.91385 427.97 13.2614 430.392 12.9444C432.815 12.6274 436.982 11.0424 439.767 11.382C442.552 11.7217 445.05 12.6048 447.224 11.7292C449.398 10.8537 449.994 7.56278 451.564 7.38918C453.134 7.21558 457.369 10.7706 459.867 10.1291C462.365 9.48749 462.486 4.62666 463.158 4.46815C463.83 4.30965 467.551 7.93263 470.2 7.60807C472.849 7.28351 476.367 4.36248 477.861 5.10218C479.355 5.84187 478.231 10.4234 479.189 11.4575C480.148 12.4915 484.639 19.2393 486.601 19.3903C488.564 19.5413 490.141 21.9717 490.307 23.919C490.474 25.8664 490.526 28.644 491.893 29.4743C493.259 30.3045 495.025 29.912 496.421 31.5952C497.818 33.2784 493.093 39.2714 494.481 40.7885C496.413 43.1937 497.618 46.1003 497.953 49.1667C498.127 52.1858 491.915 58.4656 492.776 59.7337C493.636 61.0017 496.587 63.2208 501.607 61.4169C506.626 59.6129 505.426 64.4888 507.23 64.8889C509.034 65.2889 513.963 64.1341 515.593 66.3985C517.223 68.6628 518.612 71.5008 517.721 73.6142C516.831 75.7276 514.091 74.9728 513.947 76.7466C513.804 78.5203 514.423 85.0945 513.374 87.1777C512.325 89.261 501.388 90.0837 501.214 86.6947C501.041 83.3057 502.641 81.9924 501.146 81.2904C499.652 80.5885 498.18 78.6637 497.101 78.5883C496.021 78.5128 491.719 78.86 490.541 79.9997C489.364 81.1395 487.975 83.3057 485.069 83.5397C482.163 83.7737 476.465 87.0419 476.012 90.0912C475.559 93.1406 476.578 96.0314 475.891 97.5938C475.204 99.1562 472.419 101.753 472.419 104.387C472.419 107.021 473.808 118.826 473.113 122.185C472.419 125.544 470.147 124.706 471.219 127.717C472.291 130.729 474.91 131.235 474.185 132.903C473.461 134.571 470.509 132.661 470.17 134.412C469.83 136.163 469.989 138.05 469.815 139.96C469.641 141.87 468.773 145.696 466.864 146.21C464.954 146.723 460.275 145.168 459.407 146.21C458.539 147.251 457.142 148.293 457.844 150.029C458.546 151.765 458.018 154.014 456.463 154.014C454.908 154.014 448.99 153.154 448.304 154.709C447.617 156.263 446.673 159.826 449.172 161.132C451.67 162.438 457.029 158.543 460.395 158.867C463.762 159.192 465.052 157.652 465.951 159.388C466.849 161.124 466.705 165.638 467.385 168.944C468.064 172.25 468.773 179.873 466.69 179.345C464.607 178.816 461.241 176.477 460.448 177.616C459.656 178.756 458.365 179.179 460.795 181.428C463.226 183.677 464.094 185.421 462.697 186.115C461.301 186.81 457.127 184.206 457.225 185.851C457.323 187.497 457.157 189.957 457.837 191.889C458.516 193.822 459.505 194.327 457.701 195.663C455.897 196.999 452.991 196.879 452.991 197.928C452.991 198.977 454.168 202.849 453.519 204.396C452.87 205.944 450.5 211.295 448.53 211.114C446.56 210.933 447.141 209.031 445.7 207.815C444.258 206.6 444.945 202.185 443.36 202.404C441.775 202.622 440.559 202.849 440.71 204.064C440.861 205.279 441.677 207.551 441.344 209.159C441.012 210.767 436.921 211.34 436.71 213.688C436.499 216.035 435.638 218.971 437.548 220.866C439.457 222.76 443.096 223.99 443.443 226.255C443.79 228.519 445.526 236.143 444.658 237.184C443.79 238.226 440.386 237.048 439.276 239.26C438.167 241.471 437.367 243.087 437.721 244.989C438.076 246.891 439.805 249.676 438.235 250.891C436.665 252.106 431.857 252.469 431.442 250.891C431.026 249.314 429.932 247.819 429.177 248.589C428.422 249.359 426.913 250.348 426.468 251.94C426.022 253.533 427.132 255.895 425.335 255.714C423.539 255.533 422.271 254.054 421.275 254.522C420.278 254.99 421.086 256.552 419.169 257.012C417.252 257.473 417.387 255.586 416.021 256.303C414.655 257.02 412.157 258.635 412.187 260.651C412.217 262.666 412.73 274.991 411.176 275.859C409.621 276.727 407.183 283.89 405.794 283.958C404.405 284.026 401.628 282.502 400.42 283.958C399.212 285.415 398.835 286.676 395.378 287.778C391.921 288.88 391.264 287.929 389.007 286.54C386.751 285.151 384.479 284.585 381.845 283.958C379.21 283.332 373.315 282.924 371.678 284.192C370.04 285.46 369.021 288.457 368.507 289.476C367.994 290.495 367.443 293.423 365.888 293.084C364.333 292.744 363.458 291.627 363.767 290.231C363.817 289.884 363.756 289.531 363.592 289.221C363.429 288.912 363.172 288.662 362.858 288.507C362.544 288.352 362.189 288.3 361.844 288.359C361.499 288.418 361.182 288.584 360.937 288.834C360.524 289.199 360.036 289.468 359.507 289.621C358.977 289.774 358.421 289.808 357.877 289.72C357.333 289.632 356.816 289.424 356.362 289.111C355.908 288.799 355.53 288.39 355.253 287.913C353.668 285.392 353.88 286.404 353.744 283.996C353.608 281.588 352.347 280.101 350.272 280.977C348.196 281.852 346.271 282.532 347.411 283.996C348.551 285.46 350.627 287.166 348.724 288.087C346.822 289.008 346.219 287.959 344.89 289.936C343.562 291.914 345.509 295.793 342.271 293.106C339.033 290.419 336.912 288.223 335.523 289.091C334.134 289.959 328.33 295.235 330.104 297.499C331.878 299.764 332.882 298.714 332.882 301.137C332.882 303.56 333.485 305.666 331.885 307.04C330.285 308.413 328.866 308.429 327.847 309.304C326.828 310.18 325.945 310.014 327.998 311.727" fill="#7AD888"/>
<path d="M328.021 311.719C330.104 313.44 333.727 311.931 333.923 312.746C334.119 313.561 336.527 312.746 336.874 317.078C337.222 321.411 336.806 326.943 338.022 327.645C339.237 328.347 339.644 329.004 340.686 330.597C341.728 332.189 343.811 336.673 342.95 339.654C342.09 342.636 342.264 343.639 340.686 346.591C339.108 349.542 338.316 350.365 338.21 352.274C338.105 354.184 339.637 354.871 338.852 355.527C338.067 356.184 336.587 354.637 334.089 355.527C331.591 356.418 328.511 354.561 327.621 353.263C326.73 351.965 325.666 352.402 324.73 353.263C323.794 354.123 316.427 359.467 316.729 361.354C317.031 363.241 320.08 364.592 318.858 365.181C317.635 365.77 313.385 366.162 312.064 365.181C310.744 364.2 307.204 362.215 306.781 360.018C306.358 357.822 307.438 345.934 306.781 344.817C306.598 344.568 306.366 344.358 306.099 344.202C305.832 344.046 305.536 343.946 305.23 343.908C304.923 343.871 304.611 343.897 304.315 343.984C304.018 344.072 303.743 344.219 303.505 344.417C302.486 345.217 304.403 350.621 303.241 350.644C302.079 350.666 285.956 353.414 284.273 351.202C282.59 348.991 277.737 345.806 278.401 344.583C279.065 343.36 281.239 341.692 281.194 339.941C281.148 338.19 281.02 337.526 283.232 336.627C285.443 335.729 286.017 334.514 285.443 333.608C284.869 332.703 282.016 333.314 282.99 331.993C283.964 330.672 285.458 328.627 285.058 327.932C284.658 327.238 283.737 326.559 283.035 327.079C282.333 327.6 281.058 329.563 280.333 329.344C279.609 329.125 277.08 326.906 277.442 326.287C277.805 325.668 279.503 324.204 279.224 323.517C279.181 323.373 279.109 323.239 279.014 323.123C278.919 323.007 278.801 322.911 278.668 322.841C278.536 322.77 278.39 322.727 278.241 322.714C278.091 322.7 277.94 322.717 277.797 322.762C277.208 322.943 271.004 333.472 269.827 333.472C268.649 333.472 265.396 332.65 265.373 330.733C265.351 328.815 268.121 327.94 267.864 326.604C267.607 325.268 266.105 323.313 264.483 325.758C262.86 328.204 260.935 328.944 262.294 330.536C263.652 332.129 264.724 331.691 264.083 332.853C263.441 334.016 260.641 333.925 262.015 335.412C263.388 336.899 265.849 337.201 265.977 338.665C266.105 340.13 265.222 342.771 263.713 342.439C262.203 342.107 263.003 343.904 261.645 344.266C260.286 344.628 258.218 345.458 257.924 346.794C257.629 348.13 259.561 349.195 258.89 349.67C258.218 350.146 255.055 348.878 254.836 349.059C254.618 349.24 256.837 350.765 256.135 351.451C255.433 352.138 255.38 352.621 254.052 352.493C252.723 352.365 253.131 350.349 252.323 351.406C251.515 352.463 252.67 353.414 252.685 354.252C252.7 355.09 252.323 357.565 251.447 358.305C250.572 359.045 249.183 360.645 245.213 359.731C241.243 358.818 240.111 359.399 239.612 359.996C239.114 360.592 241.205 380.669 239.084 382.549C236.963 384.428 237.22 384.813 236.435 384.715C235.65 384.617 235.265 382.201 233.71 382.775C232.155 383.349 230.54 383.643 230.2 384.745C229.861 385.847 229.445 387.628 231.242 388.934C233.038 390.24 235.016 391.357 235.016 393.131C235.046 394.656 235.236 396.174 235.582 397.66C235.884 399.343 239.356 399.924 237.703 401.554C236.05 403.185 235.325 405.547 232.887 406.717C230.449 407.887 230.246 407.472 229.506 407.849C228.766 408.227 231.159 410.408 230.63 411.193C230.102 411.978 227.611 414.914 225.558 413.835C223.505 412.755 220.139 400.822 220.916 399.999C221.694 399.177 222.826 399.441 223.09 398.701C223.354 397.961 217.452 391.629 217.142 387.802C216.833 383.975 218.01 382.518 217.837 381.62C217.663 380.722 216.146 376.05 216.667 375.106C216.759 374.968 216.812 374.807 216.821 374.641C216.829 374.475 216.793 374.31 216.716 374.162C216.639 374.015 216.523 373.891 216.382 373.804C216.241 373.716 216.078 373.668 215.912 373.665C215.565 373.665 213.935 376.412 212.357 377.092C210.78 377.771 209.874 377.62 209.119 376.744C208.364 375.869 207.67 375.491 207.149 375.793C206.628 376.095 205.33 376.314 208.538 384.549C211.746 392.784 209.225 398.573 209.534 401.215C209.844 403.856 214.818 411.382 214.697 413.631C214.576 415.88 215.995 419.669 214.787 420.779C213.58 421.888 211.187 424.22 207.67 422.424C204.153 420.628 202.688 421.722 203.247 419.473C203.805 417.224 201.473 407.547 199.609 407.2C197.744 406.853 196.529 405.245 195.956 406.762C195.382 408.279 192.114 408.785 190.672 408.589C189.23 408.393 187.902 407.547 187.245 408.325C186.589 409.102 186.121 410.37 186.687 411.095C187.253 411.819 193.321 410.453 194.62 411.706C195.918 412.959 196.967 415.359 196.401 416.303C195.835 417.246 197.276 419.209 195.752 419.994C194.227 420.779 195.148 421.866 192.28 421.035C189.412 420.205 188.317 417.654 186.438 417.873C184.558 418.092 183.215 419.782 183.562 420.552C183.909 421.322 189.125 423.669 189.245 424.636C189.366 425.602 190.536 427.24 188.672 428.017C186.808 428.794 185.69 429.67 184.996 430.968C184.302 432.267 184.294 432.184 182.822 432.621C181.35 433.059 181.441 432.704 180.913 434.176C180.384 435.648 182.649 437.693 179.486 437.278C176.324 436.863 175.191 437.739 175.365 435.301C175.539 432.863 177.365 432.35 178.135 430.364C178.492 429.398 178.653 428.371 178.609 427.342C178.565 426.313 178.317 425.303 177.878 424.371C177.124 423.073 172.595 419.692 171.199 417.344C169.802 414.997 168.602 408.71 168.776 408.038C168.949 407.366 158.548 376.095 161.296 371.582C164.043 367.068 169.795 354.071 165.07 353.248C160.345 352.425 163.266 355.067 161.296 359.739C159.326 364.411 158.397 378.714 151.483 376.193C144.57 373.672 142.517 370.91 143.181 365.166C143.845 359.422 146.743 349.029 146.743 349.029C146.743 349.029 144.856 342.756 144.328 344.59C144.328 344.59 142.864 350.327 142.705 351.285C142.547 352.244 142.6 356.071 141.566 357.943C140.531 359.814 139.407 362.864 138.003 363.4C136.599 363.936 136.184 365.068 135.331 365.611C134.478 366.155 130.432 366.404 129.021 367.159C127.61 367.913 124.492 371.159 124.492 372.178C124.492 373.197 125.307 378.329 124.492 379.356C123.677 380.382 112.046 381.869 109.797 380.745C107.547 379.62 107.457 370.072 107.887 369.121C108.317 368.17 113.17 339.798 114.831 338.326C116.492 336.854 117.307 334.076 117.095 333.337C116.884 332.597 110.257 330.566 108.529 331.525C106.8 332.484 102.928 342.749 102.754 344.047C102.581 345.345 101.66 364.426 100.822 366.638C99.9843 368.849 98.0672 370.08 97.0482 371.831C96.0292 373.582 97.0482 378.261 95.5386 379.635C94.0291 381.009 81.9826 379.016 81.6203 377.771C81.258 376.525 81.8241 375.431 81.6203 375.054C81.4166 374.676 51.0967 374.442 49.7985 375.657C48.5003 376.873 48.4776 397.131 47.9191 398.852C47.3605 400.573 45.7529 403.245 45.934 404.89C46.1152 406.536 48.7871 409.57 50.4627 409.744C52.1384 409.917 59.3088 406.8 60.441 407.743C61.5732 408.687 64.1697 414.076 64.0866 416.159C64.0036 418.243 62.5167 420.764 63.1281 422.749C63.7394 424.734 64.9471 425.443 63.9885 427.526C63.0299 429.61 62.6073 429.036 62.4337 431.949C62.2601 434.863 65.7321 435.157 61.5657 436.727C57.3992 438.297 55.7538 436.984 56.184 438.992C56.6142 440.999 57.2256 438.124 56.886 443.158C56.5463 448.193 57.7917 448.328 54.8028 450.276C51.8138 452.223 52.3648 451.921 51.4213 453.914C50.4778 455.906 50.7269 453.876 48.7267 456.344C46.7265 458.812 47.1417 457.265 46.9983 460.337C46.8548 463.409 42.6054 461.213 47.6021 463.794C52.5988 466.375 54.3952 464.692 53.3234 467.621C52.2516 470.549 52.5686 469.289 51.2402 472.489C49.9117 475.689 50.6363 473.78 50.1986 478.293C49.7608 482.807 50.9533 481.267 48.1833 484.505C45.4132 487.743 46.1302 488.181 42.7488 489.132C39.3674 490.083 38.756 490 38.4012 489.132C38.0465 488.264 37.971 488.528 39.0126 485.924C40.0542 483.32 41.5185 483.969 40.2278 482.717C38.9371 481.464 37.3068 481.879 36.0463 482.309C34.7858 482.739 34.1518 483.818 34.0612 481.931C33.9706 480.045 34.899 480.18 35.3745 478.55C35.85 476.92 36.7256 476.248 33.7064 475.75C30.6873 475.252 30.2495 475.682 30.9439 473.433C31.6383 471.183 29.9023 471.787 32.9366 470.489C35.9708 469.191 37.4653 471.123 36.1444 468.051C34.8235 464.979 32.2573 466.541 34.8084 464.987C37.3596 463.432 38.756 464.76 38.756 463.288C38.756 461.816 40.1674 460.465 38.1974 458.91C36.2274 457.356 34.6726 458.337 32.5063 457.341C30.3401 456.344 27.9776 452.253 22.8752 451.136C22.8752 451.136 14.1952 450.623 15.501 448.366C16.8068 446.109 19.6674 446.192 20.4826 446.373C21.2977 446.555 23.5017 447.83 24.3169 446.962C25.1321 446.094 27.6153 443.498 26.7473 442.109C25.8793 440.72 22.3469 440.063 21.2826 438.939C20.2184 437.814 17.9993 436.312 19.5617 435.165C21.1241 434.018 20.6184 435.354 22.5809 434.033C24.5433 432.712 25.2075 429.791 24.4452 428.243C23.6829 426.696 20.4977 425.096 19.5542 423.971C18.6107 422.847 18.4069 419.216 16.535 418.424C14.6632 417.631 8.72299 417.722 8.54939 416.076C8.37578 414.431 9.76459 413.057 8.54939 412.265C7.33418 411.472 4.0735 413.299 3.18285 412.431C2.2922 411.563 1.03925 401.494 3.18285 400.467C5.32644 399.441 6.8964 400.377 6.8964 399.516C6.8964 398.656 7.22851 397.35 10.5043 397.252C13.7801 397.154 42.4393 390.18 43.0658 389.221C43.6923 388.262 43.6093 381.673 42.5676 381.673C41.526 381.673 24.6943 383.749 24.0074 382.186C23.3206 380.624 22.8073 376.903 23.8414 376.02C24.8754 375.137 28.4305 372.601 30.1665 373.001C31.9025 373.401 33.6461 373.672 34.4235 372.736C35.2009 371.8 36.7633 371.801 37.6238 371.801C38.4842 371.801 38.3786 367.981 39.707 367.71C41.0354 367.438 42.394 367.71 41.2694 366.698C40.1448 365.687 30.2269 353.354 34.6499 350.931C39.073 348.508 45.9717 351.014 49.3154 349.021C52.6592 347.028 55.3537 343.217 54.9537 341.473C54.5537 339.73 48.2512 336.235 48.1606 331.585C48.07 326.936 47.7304 320.558 46.1755 320.475C44.6207 320.392 41.3147 322.385 39.6693 321.426C38.0238 320.467 38.5975 318.143 35.2538 317.879C31.9101 317.614 21.3128 311.976 19.992 309.802C18.6711 307.628 19.3127 305.749 16.6105 304.768C13.9084 303.787 11.7497 304.081 11.7497 300.239C11.7497 296.397 9.77214 293.446 7.90027 291.182C6.0284 288.917 4.39805 286.072 5.90008 284.162C7.40211 282.253 9.49287 282.419 12.0893 282.592C14.6858 282.766 15.6897 281.641 17.8786 281.294C20.0674 280.947 32.3101 280.781 34.2122 282.947C36.1142 285.113 35.7821 285.717 39.4202 285.03C43.0583 284.343 46.5378 281.905 50.2589 282.079C53.98 282.253 54.7877 284.162 55.8217 282.683C56.8558 281.203 55.9953 276.086 57.988 275.392C59.9806 274.697 66.2906 273.346 68.0493 273.406C69.8079 273.467 68.6607 271.897 73.6951 271.753C78.7295 271.61 83.3186 272.704 84.0206 274.614C84.7225 276.524 86.7906 279.996 84.1866 281.822C81.5826 283.649 79.8541 282.162 79.756 284.245C79.6579 286.328 82.5412 293.348 84.1036 293.008C85.666 292.669 87.9455 292.797 88.1719 291.793C88.3983 290.789 85.5754 282.139 86.9039 281.649C88.2323 281.158 90.5948 281.883 91.8553 281.135C93.1158 280.388 89.372 277.543 89.4173 275.852C89.4626 274.161 90.7231 271.686 89.6815 270.901C88.6399 270.116 84.0508 267.202 84.9942 266.138C85.9377 265.074 85.6056 263.798 86.9039 263.7C88.2021 263.602 91.5534 266.651 92.1119 265.866C92.6704 265.081 92.7233 255.986 92.0213 254.544C91.3194 253.103 86.9039 247.834 87.0775 245.977C87.2511 244.121 87.1605 240.135 86.217 238.482C85.2735 236.829 81.2354 230.519 82.3751 228.814C83.5149 227.108 85.5 227.342 86.7076 225.696C87.9153 224.051 89.923 220.919 91.5609 220.134C92.9564 219.499 94.2926 218.741 95.5537 217.869C96.9501 216.941 97.1237 213.959 99.5465 213.786C101.969 213.612 107.706 216.141 110.74 215.439C113.774 214.737 120.975 215.695 121.156 214.684C121.337 213.673 117.163 209.129 117.382 207.831C117.601 206.532 122.666 204.094 124.062 204.358C125.458 204.623 128.493 211.559 130.568 212.767C132.644 213.974 138.554 206.178 142.539 204.185C146.525 202.192 153.733 196.109 158.594 197.505C163.454 198.901 166.662 200.456 171.085 199.935C175.508 199.415 187.736 198.977 191.125 197.935C194.514 196.894 199.541 195.769 204.047 192.131C205.025 191.229 205.894 190.216 206.636 189.112C212.176 181.42 221.316 163.313 221.837 159.856C222.441 155.78 224.434 144.421 227.121 142.164C229.808 139.907 232.842 136.692 239.869 137.635C246.896 138.579 255.923 143.009 259.041 140.239C262.158 137.469 265.026 136.594 263.728 130.616C262.43 124.638 261.297 123.581 266.589 119.415C271.88 115.248 269.796 113.173 273.095 113.256C276.393 113.339 284.545 114.01 285.926 115.777C287.307 117.543 290.878 117.679 294.229 114.388C297.58 111.097 294.485 105.451 301.256 104.757C308.026 104.062 308.192 106.319 312.797 104.666C317.401 103.013 315.74 103.111 316.948 102.855C318.156 102.598 320.631 103.421 322.737 102.658C322.978 102.472 323.187 102.248 323.356 101.994C324.012 101 324.4 99.8537 324.481 98.6656C324.813 95.6465 323.092 86.5286 325.862 85.1323C328.632 83.7359 328.723 86.4683 329.855 85.1323C330.987 83.7963 329.379 76.9806 332.119 76.2862C334.859 75.5918 337.652 73.0934 338.157 71.2517C338.663 69.4101 337.335 66.3985 337.569 64.3152C337.803 62.232 339.584 62.9868 339.584 61.4848C339.584 59.9828 340.497 53.2878 342.731 52.2839C344.966 51.2801 346.324 51.0083 347.102 47.8609C347.879 44.7134 341.705 36.8108 341.705 36.8108C341.705 36.8108 333.168 32.1236 333.923 29.6554C334.678 27.1873 343.116 30.3498 345.147 30.2517C347.177 30.1536 349.328 28.9761 351.23 29.9875C353.132 30.9989 355.125 32.116 362.084 32.3349C369.043 32.5538 363.315 36.7504 366.87 37.9505C370.425 39.1506 372.002 38.1015 374.946 40.2753C377.889 42.4491 380.644 47.7552 386.162 47.1891C391.679 46.623 395.71 40.7432 398.54 39.3393C401.371 37.9354 403.069 36.9844 404.579 36.0334C406.088 35.0823 407.704 31.1046 409.96 28.7044C412.217 26.3042 411.689 17.6166 410.813 16.5297C409.938 15.4428 403.884 12.2651 404.579 10.7027C405.273 9.14029 409.485 2 411.696 2C413.104 2.04997 414.476 2.45723 415.683 3.18346C416.89 3.90969 417.892 4.93101 418.595 6.15133C420.052 8.91385 427.97 13.2614 430.392 12.9444C432.815 12.6274 436.982 11.0424 439.767 11.382C442.552 11.7217 445.05 12.6048 447.224 11.7292C449.398 10.8537 449.994 7.56278 451.564 7.38918C453.134 7.21558 457.369 10.7706 459.867 10.1291C462.365 9.48749 462.486 4.62666 463.158 4.46815C463.83 4.30965 467.551 7.93263 470.2 7.60807C472.849 7.28351 476.367 4.36248 477.861 5.10218C479.356 5.84187 478.231 10.4234 479.189 11.4575C480.148 12.4915 484.639 19.2393 486.601 19.3903C488.564 19.5413 490.141 21.9717 490.307 23.919C490.474 25.8664 490.526 28.644 491.893 29.4743C493.259 30.3045 495.025 29.912 496.421 31.5952C497.818 33.2784 493.093 39.2714 494.481 40.7885C496.413 43.1937 497.618 46.1003 497.953 49.1667C498.127 52.1858 491.915 58.4656 492.776 59.7337C493.636 61.0017 496.587 63.2208 501.607 61.4169C506.626 59.6129 505.426 64.4888 507.23 64.8889C509.034 65.2889 513.963 64.1341 515.593 66.3985C517.223 68.6628 518.612 71.5008 517.721 73.6142C516.831 75.7276 514.091 74.9728 513.947 76.7466C513.804 78.5203 514.423 85.0945 513.374 87.1777C512.325 89.261 501.388 90.0837 501.214 86.6947C501.041 83.3057 502.641 81.9924 501.146 81.2904C499.652 80.5885 498.18 78.6638 497.101 78.5883C496.021 78.5128 491.719 78.86 490.541 79.9997C489.364 81.1394 487.975 83.3057 485.069 83.5397C482.163 83.7737 476.465 87.0419 476.012 90.0912C475.559 93.1406 476.578 96.0314 475.891 97.5938C475.204 99.1562 472.419 101.753 472.419 104.387C472.419 107.021 473.808 118.826 473.113 122.185C472.419 125.544 470.147 124.706 471.219 127.717C472.291 130.729 474.91 131.235 474.185 132.903C473.461 134.571 470.509 132.661 470.17 134.412C469.83 136.163 469.989 138.05 469.815 139.96C469.641 141.87 468.773 145.696 466.864 146.21C464.954 146.723 460.275 145.168 459.407 146.21C458.539 147.251 457.142 148.293 457.844 150.029C458.546 151.765 458.018 154.014 456.463 154.014C454.908 154.014 448.99 153.154 448.304 154.709C447.617 156.263 446.673 159.826 449.172 161.132C451.67 162.438 457.029 158.543 460.395 158.867C463.762 159.192 465.052 157.652 465.951 159.388C466.849 161.124 466.705 165.638 467.385 168.944C468.064 172.25 468.773 179.873 466.69 179.345C464.607 178.816 461.241 176.477 460.448 177.616C459.656 178.756 458.365 179.179 460.795 181.428C463.226 183.677 464.094 185.421 462.697 186.115C461.301 186.81 457.127 184.206 457.225 185.851C457.323 187.497 457.157 189.957 457.837 191.889C458.516 193.822 459.505 194.327 457.701 195.663C455.897 196.999 452.991 196.879 452.991 197.928C452.991 198.977 454.168 202.849 453.519 204.396C452.87 205.944 450.5 211.295 448.53 211.114C446.56 210.933 447.141 209.031 445.7 207.815C444.258 206.6 444.945 202.185 443.36 202.404C441.775 202.622 440.559 202.849 440.71 204.064C440.861 205.279 441.677 207.551 441.344 209.159C441.012 210.767 436.921 211.34 436.71 213.688C436.499 216.035 435.638 218.971 437.548 220.866C439.457 222.76 443.096 223.99 443.443 226.255C443.79 228.519 445.526 236.143 444.658 237.184C443.79 238.226 440.386 237.048 439.276 239.26C438.167 241.471 437.367 243.087 437.721 244.989C438.076 246.891 439.805 249.676 438.235 250.891C436.665 252.106 431.857 252.469 431.442 250.891C431.026 249.314 429.932 247.819 429.177 248.589C428.422 249.359 426.913 250.348 426.468 251.94C426.022 253.533 427.132 255.895 425.335 255.714C423.539 255.533 422.271 254.054 421.275 254.522C420.278 254.99 421.086 256.552 419.169 257.012C417.252 257.473 417.387 255.586 416.021 256.303C414.655 257.02 412.157 258.635 412.187 260.651C412.217 262.666 412.73 274.991 411.176 275.859C409.621 276.727 407.183 283.89 405.794 283.958C404.405 284.026 401.628 282.502 400.42 283.958C399.212 285.415 398.835 286.676 395.378 287.778C391.921 288.88 391.264 287.929 389.007 286.54C386.751 285.151 384.479 284.585 381.845 283.958C379.21 283.332 373.315 282.924 371.678 284.192C370.04 285.46 369.021 288.457 368.507 289.476C367.994 290.495 367.443 293.423 365.888 293.084C364.333 292.744 363.458 291.627 363.767 290.231C363.817 289.884 363.756 289.531 363.592 289.221C363.429 288.912 363.172 288.662 362.858 288.507C362.544 288.352 362.189 288.3 361.844 288.359C361.499 288.418 361.182 288.584 360.937 288.834C360.524 289.199 360.036 289.468 359.507 289.621C358.977 289.774 358.421 289.808 357.877 289.72C357.333 289.632 356.816 289.424 356.362 289.111C355.908 288.799 355.53 288.39 355.253 287.913C353.668 285.392 353.88 286.404 353.744 283.996C353.608 281.588 352.347 280.101 350.272 280.977C348.196 281.852 346.271 282.532 347.411 283.996C348.551 285.46 350.627 287.166 348.724 288.087C346.822 289.008 346.219 287.959 344.89 289.936C343.562 291.914 345.509 295.793 342.271 293.106C339.033 290.419 336.912 288.223 335.523 289.091C334.134 289.959 328.33 295.235 330.104 297.499C331.878 299.764 332.882 298.714 332.882 301.137C332.882 303.56 333.485 305.666 331.885 307.04C330.285 308.413 328.866 308.429 327.847 309.304C326.828 310.18 325.945 310.014 327.998 311.727" stroke="#FDFDFD" stroke-width="4" stroke-miterlimit="10"/>
<path d="M247.545 367.143C248.028 370.294 249.312 373.267 251.274 375.778C254.421 379.552 258.822 379.084 258.995 382.066C259.169 385.047 265.668 393.387 269.562 393.878C273.457 394.369 278.326 392.836 278.62 394.633C278.914 396.429 278.62 399.796 279.684 401.381C280.748 402.966 284.009 407.057 285.639 406.151C287.27 405.245 290.115 403.252 291.678 403.781C293.24 404.309 298.471 420.892 303.415 418.824C308.359 416.756 307.845 413.887 308.615 412.461C309.385 411.034 313.31 408.453 312.268 406.098C311.227 403.743 303.966 403.32 302.894 401.75C301.822 400.18 300.101 396.21 300.033 394.912C299.965 393.614 296.644 397.41 295.98 394.24C295.316 391.07 295.225 391.07 297.761 389.953C300.297 388.836 302.124 386.692 300.078 385.764C298.033 384.836 293.444 377.982 294.04 375.748C294.636 373.514 294.04 372.804 293.285 371.846C292.531 370.887 282.998 357.777 281.473 358.199C279.948 358.622 274.28 352.991 271.661 353.255C269.042 353.52 265.758 356.659 262.603 357.429C259.448 358.199 253.946 359.067 251.372 361.581C248.798 364.094 246.972 364.675 247.545 367.143Z" fill="#7AD888" stroke="#FDFDFD" stroke-width="4" stroke-miterlimit="10"/>
<path d="M206.666 189.067C206.666 189.067 211.791 205.008 209.806 212.05C207.821 219.092 207.458 225.583 204.802 229.561C204.802 229.561 201.684 235.222 202.99 238.015C204.296 240.807 205.805 238.837 209.783 240.709C213.761 242.581 216.576 242.574 219.263 245.396C221.95 248.219 233.657 244.642 235.197 246.529C236.737 248.416 236.374 252.763 234.072 255.805C231.77 258.847 226.139 260.922 225.43 263.738C224.72 266.553 225.988 273.18 227.022 275.203C228.057 277.226 223.249 280.607 224.003 283.151C224.758 285.695 227.853 284.811 230.177 287.732C232.502 290.653 233.355 295.68 230.887 297.613C228.419 299.545 231.891 306.119 227.355 308.716C222.818 311.312 237.922 308.716 239.205 311.735C240.488 314.754 239.748 322.264 240.103 326.717C240.458 331.17 238.525 332.657 240.103 335.095C241.68 337.533 242.148 337.133 241.673 341.232C241.197 345.33 234.359 344.017 235.182 347.534C236.004 351.052 237.272 356.826 239.62 360.026" stroke="white" stroke-width="3" stroke-miterlimit="10" stroke-dasharray="5 5"/>
<path d="M323.432 101.964C323.432 101.964 326.926 110.833 329.84 109.421C332.753 108.01 338.225 112.063 341.305 113.127C344.385 114.191 347.139 116.66 345.887 120.886C344.634 125.113 338.595 131.008 339.184 133.235C339.773 135.461 341.086 138.08 340.067 142.413C339.048 146.745 335.018 143.228 335.131 146.466C335.244 149.704 332.504 156.754 335.478 157.229C338.452 157.705 350.808 156.724 352.944 158.814C355.08 160.905 350.43 163.253 352.944 166.053C355.457 168.853 357.54 169.344 357.54 172.378C357.54 175.412 358.295 179.609 355.94 182.288C353.585 184.968 356.106 186.817 350.657 188.274C345.207 189.731 347.992 186.923 345.2 189.783C342.407 192.644 347.464 193.776 344.392 197.12C341.32 200.464 340.369 197.98 337.071 200.479C333.772 202.977 330.67 202.373 331.259 204.879C331.847 207.385 334.338 212.88 333.901 216.201C333.463 219.522 327.055 213.778 324.088 221.681C321.122 229.583 323.869 223.56 325.673 227.493C327.477 231.425 331.87 227.115 330.957 231.199C330.044 235.282 328.172 241.894 328.692 243.902C329.213 245.909 324.654 245.411 327.017 249.6C329.379 253.789 329.945 252.212 328.104 255.986C326.262 259.76 326.217 260.915 322.941 261.269C319.665 261.624 320.956 256.899 316.193 257.563C311.431 258.227 313.25 263.564 310.91 267.466C308.57 271.368 305.838 269.217 305.483 274.365C305.302 276.999 307.272 279.792 309.468 282.584C311.664 285.377 313.891 287.936 314.699 290.434C316.352 295.529 319.469 297.756 317.869 300.246C316.269 302.737 312.268 302.669 315.944 304.375C319.62 306.081 327.507 311.425 328.021 311.757" stroke="white" stroke-width="3" stroke-miterlimit="10" stroke-dasharray="5 5"/>
<path d="M235.22 246.528C235.22 246.528 243.87 235.056 249.976 234.633C256.082 234.21 257.418 233.629 258.973 236.18C260.528 238.732 260.075 243.23 260.43 243.728C260.784 244.226 260.294 248.634 264.958 250.808C269.623 252.982 266.959 250.34 271.578 251.653C276.197 252.967 275.691 260.183 277.79 260.651C279.175 260.871 280.544 261.184 281.888 261.586C284.538 262.379 287.496 257.631 288.779 258.673C290.063 259.715 290.531 260.281 293.308 263.202C296.086 266.123 297.316 267.119 296.222 270.606C295.127 274.093 291.919 273.308 292.448 275.965C292.976 278.622 292.953 279.452 295.014 281.702C297.075 283.951 300.222 283.355 301.052 282.577C301.883 281.8 307.317 283.415 309.491 282.577" stroke="white" stroke-width="3" stroke-miterlimit="10" stroke-dasharray="5 5"/>
<g clip-path="url(#clip0_1030_5)">
<path d="M162.543 256.419C162.738 256.61 163.002 256.717 163.278 256.717C163.553 256.717 163.818 256.61 164.013 256.419L164.338 256.099L162.864 254.656L162.539 254.975C162.345 255.167 162.236 255.427 162.237 255.698C162.237 255.968 162.347 256.228 162.543 256.419Z" fill="#6DBC59"/>
<path d="M165.941 253.072C166.7 255.734 164.329 256.1 164.329 256.1L163.594 255.379L162.86 254.656C162.86 254.656 163.241 252.324 165.941 253.072Z" fill="#FFE84E"/>
<path d="M159.063 245.759H160.256V273H159.063V245.759Z" fill="#6DBC59"/>
<path d="M154.016 249.798L160.103 256.444L159.217 257.227L153.13 250.582L154.016 249.798Z" fill="#6DBC59"/>
<path d="M164.699 247.357L165.495 248.229L160.057 253.023L159.261 252.151L164.699 247.357Z" fill="#6DBC59"/>
<path d="M150.527 250.19C150.527 249.552 151.143 248.998 152.058 248.7C152.359 247.801 152.925 247.196 153.575 247.196C154.225 247.196 154.788 247.801 155.092 248.7C156.006 248.997 156.623 249.552 156.623 250.19C156.623 250.829 156.006 251.384 155.092 251.681C154.789 252.58 154.225 253.185 153.575 253.185C152.925 253.185 152.36 252.58 152.058 251.681C151.143 251.384 150.527 250.828 150.527 250.19Z" fill="#FFE84E"/>
<path d="M153.573 251.151C153.034 251.151 152.596 250.721 152.596 250.191C152.596 249.66 153.034 249.23 153.573 249.23C154.113 249.23 154.551 249.66 154.551 250.191C154.551 250.721 154.113 251.151 153.573 251.151Z" fill="#FFB54E"/>
<path d="M162.195 247.795C162.195 247.187 162.783 246.658 163.653 246.376C163.941 245.524 164.48 244.943 165.097 244.943C165.715 244.943 166.253 245.519 166.542 246.375C167.413 246.657 168 247.186 168 247.795C168 248.404 167.413 248.931 166.542 249.214C166.253 250.066 165.716 250.647 165.097 250.647C164.479 250.647 163.941 250.069 163.653 249.214C162.783 248.93 162.195 248.401 162.195 247.795Z" fill="#FFE84E"/>
<path d="M165.097 248.708C164.583 248.708 164.166 248.299 164.166 247.794C164.166 247.289 164.583 246.879 165.097 246.879C165.611 246.879 166.028 247.289 166.028 247.794C166.028 248.299 165.611 248.708 165.097 248.708Z" fill="#FFB54E"/>
<path d="M162.649 255.484L163.492 256.312L160.056 259.687L159.214 258.859L162.649 255.484Z" fill="#6DBC59"/>
<path d="M155.323 242.259C155.323 241.353 156.201 240.563 157.501 240.141C157.933 238.862 158.737 238 159.657 238C160.577 238 161.391 238.862 161.817 240.14C163.117 240.562 163.991 241.352 163.991 242.259C163.991 243.166 163.115 243.956 161.814 244.377C161.391 245.654 160.584 246.517 159.657 246.517C158.731 246.517 157.93 245.655 157.501 244.377C156.204 243.955 155.323 243.165 155.323 242.259Z" fill="#FFE84E"/>
<path d="M159.111 243.511C158.407 243.212 158.082 242.409 158.386 241.717C158.69 241.025 159.507 240.706 160.211 241.004C160.916 241.303 161.241 242.106 160.937 242.798C160.633 243.49 159.816 243.809 159.111 243.511Z" fill="#FFB54E"/>
<path d="M159.657 262.119C159.657 262.119 159.14 256.518 154.407 256.85C154.41 256.85 154.501 261.501 159.657 262.119Z" fill="#6DBC59"/>
<path d="M165.82 260.669C165.82 260.669 159.211 261.258 159.604 266.65C159.604 266.65 165.092 266.547 165.82 260.669Z" fill="#6DBC59"/>
<path d="M141.555 255.612C141.458 255.707 141.343 255.782 141.217 255.833C141.091 255.885 140.956 255.911 140.819 255.911C140.683 255.911 140.548 255.885 140.422 255.833C140.295 255.782 140.181 255.707 140.084 255.612L139.759 255.292L141.23 253.848L141.555 254.167C141.749 254.359 141.859 254.619 141.859 254.889C141.859 255.16 141.749 255.42 141.555 255.612Z" fill="#6DBC59"/>
<path d="M138.151 252.267C137.393 254.923 139.762 255.294 139.762 255.294L140.497 254.572L141.232 253.85C141.232 253.85 140.854 251.521 138.151 252.267Z" fill="#FFE84E"/>
<path d="M143.839 252.5H145.032V273H143.839V252.5Z" fill="#6DBC59"/>
<path d="M149.111 255.662L149.982 256.463L144.872 261.829L144.001 261.028L149.111 255.662Z" fill="#6DBC59"/>
<path d="M152.593 256.064C152.593 255.425 151.976 254.871 151.062 254.574C150.76 253.675 150.195 253.069 149.545 253.069C148.895 253.069 148.331 253.675 148.028 254.574C147.114 254.87 146.497 255.425 146.497 256.064C146.497 256.703 147.114 257.257 148.028 257.555C148.33 258.453 148.895 259.059 149.545 259.059C150.195 259.059 150.758 258.453 151.062 257.555C151.976 257.257 152.593 256.702 152.593 256.064Z" fill="#FFE84E"/>
<path d="M148.644 256.434C148.436 255.944 148.671 255.382 149.17 255.178C149.668 254.974 150.24 255.205 150.448 255.695C150.655 256.184 150.42 256.746 149.922 256.951C149.423 257.155 148.851 256.923 148.644 256.434Z" fill="#FFB54E"/>
<path d="M141.447 254.679L144.882 258.055L144.04 258.883L140.604 255.507L141.447 254.679Z" fill="#6DBC59"/>
<path d="M148.769 248.999C148.769 248.092 147.891 247.302 146.592 246.88C146.159 245.603 145.358 244.74 144.436 244.74C143.514 244.74 142.709 245.603 142.28 246.88C140.98 247.306 140.102 248.092 140.102 248.999C140.102 249.906 140.98 250.695 142.28 251.118C142.713 252.395 143.513 253.257 144.436 253.257C145.359 253.257 146.162 252.394 146.592 251.118C147.891 250.695 148.769 249.906 148.769 248.999Z" fill="#FFE84E"/>
<path d="M144.437 250.364C143.67 250.364 143.048 249.753 143.048 248.999C143.048 248.245 143.67 247.634 144.437 247.634C145.204 247.634 145.826 248.245 145.826 248.999C145.826 249.753 145.204 250.364 144.437 250.364Z" fill="#FFB54E"/>
<path d="M144.436 267.893C144.436 267.893 144.938 262.441 149.546 262.764C149.546 262.764 149.458 267.292 144.436 267.893Z" fill="#6DBC59"/>
<path d="M139.613 258.747C139.613 258.747 144.8 259.209 144.488 263.443C144.496 263.446 140.188 263.362 139.613 258.747Z" fill="#6DBC59"/>
<path d="M132.542 256.419C132.737 256.61 133.002 256.717 133.277 256.717C133.553 256.717 133.817 256.61 134.012 256.419L134.337 256.099L132.867 254.655L132.542 254.974C132.347 255.166 132.238 255.426 132.238 255.696C132.238 255.967 132.347 256.227 132.542 256.419Z" fill="#6DBC59"/>
<path d="M135.945 253.072C136.703 255.734 134.334 256.1 134.334 256.1L133.598 255.379L132.864 254.656C132.864 254.656 133.242 252.324 135.945 253.072Z" fill="#FFE84E"/>
<path d="M129.064 245.759H130.257V273H129.064V245.759Z" fill="#6DBC59"/>
<path d="M124.016 249.798L130.104 256.443L129.218 257.227L123.13 250.581L124.016 249.798Z" fill="#6DBC59"/>
<path d="M134.701 247.358L135.497 248.229L130.059 253.024L129.263 252.152L134.701 247.358Z" fill="#6DBC59"/>
<path d="M120.526 250.19C120.526 249.552 121.143 248.998 122.057 248.7C122.359 247.801 122.924 247.196 123.574 247.196C124.224 247.196 124.788 247.801 125.091 248.7C126.004 248.997 126.622 249.552 126.622 250.19C126.622 250.829 126.004 251.384 125.091 251.681C124.788 252.58 124.224 253.185 123.574 253.185C122.924 253.185 122.36 252.58 122.057 251.681C121.143 251.384 120.526 250.828 120.526 250.19Z" fill="#FFE84E"/>
<path d="M123.573 251.151C123.033 251.151 122.596 250.721 122.596 250.191C122.596 249.66 123.033 249.23 123.573 249.23C124.113 249.23 124.55 249.66 124.55 250.191C124.55 250.721 124.113 251.151 123.573 251.151Z" fill="#FFB54E"/>
<path d="M132.195 247.795C132.195 247.187 132.782 246.658 133.654 246.376C133.941 245.524 134.479 244.943 135.098 244.943C135.717 244.943 136.254 245.519 136.542 246.375C137.409 246.657 138 247.186 138 247.794C138 248.402 137.412 248.93 136.542 249.213C136.254 250.065 135.715 250.646 135.098 250.646C134.48 250.646 133.941 250.068 133.654 249.213C132.787 248.93 132.195 248.401 132.195 247.795Z" fill="#FFE84E"/>
<path d="M135.098 248.708C134.584 248.708 134.167 248.299 134.167 247.794C134.167 247.289 134.584 246.879 135.098 246.879C135.612 246.879 136.029 247.289 136.029 247.794C136.029 248.299 135.612 248.708 135.098 248.708Z" fill="#FFB54E"/>
<path d="M132.649 255.487L133.492 256.315L130.056 259.691L129.214 258.863L132.649 255.487Z" fill="#6DBC59"/>
<path d="M125.327 242.259C125.327 241.353 126.204 240.563 127.504 240.141C127.937 238.863 128.738 238.001 129.66 238.001C130.582 238.001 131.387 238.862 131.811 240.14C133.112 240.566 133.989 241.351 133.989 242.258C133.989 243.164 133.112 243.955 131.811 244.376C131.378 245.654 130.578 246.516 129.655 246.516C128.732 246.516 127.929 245.654 127.499 244.376C126.204 243.955 125.327 243.165 125.327 242.259Z" fill="#FFE84E"/>
<path d="M129.11 243.51C128.406 243.211 128.081 242.408 128.385 241.716C128.689 241.024 129.506 240.705 130.21 241.003C130.915 241.302 131.24 242.105 130.936 242.797C130.632 243.489 129.815 243.809 129.11 243.51Z" fill="#FFB54E"/>
<path d="M129.66 262.119C129.66 262.119 129.144 256.518 124.41 256.85C124.41 256.85 124.5 261.501 129.66 262.119Z" fill="#6DBC59"/>
<path d="M135.821 260.669C135.821 260.669 129.212 261.258 129.604 266.65C129.604 266.65 135.093 266.547 135.821 260.669Z" fill="#6DBC59"/>
<path d="M111.551 255.612C111.454 255.707 111.34 255.782 111.214 255.833C111.087 255.885 110.952 255.911 110.816 255.911C110.679 255.911 110.544 255.885 110.418 255.833C110.292 255.782 110.177 255.707 110.081 255.612L109.755 255.292L111.225 253.848L111.55 254.167C111.647 254.262 111.723 254.374 111.776 254.498C111.828 254.622 111.855 254.755 111.855 254.889C111.856 255.023 111.829 255.156 111.776 255.28C111.724 255.404 111.647 255.517 111.551 255.612Z" fill="#6DBC59"/>
<path d="M108.151 252.267C107.392 254.923 109.763 255.294 109.763 255.294L110.497 254.572L111.232 253.85C111.232 253.85 110.855 251.521 108.151 252.267Z" fill="#FFE84E"/>
<path d="M113.839 252.5H115.032V273H113.839V252.5Z" fill="#6DBC59"/>
<path d="M119.112 255.661L119.983 256.462L114.873 261.828L114.001 261.027L119.112 255.661Z" fill="#6DBC59"/>
<path d="M122.593 256.064C122.593 255.425 121.976 254.871 121.062 254.574C120.76 253.675 120.196 253.069 119.545 253.069C118.895 253.069 118.331 253.675 118.029 254.574C117.115 254.87 116.498 255.425 116.498 256.064C116.498 256.703 117.115 257.257 118.029 257.555C118.331 258.453 118.895 259.059 119.545 259.059C120.196 259.059 120.759 258.453 121.062 257.555C121.976 257.257 122.593 256.702 122.593 256.064Z" fill="#FFE84E"/>
<path d="M119.323 257C118.798 256.879 118.472 256.362 118.595 255.846C118.719 255.329 119.245 255.009 119.77 255.131C120.296 255.252 120.622 255.769 120.498 256.285C120.374 256.801 119.848 257.122 119.323 257Z" fill="#FFB54E"/>
<path d="M111.447 254.679L114.882 258.055L114.04 258.883L110.604 255.508L111.447 254.679Z" fill="#6DBC59"/>
<path d="M118.77 248.999C118.77 248.092 117.892 247.302 116.592 246.88C116.159 245.603 115.359 244.74 114.436 244.74C113.513 244.74 112.71 245.603 112.28 246.88C110.98 247.306 110.103 248.092 110.103 248.999C110.103 249.906 110.98 250.695 112.28 251.118C112.713 252.395 113.513 253.257 114.436 253.257C115.359 253.257 116.163 252.394 116.592 251.118C117.892 250.695 118.77 249.906 118.77 248.999Z" fill="#FFE84E"/>
<path d="M114.436 250.364C113.669 250.364 113.047 249.753 113.047 248.999C113.047 248.245 113.669 247.634 114.436 247.634C115.203 247.634 115.825 248.245 115.825 248.999C115.825 249.753 115.203 250.364 114.436 250.364Z" fill="#FFB54E"/>
<path d="M114.436 267.893C114.436 267.893 114.939 262.441 119.547 262.764C119.547 262.764 119.46 267.292 114.436 267.893Z" fill="#6DBC59"/>
<path d="M109.617 258.747C109.617 258.747 114.803 259.209 114.492 263.443C114.496 263.446 110.188 263.362 109.617 258.747Z" fill="#6DBC59"/>
</g>
<g clip-path="url(#clip1_1030_5)">
<path d="M237.649 198.838H238.878V202.929H237.649V198.838Z" fill="#D28B31"/>
<path d="M238.264 192C239.546 192 244.034 200.086 238.264 200.086C232.495 200.086 236.982 192 238.264 192Z" fill="#63A94E"/>
<path d="M230.259 198.838H231.488V202.929H230.259V198.838Z" fill="#D28B31"/>
<path d="M230.874 192C232.157 192 236.645 200.086 230.874 200.086C225.104 200.086 229.592 192 230.874 192Z" fill="#63A94E"/>
<path d="M243.512 205.909H244.741V210.001H243.512V205.909Z" fill="#D28B31"/>
<path d="M244.126 199.071C245.408 199.071 249.896 207.158 244.126 207.158C238.355 207.158 242.844 199.071 244.126 199.071Z" fill="#63A94E"/>
</g>
<g clip-path="url(#clip2_1030_5)">
<path d="M370.649 77.8376H371.878V81.929H370.649V77.8376Z" fill="#D28B31"/>
<path d="M371.264 71C372.546 71 377.034 79.0862 371.264 79.0862C365.495 79.0862 369.982 71 371.264 71Z" fill="#63A94E"/>
<path d="M363.259 77.8376H364.488V81.929H363.259V77.8376Z" fill="#D28B31"/>
<path d="M363.874 71C365.157 71 369.645 79.0862 363.874 79.0862C358.104 79.0862 362.592 71 363.874 71Z" fill="#63A94E"/>
<path d="M376.512 84.9094H377.741V89.0008H376.512V84.9094Z" fill="#D28B31"/>
<path d="M377.126 78.071C378.408 78.071 382.896 86.158 377.126 86.158C371.355 86.158 375.844 78.071 377.126 78.071Z" fill="#63A94E"/>
</g>
<g clip-path="url(#clip3_1030_5)">
<path d="M33.6494 300.838H34.8784V304.929H33.6494V300.838Z" fill="#D28B31"/>
<path d="M34.2645 294C35.5463 294 40.0343 302.086 34.2645 302.086C28.4947 302.086 32.9819 294 34.2645 294Z" fill="#63A94E"/>
<path d="M26.2593 300.838H27.4883V304.929H26.2593V300.838Z" fill="#D28B31"/>
<path d="M26.8743 294C28.1569 294 32.6449 302.086 26.8743 302.086C21.1038 302.086 25.5925 294 26.8743 294Z" fill="#63A94E"/>
<path d="M39.5117 307.909H40.7407V312.001H39.5117V307.909Z" fill="#D28B31"/>
<path d="M40.1258 301.071C41.4084 301.071 45.8964 309.158 40.1258 309.158C34.3552 309.158 38.8439 301.071 40.1258 301.071Z" fill="#63A94E"/>
</g>
<g clip-path="url(#clip4_1030_5)">
<path d="M310.351 189.838H309.122V193.929H310.351V189.838Z" fill="#D28B31"/>
<path d="M309.736 183C308.454 183 303.966 191.086 309.736 191.086C315.505 191.086 311.018 183 309.736 183Z" fill="#63A94E"/>
<path d="M317.741 189.838H316.512V193.929H317.741V189.838Z" fill="#D28B31"/>
<path d="M317.126 183C315.843 183 311.355 191.086 317.126 191.086C322.896 191.086 318.408 183 317.126 183Z" fill="#63A94E"/>
<path d="M304.488 196.909H303.259V201.001H304.488V196.909Z" fill="#D28B31"/>
<path d="M303.874 190.071C302.592 190.071 298.104 198.158 303.874 198.158C309.645 198.158 305.156 190.071 303.874 190.071Z" fill="#63A94E"/>
</g>
<g clip-path="url(#clip5_1030_5)">
<path d="M443.351 68.8376H442.122V72.929H443.351V68.8376Z" fill="#D28B31"/>
<path d="M442.736 62C441.454 62 436.966 70.0862 442.736 70.0862C448.505 70.0862 444.018 62 442.736 62Z" fill="#63A94E"/>
<path d="M450.741 68.8376H449.512V72.929H450.741V68.8376Z" fill="#D28B31"/>
<path d="M450.126 62C448.843 62 444.355 70.0862 450.126 70.0862C455.896 70.0862 451.408 62 450.126 62Z" fill="#63A94E"/>
<path d="M437.488 75.9094H436.259V80.0008H437.488V75.9094Z" fill="#D28B31"/>
<path d="M436.874 69.071C435.592 69.071 431.104 77.158 436.874 77.158C442.645 77.158 438.156 69.071 436.874 69.071Z" fill="#63A94E"/>
</g>
<g clip-path="url(#clip6_1030_5)">
<path d="M69.3506 324.838H68.1216V328.929H69.3506V324.838Z" fill="#D28B31"/>
<path d="M68.7355 318C67.4537 318 62.9657 326.086 68.7355 326.086C74.5053 326.086 70.0181 318 68.7355 318Z" fill="#63A94E"/>
<path d="M76.7407 324.838H75.5117V328.929H76.7407V324.838Z" fill="#D28B31"/>
<path d="M76.1257 318C74.8431 318 70.3551 326.086 76.1257 326.086C81.8962 326.086 77.4075 318 76.1257 318Z" fill="#63A94E"/>
<path d="M63.4883 331.909H62.2593V336.001H63.4883V331.909Z" fill="#D28B31"/>
<path d="M62.8742 325.071C61.5916 325.071 57.1036 333.158 62.8742 333.158C68.6448 333.158 64.1561 325.071 62.8742 325.071Z" fill="#63A94E"/>
</g>
<path d="M262.784 160.793C271.764 167.87 274.133 155.111 281.675 158.425C289.217 161.738 294.936 177.89 303.931 169.803C312.926 161.716 308.69 154.319 316.741 161.331C324.792 168.343 330.474 161.44 335.676 163.939C338.488 165.291 343.669 166.475 347.789 167.275C343.116 162.101 337.616 156.739 334.252 155.954C327.524 154.377 326.804 161.375 322.241 160.895C317.678 160.415 297.537 134.011 291.724 133.037C285.911 132.063 273.247 150.563 268.923 150.323C264.6 150.083 265.29 145.52 260.284 145.52C258.039 145.52 250.838 152.11 243.572 159.435C251.056 158.054 258.816 157.698 262.784 160.793Z" fill="#46C671"/>
<path d="M356.34 177.461C356.34 177.461 352.482 172.455 347.788 167.289C343.639 166.49 338.488 165.305 335.676 163.954C330.473 161.454 324.777 168.35 316.74 161.345C308.704 154.341 312.955 161.723 303.96 169.81C294.964 177.897 289.282 161.702 281.675 158.425C274.067 155.148 271.764 167.87 262.783 160.793C258.83 157.683 251.07 158.054 243.601 159.435C234.482 168.597 225.218 178.9 225.218 178.9C224.142 180.956 227.398 181 227.398 181L355.279 180.927C355.279 180.927 357.103 181.4 357.459 179.881C357.541 179.412 357.478 178.929 357.278 178.496C357.078 178.064 356.751 177.703 356.34 177.461Z" fill="#7CCE55"/>
<g clip-path="url(#clip7_1030_5)">
<path d="M152.325 225.83L191.601 225.528C193.614 225.49 198.388 226.011 200.038 226.997C202.165 228.269 200.402 229.097 198.314 229.321C197.242 229.436 196.112 229.368 195.12 229.705C192.411 230.624 194.287 232.258 195.764 233.032C197.504 233.945 198.568 235.651 197.281 237.141C195.781 238.879 192.538 239.6 190.024 239.857C186.738 240.192 183.442 239.847 180.154 239.742C174.235 239.555 168.167 238.984 162.315 238.169C157.518 237.502 147.783 235.521 148.004 230.54C148.077 228.883 150.078 226.161 152.325 225.83Z" fill="#6BCDFF"/>
<path d="M186.336 225.527H191.601L192.188 217.426C192.254 216.505 191.992 215.592 191.45 214.847C190.854 214.031 190.599 213.013 190.738 212.01L191.515 206.416C191.571 206.014 191.563 205.604 191.492 205.204L190.058 197.03C190.043 196.952 190.032 196.869 190.023 196.789L189.599 192.996C189.515 192.238 189.21 191.52 188.724 190.935C188.237 190.349 187.589 189.92 186.862 189.702L181.868 188.21L186.336 225.527Z" fill="#B5ACB0"/>
<path d="M166.842 187H177.379C179.755 187 182.033 187.949 183.713 189.638C185.392 191.328 186.336 193.619 186.336 196.008V225.527L171.965 225.918L166.842 187Z" fill="#86D6FF"/>
<path d="M171.961 225.919H152.326V211.91C152.326 211.369 152.449 210.836 152.685 210.35C152.922 209.865 153.266 209.441 153.692 209.11L154.604 208.407C155.283 207.879 155.747 207.119 155.908 206.27L157.857 195.971C157.981 195.314 158.287 194.706 158.741 194.217L162.639 190.032C162.707 189.959 162.771 189.884 162.832 189.806L163.941 188.392C164.456 187.735 165.187 187.283 166.003 187.117C166.819 186.951 167.666 187.082 168.395 187.486C168.946 187.791 169.405 188.239 169.725 188.784C170.045 189.328 170.214 189.949 170.214 190.581V193.616C170.214 194.139 170.329 194.656 170.552 195.129C170.774 195.601 171.099 196.019 171.501 196.35L172.673 197.313C173.111 197.674 173.456 198.136 173.678 198.66C173.9 199.184 173.993 199.754 173.949 200.322L171.961 225.919Z" fill="#B5ACB0"/>
<path d="M186.282 227.763C185.264 227.763 184.44 226.933 184.44 225.91C184.44 224.887 185.264 224.058 186.282 224.058C187.299 224.058 188.124 224.887 188.124 225.91C188.124 226.933 187.299 227.763 186.282 227.763Z" fill="#FFF4EE"/>
<path d="M183.863 227.763C182.846 227.763 182.021 226.933 182.021 225.91C182.021 224.887 182.846 224.058 183.863 224.058C184.88 224.058 185.705 224.887 185.705 225.91C185.705 226.933 184.88 227.763 183.863 227.763Z" fill="#FFF4EE"/>
<path d="M181.444 227.763C180.427 227.763 179.602 226.933 179.602 225.91C179.602 224.887 180.427 224.058 181.444 224.058C182.462 224.058 183.286 224.887 183.286 225.91C183.286 226.933 182.462 227.763 181.444 227.763Z" fill="#FFF4EE"/>
<path d="M179.025 227.763C178.008 227.763 177.184 226.933 177.184 225.91C177.184 224.887 178.008 224.058 179.025 224.058C180.043 224.058 180.867 224.887 180.867 225.91C180.867 226.933 180.043 227.763 179.025 227.763Z" fill="#FFF4EE"/>
<path d="M176.607 227.763C175.59 227.763 174.765 226.933 174.765 225.91C174.765 224.887 175.59 224.058 176.607 224.058C177.624 224.058 178.449 224.887 178.449 225.91C178.449 226.933 177.624 227.763 176.607 227.763Z" fill="#FFF4EE"/>
<path d="M174.188 227.763C173.171 227.763 172.346 226.933 172.346 225.91C172.346 224.887 173.171 224.058 174.188 224.058C175.205 224.058 176.03 224.887 176.03 225.91C176.03 226.933 175.205 227.763 174.188 227.763Z" fill="#FFF4EE"/>
<path d="M171.77 227.763C170.753 227.763 169.928 226.933 169.928 225.91C169.928 224.887 170.753 224.058 171.77 224.058C172.787 224.058 173.612 224.887 173.612 225.91C173.612 226.933 172.787 227.763 171.77 227.763Z" fill="#FFF4EE"/>
<path d="M183.649 206.459H184.076V195.976C184.076 192.764 182.451 191.224 182.382 191.161L182.092 191.474C182.108 191.488 183.646 192.958 183.646 195.973L183.649 206.459Z" fill="#56BBFF"/>
<path d="M182.024 203.015H182.451V215.878H182.024V203.015Z" fill="#56BBFF"/>
<path d="M176.375 196.583H176.803V204.956H176.375V196.583Z" fill="#56BBFF"/>
<path d="M173.05 230.678C173.382 230.678 173.714 230.663 174.047 230.634L174.01 230.206C171.458 230.428 168.909 229.763 166.785 228.324L166.547 228.679C168.468 229.982 170.733 230.678 173.05 230.678Z" fill="#56BBFF"/>
<path d="M186.674 230.562C187.712 230.563 188.746 230.443 189.756 230.205C190.418 230.049 191.155 229.808 191.601 229.206C191.732 229.02 191.822 228.809 191.864 228.585C191.906 228.362 191.9 228.131 191.845 227.91C191.808 227.747 191.735 227.595 191.63 227.464C191.525 227.334 191.392 227.23 191.241 227.16L191.067 227.55C191.159 227.595 191.24 227.661 191.304 227.742C191.367 227.823 191.411 227.918 191.432 228.019C191.472 228.177 191.476 228.343 191.446 228.503C191.416 228.664 191.352 228.816 191.258 228.949C190.893 229.44 190.244 229.652 189.659 229.787C188.001 230.177 186.284 230.24 184.603 229.971L184.534 230.395C185.242 230.508 185.957 230.564 186.674 230.562Z" fill="#56BBFF"/>
<path d="M163.972 210.52L165.189 198.944C165.232 198.534 165.163 198.119 164.989 197.745C164.815 197.371 164.543 197.052 164.202 196.822C163.058 196.05 161.457 195.067 160.333 194.758L160.22 195.173C161.346 195.485 163.048 196.562 163.964 197.179C164.24 197.365 164.461 197.623 164.602 197.926C164.743 198.229 164.799 198.565 164.764 198.898L163.549 210.474L163.972 210.52Z" fill="#998D93"/>
<path d="M160.487 223.928C160.811 221.808 162.392 211.189 161.552 210.346C160.713 209.503 156.718 209.256 156.265 209.231L156.242 209.66C157.428 209.727 160.638 210.034 161.25 210.649C161.699 211.154 160.999 217.764 160.064 223.863L160.487 223.928Z" fill="#998D93"/>
<path d="M170.56 219.579C170.57 219.477 171.59 209.392 171.974 208.133C172.404 206.721 168.535 205.073 167.755 204.755L167.595 205.155C169.382 205.88 171.797 207.245 171.565 208.007C171.169 209.306 170.177 219.119 170.135 219.536L170.56 219.579Z" fill="#998D93"/>
<path d="M189.709 213.383L190.042 213.114C189.978 213.036 188.48 211.169 187.768 210.672L187.525 211.024C188.182 211.487 189.694 213.364 189.709 213.383Z" fill="#998D93"/>
</g>
<path d="M471.619 197C481.35 197 489.238 195.357 489.238 193.331C489.238 191.304 481.35 189.662 471.619 189.662C461.888 189.662 454 191.304 454 193.331C454 195.357 461.888 197 471.619 197Z" fill="#F7E06B"/>
<path d="M463.322 175.12H462.367C462.192 175.119 462.025 175.049 461.901 174.926C461.777 174.802 461.707 174.634 461.706 174.459V172.673H463.983V174.459C463.982 174.634 463.912 174.802 463.788 174.926C463.664 175.049 463.497 175.119 463.322 175.12Z" fill="#DB3535"/>
<path d="M465.599 175.282H464.644C464.469 175.281 464.302 175.211 464.178 175.088C464.054 174.964 463.984 174.796 463.983 174.621V172.673H466.26V174.621C466.259 174.796 466.189 174.964 466.065 175.088C465.941 175.211 465.774 175.281 465.599 175.282Z" fill="#DB3535"/>
<path d="M476.978 175.282H476.028C475.853 175.282 475.684 175.213 475.559 175.089C475.435 174.965 475.364 174.797 475.363 174.621V172.673H477.644V174.621C477.644 174.708 477.627 174.795 477.593 174.875C477.56 174.956 477.511 175.029 477.449 175.09C477.387 175.152 477.314 175.2 477.233 175.233C477.152 175.266 477.066 175.283 476.978 175.282Z" fill="#DB3535"/>
<path d="M479.255 175.12H478.305C478.13 175.119 477.963 175.049 477.839 174.926C477.715 174.802 477.645 174.634 477.644 174.459V172.673H479.921V174.459C479.921 174.546 479.904 174.633 479.87 174.713C479.837 174.794 479.788 174.867 479.726 174.928C479.664 174.99 479.59 175.038 479.51 175.071C479.429 175.104 479.343 175.121 479.255 175.12Z" fill="#DB3535"/>
<path d="M470.148 175.69H469.198C469.023 175.689 468.855 175.618 468.732 175.495C468.608 175.371 468.538 175.203 468.537 175.029V172.673H470.813V175.029C470.812 175.204 470.742 175.372 470.617 175.496C470.492 175.62 470.324 175.69 470.148 175.69Z" fill="#FCE6E6"/>
<path d="M458.769 174.866H457.818C457.731 174.867 457.645 174.85 457.564 174.817C457.483 174.784 457.41 174.736 457.348 174.674C457.286 174.613 457.237 174.54 457.204 174.459C457.17 174.379 457.153 174.293 457.153 174.205V172.673H459.43V174.205C459.43 174.292 459.414 174.379 459.381 174.459C459.348 174.54 459.299 174.613 459.237 174.674C459.176 174.736 459.103 174.784 459.022 174.817C458.942 174.85 458.855 174.867 458.769 174.866Z" fill="#FCE6E6"/>
<path d="M461.045 174.941H460.09C459.915 174.94 459.748 174.87 459.624 174.746C459.5 174.622 459.43 174.455 459.429 174.28V172.673H461.706V174.28C461.705 174.455 461.635 174.622 461.511 174.746C461.387 174.87 461.22 174.94 461.045 174.941Z" fill="#FCE6E6"/>
<path d="M467.875 175.506H466.921C466.746 175.505 466.578 175.435 466.455 175.311C466.331 175.187 466.261 175.02 466.26 174.845V172.656H468.537V174.845C468.535 175.02 468.465 175.187 468.342 175.311C468.218 175.435 468.05 175.505 467.875 175.506Z" fill="#FCE6E6"/>
<path d="M472.425 175.69H471.475C471.299 175.69 471.131 175.62 471.007 175.496C470.883 175.372 470.813 175.204 470.813 175.029V172.673H473.09V175.029C473.089 175.204 473.019 175.372 472.894 175.496C472.769 175.62 472.601 175.69 472.425 175.69Z" fill="#FCE6E6"/>
<path d="M474.702 175.506H473.751C473.576 175.506 473.408 175.436 473.284 175.312C473.16 175.188 473.09 175.02 473.09 174.845V172.656H475.363V174.845C475.363 174.932 475.346 175.018 475.312 175.098C475.279 175.178 475.231 175.251 475.169 175.312C475.108 175.374 475.035 175.422 474.955 175.456C474.874 175.489 474.788 175.506 474.702 175.506Z" fill="#FCE6E6"/>
<path d="M481.532 174.941H480.578C480.403 174.94 480.235 174.87 480.111 174.746C479.988 174.622 479.918 174.455 479.917 174.28V172.673H482.193V174.28C482.192 174.455 482.122 174.622 481.998 174.746C481.875 174.87 481.707 174.94 481.532 174.941Z" fill="#FCE6E6"/>
<path d="M483.809 174.866H482.855C482.679 174.866 482.511 174.797 482.387 174.673C482.263 174.549 482.193 174.381 482.193 174.205V172.673H484.47V174.205C484.47 174.381 484.401 174.549 484.277 174.673C484.153 174.797 483.984 174.866 483.809 174.866Z" fill="#FCE6E6"/>
<path d="M488.065 173.667C487.999 173.453 487.879 173.26 487.717 173.105C487.555 172.951 487.356 172.84 487.14 172.784C486.923 172.728 486.696 172.728 486.479 172.784C486.262 172.841 486.064 172.952 485.902 173.107C482.531 176.463 480.364 180.839 479.737 185.555C479.399 187.959 479.823 190.409 480.95 192.56C481.067 192.782 481.249 192.964 481.471 193.081L481.541 193.121C481.734 193.228 481.951 193.286 482.171 193.287H482.25C482.502 193.288 482.748 193.216 482.96 193.081C484.985 191.744 486.542 189.808 487.413 187.543C489.152 183.115 489.382 178.238 488.065 173.667Z" fill="#FFDA40"/>
<path d="M485.009 181.005C485.009 181.005 483.389 184.044 482.211 189.263C481.899 190.534 481.743 191.838 481.747 193.147L481.834 193.283L481.979 193.208C482.612 192.071 483.104 190.861 483.446 189.605C484.952 184.447 485.009 181.005 485.009 181.005Z" fill="#EFAD1B"/>
<path d="M470.906 169.595H470.717C470.597 169.595 470.499 169.693 470.499 169.814V193.558C470.499 193.679 470.597 193.777 470.717 193.777H470.906C471.027 193.777 471.125 193.679 471.125 193.558V169.814C471.125 169.693 471.027 169.595 470.906 169.595Z" fill="#9C5444"/>
<path d="M464.294 177.791C464.332 177.766 464.375 177.75 464.42 177.745C464.465 177.74 464.511 177.745 464.554 177.761C464.597 177.777 464.635 177.803 464.666 177.836C464.697 177.869 464.719 177.91 464.732 177.953C465.722 181.223 467.222 184.316 469.176 187.118C470.708 189.311 472.502 191.309 474.518 193.068C474.547 193.094 474.57 193.126 474.586 193.161C474.602 193.197 474.61 193.235 474.61 193.274C474.61 193.313 474.602 193.351 474.586 193.387C474.57 193.422 474.547 193.454 474.518 193.48L474.281 193.699C474.229 193.748 474.159 193.776 474.086 193.776C474.014 193.776 473.944 193.748 473.892 193.699C471.872 191.883 470.072 189.838 468.528 187.604C466.544 184.725 465.013 181.559 463.987 178.216C463.968 178.156 463.971 178.092 463.994 178.034C464.017 177.975 464.06 177.927 464.114 177.896L464.294 177.791Z" fill="#D37B40"/>
<path d="M474.803 188.974C473.647 188.768 468.489 188.12 464.071 190.695C464.036 190.714 464.005 190.741 463.982 190.773C463.958 190.806 463.942 190.843 463.935 190.882C463.927 190.922 463.928 190.962 463.938 191.001C463.948 191.04 463.967 191.076 463.992 191.107L464.115 191.255C464.156 191.304 464.212 191.338 464.275 191.352C464.337 191.366 464.402 191.36 464.461 191.334C467.664 189.841 471.231 189.304 474.733 189.789C474.773 189.795 474.814 189.793 474.852 189.782C474.891 189.771 474.927 189.751 474.958 189.725C474.989 189.699 475.014 189.666 475.031 189.63C475.048 189.593 475.057 189.553 475.057 189.513V189.25C475.055 189.181 475.028 189.115 474.982 189.064C474.935 189.014 474.871 188.982 474.803 188.974Z" fill="#D37B40"/>
<path d="M468.449 188.716C468.703 188.786 470.012 189.105 471.628 189.377C472.403 189.508 473.069 189.6 473.572 189.662L474.732 189.473C474.211 189.416 473.419 189.32 472.442 189.162C470.827 188.904 469.513 188.598 469.264 188.532C466.291 187.717 464.592 179.46 464.373 178.343L463.633 178.378C464.009 180.326 465.673 187.919 468.449 188.716Z" fill="#E0504A"/>
<path d="M467.762 188.803C468.016 188.874 469.325 189.193 470.941 189.465C471.755 189.605 472.447 189.697 472.959 189.758L473.555 189.644C473.051 189.583 472.385 189.491 471.61 189.36C469.995 189.106 468.686 188.768 468.449 188.716C465.691 187.919 464.027 180.327 463.633 178.378L462.954 178.409C463.309 180.261 464.977 187.998 467.762 188.803Z" fill="#EA8888"/>
<path d="M467.762 188.804C464.977 187.998 463.309 180.261 462.945 178.409L462.267 178.44C462.608 180.191 464.281 188.072 467.083 188.887C467.337 188.961 468.646 189.281 470.266 189.552C471.12 189.697 471.838 189.793 472.359 189.854L472.95 189.758C472.438 189.697 471.746 189.605 470.932 189.465C469.325 189.206 468.011 188.874 467.762 188.804Z" fill="#E0504A"/>
<path d="M467.092 188.887C464.277 188.077 462.604 180.186 462.276 178.439L461.597 178.466C461.912 180.095 463.594 188.155 466.44 188.974C466.689 189.049 467.999 189.364 469.619 189.64C470.494 189.789 471.265 189.889 471.808 189.946L472.39 189.854C471.869 189.793 471.151 189.697 470.297 189.552C468.655 189.281 467.346 188.961 467.092 188.887Z" fill="#EA8888"/>
<path d="M465.757 189.062C466.011 189.132 467.32 189.452 468.935 189.723C469.877 189.885 470.661 189.981 471.186 190.043L471.777 189.946C471.252 189.889 470.503 189.789 469.588 189.64C467.968 189.364 466.659 189.049 466.409 188.974C463.563 188.156 461.882 180.095 461.566 178.466L460.883 178.496C461.19 179.985 462.876 188.23 465.757 189.062Z" fill="#E0504A"/>
<path d="M465.757 189.062C462.876 188.23 461.19 179.985 460.901 178.496L460.222 178.527C460.476 179.841 462.166 188.304 465.087 189.149C465.341 189.219 466.65 189.539 468.266 189.81C469.238 189.977 470.017 190.073 470.56 190.134L469.325 190.345L471.208 190.043C470.682 189.981 469.894 189.885 468.957 189.723C467.32 189.451 466.011 189.132 465.757 189.062Z" fill="#EA8888"/>
<path d="M456.746 178.698L459.543 178.567C459.767 179.736 461.466 188.379 464.417 189.228C464.671 189.303 465.98 189.622 467.6 189.894C468.568 190.056 469.351 190.156 469.89 190.218L466.624 190.769C466.889 190.745 467.152 190.704 467.412 190.647L469.325 190.345L470.582 190.135C470.056 190.073 469.268 189.977 468.287 189.811C466.672 189.539 465.363 189.219 465.109 189.149C462.188 188.304 460.498 179.849 460.244 178.527L456.741 178.685L456.746 178.698Z" fill="#E0504A"/>
<path d="M467.599 189.898C465.979 189.626 464.67 189.307 464.416 189.232C461.465 188.383 459.766 179.74 459.543 178.571L456.745 178.698L456.767 178.754L458.877 178.654C459.096 179.823 460.795 188.466 463.751 189.315C464 189.39 465.314 189.705 466.93 189.981C467.897 190.143 468.681 190.244 469.22 190.305L466.365 190.787H466.623L469.889 190.235C469.364 190.161 468.567 190.082 467.599 189.898Z" fill="#EA8888"/>
<path d="M466.259 190.082C464.644 189.81 463.334 189.495 463.081 189.421C460.129 188.554 458.431 179.911 458.207 178.746L456.784 178.812V178.864L457.52 178.833C457.854 180.559 458.293 182.262 458.833 183.934C459.656 186.465 460.861 189.049 462.406 189.495L462.647 189.556C463.151 189.683 464.267 189.933 465.585 190.156C466.557 190.323 467.336 190.423 467.879 190.48L466.014 190.796H466.172L468.545 190.393C468.011 190.336 467.227 190.235 466.259 190.082Z" fill="#EA8888"/>
<path d="M458.208 178.746C458.431 179.91 460.125 188.554 463.081 189.408C463.335 189.482 464.644 189.797 466.26 190.069C467.227 190.235 468.011 190.336 468.55 190.393L466.177 190.796H466.365L469.22 190.314C468.694 190.253 467.906 190.152 466.93 189.99C465.314 189.714 464 189.399 463.751 189.324C460.795 188.475 459.096 179.832 458.878 178.663L456.767 178.763V178.816L458.208 178.746Z" fill="#E0504A"/>
<path d="M466.019 190.796L467.884 190.48C467.359 190.423 466.571 190.323 465.59 190.156C464.276 189.933 463.156 189.683 462.652 189.556L462.573 189.95C463.676 190.395 464.836 190.679 466.019 190.796Z" fill="#E0504A"/>
<path d="M457.537 178.833L456.802 178.864C457.385 180.597 458.065 182.295 458.838 183.952C458.301 182.274 457.867 180.564 457.537 178.833Z" fill="#E0504A"/>
<path d="M456.802 178.917C456.757 178.917 456.713 178.899 456.681 178.867C456.649 178.835 456.631 178.791 456.631 178.746C456.631 178.701 456.649 178.657 456.681 178.625C456.713 178.593 456.757 178.575 456.802 178.575L464.268 178.177C464.29 178.176 464.312 178.179 464.334 178.186C464.355 178.194 464.374 178.205 464.391 178.221C464.408 178.236 464.421 178.254 464.431 178.274C464.44 178.294 464.446 178.316 464.447 178.339C464.448 178.384 464.432 178.428 464.402 178.461C464.372 178.494 464.33 178.515 464.285 178.518L456.842 178.917H456.802Z" fill="#DD894A"/>
<path d="M456.627 178.286C456.666 178.262 456.71 178.247 456.755 178.243C456.801 178.239 456.846 178.245 456.889 178.262C456.931 178.279 456.969 178.305 457 178.339C457.031 178.373 457.053 178.413 457.065 178.457C458.917 184.692 462.464 190.29 467.311 194.627C467.341 194.655 467.365 194.689 467.382 194.726C467.398 194.764 467.407 194.805 467.407 194.846C467.407 194.887 467.398 194.928 467.382 194.965C467.365 195.003 467.341 195.037 467.311 195.065L467.061 195.301C467.006 195.353 466.933 195.382 466.858 195.382C466.782 195.382 466.709 195.353 466.654 195.301C464.542 193.349 462.665 191.157 461.063 188.769C458.988 185.682 457.391 182.3 456.325 178.737C456.307 178.674 456.309 178.606 456.333 178.544C456.357 178.483 456.4 178.43 456.456 178.396L456.627 178.286Z" fill="#EA9C5C"/>
<path d="M467.026 190.813C466.98 190.817 466.936 190.802 466.901 190.773C466.867 190.743 466.845 190.701 466.842 190.656C466.838 190.61 466.853 190.566 466.883 190.531C466.912 190.497 466.954 190.475 466.999 190.472L474.513 189.303C474.558 189.296 474.603 189.308 474.639 189.335C474.675 189.362 474.699 189.403 474.706 189.447C474.715 189.49 474.707 189.535 474.683 189.572C474.659 189.609 474.622 189.635 474.579 189.644L467.052 190.813H467.026Z" fill="#DD894A"/>
<path d="M467.609 190.248C466.405 190.043 461.041 189.329 456.395 192.083C456.359 192.105 456.329 192.134 456.305 192.169C456.281 192.204 456.265 192.243 456.258 192.284C456.25 192.326 456.252 192.368 456.262 192.409C456.272 192.45 456.291 192.488 456.316 192.521L456.443 192.679C456.486 192.73 456.544 192.766 456.609 192.781C456.674 192.796 456.742 192.789 456.803 192.762C460.133 191.167 463.86 190.591 467.517 191.107C467.559 191.113 467.602 191.11 467.643 191.098C467.684 191.086 467.722 191.066 467.755 191.038C467.787 191.01 467.813 190.976 467.831 190.937C467.849 190.898 467.858 190.856 467.858 190.813V190.533C467.856 190.464 467.83 190.398 467.785 190.346C467.739 190.294 467.677 190.26 467.609 190.248Z" fill="#EA9C5C"/>
<path d="M470.814 166C470.814 166 461.22 167.848 457.153 172.673H484.47C481.762 170.313 478.646 168.467 475.276 167.226C473.823 166.699 472.331 166.289 470.814 166Z" fill="#EA504C"/>
<path d="M470.813 166C470.813 166 464.416 167.848 461.706 172.673H479.916C478.268 170.456 476.182 168.602 473.786 167.226C472.843 166.71 471.846 166.299 470.813 166Z" fill="white"/>
<path d="M470.813 166C470.813 166 467.613 167.848 466.26 172.673H475.363C474.684 170.921 473.668 168.732 472.298 167.226C471.868 166.744 471.368 166.331 470.813 166Z" fill="#EA504C"/>
<path d="M458.769 173.938H457.818C457.643 173.938 457.474 173.869 457.349 173.745C457.225 173.621 457.154 173.453 457.153 173.277V172.673H459.43V173.277C459.43 173.452 459.36 173.621 459.236 173.745C459.112 173.869 458.944 173.938 458.769 173.938Z" fill="#EA504C"/>
<path d="M461.045 173.938H460.09C459.915 173.937 459.748 173.867 459.624 173.743C459.5 173.62 459.43 173.452 459.429 173.277V172.673H461.706V173.277C461.705 173.452 461.635 173.62 461.511 173.743C461.387 173.867 461.22 173.937 461.045 173.938Z" fill="#EA504C"/>
<path d="M463.322 173.938H462.367C462.192 173.937 462.025 173.867 461.901 173.743C461.777 173.62 461.707 173.452 461.706 173.277V172.673H463.983V173.277C463.982 173.452 463.912 173.62 463.788 173.743C463.664 173.867 463.497 173.937 463.322 173.938Z" fill="white"/>
<path d="M465.599 173.938H464.644C464.469 173.937 464.302 173.867 464.178 173.743C464.054 173.62 463.984 173.452 463.983 173.277V172.673H466.26V173.277C466.259 173.452 466.189 173.62 466.065 173.743C465.941 173.867 465.774 173.937 465.599 173.938Z" fill="white"/>
<path d="M467.875 173.938H466.921C466.746 173.937 466.578 173.867 466.455 173.743C466.331 173.62 466.261 173.452 466.26 173.277V172.673H468.537V173.277C468.535 173.452 468.465 173.62 468.342 173.743C468.218 173.867 468.05 173.937 467.875 173.938Z" fill="#EA504C"/>
<path d="M470.148 173.938H469.198C469.023 173.937 468.855 173.867 468.732 173.743C468.608 173.62 468.538 173.452 468.537 173.277V172.673H470.813V173.277C470.812 173.453 470.742 173.621 470.617 173.745C470.492 173.869 470.324 173.938 470.148 173.938Z" fill="#EA504C"/>
<path d="M472.425 173.938H471.475C471.299 173.938 471.131 173.869 471.007 173.745C470.883 173.621 470.813 173.452 470.813 173.277V172.673H473.09V173.277C473.089 173.453 473.019 173.621 472.894 173.745C472.769 173.869 472.601 173.938 472.425 173.938Z" fill="#EA504C"/>
<path d="M474.702 173.938H473.751C473.576 173.938 473.408 173.869 473.284 173.745C473.16 173.621 473.09 173.452 473.09 173.277V172.673H475.363V173.277C475.363 173.364 475.346 173.45 475.312 173.53C475.279 173.61 475.231 173.683 475.169 173.745C475.108 173.806 475.035 173.855 474.955 173.888C474.874 173.921 474.788 173.938 474.702 173.938Z" fill="#EA504C"/>
<path d="M476.978 173.938H476.028C475.853 173.938 475.684 173.869 475.559 173.745C475.435 173.621 475.364 173.453 475.363 173.277V172.673H477.644V173.277C477.644 173.364 477.627 173.451 477.593 173.531C477.56 173.612 477.511 173.685 477.449 173.746C477.387 173.808 477.314 173.856 477.233 173.889C477.152 173.922 477.066 173.939 476.978 173.938Z" fill="white"/>
<path d="M479.255 173.938H478.305C478.13 173.937 477.963 173.867 477.839 173.743C477.715 173.62 477.645 173.452 477.644 173.277V172.673H479.921V173.277C479.921 173.364 479.904 173.451 479.87 173.531C479.837 173.612 479.788 173.685 479.726 173.746C479.664 173.808 479.59 173.856 479.51 173.889C479.429 173.922 479.343 173.939 479.255 173.938Z" fill="white"/>
<path d="M481.532 173.938H480.578C480.403 173.937 480.235 173.867 480.111 173.743C479.988 173.62 479.918 173.452 479.917 173.277V172.673H482.193V173.277C482.192 173.452 482.122 173.62 481.998 173.743C481.875 173.867 481.707 173.937 481.532 173.938Z" fill="#EA504C"/>
<path d="M483.809 173.938H482.855C482.68 173.937 482.512 173.867 482.388 173.743C482.265 173.62 482.195 173.452 482.193 173.277V172.673H484.47V173.277C484.469 173.452 484.399 173.62 484.275 173.743C484.152 173.867 483.984 173.937 483.809 173.938Z" fill="#EA504C"/>
<path d="M476.331 189.206L477.158 192.876L479.833 194.049C480.126 194.18 480.455 194.207 480.766 194.128L485.438 192.937L486.06 189.32L480.389 190.34L476.331 189.206Z" fill="#D9754D"/>
<mask id="mask0_1030_5" style="mask-type:luminance" maskUnits="userSpaceOnUse" x="476" y="189" width="11" height="6">
<path d="M476.331 189.206L477.158 192.876L479.833 194.049C480.126 194.18 480.455 194.207 480.766 194.128L485.438 192.937L486.06 189.32L480.389 190.34L476.331 189.206Z" fill="white"/>
</mask>
<g mask="url(#mask0_1030_5)">
<path d="M486.165 189.684C485.436 190.092 484.609 190.293 483.774 190.266C483.774 190.266 485.39 190.651 486.165 189.684Z" fill="#EA8654"/>
<path d="M486.165 190.191C485.435 190.6 484.609 190.802 483.774 190.778C483.774 190.778 485.39 191.159 486.165 190.191Z" fill="#EA8654"/>
<path d="M486.165 190.699C485.435 191.108 484.609 191.31 483.774 191.286C483.774 191.286 485.39 191.671 486.165 190.699Z" fill="#EA8654"/>
<path d="M486.165 191.212C485.435 191.62 484.609 191.823 483.774 191.798C483.774 191.798 485.39 192.179 486.165 191.212Z" fill="#EA8654"/>
<path d="M486.165 191.719C485.435 192.128 484.609 192.33 483.774 192.306C483.774 192.306 485.39 192.709 486.165 191.719Z" fill="#EA8654"/>
<path d="M486.165 192.232C485.435 192.64 484.609 192.843 483.774 192.818C483.774 192.818 485.39 193.199 486.165 192.232Z" fill="#EA8654"/>
<path d="M484.05 190.082C483.317 190.492 482.486 190.695 481.646 190.669C481.646 190.669 483.27 191.045 484.05 190.082Z" fill="#EA8654"/>
<path d="M484.05 190.585C483.317 190.996 482.486 191.199 481.646 191.172C481.646 191.172 483.27 191.557 484.05 190.585Z" fill="#EA8654"/>
<path d="M484.05 191.098C483.317 191.508 482.486 191.711 481.646 191.684C481.646 191.684 483.27 192.065 484.05 191.098Z" fill="#EA8654"/>
<path d="M484.05 191.606C483.317 192.016 482.486 192.219 481.646 192.192C481.646 192.192 483.27 192.578 484.05 191.606Z" fill="#EA8654"/>
<path d="M484.05 192.118C483.317 192.53 482.486 192.734 481.646 192.709C481.646 192.709 483.27 193.086 484.05 192.118Z" fill="#EA8654"/>
<path d="M484.05 192.626C483.317 193.036 482.486 193.239 481.646 193.212C481.646 193.212 483.27 193.585 484.05 192.626Z" fill="#EA8654"/>
<path d="M482.127 190.41C481.575 190.809 480.908 191.015 480.227 190.997C480.227 190.997 481.514 191.395 482.127 190.41Z" fill="#EA8654"/>
<path d="M482.127 190.923C481.575 191.321 480.908 191.527 480.227 191.509C480.227 191.509 481.514 191.89 482.127 190.923Z" fill="#EA8654"/>
<path d="M482.127 191.431C481.575 191.829 480.908 192.035 480.227 192.017C480.227 192.017 481.514 192.403 482.127 191.431Z" fill="#EA8654"/>
<path d="M482.127 191.943C481.575 192.341 480.908 192.547 480.227 192.529C480.227 192.529 481.514 192.91 482.127 191.943Z" fill="#EA8654"/>
<path d="M482.127 192.451C481.575 192.85 480.908 193.056 480.227 193.038C480.227 193.038 481.514 193.419 482.127 192.451Z" fill="#EA8654"/>
<path d="M482.127 192.963C481.576 193.363 480.908 193.568 480.227 193.545C480.227 193.545 481.514 193.931 482.127 192.963Z" fill="#EA8654"/>
<g opacity="0.69">
<path d="M478.988 190.52C479.541 190.917 480.208 191.122 480.889 191.102C480.889 191.102 479.606 191.466 478.988 190.52Z" fill="#EA864E"/>
</g>
<g opacity="0.69">
<path d="M478.988 191.006C479.541 191.403 480.208 191.609 480.889 191.593C480.889 191.593 479.606 191.974 478.988 191.006Z" fill="#EA864E"/>
</g>
<g opacity="0.69">
<path d="M478.988 191.514C479.541 191.911 480.208 192.117 480.889 192.1C480.889 192.1 479.606 192.486 478.988 191.514Z" fill="#EA864E"/>
</g>
<g opacity="0.69">
<path d="M478.988 192.026C479.541 192.423 480.208 192.629 480.889 192.613C480.889 192.613 479.606 192.994 478.988 192.026Z" fill="#EA864E"/>
</g>
<g opacity="0.69">
<path d="M478.988 192.534C479.541 192.931 480.208 193.137 480.889 193.121C480.889 193.121 479.606 193.506 478.988 192.534Z" fill="#EA864E"/>
</g>
<g opacity="0.69">
<path d="M478.988 193.046C479.541 193.444 480.208 193.65 480.889 193.633C480.889 193.633 479.606 194.023 478.988 193.046Z" fill="#EA864E"/>
</g>
<g opacity="0.69">
<path d="M477.644 189.92C478.192 190.322 478.856 190.532 479.536 190.52C479.536 190.52 478.248 190.892 477.644 189.92Z" fill="#EA864E"/>
</g>
<g opacity="0.69">
<path d="M477.644 190.432C478.196 190.831 478.864 191.037 479.544 191.019C479.544 191.019 478.248 191.395 477.644 190.432Z" fill="#EA864E"/>
</g>
<g opacity="0.69">
<path d="M477.644 190.958C478.196 191.356 478.864 191.563 479.544 191.544C479.544 191.544 478.248 191.912 477.644 190.958Z" fill="#EA864E"/>
</g>
<g opacity="0.69">
<path d="M477.644 191.452C478.196 191.851 478.864 192.057 479.544 192.039C479.544 192.039 478.248 192.42 477.644 191.452Z" fill="#EA864E"/>
</g>
<g opacity="0.69">
<path d="M477.644 191.96C478.196 192.359 478.864 192.565 479.544 192.547C479.544 192.547 478.248 192.928 477.644 191.96Z" fill="#EA864E"/>
</g>
<g opacity="0.69">
<path d="M477.644 192.473C478.195 192.872 478.864 193.077 479.544 193.055C479.544 193.055 478.248 193.44 477.644 192.473Z" fill="#EA864E"/>
</g>
<g opacity="0.69">
<path d="M475.95 189.548C476.504 189.946 477.172 190.152 477.854 190.134C477.854 190.134 476.567 190.52 475.95 189.548Z" fill="#EA864E"/>
</g>
<g opacity="0.69">
<path d="M475.95 190.056C476.503 190.456 477.172 190.662 477.854 190.643C477.854 190.643 476.567 191.028 475.95 190.056Z" fill="#EA864E"/>
</g>
<g opacity="0.69">
<path d="M475.95 190.568C476.504 190.966 477.172 191.172 477.854 191.155C477.854 191.155 476.567 191.536 475.95 190.568Z" fill="#EA864E"/>
</g>
<g opacity="0.69">
<path d="M475.95 191.076C476.504 191.474 477.172 191.68 477.854 191.663C477.854 191.663 476.567 192.048 475.95 191.076Z" fill="#EA864E"/>
</g>
<g opacity="0.69">
<path d="M475.95 191.588C476.504 191.986 477.172 192.192 477.854 192.175C477.854 192.175 476.567 192.556 475.95 191.588Z" fill="#EA864E"/>
</g>
<g opacity="0.69">
<path d="M475.95 192.096C476.504 192.494 477.172 192.7 477.854 192.683C477.854 192.683 476.567 193.068 475.95 192.096Z" fill="#EA864E"/>
</g>
<path d="M485.666 189.057L486.06 189.285V189.399L481.103 190.677C480.619 190.805 480.107 190.774 479.641 190.59L476.335 189.276L476.239 188.926L485.666 189.057Z" fill="#C45F3B"/>
</g>
<path d="M486.274 188.475C486.274 188.475 482.828 187.227 482.159 187.122C481.489 187.017 476.248 188.536 476.248 188.536L480.044 190.029L486.274 188.475Z" fill="#C45F3B"/>
<path d="M486.274 188.475L480.709 189.701C480.446 189.76 480.173 189.748 479.917 189.666L476.269 188.536C476.205 188.759 476.227 188.999 476.331 189.206L479.702 190.52C480.089 190.67 480.511 190.699 480.915 190.603L485.99 189.395C485.99 189.395 486.401 189.167 486.274 188.475Z" fill="#FABB65"/>
<mask id="mask1_1030_5" style="mask-type:luminance" maskUnits="userSpaceOnUse" x="476" y="188" width="11" height="3">
<path d="M486.274 188.475L480.709 189.701C480.446 189.76 480.173 189.748 479.917 189.666L476.269 188.536C476.205 188.759 476.227 188.999 476.331 189.206L479.702 190.52C480.089 190.67 480.511 190.699 480.915 190.603L485.99 189.395C485.99 189.395 486.401 189.167 486.274 188.475Z" fill="white"/>
</mask>
<g mask="url(#mask1_1030_5)">
<path d="M481.178 190.756C481.178 190.756 480.446 190.551 480.411 189.964C480.376 189.377 480.945 189.526 480.945 189.526L476.173 188.409V189.36L480.551 191.037L481.178 190.756Z" fill="#F4AA59"/>
<g opacity="0.69">
<path d="M480.311 190.918C480.214 190.719 480.166 190.499 480.172 190.277C480.177 190.056 480.235 189.839 480.341 189.644C480.7 188.974 476.226 188.199 476.226 188.199C476.226 188.199 475.709 189.158 476.081 189.421C476.453 189.684 480.311 190.918 480.311 190.918Z" fill="#EA864E"/>
</g>
</g>
<path d="M481.387 186.36C481.387 186.36 480.074 186.36 479.351 187.096C478.629 187.831 479.435 189.32 482.311 189.815C485.188 190.31 487.474 189.333 486.904 188.247C486.335 187.162 482.653 186.316 481.387 186.36Z" fill="#E8CFA8"/>
<mask id="mask2_1030_5" style="mask-type:luminance" maskUnits="userSpaceOnUse" x="479" y="186" width="8" height="4">
<path d="M481.387 186.36C481.387 186.36 480.074 186.36 479.351 187.096C478.629 187.831 479.435 189.32 482.311 189.815C485.188 190.31 487.474 189.333 486.904 188.247C486.335 187.162 482.653 186.316 481.387 186.36Z" fill="white"/>
</mask>
<g mask="url(#mask2_1030_5)">
<path d="M485.639 190.222L485.447 189.784C485.447 189.784 481.506 190.086 480.35 188.238C479.194 186.391 484.256 185.922 484.256 185.922L479.163 185.948L478.599 188.431L479.663 190.047L485.639 190.222Z" fill="#E0C39D"/>
<path d="M484.886 189.272C484.886 189.272 486.778 188.786 485.197 187.621L485.232 187.363C485.232 187.363 486.546 187.801 486.506 188.492C486.467 189.184 484.886 189.272 484.886 189.272Z" fill="#F0DFB7"/>
</g>
<path d="M485.486 188.427C485.351 188.72 483.735 189.395 481.721 188.532C480.762 188.121 480.714 187.376 480.749 187.249C480.784 187.122 481.301 185.55 481.944 185.419C482.588 185.288 484.619 185.704 485.088 186.496C485.454 187.069 485.596 187.756 485.486 188.427Z" fill="#F0DFB7"/>
<path d="M481.02 186.535C481.072 186.771 481.179 186.991 481.331 187.179C481.482 187.367 481.676 187.517 481.895 187.617C483.546 188.523 485.017 188.291 485.547 188.028C485.553 188.162 485.536 188.295 485.499 188.423C485.017 188.716 483.419 189.022 481.62 188.033C481.244 187.852 480.946 187.541 480.783 187.157C480.818 187.017 480.901 186.794 481.02 186.535Z" fill="#E14E45"/>
<defs>
<clipPath id="clip0_1030_5">
<rect width="60" height="35" fill="white" transform="matrix(-1 0 0 1 168 238)"/>
</clipPath>
<clipPath id="clip1_1030_5">
<rect width="19" height="18" fill="white" transform="matrix(-1 0 0 1 247 192)"/>
</clipPath>
<clipPath id="clip2_1030_5">
<rect width="19" height="18" fill="white" transform="matrix(-1 0 0 1 380 71)"/>
</clipPath>
<clipPath id="clip3_1030_5">
<rect width="19" height="18" fill="white" transform="matrix(-1 0 0 1 43 294)"/>
</clipPath>
<clipPath id="clip4_1030_5">
<rect width="19" height="18" fill="white" transform="translate(301 183)"/>
</clipPath>
<clipPath id="clip5_1030_5">
<rect width="19" height="18" fill="white" transform="translate(434 62)"/>
</clipPath>
<clipPath id="clip6_1030_5">
<rect width="19" height="18" fill="white" transform="translate(60 318)"/>
</clipPath>
<clipPath id="clip7_1030_5">
<rect width="53" height="53" fill="white" transform="matrix(-1 0 0 1 201 187)"/>
</clipPath>
</defs>
</svg>
