<svg xmlns="http://www.w3.org/2000/svg" viewBox="0 0 50.12 58.02"><defs><style>.cls-1{isolation:isolate;}.cls-2{fill:#ab927f;}.cls-3{fill:#004443;}.cls-4{fill:#fdf4e8;}.cls-5,.cls-6{fill:#f25e3d;}.cls-6,.cls-7{mix-blend-mode:multiply;opacity:0.3;}.cls-7{fill:#7cacae;}</style></defs><g class="cls-1"><g id="Layer_2" data-name="Layer 2"><g id="Layer_1-2" data-name="Layer 1"><ellipse class="cls-2" cx="25.06" cy="55.9" rx="25.06" ry="2.11"/><path class="cls-3" d="M9.68,55.35,29.67.43a.48.48,0,0,1,.6-.28l.11,0a.47.47,0,0,1,.28.6l-20,54.92a.38.38,0,0,1-.5.23l-.26-.09A.39.39,0,0,1,9.68,55.35Z"/><path class="cls-4" d="M37.65,17a17.19,17.19,0,0,1-.77,2.11A2.48,2.48,0,0,1,33.7,20.6L14.78,13.72a2.48,2.48,0,0,1-1.48-3.18A15.35,15.35,0,0,1,14,8.76c1.47-2.69,6.78-7.56,15.23-7l1,.36A18,18,0,0,1,35.91,9C37.39,12.15,38,15.2,37.65,17Z"/><path class="cls-5" d="M29.18,1.77A17.44,17.44,0,0,0,14,8.76l-.6,1.63A2.64,2.64,0,0,1,10,12L1.73,9A2.64,2.64,0,0,1,.16,5.59l.28-.77a1.76,1.76,0,0,1,.92-1C4.29,2.42,16.4-2.64,29.18,1.77Z"/><path class="cls-5" d="M49.94,23.22l-.41,1.14a1.84,1.84,0,0,1-2.34,1.15l-9.46-3.44a1.83,1.83,0,0,1-1-2.38l.8-2.2h0a19.35,19.35,0,0,0-1.64-8.3,17.84,17.84,0,0,0-5.66-7.06C37,4.76,44,10.29,49.77,20.82A2.91,2.91,0,0,1,49.94,23.22Z"/><path class="cls-6" d="M48.38,20.8c-.71-.31-1.45-.54-2.18-.78-1.32-.44-2.65-.83-4-1.27-.67-.22-1.33-.47-2-.73a8.73,8.73,0,0,0-1.92-.6c.46.15.89.37,1.33.55.77.31,1.54.61,2.32.88,1.09.36,2.19.69,3.28,1l1.62.53c.49.17,1,.34,1.47.5.24.07.49.15.74.21Z"/><path class="cls-6" d="M12.25,7.86A22.92,22.92,0,0,0,10,7C8.6,6.58,7.22,6.17,5.85,5.71c-.7-.23-1.39-.49-2.08-.76a8.52,8.52,0,0,0-2-.62c.48.15.92.38,1.39.56.8.32,1.6.64,2.41.91,1.14.39,2.29.73,3.43,1.1l1.68.56c.51.17,1,.35,1.53.51L13,8.2Z"/><path class="cls-7" d="M35.07,16.36l-5.54-2.14C28,13.61,26.37,13,24.79,12.4c-1.92-.72-3.86-1.4-5.83-2-.67-.19-1.34-.39-2-.55-.44-.11-.88-.18-1.33-.25,0,0,0-.1,0-.12s-.07.06-.08.11l-.08,0,.08,0,0,0,0,0c1,.32,2,.58,3.07.88s2.26.69,3.37,1.07c2.31.8,4.58,1.69,6.85,2.57,2,.79,4.06,1.55,6.08,2.35.58.22,1.16.41,1.75.59C36.19,16.84,35.64,16.58,35.07,16.36Z"/></g></g></g></svg>