<svg xmlns="http://www.w3.org/2000/svg" viewBox="0 0 73.67 57.65"><defs><style>.cls-1{fill:#76514b;}.cls-2{fill:#48a2b7;}.cls-3{fill:#f8fdff;}.cls-4{fill:#3d575e;}.cls-5{fill:#6eceb5;}.cls-6{fill:#fff;}.cls-7{fill:#562b2b;}.cls-8{fill:#fffdff;}.cls-9{fill:#d3d3d3;}</style></defs><g id="Layer_2" data-name="Layer 2"><g id="Layer_1-2" data-name="Layer 1"><rect class="cls-1" x="10.43" y="11.95" width="51.8" height="18.58"/><path class="cls-2" d="M18.18.61H57.23S59.75,11.32,73.6,9.75c0,0-.94,6-11.49,6H13.61S4.79,17.15.07,10.06C.07,10.06,16.13,11.48,18.18.61Z"/><rect class="cls-3" x="29.48" y="21" width="14.72" height="9.53"/><rect class="cls-4" x="34.17" y="21" width="5.33" height="9.22"/><rect class="cls-5" x="34.91" y="11.96" width="3.84" height="14.72" transform="translate(17.52 56.16) rotate(-90)"/><rect class="cls-4" x="35.87" y="10.11" width="1.93" height="14.72" transform="translate(19.37 54.3) rotate(-90)"/><rect class="cls-5" x="18.06" y="17.24" width="6.2" height="12.98"/><rect class="cls-4" x="20.19" y="14.3" width="1.93" height="6.2" transform="translate(3.76 38.56) rotate(-90)"/><rect class="cls-5" x="49.41" y="17.24" width="6.2" height="12.98"/><rect class="cls-4" x="51.55" y="14.3" width="1.93" height="6.2" transform="translate(35.11 69.91) rotate(-90)"/><path class="cls-6" d="M2.22,10.77A19.64,19.64,0,0,1,0,10.67L.14,9.45c.15,0,14.64,1.6,17.45-9L17.71,0h40l.11.47c.1.42,2.55,10.09,15.71,8.67l.13,1.22c-12.55,1.35-16.18-7-16.89-9.13H18.65C16.07,9.76,6.58,10.77,2.22,10.77Z"/><rect class="cls-7" x="10.43" y="30.22" width="51.8" height="0.61"/><polygon class="cls-8" points="63.9 39.7 8.75 39.7 8.02 42.43 64.62 42.43 63.9 39.7"/><polygon class="cls-8" points="62.22 30.84 10.42 30.84 9.47 33.68 63.17 33.68 62.22 30.84"/><polygon class="cls-8" points="63.17 35.25 9.47 35.25 8.75 37.98 63.9 37.98 63.17 35.25"/><polygon class="cls-8" points="64.62 44.15 8.02 44.15 7.29 47.04 65.35 47.04 64.62 44.15"/><polygon class="cls-8" points="65.35 48.76 7.29 48.76 6.57 51.48 66.08 51.48 65.35 48.76"/><polygon class="cls-8" points="66.08 53.2 6.57 53.2 5.84 55.93 66.81 55.93 66.08 53.2"/><rect class="cls-9" x="9.47" y="33.53" width="53.69" height="1.72"/><rect class="cls-9" x="8.75" y="37.98" width="55.15" height="1.72"/><rect class="cls-9" x="8.02" y="42.43" width="56.6" height="1.72"/><rect class="cls-9" x="7.29" y="47.04" width="58.06" height="1.72"/><rect class="cls-9" x="6.57" y="51.49" width="59.51" height="1.72"/><rect class="cls-9" x="5.84" y="55.93" width="60.97" height="1.72"/><polygon class="cls-8" points="27.42 28.87 24.13 55.99 20.42 55.99 24.55 28.87 27.42 28.87"/><polygon class="cls-8" points="45.22 28.87 48.51 55.99 52.22 55.99 48.1 28.87 45.22 28.87"/><rect class="cls-8" x="20.42" y="55.99" width="3.84" height="1.67"/><rect class="cls-8" x="48.51" y="55.99" width="4" height="1.67"/></g></g></svg>