<svg width="51" height="19" viewBox="0 0 51 19" fill="none" xmlns="http://www.w3.org/2000/svg">
<path fill-rule="evenodd" clip-rule="evenodd" d="M1.93517 10.1552H4.4983C3.99896 9.67281 3.6933 9.02809 3.63785 8.34025C3.5824 7.65242 3.78091 6.96801 4.19666 6.4136C4.61242 5.85918 5.2173 5.47228 5.89943 5.32443C6.58157 5.17658 7.29482 5.27779 7.90728 5.60935C8.03269 5.04646 8.34869 4.54267 8.80306 4.18121C9.25743 3.81976 9.823 3.62225 10.4063 3.62132C10.6046 3.6201 10.8024 3.64134 10.9959 3.68463C11.1456 2.69568 11.6375 1.78855 12.388 1.11767C13.1385 0.446787 14.101 0.0536169 15.1119 0.00509635C16.1228 -0.0434242 17.1194 0.255706 17.9321 0.851553C18.7449 1.4474 19.3235 2.30314 19.5695 3.2731C19.8365 3.0594 20.1456 2.90314 20.4772 2.81433C20.8088 2.72553 21.1555 2.70613 21.4952 2.75739C21.8348 2.80865 22.1598 2.92943 22.4495 3.112C22.7391 3.29457 22.987 3.5349 23.1772 3.81759C23.6553 3.27591 24.2628 2.86092 24.9446 2.61035C25.6264 2.35979 26.3608 2.28159 27.0809 2.38288C27.8011 2.48417 28.4842 2.76174 29.0681 3.19033C29.6521 3.61892 30.1183 4.18495 30.4244 4.83693C30.8023 4.60986 31.2232 4.46142 31.6612 4.40072C32.0992 4.34002 32.5452 4.36832 32.9717 4.48391C33.3983 4.5995 33.7965 4.79994 34.1419 5.07293C34.4873 5.34593 34.7726 5.68573 34.9804 6.07153C35.1116 5.74796 35.3527 5.47962 35.6624 5.31258C35.972 5.14554 36.3309 5.09022 36.6773 5.15613C37.0237 5.22204 37.3361 5.40507 37.5608 5.67377C37.7855 5.94248 37.9086 6.28011 37.9088 6.62868V6.72999C38.3842 6.34649 38.9872 6.15183 39.6 6.18403C40.2128 6.21622 40.7915 6.47296 41.2231 6.9041C41.6546 7.33524 41.908 7.90982 41.9338 8.51566C41.9596 9.1215 41.756 9.7151 41.3626 10.1805H44.6562C45.0297 10.1804 45.3884 10.3248 45.6555 10.5828C45.9226 10.8408 46.0768 11.1918 46.0852 11.5607C46.0852 11.7462 46.0482 11.9298 45.9764 12.1011C45.9046 12.2723 45.7993 12.428 45.6667 12.5591C45.534 12.6902 45.3764 12.7942 45.2031 12.8652C45.0297 12.9361 44.8439 12.9726 44.6562 12.9726H1.93517C1.55619 12.9726 1.19273 12.8239 0.924749 12.5591C0.656769 12.2943 0.506219 11.9352 0.506219 11.5607C0.507914 11.1874 0.659211 10.8299 0.927008 10.5665C1.1948 10.3031 1.55729 10.1552 1.93517 10.1552ZM48.9559 15.0366H49.0072C49.5352 15.0383 50.0411 15.2463 50.4144 15.6152C50.7878 15.9841 50.9983 16.4839 51 17.0057C50.9966 17.5263 50.7854 18.0245 50.4122 18.392C50.039 18.7596 49.5341 18.9667 49.0072 18.9683H48.9559C48.429 18.9667 47.924 18.7596 47.5509 18.392C47.1777 18.0245 46.9664 17.5263 46.9631 17.0057C46.9648 16.4839 47.1753 15.9841 47.5486 15.6152C47.922 15.2463 48.4279 15.0383 48.9559 15.0366ZM34.6856 15.0366C34.5485 15.0366 34.4127 15.0099 34.2859 14.9581C34.1592 14.9062 34.0441 14.8302 33.9471 14.7344C33.8501 14.6385 33.7732 14.5248 33.7207 14.3996C33.6682 14.2743 33.6412 14.1401 33.6412 14.0046C33.6412 13.8691 33.6682 13.7349 33.7207 13.6097C33.7732 13.4845 33.8501 13.3707 33.9471 13.2749C34.0441 13.1791 34.1592 13.103 34.2859 13.0512C34.4127 12.9993 34.5485 12.9726 34.6856 12.9726H3.87674C4.01927 12.9627 4.16228 12.9836 4.29575 13.034C4.42922 13.0844 4.54993 13.163 4.64943 13.2644C4.74892 13.3657 4.8248 13.4873 4.87175 13.6206C4.9187 13.754 4.93558 13.8958 4.92122 14.0363C4.91954 14.3095 4.80896 14.571 4.61344 14.7642C4.41793 14.9574 4.15324 15.0666 3.87674 15.0683H1.99284C1.46482 15.07 0.958919 15.2779 0.585555 15.6468C0.212191 16.0157 0.00168966 16.5156 0 17.0373C0.00337497 17.5579 0.21462 18.0561 0.587803 18.4237C0.960985 18.7912 1.46593 18.9983 1.99284 19H43.1248C43.6517 18.9983 44.1566 18.7912 44.5298 18.4237C44.903 18.0561 45.1142 17.5579 45.1176 17.0373C45.1159 16.5156 44.9054 16.0157 44.532 15.6468C44.1587 15.2779 43.6528 15.07 43.1248 15.0683L34.6856 15.0366Z" fill="white" fill-opacity="0.71"/>
</svg>
