<svg xmlns="http://www.w3.org/2000/svg" xmlns:xlink="http://www.w3.org/1999/xlink" viewBox="0 0 92.38 62.14"><defs><style>.cls-1{fill:none;}.cls-2{fill:#814e4c;}.cls-3{fill:#6eceb5;}.cls-4{fill:#fff;}.cls-5{fill:#efefef;}.cls-6{clip-path:url(#clip-path);}.cls-7{fill:#d3d3d3;}.cls-8{fill:#bec0c2;}.cls-9{fill:#e0e0e0;}.cls-10{fill:#dbdbdb;}.cls-11{fill:#48a2b7;}</style><clipPath id="clip-path"><path class="cls-1" d="M2.77,49.64s15-8.07,18.9-7.46,14.2-3.5,20.75-3.33,20.77-.67,24.9.88a69.1,69.1,0,0,1,10.51,5c2.68,1.57,8.39,5.87,8.39,5.87s.65,1-1,1.76-81.15-.44-81.15-.44S1.84,51.57,2.77,49.64Z"/></clipPath></defs><g id="Layer_2" data-name="Layer 2"><g id="Layer_1-2" data-name="Layer 1"><rect class="cls-2" x="17.85" y="16.73" width="57.64" height="25.48"/><rect class="cls-3" x="36.28" y="23.2" width="20.78" height="19.01"/><rect class="cls-3" x="24.02" y="23.2" width="6.88" height="19.01"/><rect class="cls-3" x="62.45" y="23.2" width="6.88" height="19.01"/><rect class="cls-4" x="25.18" y="24.92" width="4.55" height="4.55"/><rect class="cls-4" x="24.02" y="21.74" width="6.88" height="1.47"/><rect class="cls-4" x="62.45" y="21.74" width="6.88" height="1.47"/><rect class="cls-4" x="36.28" y="21.74" width="20.78" height="1.47"/><rect class="cls-4" x="38.22" y="24.92" width="4.55" height="4.55"/><rect class="cls-4" x="44.44" y="24.92" width="4.55" height="4.55"/><rect class="cls-4" x="50.57" y="24.92" width="4.55" height="4.55"/><rect class="cls-4" x="63.61" y="24.92" width="4.55" height="4.55"/><path class="cls-5" d="M2.77,49.64s15-8.07,18.9-7.46,14.2-3.5,20.75-3.33,20.77-.67,24.9.88a69.1,69.1,0,0,1,10.51,5c2.68,1.57,8.39,5.87,8.39,5.87s.65,1-1,1.76-81.15-.44-81.15-.44S1.84,51.57,2.77,49.64Z"/><g class="cls-6"><ellipse class="cls-7" cx="12.54" cy="49.11" rx="12.54" ry="6.32"/><ellipse class="cls-8" cx="35.83" cy="54.33" rx="11.39" ry="7.32"/><ellipse class="cls-7" cx="27.46" cy="41.31" rx="8.37" ry="3.95"/><ellipse class="cls-9" cx="47.72" cy="42.18" rx="10.65" ry="5.44"/><ellipse class="cls-10" cx="62.61" cy="53.94" rx="13.56" ry="8.2"/><ellipse class="cls-8" cx="65.72" cy="38.28" rx="7.35" ry="4.78"/><ellipse class="cls-8" cx="76.58" cy="43.7" rx="5.22" ry="3.97"/></g><path class="cls-11" d="M1.47,12.84S11,21.47,21.7,20.05s56,1,59.46-.37,10.72-5.63,10.72-5.63-10.72,1-12.75-1.21S70,3.74,70,1.31L24.73.5s-2.63,7.82-7.28,9.78S14.62,12.84,1.47,12.84Z"/><path class="cls-4" d="M87.37,15.12a16.24,16.24,0,0,1-9.47-2.88A23.14,23.14,0,0,1,69.67,1.8L25.11,1a17.44,17.44,0,0,1-6.58,9.27C11.29,15.06,1.78,13.4,1.38,13.33a.5.5,0,0,1-.4-.58.5.5,0,0,1,.58-.4c.09,0,9.52,1.65,16.42-2.9A16.7,16.7,0,0,0,24.24.38a.52.52,0,0,1,.5-.38L70,.81a.5.5,0,0,1,.47.35,22.19,22.19,0,0,0,8,10.26c6,4.26,13.18,2.17,13.25,2.15a.49.49,0,0,1,.62.34.5.5,0,0,1-.33.62A17.3,17.3,0,0,1,87.37,15.12Z"/></g></g></svg>