<svg xmlns="http://www.w3.org/2000/svg" viewBox="0 0 79.78 62.25"><defs><style>.cls-1{fill:#46c671;}.cls-2{fill:#ff6059;}.cls-3{fill:#eadb1f;}.cls-4{fill:#c04235;}.cls-5{fill:#7cce55;}</style></defs><g id="Layer_2" data-name="Layer 2"><g id="Layer_1-2" data-name="Layer 1"><path class="cls-1" d="M2.78,52.21s.67,2.68,9.15-2.9,6.48-17.42,6.48-17.42S-5.93,27,2.78,52.21Z"/><path class="cls-1" d="M59.46,24.27s1.88,2-7.42,6.1S33.9,26.3,33.9,26.3,43.06,3.22,59.46,24.27Z"/><path class="cls-2" d="M38.12,11.7c-.75-.33-.28-1.43-.28-1.75C37.84,4,33.35,0,27.41,0a10.71,10.71,0,0,0-7.72,3.27A2.73,2.73,0,0,1,17,4a11,11,0,0,0-3.36-.36,10.79,10.79,0,0,0-10,12.67,3.94,3.94,0,0,1-.92,3.34A10.76,10.76,0,0,0,14.34,36.93a3.34,3.34,0,0,1,2.9.34,10.75,10.75,0,0,0,15.74-5c.12-.24.74-.41,1-.41A10.18,10.18,0,0,0,44.46,21.5,10.74,10.74,0,0,0,38.12,11.7Z"/><ellipse class="cls-3" cx="14.39" cy="18.78" rx="2.47" ry="1.82"/><ellipse class="cls-3" cx="20.37" cy="15.13" rx="2.47" ry="1.82" transform="translate(-4.62 10.72) rotate(-26.6)"/><ellipse class="cls-3" cx="26" cy="12.31" rx="2.47" ry="1.82" transform="translate(-0.18 24.24) rotate(-49.83)"/><path class="cls-3" d="M19.7,26.55a.63.63,0,0,1-.63-.62c-.09-2.5-3.68-5.64-5.06-6.64a.64.64,0,1,1,.75-1c.23.16,5.45,4,5.58,7.63a.64.64,0,0,1-.61.66Z"/><path class="cls-3" d="M23.88,24.15a.64.64,0,0,1-.62-.49,54.66,54.66,0,0,0-3.46-8.24.64.64,0,0,1,1.14-.58,55.48,55.48,0,0,1,3.56,8.51.65.65,0,0,1-.47.78Z"/><path class="cls-3" d="M27.15,21.86a.63.63,0,0,1-.55-.3c-2.51-4.14-1.28-9.17-1.22-9.39a.64.64,0,0,1,.77-.46.65.65,0,0,1,.47.78s-1.16,4.74,1.07,8.41a.63.63,0,0,1-.21.87A.68.68,0,0,1,27.15,21.86Z"/><path class="cls-4" d="M17.47,26.44a15.74,15.74,0,0,1,11.88-6.06,1.1,1.1,0,0,1,.58,2.08L18.87,28.1A1.11,1.11,0,0,1,17.47,26.44Z"/><path class="cls-5" d="M35.32,46.5s-1,1.75,6.3,3.26,12.49-5.71,12.49-5.71S44,28.76,35.32,46.5Z"/><path class="cls-5" d="M79.54,61.52s-.08,2-7.07-.7-7.34-11.6-7.34-11.6S82,41.94,79.54,61.52Z"/><path class="cls-2" d="M75,43.79c-.22-.56.6-.89.76-1.06,3.11-3.1,2.86-7.54-.25-10.65a7.91,7.91,0,0,0-5.73-2.32,2,2,0,0,1-1.78-1A7.92,7.92,0,0,0,66.4,26.8a8,8,0,0,0-10.47-.16,8.39,8.39,0,0,0-1.39,1.54,2.92,2.92,0,0,1-2.23,1.27,7.94,7.94,0,0,0-3,15.1,2.48,2.48,0,0,1,1.34,1.7,8,8,0,0,0,10.86,5.59c.18-.07.6.17.72.29a7.52,7.52,0,0,0,10.88.1A8,8,0,0,0,75,43.79Z"/><ellipse class="cls-3" cx="58.86" cy="35.09" rx="1.35" ry="1.83" transform="translate(-7.58 51.9) rotate(-45)"/><ellipse class="cls-3" cx="63.89" cy="36.31" rx="1.35" ry="1.83" transform="translate(9.27 85.48) rotate(-71.6)"/><ellipse class="cls-3" cx="68.3" cy="37.78" rx="1.83" ry="1.35" transform="translate(-2.94 5.88) rotate(-4.83)"/><path class="cls-3" d="M57.58,41.93a.48.48,0,0,1,0-.66c1.26-1.35,1-4.86.83-6.1a.47.47,0,0,1,.39-.54.47.47,0,0,1,.54.39c0,.2.76,4.93-1.07,6.9a.46.46,0,0,1-.66,0Z"/><path class="cls-3" d="M61,42.86a.48.48,0,0,1-.07-.58,39.66,39.66,0,0,0,2.5-6.11.47.47,0,0,1,.59-.31.48.48,0,0,1,.31.6,41.48,41.48,0,0,1-2.59,6.31.48.48,0,0,1-.65.16Z"/><path class="cls-3" d="M63.91,43.37a.47.47,0,0,1-.12-.44,10,10,0,0,1,4.27-5.56.49.49,0,0,1,.65.17.46.46,0,0,1-.17.64,9.23,9.23,0,0,0-3.84,5,.47.47,0,0,1-.57.35A.61.61,0,0,1,63.91,43.37Z"/><path class="cls-4" d="M56.47,40.71a11.59,11.59,0,0,1,9.37,3,.81.81,0,0,1-.79,1.38l-8.72-2.82A.82.82,0,0,1,56.47,40.71Z"/></g></g></svg>