<svg xmlns="http://www.w3.org/2000/svg" viewBox="0 0 336 301.5"><defs><style>.cls-1,.cls-2,.cls-3{fill:#fff;}.cls-1,.cls-3{fill-rule:evenodd;}.cls-3{stroke:#d7e5f5;stroke-miterlimit:22.93;stroke-width:0.22px;}</style></defs><g id="Layer_2" data-name="Layer 2"><g id="Layer_1-2" data-name="Layer 1"><path class="cls-1" d="M144.11,12.41a5.05,5.05,0,0,0-4.56,2.88,6.85,6.85,0,0,0-2.84-.61h-.09a7.36,7.36,0,0,0,.09-1.16A6.86,6.86,0,0,0,125,8.66a6.86,6.86,0,0,0-8.17-1.14,9.71,9.71,0,0,0-18.4.08A6.94,6.94,0,0,0,95,6.66a6.86,6.86,0,0,0-6.86,6.86,6.67,6.67,0,0,0,.11,1.19q-.34,0-.69,0A6.85,6.85,0,0,0,81.1,24h-4a2.23,2.23,0,0,0-2.22,2.22h0a2.23,2.23,0,0,0,2.22,2.23h106.4a2.23,2.23,0,0,0,2.22-2.23h0A2.23,2.23,0,0,0,183.46,24h-3.64c0-.2,0-.4,0-.6a5,5,0,0,0-5.05-5h-.07a4.8,4.8,0,0,0,.07-.85,5,5,0,0,0-8.6-3.58,5,5,0,0,0-3.56-1.47,4.94,4.94,0,0,0-2.45.64,7.15,7.15,0,0,0-13.54.06A5,5,0,0,0,144.11,12.41Z"/><path class="cls-1" d="M6.48,126.44h95.21a5.08,5.08,0,0,0-1.71-.3H99.9a4.71,4.71,0,0,0,.08-.85,5,5,0,0,0-8.61-3.57,5,5,0,0,0-3.56-1.47,5.07,5.07,0,0,0-2.45.63,7.14,7.14,0,0,0-13.53.06,5.06,5.06,0,0,0-7.11,2.18,6.92,6.92,0,0,0-2.84-.61h-.1a7.23,7.23,0,0,0,.1-1.15,6.87,6.87,0,0,0-11.7-4.87A6.88,6.88,0,0,0,42,115.36a9.72,9.72,0,0,0-18.41.08,6.87,6.87,0,0,0-10.23,7.11,5.07,5.07,0,0,0-.68,0A6.86,6.86,0,0,0,6.48,126.44Z"/><path class="cls-1" d="M219.26,89.12a16.52,16.52,0,0,1,15.91,12.08,10.49,10.49,0,0,1,3.23-.5,10.73,10.73,0,0,1,9.66,6,7,7,0,0,1,10.63,8.75h3.92a2.23,2.23,0,0,1,2.23,2.23h0a2.23,2.23,0,0,1-2.23,2.22H188.82a2.23,2.23,0,0,1-2.22-2.22h0a2.23,2.23,0,0,1,2.22-2.23H191a10.54,10.54,0,0,1-.8-4.06,10.74,10.74,0,0,1,10.73-10.73,10.59,10.59,0,0,1,2.48.29,16.53,16.53,0,0,1,15.86-11.87Zm48.35,26.37h.06a2.24,2.24,0,0,1,2.23,2.23h0a2.24,2.24,0,0,1-2.23,2.22h-.06a2.23,2.23,0,0,1-2.22-2.22h0A2.23,2.23,0,0,1,267.61,115.49Z"/><path class="cls-1" d="M189.62,126.36H136a8.66,8.66,0,0,1-.38-2.51,8.42,8.42,0,0,1,8.41-8.41,8.24,8.24,0,0,1,1.94.23,12.95,12.95,0,0,1,24.89.16,8.42,8.42,0,0,1,10.1,4.34,5.52,5.52,0,0,1,8.95,4.31A5.35,5.35,0,0,1,189.62,126.36Z"/><path class="cls-1" d="M35.08,231.52a12.37,12.37,0,0,0-11.91,9,8.11,8.11,0,0,0-2.42-.37,8,8,0,0,0-7.22,4.52A5.27,5.27,0,0,0,5,248.82a4.84,4.84,0,0,0,.08.94H2.54A2.55,2.55,0,0,0,0,252.31H0a2.55,2.55,0,0,0,2.54,2.54H86.8a2.55,2.55,0,0,0,2.54-2.54h0a2.63,2.63,0,0,0,0-.49,3.69,3.69,0,0,0,0-.58,3.46,3.46,0,0,0-5.61-2.7,5.26,5.26,0,0,0-4.74-3,5.49,5.49,0,0,0-1.58.24,8.12,8.12,0,0,0-15.6-.1,5.43,5.43,0,0,0-1.22-.14,5.23,5.23,0,0,0-3.82,1.65,8,8,0,0,0-8-7,8.16,8.16,0,0,0-1.86.21A12.36,12.36,0,0,0,35.08,231.52Z"/><path class="cls-1" d="M12.12,294.26H84a2.79,2.79,0,0,0-2.77-2.49,2.82,2.82,0,0,0-1.75.61,4.25,4.25,0,0,0-3.83-2.4,4.18,4.18,0,0,0-1.28.2,6.56,6.56,0,0,0-12.61-.08,4.07,4.07,0,0,0-1-.12,4.25,4.25,0,0,0-3.09,1.34,6.51,6.51,0,0,0-6.45-5.7,6.28,6.28,0,0,0-1.5.18,10,10,0,0,0-19.22.12,6.63,6.63,0,0,0-1.95-.3,6.51,6.51,0,0,0-5.85,3.66,4.25,4.25,0,0,0-6.91,3.33,3.84,3.84,0,0,0,.07.76h-2A2.06,2.06,0,0,0,12.12,294.26Z"/><rect class="cls-2" x="10.01" y="247.44" width="3.93" height="3.88" rx="1.94"/><path class="cls-1" d="M205,75.82h.06a2.09,2.09,0,0,1,2.08,2.08h0A2.09,2.09,0,0,1,205.05,80H205a2.09,2.09,0,0,1-2.08-2.09h0A2.08,2.08,0,0,1,205,75.82Z"/><path class="cls-1" d="M97.41,82.64H99.8a1.34,1.34,0,0,0,1.33-1.33A1.24,1.24,0,0,0,99.8,80H93.32a8.51,8.51,0,0,1,15.14-5.15,8.5,8.5,0,0,1,3.87-.93,8.94,8.94,0,0,1,1.37.11v-.11a8.5,8.5,0,0,1,13.21-7.08,12,12,0,0,1,22.8,2.32,8.4,8.4,0,0,1,3.74-.87,8.52,8.52,0,0,1,8.27,6.49A8.52,8.52,0,0,1,173.61,80H138.9a1.33,1.33,0,0,0-1.33,1.32,1.35,1.35,0,0,0,1.33,1.33h10.71a2.54,2.54,0,0,1,2.53,2.52h0a2.54,2.54,0,0,1-2.53,2.52H97.41a2.53,2.53,0,0,1-2.52-2.52h0a2.53,2.53,0,0,1,2.52-2.52Zm59.6,0a2.54,2.54,0,0,0-2.53,2.52h0A2.54,2.54,0,0,0,157,87.69h.07a2.53,2.53,0,0,0,2.52-2.52h0a2.53,2.53,0,0,0-2.52-2.52Z"/><path class="cls-1" d="M11.17,12.35a8.51,8.51,0,0,0-8.5,8.5,8.41,8.41,0,0,0,1.19,4.34H2.08A2.09,2.09,0,0,0,0,27.28H0a2.09,2.09,0,0,0,2.08,2.08H64.52a2.08,2.08,0,0,0,2.08-2.08h0a2.09,2.09,0,0,0-2.08-2.09H61.74a8.41,8.41,0,0,0,1.19-4.34,8.51,8.51,0,0,0-12.24-7.64,4.42,4.42,0,0,0-7.15-3,14.68,14.68,0,0,0-28.6,3A8.37,8.37,0,0,0,11.17,12.35Z"/><path class="cls-1" d="M60.63,82.64h.07a2.54,2.54,0,0,1,2.53,2.52h0a2.54,2.54,0,0,1-2.53,2.52h-.07a2.54,2.54,0,0,1-2.52-2.52h0a2.54,2.54,0,0,1,2.52-2.52Zm-53.32,0H9.7A1.34,1.34,0,0,0,11,81.31a1.25,1.25,0,0,0-.85-1.26h-.5A1.47,1.47,0,0,1,8.2,78.58h0A1.48,1.48,0,0,1,9.68,77.1h1.26a6,6,0,0,1,7.87-8.5,10.42,10.42,0,0,1,20.3-2.13,3.15,3.15,0,0,1,5.09,2.12A6,6,0,0,1,52,77.1h2a1.47,1.47,0,0,1,1.47,1.48h0A1.47,1.47,0,0,1,54,80.05H48.38a1.33,1.33,0,0,0,.41,2.59h3.68A2.54,2.54,0,0,1,55,85.16h0a2.54,2.54,0,0,1-2.53,2.52H7.31a2.53,2.53,0,0,1-2.52-2.52h0A2.53,2.53,0,0,1,7.31,82.64Z"/><path class="cls-1" d="M210,158.05a7,7,0,0,1,2.44.43,11.46,11.46,0,0,1-.1-1.56,12.6,12.6,0,0,1,22.29-8.07,5.27,5.27,0,0,1,8.94,3.79v.12a5.4,5.4,0,0,1,3,2.16,12.32,12.32,0,0,1,23.49,4,6.89,6.89,0,0,1,4.37,8.71h3A2.34,2.34,0,0,1,279.8,170h0a2.35,2.35,0,0,1-2.34,2.35H197.6a2.35,2.35,0,0,1-2.34-2.35h0a2.34,2.34,0,0,1,2.34-2.34h5.73a7,7,0,0,1-.44-2.46A7.16,7.16,0,0,1,210,158.05Z"/><path class="cls-1" d="M191.8,171.07h-2.39a1.33,1.33,0,0,1-1.32-1.33,1.25,1.25,0,0,1,1.32-1.33h2a4.85,4.85,0,0,0,.24-1.53,5.07,5.07,0,0,0-3.48-4.81,9.07,9.07,0,0,0-17.29-3,4,4,0,0,0-2.22-1.6v-.08a3.88,3.88,0,0,0-6.59-2.79,9.27,9.27,0,0,0-16.4,5.94,8.77,8.77,0,0,0,.07,1.15,5.36,5.36,0,0,0-1.8-.32,5.28,5.28,0,0,0-5,7h11.34a1.33,1.33,0,1,1,0,2.66h-3.67a2.53,2.53,0,0,0-2.53,2.52h0a2.54,2.54,0,0,0,2.53,2.53H191.8a2.54,2.54,0,0,0,2.53-2.53h0a2.53,2.53,0,0,0-2.53-2.52Zm-53.32,0a2.53,2.53,0,0,1,2.53,2.52h0a2.54,2.54,0,0,1-2.53,2.53h-.07a2.53,2.53,0,0,1-2.52-2.53h0a2.52,2.52,0,0,1,2.52-2.52Z"/><path class="cls-1" d="M223.32,222.64H229a6.3,6.3,0,0,1,7.44-10,5.57,5.57,0,0,1,5.44-4.39,5.43,5.43,0,0,1,1.29.15,9.54,9.54,0,0,1,18.65-1,5.38,5.38,0,0,1,7.87,1.2,9.53,9.53,0,0,1,15.8,2.25,7.09,7.09,0,0,1,9.94,2.73,3.31,3.31,0,0,1,6.38,1.23,1.55,1.55,0,0,1,0,.22,5.38,5.38,0,0,1,8.81,4.13,5.34,5.34,0,0,1-1.28,3.48h7.19a3.12,3.12,0,0,1,3.11,3.11h0a3.12,3.12,0,0,1-3.11,3.11H223.32a3.12,3.12,0,0,1-3.11-3.11h0a3.12,3.12,0,0,1,3.11-3.11ZM293.61,205a2.05,2.05,0,0,0-2.05,2.05h0a2.05,2.05,0,0,0,2.05,2.05h.05a2.05,2.05,0,0,0,2-2.05h0a2.05,2.05,0,0,0-2-2.05Z"/><path class="cls-1" d="M11.1,160.87h4a4.51,4.51,0,0,1,5.32-7.18,4,4,0,0,1,3.9-3.14,4.05,4.05,0,0,1,.92.1A6.83,6.83,0,0,1,38.62,150a3.85,3.85,0,0,1,5.63.86,6.81,6.81,0,0,1,11.31,1.61,5.07,5.07,0,0,1,7.11,1.95,2.37,2.37,0,0,1,4.57.88v.16a3.85,3.85,0,0,1,5.39,5.45h5.14A2.23,2.23,0,0,1,80,163.09h0a2.23,2.23,0,0,1-2.23,2.23H11.1a2.23,2.23,0,0,1-2.23-2.23h0a2.23,2.23,0,0,1,2.23-2.22Zm73.38,7.71h.08a3.12,3.12,0,0,1,3.11,3.11h0a3.12,3.12,0,0,1-3.11,3.1h-.08a3.12,3.12,0,0,1-3.11-3.1h0a3.12,3.12,0,0,1,3.11-3.11Zm-22.27,0a1.63,1.63,0,1,1,0-3.26H14.13A1.53,1.53,0,0,1,15.76,167a1.64,1.64,0,0,1-1.63,1.63H11.19a3.12,3.12,0,0,0-3.11,3.11h0a3.12,3.12,0,0,0,3.11,3.1H75.38a3.12,3.12,0,0,0,3.11-3.1h0a3.12,3.12,0,0,0-3.11-3.11Z"/><path class="cls-1" d="M142,295.6h5.05a7,7,0,0,1,6.93-8.14,7.08,7.08,0,0,1,3.88,1.16,4.3,4.3,0,0,1,4.14-3.17,4.21,4.21,0,0,1,1.81.4,12.61,12.61,0,0,1,22.68-4,6.95,6.95,0,0,1,10.18,0,17.56,17.56,0,0,1,35,2.17c0,.38,0,.76,0,1.13h0a5.8,5.8,0,1,1,11.48,1.57,3.9,3.9,0,0,1,1.19-.19,3.82,3.82,0,0,1,3.64,4.88h8.18a3.73,3.73,0,0,1-.14-1,3.59,3.59,0,0,1,2.58-3.44,4.87,4.87,0,0,1,7.79-3.75,8.23,8.23,0,0,1,6.46-3.12,8.12,8.12,0,0,1,.86,0,16.41,16.41,0,0,1,31.22,0,6,6,0,0,1,6.7,4.16,6.92,6.92,0,0,1,1.77-.22,7.23,7.23,0,0,1,7,5.51h.21v.18a5.66,5.66,0,0,1,1.43-.18,6,6,0,0,1,6,6v.12h5a3,3,0,0,1,2.95,2.95h0a3,3,0,0,1-2.95,2.95H142a3,3,0,0,1-2.95-2.95h0A3,3,0,0,1,142,295.6Z"/><path class="cls-1" d="M177.74,188.86h.08a3,3,0,0,1,3,2.95h0a3,3,0,0,1-3,2.95h-.08a3,3,0,0,1-3-2.95h0A3,3,0,0,1,177.74,188.86Z"/><path class="cls-1" d="M183.33,196.14h.06a2.06,2.06,0,0,1,2.05,2.05h0a2.07,2.07,0,0,1-2.05,2.05h-.06a2.06,2.06,0,0,1-2.05-2.05h0A2.05,2.05,0,0,1,183.33,196.14Z"/><path class="cls-1" d="M135.85,190.57h.06a2.05,2.05,0,0,1,2.05,2.05h0a2.05,2.05,0,0,1-2.05,2h-.06a2.06,2.06,0,0,1-2-2h0A2.06,2.06,0,0,1,135.85,190.57Z"/><path class="cls-1" d="M123.47,212.91a3.17,3.17,0,0,0-2.28,3,3.23,3.23,0,0,0,.13.88H114.1a3.31,3.31,0,0,0,.14-1,3.36,3.36,0,0,0-3.36-3.35,3.29,3.29,0,0,0-1,.17,5.36,5.36,0,0,0,.09-1,5.12,5.12,0,0,0-10.23-.4h0c0-.33,0-.67,0-1a15.45,15.45,0,0,0-2.19-7.95,5.83,5.83,0,0,0-.1.73h-.05q0-.47,0-.93a15.5,15.5,0,0,0-28.57,6.22,6.15,6.15,0,0,0-9,0,11.14,11.14,0,0,0-20,3.56,3.8,3.8,0,0,0-5.26,2.46,6.07,6.07,0,0,0-3.42-1,6.18,6.18,0,0,0-6.19,6.1h60a1.34,1.34,0,0,1,1.33,1.33c0,.73-2,1.33-1.33,1.33H81.22a2.53,2.53,0,0,0-2.53,2.52h0a2.54,2.54,0,0,0,2.53,2.53h91.23A2.54,2.54,0,0,0,175,224.7h0a2.53,2.53,0,0,0-2.53-2.52h-5.17a1.34,1.34,0,0,1-1.33-1.33c0-.73,2.21-1.33,1.33-1.33h17.45a5.31,5.31,0,0,0-5.22-4.33,5.18,5.18,0,0,0-1.26.15v-.15h-.19a6.38,6.38,0,0,0-6.2-4.87,6.25,6.25,0,0,0-1.57.19,5.32,5.32,0,0,0-5.07-3.74,5.71,5.71,0,0,0-.84.07,14.49,14.49,0,0,0-27.56,0,6.45,6.45,0,0,0-.76,0,7.29,7.29,0,0,0-5.71,2.76,4.3,4.3,0,0,0-6.88,3.31Zm-50.42,9.27a2.53,2.53,0,0,1,2.53,2.52h0a2.54,2.54,0,0,1-2.53,2.53H73a2.53,2.53,0,0,1-2.52-2.53h0A2.52,2.52,0,0,1,73,222.18Z"/><path class="cls-1" d="M120.79,241.65h78.32a2.63,2.63,0,0,1,2.62,2.62h0a2.63,2.63,0,0,1-2.62,2.61H120.79a2.63,2.63,0,0,1-2.62-2.61h0a2.63,2.63,0,0,1,2.62-2.62Zm68.42,8h.07a2.62,2.62,0,0,1,2.61,2.61h0a2.62,2.62,0,0,1-2.61,2.62h-.07a2.62,2.62,0,0,1-2.61-2.62h0a2.62,2.62,0,0,1,2.61-2.61Zm-18.73,0a1.37,1.37,0,1,1,0-2.74H130.05a1.28,1.28,0,0,1,1.37,1.37,1.37,1.37,0,0,1-1.37,1.37h-2.47a2.62,2.62,0,0,0-2.61,2.61h0a2.63,2.63,0,0,0,2.61,2.62h54a2.63,2.63,0,0,0,2.61-2.62h0a2.62,2.62,0,0,0-2.61-2.61Z"/><path class="cls-1" d="M120.79,241.65h78.32a2.63,2.63,0,0,1,2.62,2.62h0a2,2,0,0,1,0,.42H118.21a3,3,0,0,1,0-.42h0A2.63,2.63,0,0,1,120.79,241.65Z"/><path class="cls-1" d="M120.79,241.65h78.32a2.63,2.63,0,0,1,2.62,2.62h0a2.63,2.63,0,0,1-2.62,2.61H120.79a2.63,2.63,0,0,1-2.62-2.61h0A2.63,2.63,0,0,1,120.79,241.65Z"/><path class="cls-3" d="M120.79,241.65h78.32a2.63,2.63,0,0,1,2.62,2.62h0a2,2,0,0,1,0,.42H118.21a3,3,0,0,1,0-.42h0A2.63,2.63,0,0,1,120.79,241.65Z"/><path class="cls-1" d="M163,242.12l0,0a5.64,5.64,0,0,0-5.6-4.95,5.51,5.51,0,0,0-1.3.15,8.69,8.69,0,0,0-16.71.11,5.66,5.66,0,0,0-6.78,2.91,3.71,3.71,0,0,0-5.87,1.91H163Z"/><path class="cls-1" d="M162.71,246.75h0a5,5,0,0,0-5-4.42,4.91,4.91,0,0,0-1.16.13,7.78,7.78,0,0,0-15,.1,5.07,5.07,0,0,0-6.06,2.61,3.23,3.23,0,0,0-2.06-.73,3.32,3.32,0,0,0-3.19,2.43h32.45Z"/><path class="cls-1" d="M174.27,242.19h0a2.93,2.93,0,0,1,2.91-2.58,3,3,0,0,1,.68.08,4.52,4.52,0,0,1,8.7.06,2.84,2.84,0,0,1,.88-.14,3,3,0,0,1,2.65,1.66,1.87,1.87,0,0,1,1.2-.43,1.92,1.92,0,0,1,1.85,1.42H174.27Z"/></g></g></svg>