<svg width="45" height="21" viewBox="0 0 45 21" fill="none" xmlns="http://www.w3.org/2000/svg">
<path d="M34.2087 10.6318H13.8138C12.8512 10.6318 12.0708 11.4122 12.0708 12.3749V17.4639C12.0708 18.4266 12.8512 19.207 13.8138 19.207H34.2087C35.1714 19.207 35.9517 18.4266 35.9517 17.4639V12.3749C35.9517 11.4122 35.1714 10.6318 34.2087 10.6318Z" fill="#B1B1B1"/>
<path d="M35.4351 10.6318H32.7989C32.5135 10.6318 32.2822 10.8631 32.2822 11.1485V18.6903C32.2822 18.9757 32.5135 19.207 32.7989 19.207H35.4351C35.7205 19.207 35.9518 18.9757 35.9518 18.6903V11.1485C35.9518 10.8631 35.7205 10.6318 35.4351 10.6318Z" fill="#8C8680"/>
<path d="M44.31 14.3401H41.7654C41.6703 14.3388 41.5764 14.3189 41.489 14.2813C41.4016 14.2437 41.3225 14.1893 41.2561 14.1212C41.1898 14.053 41.1375 13.9725 41.1023 13.8841C41.067 13.7957 41.0496 13.7013 41.0508 13.6062V1.05252C41.0499 0.919883 41.0862 0.789647 41.1556 0.676581C41.2249 0.563514 41.3245 0.47214 41.4432 0.412823C41.5618 0.353505 41.6947 0.328617 41.8268 0.340981C41.9588 0.353345 42.0848 0.402467 42.1903 0.482774L44.7156 2.41411C44.8047 2.48307 44.8768 2.57165 44.9262 2.67297C44.9756 2.77428 45.001 2.88562 45.0004 2.99834V13.6062C45.0031 13.7942 44.9326 13.9759 44.8038 14.1129C44.6749 14.2499 44.4978 14.3313 44.31 14.3401Z" fill="#96A7A9"/>
<path d="M40.7173 0H13.8138C12.8512 0 12.0708 0.780381 12.0708 1.74303V12.5971C12.0708 13.5598 12.8512 14.3402 13.8138 14.3402H40.7173C41.68 14.3402 42.4603 13.5598 42.4603 12.5971V1.74303C42.4603 0.780381 41.68 0 40.7173 0Z" fill="#8391A2"/>
<path d="M39.5974 2.19702H14.4949C13.9802 2.19702 13.563 2.61423 13.563 3.12889V11.2067C13.563 11.7214 13.9802 12.1386 14.4949 12.1386H39.5974C40.112 12.1386 40.5292 11.7214 40.5292 11.2067V3.12889C40.5292 2.61423 40.112 2.19702 39.5974 2.19702Z" fill="#DCDDC5"/>
<path d="M20.8872 16.7397C20.8874 15.9999 20.6302 15.2832 20.1598 14.7124C19.6893 14.1415 19.035 13.7521 18.3089 13.6109V13.5481C18.3089 12.8246 18.0215 12.1307 17.5099 11.6191C16.9983 11.1075 16.3044 10.8201 15.5809 10.8201C15.5737 10.1291 15.3051 9.46652 14.8291 8.96564C14.353 8.46476 13.7049 8.16282 13.0152 8.12059C12.3255 8.07836 11.6454 8.29899 11.1118 8.73805C10.5782 9.17711 10.2307 9.80202 10.1393 10.487C9.78163 10.3178 9.39073 10.2304 8.99502 10.2311C8.37772 10.2306 7.77849 10.4394 7.29526 10.8236C6.81203 11.2077 6.47337 11.7444 6.33461 12.3459C6.02717 12.2238 5.69972 12.16 5.36894 12.1576C4.71255 12.1549 4.07713 12.3887 3.57888 12.816C3.08063 13.2433 2.75283 13.8357 2.65542 14.4848H2.62162C1.94892 14.5111 1.30969 14.7851 0.826882 15.2543C0.344073 15.7235 0.0517886 16.3546 0.00625175 17.0262C-0.0392851 17.6979 0.165142 18.3627 0.580209 18.8927C0.995277 19.4227 1.59167 19.7806 2.25467 19.8974C2.54979 20.0628 2.882 20.1509 3.22034 20.1533H17.6329C18.1091 20.1498 18.5689 19.9789 18.9317 19.6705C19.5097 19.4283 20.0035 19.0212 20.3514 18.4999C20.6992 17.9786 20.8856 17.3663 20.8872 16.7397Z" fill="#42AA65"/>
</svg>
