<svg xmlns="http://www.w3.org/2000/svg" viewBox="0 0 54.21 40.01"><defs><style>.cls-1{fill:#fff;}.cls-2{fill:#aae2e0;}.cls-3{fill:#21a59b;}</style></defs><g id="Layer_2" data-name="Layer 2"><g id="Layer_1-2" data-name="Layer 1"><ellipse class="cls-1" cx="27.1" cy="13.46" rx="25.59" ry="13.46"/><polygon class="cls-2" points="47.23 33.53 6.98 33.53 1.16 14.46 53.05 14.46 47.23 33.53"/><path class="cls-3" d="M17.43,11.86h0a.42.42,0,0,1-.41-.44C17.35,3.25,23,.18,23.25.05a.42.42,0,0,1,.57.18.43.43,0,0,1-.17.57,10.48,10.48,0,0,0-2.78,2.43,13.53,13.53,0,0,0-3,8.22A.43.43,0,0,1,17.43,11.86Z"/><path class="cls-3" d="M36.78,11.86a.42.42,0,0,1-.42-.41,13.59,13.59,0,0,0-3-8.22A10.66,10.66,0,0,0,30.56.8a.42.42,0,0,1-.18-.57A.43.43,0,0,1,31,.05c.24.13,5.89,3.2,6.25,11.37a.43.43,0,0,1-.41.44Z"/><path class="cls-3" d="M7.83,11.86H7.75a.42.42,0,0,1-.34-.49A13.32,13.32,0,0,1,17.35.68a.41.41,0,0,1,.49.33.42.42,0,0,1-.33.5,12.26,12.26,0,0,0-9.26,10A.44.44,0,0,1,7.83,11.86Z"/><path class="cls-3" d="M46.38,11.86a.43.43,0,0,1-.42-.35,12.28,12.28,0,0,0-9.26-10,.43.43,0,0,1-.34-.5.42.42,0,0,1,.5-.33A13.33,13.33,0,0,1,46.8,11.36a.42.42,0,0,1-.34.49Z"/><path class="cls-3" d="M18.84,34a.43.43,0,0,1-.43-.4L17,14.49a.43.43,0,0,1,.85-.07L19.26,33.5a.43.43,0,0,1-.39.46Z"/><path class="cls-3" d="M9.24,34a.43.43,0,0,1-.43-.4L7.4,14.49a.43.43,0,0,1,.85-.07L9.66,33.5a.43.43,0,0,1-.39.46Z"/><path class="cls-3" d="M35.37,33.26h0a.41.41,0,0,1-.39-.44l1.41-18.41a.42.42,0,0,1,.84.06L35.79,32.88A.42.42,0,0,1,35.37,33.26Z"/><path class="cls-3" d="M44.85,34h0a.43.43,0,0,1-.39-.46l1.41-19.08A.43.43,0,0,1,46.3,14a.43.43,0,0,1,.39.46L45.28,33.56A.43.43,0,0,1,44.85,34Z"/><rect class="cls-3" y="11.43" width="54.21" height="3.02" rx="1.28"/><path class="cls-1" d="M49.76,20.22H4.45a1,1,0,0,1-.94-.63l0-.11a1,1,0,0,1,.94-1.41H49.8a1,1,0,0,1,.94,1.41l0,.11A1,1,0,0,1,49.76,20.22Z"/><path class="cls-1" d="M48.17,26.83H6a.93.93,0,0,1-.87-.6L5.05,26a.94.94,0,0,1,.88-1.27H48.28A.93.93,0,0,1,49.15,26l-.1.27A.94.94,0,0,1,48.17,26.83Z"/><rect class="cls-3" x="6.12" y="32.4" width="20.73" height="7.6" rx="1.13"/><rect class="cls-1" x="6.12" y="31.28" width="41.97" height="2.26" rx="1.13"/><rect class="cls-1" x="44.85" y="31.28" width="3.23" height="8.73" rx="1.13"/><rect class="cls-1" x="37.95" y="31.28" width="3.23" height="8.73" rx="1.13"/><rect class="cls-1" x="31.21" y="31.28" width="3.23" height="8.73" rx="1.13"/></g></g></svg>