<svg width="14" height="15" viewBox="0 0 14 15" fill="none" xmlns="http://www.w3.org/2000/svg">
<path d="M4.58876 14.1193C4.28285 14.1193 4.02988 14.0193 3.82985 13.8192C3.62983 13.6192 3.52982 13.3662 3.52982 13.0603C3.52982 12.7544 3.62983 12.5014 3.82985 12.3014C4.02988 12.1014 4.28285 12.0014 4.58876 12.0014C4.89468 12.0014 5.14765 12.1014 5.34768 12.3014C5.5477 12.5014 5.64771 12.7544 5.64771 13.0603C5.64771 13.3662 5.5477 13.6192 5.34768 13.8192C5.14765 14.0193 4.89468 14.1193 4.58876 14.1193ZM12.3544 14.1193C12.0484 14.1193 11.7955 14.0193 11.5955 13.8192C11.3954 13.6192 11.2954 13.3662 11.2954 13.0603C11.2954 12.7544 11.3954 12.5014 11.5955 12.3014C11.7955 12.1014 12.0484 12.0014 12.3544 12.0014C12.6603 12.0014 12.9133 12.1014 13.1133 12.3014C13.3133 12.5014 13.4133 12.7544 13.4133 13.0603C13.4133 13.3662 13.3133 13.6192 13.1133 13.8192C12.9133 14.0193 12.6603 14.1193 12.3544 14.1193ZM8.11858 3.9534L5.36532 0.635367C5.7889 0.423578 6.24778 0.264736 6.74195 0.158842C7.23613 0.0529473 7.7656 0 8.33037 0C8.93044 0 9.50404 0.085304 10.0512 0.255912C10.5983 0.42652 11.0836 0.670666 11.5072 0.988349L8.11858 3.9534ZM7.05964 11.2954C6.08305 11.2954 5.25061 10.9513 4.56229 10.2629C3.87398 9.57463 3.52982 8.74218 3.52982 7.7656V2.32968L3.17684 1.9061C3.01211 1.70608 2.87386 1.57371 2.76208 1.509C2.65031 1.44428 2.5297 1.41193 2.40028 1.41193C2.11789 1.41193 1.88257 1.51782 1.69431 1.72961C1.50606 1.9414 1.41193 2.18849 1.41193 2.47087H0C0 1.80021 0.23238 1.22073 0.697139 0.732437C1.1619 0.244146 1.72961 0 2.40028 0C2.75326 0 3.07683 0.0823624 3.37098 0.247087C3.66513 0.411812 3.96516 0.670666 4.27108 1.02365L11.8249 10.1306C12.0249 10.3659 12.0632 10.6189 11.9396 10.8895C11.8161 11.1601 11.6013 11.2954 11.2954 11.2954H7.05964ZM7.05964 9.88349H9.7776L4.94175 4.02399V7.7656C4.94175 8.3539 5.14765 8.85396 5.55946 9.26577C5.97128 9.67759 6.47133 9.88349 7.05964 9.88349Z" fill="#383838"/>
</svg>
