<svg width="24" height="21" viewBox="0 0 24 21" fill="none" xmlns="http://www.w3.org/2000/svg">
<path d="M4.34559 20.2794H2.89706L1.95551 17.3824H0V10.1035C0 9.3068 0.28367 8.63082 0.851011 8.07555C1.41835 7.52028 2.10037 7.24265 2.89706 7.24265V2.89706C2.89706 2.10037 3.18073 1.41835 3.74807 0.851011C4.31541 0.28367 4.99743 0 5.79412 0H17.3824C18.179 0 18.8611 0.28367 19.4284 0.851011C19.9957 1.41835 20.2794 2.10037 20.2794 2.89706V7.24265C21.0761 7.24265 21.7581 7.52632 22.3255 8.09366C22.8928 8.661 23.1765 9.34301 23.1765 10.1397V17.3824H21.221L20.2794 20.2794H18.8309L17.8893 17.3824H5.28713L4.34559 20.2794ZM13.0368 7.24265H17.3824V2.89706H13.0368V7.24265ZM5.79412 7.24265H10.1397V2.89706H5.79412V7.24265Z" fill="#383838"/>
</svg>
