<svg width="22" height="24" viewBox="0 0 22 24" fill="none" xmlns="http://www.w3.org/2000/svg">
<path d="M3.52941 23.5294V12.7647C2.47059 12.4902 1.61765 11.9314 0.970588 11.0882C0.323529 10.2451 0 9.29412 0 8.23529V0H2.35294V7.05882H3.52941V0H5.88235V7.05882H7.05882V0H9.41176V8.23529C9.41176 9.29412 9.08823 10.2451 8.44118 11.0882C7.79412 11.9314 6.94118 12.4902 5.88235 12.7647V23.5294H3.52941ZM15.2941 23.5294V12.3235C14.2353 11.9706 13.3824 11.2304 12.7353 10.1029C12.0882 8.97549 11.7647 7.69608 11.7647 6.26471C11.7647 4.51961 12.2255 3.03922 13.1471 1.82353C14.0686 0.607843 15.1765 0 16.4706 0C17.7647 0 18.8725 0.612745 19.7941 1.83824C20.7157 3.06373 21.1765 4.54902 21.1765 6.29412C21.1765 7.72549 20.8529 9 20.2059 10.1176C19.5588 11.2353 18.7059 11.9706 17.6471 12.3235V23.5294H15.2941Z" fill="white"/>
</svg>
