<svg width="12" height="14" viewBox="0 0 12 14" fill="none" xmlns="http://www.w3.org/2000/svg">
<path d="M10.7642 2.30656H0.769018C0.344385 2.30656 0 2.65094 0 3.07557V13.1704C0 13.6285 0.371403 13.9999 0.829507 13.9999H10.7041C11.1623 13.9999 11.5337 13.6285 11.5337 13.1704V3.07517C11.5337 2.65054 11.1893 2.30615 10.7646 2.30615L10.7642 2.30656Z" fill="#D0D5DA"/>
<path d="M3.65226 9.70555C3.65226 9.81161 3.56637 9.89791 3.45991 9.89791H2.69089C2.58483 9.89791 2.49854 9.81201 2.49854 9.70555V8.93654C2.49854 8.83048 2.58443 8.74418 2.69089 8.74418H3.45991C3.56597 8.74418 3.65226 8.83008 3.65226 8.93654V9.70555ZM3.65226 7.0146C3.65226 7.12065 3.56637 7.20695 3.45991 7.20695H2.69089C2.58483 7.20695 2.49854 7.12106 2.49854 7.0146V6.24558C2.49854 6.13952 2.58443 6.05322 2.69089 6.05322H3.45991C3.56597 6.05322 3.65226 6.13912 3.65226 6.24558V7.0146ZM6.34322 9.70555C6.34322 9.81161 6.25733 9.89791 6.15087 9.89791H5.38185C5.27579 9.89791 5.18949 9.81201 5.18949 9.70555V8.93654C5.18949 8.83048 5.27539 8.74418 5.38185 8.74418H6.15087C6.25692 8.74418 6.34322 8.83008 6.34322 8.93654V9.70555ZM6.34322 7.0146C6.34322 7.12065 6.25733 7.20695 6.15087 7.20695H5.38185C5.27579 7.20695 5.18949 7.12106 5.18949 7.0146V6.24558C5.18949 6.13952 5.27539 6.05322 5.38185 6.05322H6.15087C6.25692 6.05322 6.34322 6.13912 6.34322 6.24558V7.0146ZM9.03418 9.70555C9.03418 9.81161 8.94829 9.89791 8.84182 9.89791H8.07281C7.96675 9.89791 7.88045 9.81201 7.88045 9.70555V8.93654C7.88045 8.83048 7.96635 8.74418 8.07281 8.74418H8.84182C8.94788 8.74418 9.03418 8.83008 9.03418 8.93654V9.70555ZM9.03418 7.0146C9.03418 7.12065 8.94829 7.20695 8.84182 7.20695H8.07281C7.96675 7.20695 7.88045 7.12106 7.88045 7.0146V6.24558C7.88045 6.13952 7.96635 6.05322 8.07281 6.05322H8.84182C8.94788 6.05322 9.03418 6.13912 9.03418 6.24558V7.0146Z" fill="#8A94A0"/>
<path d="M5.22776 11.9265H6.30528C6.5803 11.9265 6.8033 12.1495 6.8033 12.4245V14.0001H4.72974V12.4245C4.72974 12.1495 4.95274 11.9265 5.22776 11.9265Z" fill="#6B7683"/>
<path d="M7.39861 0H4.13462C3.76201 0 3.45996 0.302053 3.45996 0.674655V3.93865C3.45996 4.31125 3.76201 4.6133 4.13462 4.6133H7.39861C7.77121 4.6133 8.07326 4.31125 8.07326 3.93865V0.674655C8.07326 0.302053 7.77121 0 7.39861 0Z" fill="#FF9000"/>
<path d="M6.15083 1.26999V1.92206H5.38181V1.26999C5.38181 1.16393 5.29592 1.07764 5.18946 1.07764H4.80515C4.69909 1.07764 4.61279 1.16353 4.61279 1.26999V3.34315C4.61279 3.44921 4.69869 3.53551 4.80515 3.53551H5.18946C5.29551 3.53551 5.38181 3.44962 5.38181 3.34315V2.69108H6.15083V3.34315C6.15083 3.44921 6.23672 3.53551 6.34318 3.53551H6.72749C6.83355 3.53551 6.91985 3.44962 6.91985 3.34315V1.26999C6.91985 1.16393 6.83395 1.07764 6.72749 1.07764H6.34318C6.23713 1.07764 6.15083 1.16353 6.15083 1.26999Z" fill="white"/>
</svg>
