<svg width="15" height="15" viewBox="0 0 15 15" fill="none" xmlns="http://www.w3.org/2000/svg">
<mask id="mask0_651_2601" style="mask-type:alpha" maskUnits="userSpaceOnUse" x="0" y="0" width="15" height="15">
<rect width="15" height="15" fill="#D9D9D9"/>
</mask>
<g mask="url(#mask0_651_2601)">
<path d="M7.50049 7.50024C7.84424 7.50024 8.13851 7.37785 8.3833 7.13306C8.62809 6.88827 8.75049 6.59399 8.75049 6.25024C8.75049 5.90649 8.62809 5.61222 8.3833 5.36743C8.13851 5.12264 7.84424 5.00024 7.50049 5.00024C7.15674 5.00024 6.86247 5.12264 6.61768 5.36743C6.37288 5.61222 6.25049 5.90649 6.25049 6.25024C6.25049 6.59399 6.37288 6.88827 6.61768 7.13306C6.86247 7.37785 7.15674 7.50024 7.50049 7.50024ZM7.50049 13.7502C5.8234 12.3232 4.5708 10.9976 3.74268 9.77368C2.91455 8.54972 2.50049 7.41691 2.50049 6.37524C2.50049 4.81274 3.00309 3.56795 4.0083 2.64087C5.01351 1.71379 6.17757 1.25024 7.50049 1.25024C8.8234 1.25024 9.98747 1.71379 10.9927 2.64087C11.9979 3.56795 12.5005 4.81274 12.5005 6.37524C12.5005 7.41691 12.0864 8.54972 11.2583 9.77368C10.4302 10.9976 9.17757 12.3232 7.50049 13.7502Z" fill="#383838"/>
</g>
</svg>
