<svg width="16" height="15" viewBox="0 0 16 15" fill="none" xmlns="http://www.w3.org/2000/svg">
<path d="M7.47724 9.8811H6.17991C5.82168 9.8811 5.53125 10.1715 5.53125 10.5298V12.7515H8.1259V10.5298C8.1259 10.1715 7.83547 9.8811 7.47724 9.8811Z" fill="#6B7683"/>
<path d="M5.53139 12.7515V10.5298C5.53139 10.1716 5.82181 9.88113 6.18005 9.88113H7.47737C7.83561 9.88113 8.12604 10.1716 8.12604 10.5298V12.7515H10.1657C9.85565 12.7461 9.68479 12.3866 9.87974 12.1434L10.8857 10.8885H10.6034C10.3593 10.8885 10.2237 10.6061 10.3763 10.4156L11.3515 9.19901H11.0593C10.8777 9.19901 10.7769 8.98889 10.8907 8.84747L12.4588 6.89211L7.23201 2.73559C6.99556 2.54777 6.66097 2.54777 6.42452 2.73559L0.456299 7.48189V12.7515H5.53139Z" fill="#D0D5DA"/>
<path d="M7.23241 2.73551L12.4592 6.89203L12.5377 6.79433C12.6242 6.68637 12.7884 6.68637 12.875 6.79433L13.2011 7.20075V5.51307C13.2011 5.11781 13.0208 4.74351 12.7112 4.49725L7.23241 0.140863C6.99597 -0.0469544 6.66137 -0.0469544 6.42493 0.140863L0.945653 4.49814C0.636044 4.7444 0.455811 5.11781 0.455811 5.51352V7.48225L6.42448 2.73596C6.66093 2.54814 6.99552 2.54814 7.23196 2.73596L7.23241 2.73551Z" fill="#EF4452"/>
<path d="M15.174 12.7524H10.1725C10.1703 12.7524 10.168 12.7515 10.1658 12.7515H0.446122C0.199863 12.7515 0 12.9513 0 13.1976V14.0532C0 14.2995 0.199863 14.4994 0.446122 14.4994H15.1691C15.4153 14.4994 15.6152 14.2995 15.6152 14.0532V13.1976C15.6152 12.9527 15.418 12.755 15.174 12.7524Z" fill="#23B169"/>
<path d="M10.8862 10.8884L9.88017 12.1434C9.68476 12.387 9.85608 12.7461 10.1661 12.7514C10.1684 12.7514 10.1706 12.7523 10.1728 12.7523H15.2403C15.5548 12.7523 15.7293 12.3887 15.5325 12.1434L14.5265 10.8884H10.8866H10.8862Z" fill="#0A9F60"/>
<path d="M11.3519 9.19897L10.3767 10.4156C10.2241 10.606 10.3597 10.8884 10.6037 10.8884H14.8084C15.0525 10.8884 15.1881 10.606 15.0355 10.4156L14.0603 9.19897H11.3519Z" fill="#23B169"/>
<path d="M12.8745 6.79435C12.788 6.68639 12.6238 6.68639 12.5373 6.79435L12.4587 6.89205L10.8906 8.84741C10.7769 8.98883 10.8777 9.19895 11.0593 9.19895H14.3516C14.5332 9.19895 14.634 8.98883 14.5203 8.84741L13.2002 7.20077L12.8745 6.79435Z" fill="#68C76F"/>
</svg>
