<svg width="13" height="18" viewBox="0 0 13 18" fill="none" xmlns="http://www.w3.org/2000/svg">
<path d="M6.11449 3.49399C5.63406 3.49399 5.22279 3.32293 4.88067 2.98081C4.53855 2.63869 4.36749 2.22742 4.36749 1.747C4.36749 1.26657 4.53855 0.8553 4.88067 0.51318C5.22279 0.17106 5.63406 0 6.11449 0C6.59491 0 7.00618 0.17106 7.3483 0.51318C7.69042 0.8553 7.86148 1.26657 7.86148 1.747C7.86148 2.22742 7.69042 2.63869 7.3483 2.98081C7.00618 3.32293 6.59491 3.49399 6.11449 3.49399ZM10.482 17.47V13.1025H6.11449C5.63406 13.1025 5.22279 12.9314 4.88067 12.5893C4.53855 12.2472 4.36749 11.8359 4.36749 11.3555V6.11449C4.36749 5.63406 4.53855 5.22279 4.88067 4.88067C5.22279 4.53855 5.63406 4.36749 6.11449 4.36749C6.46389 4.36749 6.76597 4.44392 7.02074 4.59679C7.27551 4.74965 7.54848 4.9935 7.83965 5.32834C8.64035 6.28919 9.36463 6.94795 10.0125 7.30463C10.6603 7.66131 11.3992 7.84693 12.229 7.86148V9.60848C11.4574 9.60848 10.6785 9.44106 9.89237 9.10622C9.10622 8.77138 8.42926 8.37103 7.86148 7.90516V10.9187H10.482C10.9624 10.9187 11.3737 11.0898 11.7158 11.4319C12.0579 11.774 12.229 12.1853 12.229 12.6657V17.47H10.482ZM4.36749 17.47C3.15915 17.47 2.12915 17.0441 1.27749 16.1925C0.42583 15.3408 0 14.3108 0 13.1025C0 12.0543 0.331201 11.1298 0.993604 10.3291C1.65601 9.52841 2.48947 9.02615 3.49399 8.82233V10.613C2.98445 10.8168 2.5659 11.1407 2.23834 11.5848C1.91078 12.0288 1.747 12.5347 1.747 13.1025C1.747 13.8304 2.00177 14.4491 2.51131 14.9587C3.02085 15.4682 3.63958 15.723 4.36749 15.723C4.93527 15.723 5.44117 15.5592 5.88519 15.2316C6.32922 14.9041 6.65314 14.4855 6.85696 13.976H8.64763C8.44382 14.9805 7.94156 15.814 7.14085 16.4764C6.34014 17.1388 5.41569 17.47 4.36749 17.47Z" fill="#383838"/>
</svg>
