<svg width="23" height="21" viewBox="0 0 23 21" fill="none" xmlns="http://www.w3.org/2000/svg">
<path d="M11.0294 15.4412C11.9118 15.4412 12.6976 15.1792 13.3869 14.6553C14.0763 14.1314 14.5772 13.4559 14.8897 12.6287H7.16912C7.48162 13.4559 7.98254 14.1314 8.67188 14.6553C9.36121 15.1792 10.1471 15.4412 11.0294 15.4412ZM8.27206 11.0294C8.73162 11.0294 9.12224 10.8686 9.44393 10.5469C9.76562 10.2252 9.92647 9.83456 9.92647 9.375C9.92647 8.91544 9.76562 8.52482 9.44393 8.20313C9.12224 7.88143 8.73162 7.72059 8.27206 7.72059C7.8125 7.72059 7.42187 7.88143 7.10018 8.20313C6.77849 8.52482 6.61765 8.91544 6.61765 9.375C6.61765 9.83456 6.77849 10.2252 7.10018 10.5469C7.42187 10.8686 7.8125 11.0294 8.27206 11.0294ZM13.7868 11.0294C14.2463 11.0294 14.6369 10.8686 14.9586 10.5469C15.2803 10.2252 15.4412 9.83456 15.4412 9.375C15.4412 8.91544 15.2803 8.52482 14.9586 8.20313C14.6369 7.88143 14.2463 7.72059 13.7868 7.72059C13.3272 7.72059 12.9366 7.88143 12.6149 8.20313C12.2932 8.52482 12.1324 8.91544 12.1324 9.375C12.1324 9.83456 12.2932 10.2252 12.6149 10.5469C12.9366 10.8686 13.3272 11.0294 13.7868 11.0294ZM6.20404 4.85294L9.29228 0.85478C9.51287 0.560662 9.77482 0.344669 10.0781 0.206801C10.3814 0.0689338 10.6985 0 11.0294 0C11.3603 0 11.6774 0.0689338 11.9807 0.206801C12.284 0.344669 12.546 0.560662 12.7665 0.85478L15.8548 4.85294L20.5423 6.42463C21.0202 6.57169 21.3971 6.84283 21.6728 7.23805C21.9485 7.63327 22.0864 8.06985 22.0864 8.5478C22.0864 8.76838 22.0542 8.98897 21.9899 9.20956C21.9256 9.43015 21.8199 9.64155 21.6728 9.84375L18.6397 14.1452L18.75 18.6673C18.7684 19.3107 18.557 19.8529 18.1158 20.2941C17.6746 20.7353 17.1599 20.9559 16.5717 20.9559C16.5349 20.9559 16.3327 20.9283 15.9651 20.8732L11.0294 19.4945L6.09375 20.8732C6.00184 20.9099 5.90074 20.9329 5.79044 20.9421C5.68015 20.9513 5.57904 20.9559 5.48713 20.9559C4.8989 20.9559 4.38419 20.7353 3.94301 20.2941C3.50184 19.8529 3.29044 19.3107 3.30882 18.6673L3.41912 14.1176L0.413603 9.84375C0.266544 9.64155 0.160846 9.43015 0.0965073 9.20956C0.0321691 8.98897 0 8.76838 0 8.5478C0 8.08824 0.133272 7.66085 0.399816 7.26563C0.66636 6.87041 1.0386 6.59007 1.51654 6.42463L6.20404 4.85294Z" fill="#383838"/>
</svg>
