<svg width="41" height="39" viewBox="0 0 41 39" fill="none" xmlns="http://www.w3.org/2000/svg">
<path d="M28.0264 6.24512C24.2141 6.24512 21.9187 8.23577 20.6491 9.94812C19.9787 10.8532 18.655 10.8532 17.9846 9.94812C16.715 8.23577 14.4196 6.24512 10.6073 6.24512C3.91549 6.24512 -1.14796 14.3457 3.16339 22.4659C4.07649 24.1851 5.33229 25.8503 6.73529 27.4109C8.27399 26.7416 9.72759 26.5863 10.804 27.0026L18.6838 19.5955C19.1231 19.1815 19.82 19.201 20.2397 19.6438C20.6549 20.0865 20.6342 20.7823 20.1914 21.1997L12.3116 28.6069C12.629 29.6085 12.4496 30.8908 11.839 32.242C13.8377 33.8877 15.7409 35.2412 17.1267 36.1704C18.4561 37.0617 20.1742 37.0617 21.5036 36.1704C25.1341 33.7347 32.3147 28.4056 35.468 22.467C38.5075 16.7423 36.8791 11.0418 33.3152 8.16792C32.7161 7.68492 32.0652 7.27897 31.3683 6.96962C30.331 6.50962 29.2051 6.24512 28.0241 6.24512H28.0264Z" fill="#EF4452"/>
<path d="M39.9417 0.745602C39.9222 0.644402 39.8543 0.571952 39.7543 0.545502C39.0643 0.360352 36.21 -0.338848 34.2044 0.200502C31.909 0.818052 31.2719 3.2043 32.4518 4.4693C32.7588 4.7982 33.0866 4.98105 33.4063 5.09145C33.7892 5.2237 34.1584 5.2444 34.4574 5.2099C34.7426 5.17655 34.976 5.4284 34.9243 5.71015C34.8737 5.9827 34.8564 6.31735 34.9358 6.67385C35.0151 7.0269 35.1899 7.4018 35.5246 7.76175C36.7056 9.02675 39.1298 8.5541 39.9038 6.30585C40.58 4.3428 40.0786 1.4471 39.9417 0.745602Z" fill="#489DF9"/>
<path d="M34.9253 5.70903C34.977 5.42728 34.7436 5.17543 34.4584 5.20878C34.1594 5.24328 33.7902 5.22258 33.4073 5.09033L31.3706 6.96943C32.0675 7.27878 32.7173 7.68358 33.3176 8.16773L34.9379 6.67273C34.8574 6.31623 34.8747 5.98158 34.9253 5.70903Z" fill="#EBB181"/>
<path d="M12.1886 28.2191C12.2461 28.3387 12.2714 28.4778 12.3128 28.6066L20.1926 21.1995C20.6354 20.7832 20.6561 20.0863 20.2409 19.6435C19.8212 19.2008 19.1254 19.1812 18.685 19.5952L10.8052 27.0024C10.9317 27.0518 11.0697 27.0852 11.1847 27.1496C11.7309 27.513 12.1898 28.2179 12.1898 28.2179L12.1886 28.2191Z" fill="#EBB181"/>
<path d="M12.3131 28.6068C12.2717 28.4768 12.2475 28.3377 12.1889 28.2192C12.1889 28.2192 11.7312 27.5143 11.1838 27.1509C11.0688 27.0853 10.9308 27.052 10.8043 27.0037C9.72789 26.5885 8.27314 26.7426 6.73559 27.4119C5.59134 27.9099 4.41029 28.6746 3.32009 29.7004L0.238087 32.5375C-0.0931131 32.8491 -0.0747131 33.2367 0.267987 33.1861L5.29924 33.4276C5.49129 33.3988 5.59939 33.515 5.55914 33.7047L5.43034 38.6773C5.35904 39.0166 5.74429 39.0591 6.07549 38.7475L9.15749 35.9104C10.3799 34.7604 11.2781 33.4782 11.8381 32.2408C12.4488 30.8907 12.627 29.6073 12.3108 28.6056L12.3131 28.6068Z" fill="#7AB7F9"/>
</svg>
