<svg width="13" height="13" viewBox="0 0 13 13" fill="none" xmlns="http://www.w3.org/2000/svg">
<path d="M7.19725 0.452771L8.60365 3.43081C8.71673 3.67066 8.93581 3.83665 9.18875 3.87513L12.3337 4.35288C12.9713 4.44967 13.2257 5.26833 12.7644 5.7383L10.4888 8.05629C10.3058 8.24288 10.2221 8.51188 10.2652 8.77543L10.8023 12.0485C10.9113 12.7121 10.2448 13.2182 9.67453 12.9049L6.86174 11.3593C6.63521 11.2349 6.36479 11.2349 6.13826 11.3593L3.32546 12.9049C2.75524 13.2182 2.08868 12.7121 2.19767 12.0485L2.73478 8.77543C2.77793 8.51188 2.69461 8.24327 2.51123 8.05629L0.235552 5.7383C-0.225685 5.26833 0.0287394 4.44967 0.666287 4.35288L3.81125 3.87513C4.06456 3.83665 4.28327 3.67066 4.39635 3.43081L5.80275 0.452771C6.08768 -0.150924 6.91195 -0.150924 7.19725 0.452771Z" fill="#FFB44C"/>
</svg>
