<svg width="15" height="15" viewBox="0 0 15 15" fill="none" xmlns="http://www.w3.org/2000/svg">
<path d="M1.38411 6.69035C1.42091 7.36195 1.78571 7.98395 2.38251 8.50915C2.34051 8.35595 2.31251 8.19995 2.31251 8.03995C2.31251 7.20115 2.91491 6.44555 3.87851 5.90675C4.02371 5.74915 4.20811 5.62515 4.42971 5.56595C4.46771 5.55595 4.50611 5.55355 4.54411 5.54755C4.64851 5.01155 5.04491 4.55435 5.60571 4.40395C6.25771 4.22915 6.91891 4.52795 7.24491 5.08475C7.29691 5.08395 7.34771 5.08035 7.40011 5.08035C10.2097 5.08035 12.4877 6.40555 12.4877 8.04035C12.4877 8.20035 12.4597 8.35635 12.4177 8.50955C13.0141 7.98435 13.3793 7.36235 13.4161 6.69075C13.4181 6.65315 13.4257 6.61635 13.4257 6.57835C13.4257 5.98715 13.1717 5.43115 12.7277 4.94275C11.7173 3.83115 9.71211 3.07275 7.40011 3.07275C5.08811 3.07275 3.08291 3.83115 2.07251 4.94275C1.62851 5.43115 1.37451 5.98755 1.37451 6.57835C1.37451 6.61635 1.38211 6.65275 1.38411 6.69035Z" fill="#3D3D3D"/>
<path d="M12.4873 8.04008C12.4873 6.40528 10.2097 5.08008 7.3997 5.08008C7.3473 5.08008 7.2965 5.08368 7.2445 5.08448C7.3105 5.19688 7.3673 5.31608 7.4025 5.44848C7.4037 5.45328 7.4045 5.45808 7.4057 5.46288C7.4505 5.44488 7.4941 5.42408 7.5421 5.41128C8.1897 5.23768 8.8549 5.62448 9.0277 6.27488C9.0289 6.27928 9.0301 6.28408 9.0313 6.28888C9.0905 6.53808 8.8925 6.77648 8.6373 6.77648H4.0361C3.7521 6.77648 3.5465 6.48408 3.6621 6.22368C3.7145 6.10608 3.7909 6.00168 3.8785 5.90648C2.9149 6.44488 2.3125 7.20088 2.3125 8.03968C2.3125 8.19968 2.3405 8.35568 2.3825 8.50888C3.4593 9.45648 5.3005 10.0833 7.4001 10.0833C9.4997 10.0833 11.3409 9.45648 12.4177 8.50888C12.4597 8.35568 12.4877 8.19968 12.4877 8.03968L12.4873 8.04008ZM4.3341 8.03528C4.4601 7.72688 4.7621 7.51008 5.1145 7.51008C5.4669 7.51008 5.7689 7.72688 5.8949 8.03528C5.9581 8.18928 5.8325 8.35728 5.6665 8.35728H4.5621C4.3961 8.35728 4.2705 8.18928 4.3337 8.03528H4.3341ZM9.1677 9.09088H7.1201C6.8321 9.09088 6.6409 8.79688 6.7477 8.52888C6.9697 7.97328 7.5109 7.58048 8.1437 7.58048C8.7765 7.58048 9.3177 7.97288 9.5397 8.52888C9.6469 8.79728 9.4557 9.09088 9.1677 9.09088ZM9.7897 7.22648C9.6237 7.22648 9.4981 7.05848 9.5613 6.90448C9.6873 6.59608 9.9893 6.37928 10.3417 6.37928C10.6941 6.37928 10.9961 6.59608 11.1221 6.90448C11.1853 7.05848 11.0597 7.22648 10.8937 7.22648H9.7897Z" fill="#FFAD00"/>
<path d="M4.0356 6.77688H8.6368C8.892 6.77688 9.09 6.53848 9.0308 6.28928C9.0296 6.28448 9.0284 6.27968 9.0272 6.27528C8.8544 5.62488 8.1892 5.23808 7.5416 5.41168C7.4936 5.42448 7.4504 5.44528 7.4052 5.46328C7.404 5.45848 7.4036 5.45368 7.402 5.44888C7.3668 5.31648 7.3096 5.19728 7.244 5.08488C6.918 4.52808 6.2568 4.22928 5.6048 4.40408C5.044 4.55448 4.6476 5.01168 4.5432 5.54768C4.5048 5.55408 4.4668 5.55608 4.4288 5.56608C4.2072 5.62568 4.0228 5.74968 3.8776 5.90688C3.79 6.00208 3.7132 6.10608 3.6612 6.22408C3.5456 6.48448 3.7512 6.77688 4.0352 6.77688H4.0356Z" fill="#037F56"/>
<path d="M11.1224 6.90435C10.9964 6.59595 10.6944 6.37915 10.342 6.37915C9.98956 6.37915 9.68756 6.59595 9.56156 6.90435C9.49836 7.05835 9.62396 7.22635 9.78996 7.22635H10.8944C11.0604 7.22635 11.186 7.05835 11.1228 6.90435H11.1224Z" fill="#F77F00"/>
<path d="M5.89531 8.03521C5.76931 7.72681 5.46731 7.51001 5.11491 7.51001C4.76251 7.51001 4.46051 7.72681 4.33451 8.03521C4.27131 8.18921 4.39691 8.35721 4.56291 8.35721H5.66731C5.83331 8.35721 5.95851 8.18921 5.89531 8.03521Z" fill="#F77F00"/>
<path d="M14.7995 6.57798C14.7995 5.67478 14.0703 4.94238 13.1711 4.94238H12.7271C13.1711 5.43078 13.4251 5.98718 13.4251 6.57798C13.4251 6.61598 13.4175 6.65278 13.4155 6.69038C13.4215 6.67478 13.4251 6.66518 13.4251 6.66518V8.18838C14.2031 8.06518 14.7995 7.39398 14.7995 6.57798Z" fill="#C50010"/>
<path d="M1.384 6.69038C1.382 6.65278 1.3744 6.61598 1.3744 6.57798C1.3744 5.98678 1.6284 5.43078 2.0724 4.94238H1.6284C0.7292 4.94238 0 5.67478 0 6.57798C0 7.39398 0.5964 8.06478 1.3744 8.18798V6.66478C1.3744 6.66478 1.378 6.67518 1.384 6.69038Z" fill="#C50010"/>
<path d="M9.53991 8.52872C9.31791 7.97312 8.77671 7.58032 8.14391 7.58032C7.51111 7.58032 6.96991 7.97272 6.74791 8.52872C6.64071 8.79712 6.83231 9.09072 7.12031 9.09072H9.16791C9.45591 9.09072 9.64671 8.79672 9.53991 8.52872Z" fill="#C50010"/>
<path d="M13.4151 6.69048C13.3783 7.36208 13.0135 7.98408 12.4167 8.50928C11.3399 9.45688 9.49874 10.0837 7.39914 10.0837C5.29954 10.0837 3.45834 9.45688 2.38154 8.50928C1.78514 7.98408 1.41994 7.36208 1.38314 6.69048C1.37714 6.67488 1.37354 6.66528 1.37354 6.66528V8.21648C1.37354 11.5589 4.07114 14.2689 7.39914 14.2689C10.7271 14.2689 13.4247 11.5593 13.4247 8.21648V6.66528C13.4247 6.66528 13.4211 6.67528 13.4151 6.69048Z" fill="#C50010"/>
<path d="M9.71521 2.72163C9.33921 2.78963 8.97921 2.64163 8.74721 2.36963C8.66321 2.40563 8.57521 2.43363 8.48321 2.44963C7.81521 2.56563 7.17921 2.11363 7.06321 1.44163C6.94721 0.769627 7.39521 0.133627 8.06321 0.0176274C8.60321 -0.0743726 9.11521 0.201627 9.35521 0.661627H9.35921C9.92721 0.561627 10.4672 0.945627 10.5632 1.51363C10.6632 2.08163 10.2792 2.62563 9.71521 2.72163Z" fill="#D5D5D5"/>
<path d="M5.10301 2.6984C5.59061 2.6984 5.98581 2.3016 5.98581 1.8116C5.98581 1.3216 5.59061 0.924805 5.10301 0.924805C4.61541 0.924805 4.22021 1.3216 4.22021 1.8116C4.22021 2.3016 4.61541 2.6984 5.10301 2.6984Z" fill="#D5D5D5"/>
</svg>
