<svg width="13" height="13" viewBox="0 0 13 13" fill="none" xmlns="http://www.w3.org/2000/svg">
<path d="M1.71151 10.4062C1.17666 9.87133 0.757698 9.25329 0.454619 8.55204C0.15154 7.8508 0 7.12579 0 6.37701C0 5.62822 0.142626 4.88835 0.427877 4.1574C0.713127 3.42644 1.17666 2.74006 1.81848 2.09824C2.23447 1.68225 2.74851 1.32569 3.36061 1.02855C3.97271 0.731413 4.69773 0.496675 5.53565 0.324336C6.37358 0.151997 7.33036 0.047999 8.40599 0.0123426C9.48162 -0.0233138 10.685 0.0182853 12.0162 0.13714C12.1113 1.397 12.141 2.55583 12.1053 3.61364C12.0697 4.67144 11.9716 5.62525 11.8112 6.47506C11.6507 7.32487 11.4249 8.06771 11.1337 8.70358C10.8425 9.33946 10.483 9.87133 10.0551 10.2992C9.42517 10.9291 8.75661 11.3897 8.04943 11.6809C7.34224 11.9721 6.6202 12.1177 5.8833 12.1177C5.11075 12.1177 4.35602 11.9661 3.61912 11.6631C2.88222 11.36 2.24635 10.941 1.71151 10.4062ZM3.70826 10.1209C4.05294 10.323 4.40653 10.4686 4.76904 10.5577C5.13155 10.6469 5.50297 10.6914 5.8833 10.6914C6.43003 10.6914 6.97082 10.5815 7.50567 10.3616C8.04051 10.1417 8.55159 9.78813 9.03889 9.30083C9.25283 9.08689 9.46974 8.78678 9.68962 8.4005C9.9095 8.01423 10.0997 7.5091 10.2601 6.88511C10.4206 6.26112 10.5424 5.5064 10.6256 4.62093C10.7088 3.73546 10.7207 2.68063 10.6613 1.45643C10.0789 1.43265 9.4222 1.42374 8.69124 1.42968C7.96029 1.43563 7.2323 1.49208 6.50729 1.59905C5.78228 1.70602 5.09292 1.87836 4.43922 2.11607C3.78552 2.35378 3.25067 2.68063 2.83468 3.09662C2.29984 3.63146 1.93139 4.16037 1.72933 4.68333C1.52728 5.20629 1.42625 5.71142 1.42625 6.19872C1.42625 6.89997 1.55997 7.51504 1.82739 8.04394C2.09481 8.57284 2.32955 8.94426 2.5316 9.1582C3.03079 8.20737 3.69043 7.29516 4.51053 6.42158C5.33063 5.548 6.28741 4.8319 7.38087 4.27328C6.52512 5.02206 5.7793 5.8689 5.14343 6.8138C4.50756 7.75869 4.02917 8.86107 3.70826 10.1209Z" fill="#383838"/>
</svg>
