<svg width="22" height="26" viewBox="0 0 22 26" fill="none" xmlns="http://www.w3.org/2000/svg">
<path d="M2.44444 25.6667C1.77222 25.6667 1.19676 25.4273 0.718056 24.9486C0.239352 24.4699 0 23.8944 0 23.2222V8.55556C0 7.88333 0.239352 7.30787 0.718056 6.82917C1.19676 6.35046 1.77222 6.11111 2.44444 6.11111H4.88889C4.88889 4.42037 5.48472 2.97917 6.67639 1.7875C7.86806 0.595833 9.30926 0 11 0C12.6907 0 14.1319 0.595833 15.3236 1.7875C16.5153 2.97917 17.1111 4.42037 17.1111 6.11111H19.5556C20.2278 6.11111 20.8032 6.35046 21.2819 6.82917C21.7606 7.30787 22 7.88333 22 8.55556V23.2222C22 23.8944 21.7606 24.4699 21.2819 24.9486C20.8032 25.4273 20.2278 25.6667 19.5556 25.6667H2.44444ZM11 15.8889C12.6907 15.8889 14.1319 15.2931 15.3236 14.1014C16.5153 12.9097 17.1111 11.4685 17.1111 9.77778H14.6667C14.6667 10.7963 14.3102 11.662 13.5972 12.375C12.8843 13.088 12.0185 13.4444 11 13.4444C9.98148 13.4444 9.11574 13.088 8.40278 12.375C7.68981 11.662 7.33333 10.7963 7.33333 9.77778H4.88889C4.88889 11.4685 5.48472 12.9097 6.67639 14.1014C7.86806 15.2931 9.30926 15.8889 11 15.8889ZM7.33333 6.11111H14.6667C14.6667 5.09259 14.3102 4.22685 13.5972 3.51389C12.8843 2.80093 12.0185 2.44444 11 2.44444C9.98148 2.44444 9.11574 2.80093 8.40278 3.51389C7.68981 4.22685 7.33333 5.09259 7.33333 6.11111Z" fill="#00BCE6"/>
</svg>
