<svg width="22" height="28" viewBox="0 0 22 28" fill="none" xmlns="http://www.w3.org/2000/svg">
<path d="M11 14C11.7563 14 12.4036 13.7258 12.9422 13.1775C13.4807 12.6292 13.75 11.97 13.75 11.2C13.75 10.43 13.4807 9.77083 12.9422 9.2225C12.4036 8.67417 11.7563 8.4 11 8.4C10.2437 8.4 9.59635 8.67417 9.05781 9.2225C8.51927 9.77083 8.25 10.43 8.25 11.2C8.25 11.97 8.51927 12.6292 9.05781 13.1775C9.59635 13.7258 10.2437 14 11 14ZM11 28C7.31042 24.8033 4.55469 21.8342 2.73281 19.0925C0.910938 16.3508 0 13.8133 0 11.48C0 7.98 1.10573 5.19167 3.31719 3.115C5.52865 1.03833 8.08958 0 11 0C13.9104 0 16.4714 1.03833 18.6828 3.115C20.8943 5.19167 22 7.98 22 11.48C22 13.8133 21.0891 16.3508 19.2672 19.0925C17.4453 21.8342 14.6896 24.8033 11 28Z" fill="#00BCE6"/>
</svg>
