<svg width="43" height="43" viewBox="0 0 43 43" fill="none" xmlns="http://www.w3.org/2000/svg">
<path d="M5.12069 42.4182L31.9095 32.7899L9.81474 10.771L0.231303 37.5345C-0.856888 40.575 2.08249 43.5098 5.12069 42.4182Z" fill="#00BCE6"/>
<path d="M9.93899 5.09379C11.1245 5.09379 12.0855 4.13277 12.0855 2.94729C12.0855 1.7618 11.1245 0.800781 9.93899 0.800781C8.7535 0.800781 7.79248 1.7618 7.79248 2.94729C7.79248 4.13277 8.7535 5.09379 9.93899 5.09379Z" fill="#FFBA6B"/>
<path d="M32.8898 32.2061C35.1919 29.904 32.0273 23.007 25.8216 16.8013C19.6159 10.5955 12.7189 7.431 10.4168 9.73308C8.11474 12.0352 11.2793 18.9321 17.485 25.1379C23.6908 31.3436 30.5877 34.5081 32.8898 32.2061Z" fill="#2F8394"/>
<path d="M17.6456 15.6019C17.5158 15.6019 17.3825 15.5835 17.2503 15.5467C16.4873 15.3295 16.0461 14.5343 16.2632 13.7713C16.9481 11.3732 16.9113 8.84059 16.1564 6.44703C15.9174 5.68978 16.3379 4.88426 17.094 4.64525C17.8501 4.40624 18.6568 4.82566 18.8958 5.58291C19.8208 8.51425 19.8657 11.6191 19.0257 14.5596C18.8453 15.1905 18.2719 15.6019 17.6456 15.6019Z" fill="#FF8C09"/>
<path d="M31.7864 19.7959C31.3417 19.7959 30.9027 19.5903 30.6223 19.2019C30.157 18.5595 30.3006 17.6621 30.9429 17.1956C33.9811 14.9939 37.5789 13.7425 41.348 13.5782C42.1466 13.5702 42.8108 14.1585 42.8464 14.9502C42.8809 15.7431 42.2661 16.413 41.4744 16.4486C38.2684 16.5888 35.2107 17.6517 32.6286 19.5225C32.3735 19.7075 32.0794 19.7959 31.7875 19.7959H31.7864Z" fill="#00BCE6"/>
<path d="M37.5447 27.0461C37.362 27.0461 37.1759 27.0105 36.9955 26.9358C36.0302 26.5359 35.0236 26.2279 34.0032 26.02C30.8168 25.3696 27.5361 25.6856 24.5163 26.9358C23.7798 27.238 22.9421 26.891 22.6399 26.159C22.3365 25.4259 22.6847 24.5859 23.4166 24.2825C26.9685 22.8117 30.8294 22.4394 34.5778 23.2058C35.7774 23.4506 36.961 23.8125 38.0952 24.2825C38.8283 24.5859 39.1764 25.4259 38.8731 26.159C38.6444 26.7117 38.1078 27.0461 37.5447 27.0461Z" fill="#9CB2FF"/>
<path d="M22.5799 19.9258C22.149 19.9258 21.7215 19.7328 21.4388 19.3639C20.9562 18.7354 21.0746 17.8333 21.7043 17.3507C25.1596 14.6998 27.3751 10.8618 27.9439 6.54351C28.0473 5.75753 28.7701 5.20252 29.5549 5.30709C30.342 5.41051 30.8959 6.13214 30.7913 6.91812C30.1225 11.9971 27.5164 16.5107 23.4521 19.6294C23.1912 19.8293 22.8856 19.9258 22.5799 19.9258Z" fill="#679BFF"/>
<path d="M16.1145 22.416L16.115 20.2592C16.1151 19.8105 15.7515 19.4467 15.3028 19.4466L13.146 19.4461C12.6973 19.4459 12.3335 19.8096 12.3334 20.2583L12.3328 22.4151C12.3327 22.8638 12.6964 23.2276 13.1451 23.2277L15.3019 23.2282C15.7506 23.2284 16.1144 22.8647 16.1145 22.416Z" fill="white"/>
<path d="M25.1745 0.37397L23.2047 1.36755C22.795 1.57419 22.6304 2.0738 22.837 2.48348L23.8306 4.45334C24.0373 4.86301 24.5369 5.02761 24.9465 4.82097L26.9164 3.82739C27.3261 3.62075 27.4907 3.12114 27.284 2.71147L26.2905 0.741601C26.0838 0.331929 25.5842 0.167335 25.1745 0.37397Z" fill="#9CB2FF"/>
<path d="M40.9393 33.5223L41.6077 31.4197C41.7467 30.9824 41.5049 30.5153 41.0676 30.3763L38.965 29.7079C38.5278 29.5689 38.0606 29.8107 37.9216 30.248L37.2532 32.3506C37.1142 32.7878 37.356 33.255 37.7933 33.394L39.8959 34.0624C40.3332 34.2014 40.8003 33.9595 40.9393 33.5223Z" fill="#A8BFFF"/>
<path d="M36.5725 11.8178C37.527 11.8178 38.3007 11.044 38.3007 10.0896C38.3007 9.13509 37.527 8.36133 36.5725 8.36133C35.618 8.36133 34.8442 9.13509 34.8442 10.0896C34.8442 11.044 35.618 11.8178 36.5725 11.8178Z" fill="#FFC84D"/>
<path d="M2.06515 19.3115C3.01963 19.3115 3.79338 18.5377 3.79338 17.5832C3.79338 16.6287 3.01963 15.855 2.06515 15.855C1.11067 15.855 0.336914 16.6287 0.336914 17.5832C0.336914 18.5377 1.11067 19.3115 2.06515 19.3115Z" fill="#A8BFFF"/>
<path d="M26.2652 41.8483C27.379 41.8483 28.2819 40.9454 28.2819 39.8316C28.2819 38.7178 27.379 37.8149 26.2652 37.8149C25.1514 37.8149 24.2485 38.7178 24.2485 39.8316C24.2485 40.9454 25.1514 41.8483 26.2652 41.8483Z" fill="#FFC84D"/>
</svg>
