<svg width="35" height="35" viewBox="0 0 35 35" fill="none" xmlns="http://www.w3.org/2000/svg">
<g clip-path="url(#clip0_651_772)">
<path d="M24.9375 3.0625H10.0625C6.19651 3.0625 3.0625 6.19651 3.0625 10.0625V24.9375C3.0625 28.8035 6.19651 31.9375 10.0625 31.9375H24.9375C28.8035 31.9375 31.9375 28.8035 31.9375 24.9375V10.0625C31.9375 6.19651 28.8035 3.0625 24.9375 3.0625Z" fill="#2E3D51"/>
<path d="M16.5796 8.2635C16.5761 8.77362 17.4905 13.594 17.4905 13.594C17.4905 13.594 18.4259 8.785 18.4285 8.27487C18.4311 7.76475 18.0198 7.34825 17.5097 7.34475C16.9996 7.34125 16.5831 7.75337 16.5796 8.2635Z" fill="#FF9000"/>
<path d="M9.04034 13.6786C9.48047 13.9368 14.1118 15.5555 14.1118 15.5555C14.1118 15.5555 10.415 12.3416 9.97397 12.0835C9.53384 11.8254 8.96684 11.9733 8.70959 12.4143C8.45234 12.8553 8.59934 13.4214 9.04034 13.6786Z" fill="#FF9000"/>
<path d="M9.96102 22.9155C10.4046 22.6627 14.1225 19.4619 14.1225 19.4619C14.1225 19.4619 9.49027 21.0562 9.04665 21.309C8.60302 21.5619 8.44815 22.1263 8.70102 22.5699C8.9539 23.0135 9.51827 23.1684 9.9619 22.9155H9.96102Z" fill="#FF9000"/>
<path d="M18.4207 26.7363C18.4242 26.2261 17.5098 21.4058 17.5098 21.4058C17.5098 21.4058 16.5744 26.2148 16.5718 26.7249C16.5692 27.235 16.9804 27.6515 17.4905 27.655C18.0007 27.6585 18.4172 27.2464 18.4207 26.7363Z" fill="#FF9000"/>
<path d="M25.9597 21.3212C25.5196 21.0631 20.8882 19.4443 20.8882 19.4443C20.8882 19.4443 24.5851 22.6582 25.0261 22.9163C25.4671 23.1745 26.0332 23.0266 26.2904 22.5856C26.5477 22.1446 26.4007 21.5785 25.9597 21.3212Z" fill="#FF9000"/>
<path d="M25.0389 12.0848C24.5953 12.3377 20.8774 15.5384 20.8774 15.5384C20.8774 15.5384 25.5097 13.9442 25.9533 13.6913C26.3969 13.4384 26.5518 12.8741 26.2989 12.4304C26.0461 11.9868 25.4826 11.8319 25.0389 12.0848Z" fill="#FF9000"/>
<path d="M13.3738 11.7555C13.5663 12.0932 16.0049 14.9256 16.0049 14.9256C16.0049 14.9256 14.7904 11.3967 14.5979 11.0581C14.4054 10.7195 13.9758 10.6022 13.6372 10.7947C13.2986 10.9872 13.1813 11.4168 13.3738 11.7555Z" fill="#FFCD00"/>
<path d="M10.4626 18.2017C10.852 18.2044 14.5235 17.5079 14.5235 17.5079C14.5235 17.5079 10.8599 16.7956 10.4705 16.793C10.0811 16.7904 9.76436 17.1036 9.76174 17.493C9.75911 17.8824 10.0732 18.1991 10.4626 18.2017Z" fill="#FFCD00"/>
<path d="M14.5892 23.9451C14.786 23.6091 16.0189 20.0811 16.0189 20.0811C16.0189 20.0811 13.5698 22.8977 13.3738 23.2337C13.1778 23.5697 13.2898 24.0011 13.6258 24.1971C13.9618 24.3931 14.3932 24.2811 14.5892 23.9451Z" fill="#FFCD00"/>
<path d="M21.6267 23.2443C21.4342 22.9066 18.9956 20.0742 18.9956 20.0742C18.9956 20.0742 20.2101 23.6031 20.4026 23.9417C20.5951 24.2803 21.0247 24.3976 21.3634 24.2051C21.702 24.0126 21.8192 23.583 21.6267 23.2443Z" fill="#FFCD00"/>
<path d="M24.5379 16.7979C24.1485 16.7952 20.4771 17.4917 20.4771 17.4917C20.4771 17.4917 24.1407 18.204 24.5301 18.2066C24.9194 18.2092 25.2362 17.896 25.2388 17.5066C25.2414 17.1172 24.9282 16.8005 24.5388 16.7979H24.5379Z" fill="#FFCD00"/>
<path d="M20.4112 11.0545C20.2143 11.3905 18.9814 14.9185 18.9814 14.9185C18.9814 14.9185 21.4306 12.1019 21.6266 11.7659C21.8226 11.4299 21.7106 10.9985 21.3746 10.8025C21.0386 10.6065 20.6072 10.7185 20.4112 11.0545Z" fill="#FFCD00"/>
<path d="M17.5 18.8125C18.2249 18.8125 18.8125 18.2249 18.8125 17.5C18.8125 16.7751 18.2249 16.1875 17.5 16.1875C16.7751 16.1875 16.1875 16.7751 16.1875 17.5C16.1875 18.2249 16.7751 18.8125 17.5 18.8125Z" fill="white"/>
</g>
<defs>
<clipPath id="clip0_651_772">
<rect width="35" height="35" fill="white"/>
</clipPath>
</defs>
</svg>
