<svg width="35" height="35" viewBox="0 0 35 35" fill="none" xmlns="http://www.w3.org/2000/svg">
<path d="M18.9386 26.377H16.0625V33.6876H18.9386V26.377Z" fill="#6B7683"/>
<path d="M17.5 4.97607C12.3602 4.97607 8.19434 9.14195 8.19434 14.2817C8.19434 19.4214 12.3602 23.5873 17.5 23.5873C22.6397 23.5873 26.8056 19.4214 26.8056 14.2817C26.8056 9.14195 22.6397 4.97607 17.5 4.97607ZM22.8926 19.7303C22.8926 20.0383 22.6432 20.2886 22.3343 20.2886H20.9702C20.6622 20.2886 20.412 20.0392 20.412 19.7303V18.9699H14.5853V19.7303C14.5853 20.0383 14.336 20.2886 14.0271 20.2886H12.663C12.355 20.2886 12.1047 20.0392 12.1047 19.7303V18.9699V10.0432C12.117 9.46832 12.5868 9.00895 13.1617 9.00895H21.8338C22.4087 9.00895 22.8786 9.46832 22.8908 10.0432V10.0572V18.9708V19.7312L22.8926 19.7303Z" fill="white"/>
<path d="M13.1495 10.3013L13.1294 14.7016H21.8706L21.8496 10.3013H13.1495Z" fill="white"/>
<path d="M27.8354 2.1875H7.16441C6.19316 2.1875 5.40479 2.975 5.40479 3.94625V24.6173C5.40479 25.5894 6.19228 26.376 7.16441 26.376H27.8354C28.8067 26.376 29.595 25.5885 29.595 24.6173V3.94625C29.595 2.975 28.8075 2.1875 27.8354 2.1875ZM17.4999 23.5882C12.3602 23.5882 8.19428 19.4224 8.19428 14.2826C8.19428 9.14287 12.3602 4.977 17.4999 4.977C22.6397 4.977 26.8055 9.14287 26.8055 14.2826C26.8055 19.4224 22.6397 23.5882 17.4999 23.5882Z" fill="#2F81F9"/>
<path d="M22.8926 10.057V10.043C22.8803 9.46816 22.4104 9.00879 21.8356 9.00879H13.1634C12.5886 9.00879 12.1187 9.46816 12.1064 10.043V10.0562V18.9698V19.7302C12.1064 20.0382 12.3558 20.2884 12.6647 20.2884H14.0288C14.3368 20.2884 14.5871 20.039 14.5871 19.7302V18.9698H20.4137V19.7302C20.4137 20.0382 20.6631 20.2884 20.9719 20.2884H22.3361C22.6441 20.2884 22.8943 20.039 22.8943 19.7302V18.9698V10.0562L22.8926 10.057ZM13.1293 14.7015L13.1494 10.3012H21.8496L21.8697 14.7015H13.1293Z" fill="#2F81F9"/>
</svg>
