<svg width="35" height="35" viewBox="0 0 35 35" fill="none" xmlns="http://www.w3.org/2000/svg">
<g clip-path="url(#clip0_651_799)">
<path d="M32.8684 18.4312C32.8684 9.69346 25.5762 2.65846 16.7448 3.08108C9.03518 3.44946 2.6608 9.71096 2.16468 17.4136C1.77968 23.3881 4.8133 28.6827 9.49718 31.5448C11.0696 32.5056 13.1284 31.6175 13.5974 29.836L13.6552 29.6172H13.6613C14.0122 27.7517 15.6441 26.3386 17.6111 26.3386C19.5781 26.3386 21.2099 27.7517 21.5608 29.6172H21.5669C21.9852 31.4722 24.1211 32.4216 25.7267 31.4022C30.0177 28.6783 32.8684 23.8903 32.8684 18.4312Z" fill="#FFAD00"/>
<path d="M17.5001 10.8606C18.8518 10.8606 19.9475 9.76484 19.9475 8.4132C19.9475 7.06155 18.8518 5.96582 17.5001 5.96582C16.1485 5.96582 15.0527 7.06155 15.0527 8.4132C15.0527 9.76484 16.1485 10.8606 17.5001 10.8606Z" fill="#FFDA16"/>
<path d="M10.6495 13.698C12.0012 13.698 13.0969 12.6022 13.0969 11.2506C13.0969 9.89895 12.0012 8.80322 10.6495 8.80322C9.29788 8.80322 8.20215 9.89895 8.20215 11.2506C8.20215 12.6022 9.29788 13.698 10.6495 13.698Z" fill="#F77F00"/>
<path d="M7.81212 20.5486C9.16377 20.5486 10.2595 19.4528 10.2595 18.1012C10.2595 16.7495 9.16377 15.6538 7.81212 15.6538C6.46047 15.6538 5.36475 16.7495 5.36475 18.1012C5.36475 19.4528 6.46047 20.5486 7.81212 20.5486Z" fill="#EF4452"/>
<path d="M24.3507 13.698C25.7023 13.698 26.7981 12.6022 26.7981 11.2506C26.7981 9.89895 25.7023 8.80322 24.3507 8.80322C22.999 8.80322 21.9033 9.89895 21.9033 11.2506C21.9033 12.6022 22.999 13.698 24.3507 13.698Z" fill="#4FC578"/>
<path d="M27.1881 20.5486C28.5397 20.5486 29.6355 19.4528 29.6355 18.1012C29.6355 16.7495 28.5397 15.6538 27.1881 15.6538C25.8365 15.6538 24.7407 16.7495 24.7407 18.1012C24.7407 19.4528 25.8365 20.5486 27.1881 20.5486Z" fill="#1E6EF4"/>
</g>
<defs>
<clipPath id="clip0_651_799">
<rect width="35" height="35" fill="white"/>
</clipPath>
</defs>
</svg>
