<svg width="35" height="35" viewBox="0 0 35 35" fill="none" xmlns="http://www.w3.org/2000/svg">
<g clip-path="url(#clip0_651_704)">
<path d="M6.89941 5.53271V26.5616C15.3782 26.8215 23.8578 15.1183 32.3365 17.1308C23.8578 9.72221 15.3782 14.9985 6.89941 5.53271Z" fill="#E32939"/>
<path d="M6.16357 32.2331C5.6797 32.2331 5.28857 31.842 5.28857 31.3581V5.3916C5.28857 4.90773 5.6797 4.5166 6.16357 4.5166C6.64745 4.5166 7.03857 4.90773 7.03857 5.3916V31.3581C7.03857 31.842 6.64745 32.2331 6.16357 32.2331Z" fill="#333D4B"/>
<path d="M6.1626 7.1416C7.1291 7.1416 7.9126 6.3581 7.9126 5.3916C7.9126 4.4251 7.1291 3.6416 6.1626 3.6416C5.1961 3.6416 4.4126 4.4251 4.4126 5.3916C4.4126 6.3581 5.1961 7.1416 6.1626 7.1416Z" fill="#333D4B"/>
</g>
<defs>
<clipPath id="clip0_651_704">
<rect width="35" height="35" fill="white"/>
</clipPath>
</defs>
</svg>
