<svg width="35" height="35" viewBox="0 0 35 35" fill="none" xmlns="http://www.w3.org/2000/svg">
<g clip-path="url(#clip0_651_818)">
<path d="M28.4375 7.87695H19.6875V32.6683H28.4375C30.0484 32.6683 31.3539 31.3628 31.3539 29.752V10.7933C31.3539 9.18245 30.0484 7.87695 28.4375 7.87695Z" fill="#EF4452"/>
<path d="M15.3124 7.87695H6.56237C4.9515 7.87695 3.646 9.18245 3.646 10.7933V29.752C3.646 31.3628 4.9515 32.6683 6.56237 32.6683H15.3124V7.87695Z" fill="#EF4452"/>
<path d="M25.7772 3.78894V7.87519H19.6872V32.6727H15.3122V7.87519H9.22217V3.78894C9.22217 2.75644 10.2809 2.04769 11.2347 2.44144L17.4997 5.01394L23.7647 2.44144C24.7184 2.04769 25.7772 2.75644 25.7772 3.78894Z" fill="#FFCD00"/>
</g>
<defs>
<clipPath id="clip0_651_818">
<rect width="35" height="35" fill="white"/>
</clipPath>
</defs>
</svg>
