<svg width="34" height="35" viewBox="0 0 34 35" fill="none" xmlns="http://www.w3.org/2000/svg">
<g clip-path="url(#clip0_651_738)">
<path d="M24.2251 3.0625H9.7751C6.01956 3.0625 2.9751 6.19651 2.9751 10.0625V24.9375C2.9751 28.8035 6.01956 31.9375 9.7751 31.9375H24.2251C27.9806 31.9375 31.0251 28.8035 31.0251 24.9375V10.0625C31.0251 6.19651 27.9806 3.0625 24.2251 3.0625Z" fill="#00BD79"/>
<path d="M15.3874 23.3501C14.9955 23.3501 14.6045 23.1969 14.3053 22.8889L9.22404 17.6582C8.62649 17.0431 8.62649 16.0456 9.22404 15.4304C9.82159 14.8162 10.7906 14.8162 11.3881 15.4304L15.3874 19.5482L22.6115 12.1116C23.2099 11.4973 24.1789 11.4973 24.7756 12.1116C25.3732 12.7267 25.3732 13.7242 24.7756 14.3393L16.4694 22.8889C16.1702 23.1961 15.7792 23.3501 15.3874 23.3501Z" fill="white"/>
</g>
<defs>
<clipPath id="clip0_651_738">
<rect width="34" height="35" fill="white"/>
</clipPath>
</defs>
</svg>
