<svg width="35" height="35" viewBox="0 0 35 35" fill="none" xmlns="http://www.w3.org/2000/svg">
<g clip-path="url(#clip0_651_753)">
<path d="M12.6875 31.023L3.70475 28.447C3.32588 28.3385 3.0625 27.9702 3.0625 27.5493V7.74367C3.0625 7.13292 3.6015 6.68842 4.151 6.84592L12.6875 9.29417V31.023Z" fill="#D0D5DC"/>
<path d="M12.6875 31.0232L22.3125 28.2634V6.53369L12.6875 9.29432V31.0232Z" fill="#E1E4E7"/>
<path d="M30.849 30.7108L22.3125 28.2626V6.53369L31.2952 9.10969C31.6741 9.21819 31.9375 9.58657 31.9375 10.0074V29.8131C31.9375 30.4238 31.3985 30.8683 30.849 30.7108Z" fill="#D0D5DC"/>
<path d="M22.9424 17.0382C23.7605 16.1737 25.241 14.6197 26.5535 13.3011C29.0543 10.7872 29.2249 6.49705 26.6935 4.01468C25.4773 2.82205 23.8953 2.22618 22.3124 2.22705C20.7304 2.22705 19.1484 2.82205 17.9321 4.01468C15.399 6.49793 15.5705 10.7881 18.0721 13.3019C19.3846 14.6206 20.8678 16.1746 21.6859 17.0391C22.0271 17.3996 22.6003 17.3987 22.9415 17.0391L22.9424 17.0382Z" fill="#4582ED"/>
<path d="M22.3132 10.3407C23.3391 10.3407 24.1708 9.50905 24.1708 8.48311C24.1708 7.45718 23.3391 6.62549 22.3132 6.62549C21.2873 6.62549 20.4556 7.45718 20.4556 8.48311C20.4556 9.50905 21.2873 10.3407 22.3132 10.3407Z" fill="#FBFBFB"/>
</g>
<defs>
<clipPath id="clip0_651_753">
<rect width="35" height="35" fill="white"/>
</clipPath>
</defs>
</svg>
