<svg width="30" height="22" viewBox="0 0 30 22" fill="none" xmlns="http://www.w3.org/2000/svg">
<path d="M29.3731 3.28932C29.0281 1.99457 28.0116 0.975016 26.7208 0.628992C24.3813 0.000133514 15 0.000133514 15 0.000133514C15 0.000133514 5.61874 0.000133514 3.27919 0.628992C1.98845 0.975016 0.971857 1.99457 0.626886 3.28932C0 5.63595 0 10.532 0 10.532C0 10.532 0 15.4281 0.626886 17.7749C0.971857 19.0695 1.98845 20.0891 3.27919 20.4352C5.61874 21.064 15 21.064 15 21.064C15 21.064 24.3813 21.064 26.7208 20.4352C28.0116 20.0891 29.0281 19.0695 29.3731 17.7749C30 15.4281 30 10.532 30 10.532C30 10.532 30 5.63595 29.3731 3.28932Z" fill="#ED1D24"/>
<path d="M11.9316 14.9775L19.7726 10.5325L11.9316 6.08699V14.9775Z" fill="white"/>
</svg>
