<svg width="30" height="30" viewBox="0 0 30 30" fill="none" xmlns="http://www.w3.org/2000/svg">
<g clip-path="url(#clip0_651_1224)">
<path d="M15.0049 0C8.74254 0 6.91103 0.0064629 6.55502 0.0359999C5.26988 0.142855 4.47019 0.34526 3.59896 0.779131C2.92756 1.11263 2.39803 1.4992 1.87544 2.04109C0.9237 3.02933 0.346884 4.24512 0.138073 5.69032C0.0365584 6.39192 0.0070211 6.535 0.00102299 10.1187C-0.00127874 11.3133 0.00102299 12.8854 0.00102299 14.9941C0.00102299 21.2531 0.00793949 23.0833 0.0379414 23.4387C0.141769 24.6895 0.337881 25.4765 0.75319 26.3374C1.54689 27.9852 3.06275 29.2222 4.84857 29.6838C5.46692 29.8431 6.14987 29.9308 7.02663 29.9723C7.3981 29.9885 11.1843 30 14.9728 30C18.7613 30 22.5499 29.9954 22.9121 29.9769C23.9273 29.9291 24.5168 29.85 25.1686 29.6815C26.966 29.2176 28.4541 27.9991 29.264 26.3281C29.6712 25.4881 29.8777 24.6711 29.9712 23.4855C29.9915 23.227 30 19.1058 30 14.9902C30 10.8738 29.9908 6.76026 29.9705 6.50177C29.8759 5.29706 29.6694 4.487 29.249 3.63076C28.9041 2.92986 28.5211 2.40642 27.965 1.87124C26.9727 0.923153 25.759 0.346178 24.3128 0.137548C23.6121 0.0362268 23.4725 0.00622488 19.8871 0H15.0049Z" fill="url(#paint0_radial_651_1224)"/>
<path d="M15.0049 0C8.74254 0 6.91103 0.0064629 6.55502 0.0359999C5.26988 0.142855 4.47019 0.34526 3.59896 0.779131C2.92756 1.11263 2.39803 1.4992 1.87544 2.04109C0.9237 3.02933 0.346884 4.24512 0.138073 5.69032C0.0365584 6.39192 0.0070211 6.535 0.00102299 10.1187C-0.00127874 11.3133 0.00102299 12.8854 0.00102299 14.9941C0.00102299 21.2531 0.00793949 23.0833 0.0379414 23.4387C0.141769 24.6895 0.337881 25.4765 0.75319 26.3374C1.54689 27.9852 3.06275 29.2222 4.84857 29.6838C5.46692 29.8431 6.14987 29.9308 7.02663 29.9723C7.3981 29.9885 11.1843 30 14.9728 30C18.7613 30 22.5499 29.9954 22.9121 29.9769C23.9273 29.9291 24.5168 29.85 25.1686 29.6815C26.966 29.2176 28.4541 27.9991 29.264 26.3281C29.6712 25.4881 29.8777 24.6711 29.9712 23.4855C29.9915 23.227 30 19.1058 30 14.9902C30 10.8738 29.9908 6.76026 29.9705 6.50177C29.8759 5.29706 29.6694 4.487 29.249 3.63076C28.9041 2.92986 28.5211 2.40642 27.965 1.87124C26.9727 0.923153 25.759 0.346178 24.3128 0.137548C23.6121 0.0362268 23.4725 0.00622488 19.8871 0H15.0049Z" fill="url(#paint1_radial_651_1224)"/>
<path d="M15.0049 0C8.74254 0 6.91103 0.0064629 6.55502 0.0359999C5.26988 0.142855 4.47019 0.34526 3.59896 0.779131C2.92756 1.11263 2.39803 1.4992 1.87544 2.04109C0.9237 3.02933 0.346884 4.24512 0.138073 5.69032C0.0365584 6.39192 0.0070211 6.535 0.00102299 10.1187C-0.00127874 11.3133 0.00102299 12.8854 0.00102299 14.9941C0.00102299 21.2531 0.00793949 23.0833 0.0379414 23.4387C0.141769 24.6895 0.337881 25.4765 0.75319 26.3374C1.54689 27.9852 3.06275 29.2222 4.84857 29.6838C5.46692 29.8431 6.14987 29.9308 7.02663 29.9723C7.3981 29.9885 11.1843 30 14.9728 30C18.7613 30 22.5499 29.9954 22.9121 29.9769C23.9273 29.9291 24.5168 29.85 25.1686 29.6815C26.966 29.2176 28.4541 27.9991 29.264 26.3281C29.6712 25.4881 29.8777 24.6711 29.9712 23.4855C29.9915 23.227 30 19.1058 30 14.9902C30 10.8738 29.9908 6.76026 29.9705 6.50177C29.8759 5.29706 29.6694 4.487 29.249 3.63076C28.9041 2.92986 28.5211 2.40642 27.965 1.87124C26.9727 0.923153 25.759 0.346178 24.3128 0.137548C23.6121 0.0362268 23.4725 0.00622488 19.8871 0H15.0049Z" fill="url(#paint2_radial_651_1224)"/>
<path d="M15.0049 0C8.74254 0 6.91103 0.0064629 6.55502 0.0359999C5.26988 0.142855 4.47019 0.34526 3.59896 0.779131C2.92756 1.11263 2.39803 1.4992 1.87544 2.04109C0.9237 3.02933 0.346884 4.24512 0.138073 5.69032C0.0365584 6.39192 0.0070211 6.535 0.00102299 10.1187C-0.00127874 11.3133 0.00102299 12.8854 0.00102299 14.9941C0.00102299 21.2531 0.00793949 23.0833 0.0379414 23.4387C0.141769 24.6895 0.337881 25.4765 0.75319 26.3374C1.54689 27.9852 3.06275 29.2222 4.84857 29.6838C5.46692 29.8431 6.14987 29.9308 7.02663 29.9723C7.3981 29.9885 11.1843 30 14.9728 30C18.7613 30 22.5499 29.9954 22.9121 29.9769C23.9273 29.9291 24.5168 29.85 25.1686 29.6815C26.966 29.2176 28.4541 27.9991 29.264 26.3281C29.6712 25.4881 29.8777 24.6711 29.9712 23.4855C29.9915 23.227 30 19.1058 30 14.9902C30 10.8738 29.9908 6.76026 29.9705 6.50177C29.8759 5.29706 29.6694 4.487 29.249 3.63076C28.9041 2.92986 28.5211 2.40642 27.965 1.87124C26.9727 0.923153 25.759 0.346178 24.3128 0.137548C23.6121 0.0362268 23.4725 0.00622488 19.8871 0H15.0049Z" fill="url(#paint3_radial_651_1224)"/>
<path d="M15.0062 3.85205C11.9769 3.85205 11.5968 3.86528 10.407 3.91939C9.21951 3.97372 8.40897 4.16158 7.69974 4.43722C6.96612 4.7219 6.34381 5.10272 5.72382 5.72248C5.10338 6.34202 4.72226 6.96386 4.43644 7.6967C4.1599 8.40564 3.97167 9.2158 3.91823 10.4019C3.86502 11.5908 3.85107 11.9709 3.85107 14.998C3.85107 18.0251 3.86456 18.4038 3.91846 19.5927C3.97308 20.7793 4.16107 21.5892 4.43667 22.2979C4.7218 23.031 5.1029 23.6528 5.72312 24.2723C6.34289 24.8923 6.96519 25.2741 7.69835 25.5588C8.40803 25.8344 9.21882 26.0223 10.406 26.0766C11.5958 26.1307 11.9758 26.1439 15.0048 26.1439C18.0344 26.1439 18.4134 26.1307 19.6032 26.0766C20.7906 26.0223 21.6021 25.8344 22.3118 25.5588C23.0452 25.2741 23.6666 24.8923 24.2863 24.2723C24.9068 23.6528 25.2879 23.031 25.5737 22.2981C25.8479 21.5892 26.0361 20.779 26.0919 19.5929C26.1453 18.404 26.1593 18.025 26.1593 14.998C26.1593 11.9709 26.1453 11.5911 26.0919 10.4021C26.0361 9.21556 25.8479 8.40564 25.5737 7.69694C25.2879 6.96386 24.9068 6.342 24.2863 5.72248C23.6659 5.10248 23.0454 4.72166 22.3111 4.43721C21.6 4.16158 20.789 3.97372 19.6015 3.91939C18.4117 3.86528 18.033 3.85205 15.0027 3.85205H15.0062ZM14.0056 5.86065C14.3026 5.86018 14.634 5.86065 15.0062 5.86065C17.9844 5.86065 18.3374 5.87133 19.5135 5.92473C20.601 5.97443 21.1912 6.15601 21.5844 6.30857C22.105 6.51059 22.4761 6.75209 22.8662 7.14219C23.2566 7.53231 23.4983 7.90384 23.7009 8.42397C23.8536 8.8164 24.0356 9.40621 24.0851 10.4929C24.1385 11.6679 24.1501 12.0209 24.1501 14.9954C24.1501 17.97 24.1385 18.323 24.0851 19.4979C24.0353 20.5847 23.8536 21.1745 23.7009 21.5669C23.4988 22.087 23.2566 22.4574 22.8662 22.8473C22.4758 23.2374 22.1052 23.4789 21.5844 23.6809C21.1917 23.8342 20.601 24.0153 19.5135 24.065C18.3376 24.1184 17.9844 24.13 15.0062 24.13C12.0278 24.13 11.6748 24.1184 10.499 24.065C9.41146 24.0148 8.82122 23.8332 8.42779 23.6807C7.90726 23.4787 7.53544 23.2372 7.14506 22.8471C6.75466 22.457 6.51299 22.0864 6.31035 21.566C6.15767 21.1735 5.97572 20.5837 5.92623 19.497C5.87278 18.322 5.86209 17.9691 5.86209 14.9927C5.86209 12.0162 5.87278 11.6651 5.92623 10.4902C5.97596 9.40342 6.15767 8.81362 6.31035 8.42073C6.51251 7.90058 6.75466 7.52905 7.14506 7.13895C7.53544 6.74883 7.90726 6.50734 8.42779 6.30486C8.82098 6.1516 9.41146 5.97048 10.499 5.92055C11.528 5.87411 11.9267 5.86018 14.0056 5.85785L14.0056 5.86065ZM20.9603 7.71133C20.2213 7.71133 19.6217 8.30974 19.6217 9.04838C19.6217 9.7868 20.2213 10.3859 20.9603 10.3859C21.6992 10.3859 22.2988 9.7868 22.2988 9.04838C22.2988 8.30996 21.6992 7.71088 20.9603 7.71088L20.9603 7.71133ZM15.0062 9.27408C11.8428 9.27408 9.27807 11.837 9.27807 14.998C9.27807 18.159 11.8428 20.7207 15.0062 20.7207C18.1696 20.7207 20.7335 18.159 20.7335 14.998C20.7335 11.837 18.1694 9.27408 15.006 9.27408H15.0062ZM15.0062 11.2827C17.0595 11.2827 18.7243 12.946 18.7243 14.998C18.7243 17.0498 17.0595 18.7133 15.0062 18.7133C12.9527 18.7133 11.2882 17.0498 11.2882 14.998C11.2882 12.946 12.9527 11.2827 15.0062 11.2827Z" fill="white"/>
</g>
<defs>
<radialGradient id="paint0_radial_651_1224" cx="0" cy="0" r="1" gradientTransform="matrix(-18.4487 5.20295 -3.74853 -13.2914 29.0313 14.0614)" gradientUnits="userSpaceOnUse">
<stop stop-color="#FF005F"/>
<stop offset="1" stop-color="#FC01D8"/>
</radialGradient>
<radialGradient id="paint1_radial_651_1224" cx="0" cy="0" r="1" gradientUnits="userSpaceOnUse" gradientTransform="translate(7.96852 32.3106) rotate(-90) scale(23.9466 25.4068)">
<stop stop-color="#FFCC00"/>
<stop offset="0.1242" stop-color="#FFCC00"/>
<stop offset="0.5672" stop-color="#FE4A05"/>
<stop offset="0.6942" stop-color="#FF0F3F"/>
<stop offset="1" stop-color="#FE0657" stop-opacity="0"/>
</radialGradient>
<radialGradient id="paint2_radial_651_1224" cx="0" cy="0" r="1" gradientTransform="matrix(4.97046 -8.56425 11.1497 6.471 15.7581 29.5769)" gradientUnits="userSpaceOnUse">
<stop stop-color="#FFCC00"/>
<stop offset="1" stop-color="#FFCC00" stop-opacity="0"/>
</radialGradient>
<radialGradient id="paint3_radial_651_1224" cx="0" cy="0" r="1" gradientTransform="matrix(-18.2461 5.1378 -1.75 -6.21656 4.07036 1.22159)" gradientUnits="userSpaceOnUse">
<stop stop-color="#780CFF"/>
<stop offset="1" stop-color="#820BFF" stop-opacity="0"/>
</radialGradient>
<clipPath id="clip0_651_1224">
<rect width="30" height="30" fill="white"/>
</clipPath>
</defs>
</svg>
