<svg width="235" height="40" viewBox="0 0 235 40" fill="none" xmlns="http://www.w3.org/2000/svg">
<g clip-path="url(#clip0_5_161)">
<path d="M4.22 37.529C4.41 37.761 4.51 38.0635 4.51 38.4367C4.51 38.9208 4.34 39.294 4 39.5461C3.66 39.8084 3.16 39.9294 2.5 39.9294H0V34.352H2.35C2.95 34.352 3.42 34.4831 3.74 34.7352C4.07 34.9874 4.23 35.3404 4.23 35.7942C4.23 36.0968 4.16 36.359 4.01 36.5708C3.86 36.7826 3.66 36.944 3.4 37.055C3.75 37.1357 4.03 37.297 4.22 37.5391V37.529ZM0.74 36.8129H2.28C2.67 36.8129 2.98 36.7322 3.19 36.5809C3.4 36.4196 3.51 36.1977 3.51 35.8951C3.51 35.5925 3.4 35.3606 3.19 35.2093C2.98 35.0479 2.68 34.9773 2.28 34.9773H0.74V36.823V36.8129ZM3.44 39.0923C3.66 38.9309 3.77 38.6889 3.77 38.3661C3.77 37.7206 3.33 37.3979 2.46 37.3979H0.74V39.3243H2.46C2.89 39.3243 3.22 39.2436 3.44 39.0923Z" fill="#19316A"/>
<path d="M13.99 39.3646C13.6 38.941 13.41 38.3258 13.41 37.529V34.3621H14.14V37.5088C14.14 38.1241 14.27 38.5779 14.52 38.8805C14.78 39.1831 15.15 39.3243 15.63 39.3243C16.62 39.3243 17.12 38.7191 17.12 37.5088V34.3621H17.85V37.529C17.85 38.3359 17.65 38.941 17.27 39.3646C16.88 39.7882 16.33 40 15.63 40C14.93 40 14.38 39.7882 13.99 39.3646Z" fill="#19316A"/>
<path d="M27.52 39.7982C27.15 39.6671 26.87 39.4956 26.65 39.2838L26.92 38.6989C27.13 38.8905 27.38 39.0519 27.69 39.1729C28 39.2939 28.32 39.3544 28.65 39.3544C29.08 39.3544 29.41 39.2738 29.63 39.1124C29.85 38.951 29.96 38.7291 29.96 38.4669C29.96 38.2753 29.9 38.1139 29.78 37.9828C29.66 37.8618 29.51 37.7609 29.33 37.7004C29.15 37.6298 28.91 37.5592 28.6 37.4785C28.21 37.3776 27.9 37.2768 27.66 37.1759C27.42 37.0751 27.21 36.9238 27.04 36.712C26.87 36.5002 26.78 36.2279 26.78 35.8749C26.78 35.5824 26.85 35.3202 27 35.0781C27.15 34.836 27.37 34.6444 27.67 34.5032C27.97 34.362 28.34 34.2914 28.78 34.2914C29.1 34.2914 29.4 34.3318 29.7 34.4225C30 34.5133 30.25 34.6343 30.47 34.7957L30.23 35.3908C30 35.2395 29.77 35.1184 29.52 35.0478C29.27 34.9672 29.02 34.9369 28.78 34.9369C28.36 34.9369 28.04 35.0176 27.83 35.189C27.62 35.3605 27.51 35.5824 27.51 35.8547C27.51 36.0463 27.57 36.2077 27.69 36.3388C27.81 36.4598 27.96 36.5607 28.14 36.6313C28.32 36.7019 28.57 36.7725 28.88 36.8532C29.27 36.954 29.59 37.0549 29.83 37.1558C30.07 37.2566 30.27 37.4079 30.44 37.6096C30.61 37.8113 30.69 38.0937 30.69 38.4366C30.69 38.7291 30.62 38.9914 30.47 39.2334C30.32 39.4755 30.09 39.6671 29.79 39.7982C29.48 39.9394 29.11 40.01 28.67 40.01C28.28 40.01 27.89 39.9495 27.53 39.8184L27.52 39.7982Z" fill="#19316A"/>
<path d="M40.15 38.5174L39.57 39.9395H38.8L41.19 34.3621H41.92L44.31 39.9395H43.53L42.95 38.5174H40.16H40.15ZM41.55 35.1488L40.39 37.9123H42.7L41.55 35.1488Z" fill="#19316A"/>
<path d="M57.4 39.9294H56.79L53.62 35.6934V39.9294H52.89V34.352H53.49L56.67 38.588V34.352H57.4V39.9294Z" fill="#19316A"/>
<path d="M81.27 35.7438L79.34 39.2537H79L77.07 35.7943V39.9395H76.38V34.3621H76.98L79.18 38.3258L81.35 34.3621H81.96V39.9395H81.27V35.7438Z" fill="#19316A"/>
<path d="M92.09 34.352V39.9294H91.36V34.352H92.09Z" fill="#19316A"/>
<path d="M102.4 39.6268C101.98 39.3746 101.64 39.0418 101.4 38.6081C101.16 38.1744 101.04 37.6903 101.04 37.1457C101.04 36.601 101.16 36.1169 101.4 35.6832C101.64 35.2496 101.97 34.9066 102.4 34.6646C102.82 34.4124 103.3 34.2914 103.82 34.2914C104.23 34.2914 104.6 34.362 104.94 34.5133C105.28 34.6545 105.57 34.8764 105.81 35.1588L105.34 35.6328C104.94 35.189 104.44 34.9672 103.85 34.9672C103.45 34.9672 103.1 35.0579 102.79 35.2496C102.48 35.4412 102.23 35.7034 102.05 36.0262C101.87 36.359 101.78 36.7322 101.78 37.1457C101.78 37.5592 101.87 37.9223 102.05 38.2551C102.23 38.5879 102.48 38.8502 102.79 39.0317C103.11 39.2233 103.46 39.3141 103.85 39.3141C104.45 39.3141 104.95 39.0922 105.34 38.6484L105.81 39.1225C105.57 39.4049 105.28 39.6268 104.94 39.778C104.6 39.9293 104.22 39.9999 103.81 39.9999C103.29 39.9999 102.82 39.8789 102.39 39.6268H102.4Z" fill="#19316A"/>
<path d="M118.4 39.9294H114.59V34.352H118.3V34.9874H115.33V36.7827H117.98V37.408H115.33V39.2839H118.4V39.9294Z" fill="#19316A"/>
<path d="M140.57 34.8664C140.96 35.2093 141.15 35.6833 141.15 36.2884C141.15 36.8936 140.96 37.3575 140.57 37.7105C140.18 38.0635 139.65 38.2249 138.97 38.2249H137.66V39.9294H136.92V34.352H138.97C139.65 34.352 140.18 34.5234 140.57 34.8664ZM140.03 37.2365C140.28 37.0146 140.41 36.702 140.41 36.2884C140.41 35.8749 140.28 35.5522 140.03 35.3303C139.78 35.1084 139.41 34.9975 138.94 34.9975H137.65V37.5693H138.94C139.42 37.5693 139.78 37.4584 140.03 37.2365Z" fill="#19316A"/>
<path d="M150.87 34.352V39.2738H153.72V39.9294H150.13V34.352H150.86H150.87Z" fill="#19316A"/>
<path d="M163.09 38.5174L162.51 39.9395H161.74L164.13 34.3621H164.86L167.25 39.9395H166.47L165.89 38.5174H163.1H163.09ZM164.49 35.1488L163.33 37.9123H165.64L164.49 35.1488Z" fill="#19316A"/>
<path d="M174.76 34.9975V34.352H179.1V34.9975H177.3V39.9294H176.57V34.9975H174.76Z" fill="#19316A"/>
<path d="M188.35 37.0045H191V37.6399H188.35V39.9294H187.61V34.352H191.32V34.9874H188.35V37.0045Z" fill="#19316A"/>
<path d="M201.16 39.6268C200.74 39.3747 200.4 39.0419 200.16 38.5981C199.92 38.1644 199.8 37.6803 199.8 37.1357C199.8 36.591 199.92 36.1069 200.16 35.6732C200.4 35.2395 200.74 34.8966 201.16 34.6546C201.58 34.4024 202.06 34.2814 202.59 34.2814C203.12 34.2814 203.59 34.4024 204.02 34.6546C204.45 34.8966 204.78 35.2395 205.02 35.6732C205.26 36.1069 205.38 36.591 205.38 37.1357C205.38 37.6803 205.26 38.1644 205.02 38.5981C204.78 39.0318 204.44 39.3747 204.02 39.6167C203.59 39.8588 203.12 39.9899 202.59 39.9899C202.06 39.9899 201.59 39.8689 201.16 39.6167V39.6268ZM203.64 39.0419C203.95 38.8603 204.2 38.5981 204.37 38.2653C204.55 37.9324 204.64 37.5593 204.64 37.1457C204.64 36.7322 204.55 36.3591 204.37 36.0262C204.19 35.6934 203.95 35.4312 203.64 35.2496C203.33 35.0681 202.98 34.9672 202.59 34.9672C202.2 34.9672 201.86 35.058 201.55 35.2496C201.24 35.4413 200.99 35.7035 200.82 36.0262C200.64 36.3591 200.55 36.7322 200.55 37.1457C200.55 37.5593 200.64 37.9324 200.82 38.2653C201 38.5981 201.24 38.8603 201.55 39.0419C201.86 39.2234 202.21 39.3243 202.59 39.3243C202.97 39.3243 203.33 39.2335 203.64 39.0419Z" fill="#19316A"/>
<path d="M216.28 38.2249H214.97V39.9395H214.23V34.3621H216.28C216.96 34.3621 217.49 34.5336 217.88 34.8765C218.27 35.2194 218.46 35.6934 218.46 36.2986C218.46 36.7322 218.36 37.0953 218.16 37.3979C217.96 37.7005 217.67 37.9123 217.29 38.0535L218.55 39.9395H217.75L216.59 38.2048C216.5 38.2249 216.39 38.2249 216.27 38.2249H216.28ZM217.35 37.2466C217.6 37.0247 217.73 36.702 217.73 36.2986C217.73 35.8951 217.6 35.5623 217.35 35.3404C217.1 35.1185 216.73 35.0076 216.26 35.0076H214.97V37.5895H216.26C216.74 37.5895 217.1 37.4786 217.35 37.2466Z" fill="#19316A"/>
<path d="M232.37 35.7438L230.44 39.2537H230.1L228.17 35.7943V39.9395H227.48V34.3621H228.08L230.28 38.3258L232.45 34.3621H233.06V39.9395H232.37V35.7438Z" fill="#19316A"/>
<path d="M0 17.8719H27.76V23.2375H17.42V28.0081H10.33V23.2375H0V17.8719ZM13.26 8.37116H7.53V10.7211H13.26V15.7842H1.33V0.302582H7.53V3.6107H13.26V8.38125V8.37116ZM14.5 3.60061H20.23V0.302582H26.43V15.7943H14.5V10.7312H20.23V8.38125H14.5V3.60061Z" fill="#20ABDC"/>
<path d="M41.14 3.00555C41.14 10.5698 37.95 14.3822 31.07 16.7927L28.35 11.8205C33.02 10.358 34.82 8.15935 34.82 3.41906V0H41.14V3.00555ZM55.52 27.4029H30.12V18.2854H36.62V21.886H55.52V27.3928V27.4029ZM45.39 16.5003C42.91 15.7842 40.99 14.5941 39.25 13.1316C40.52 11.6692 41.52 9.94453 41.91 7.38275C43.27 9.62179 45.25 10.7514 48.11 11.528L45.39 16.5003ZM48.73 0H54.93V5.71861H57.82V11.6793H54.93V18.7393H48.73V0Z" fill="#20ABDC"/>
<path d="M76.61 26.9592L72.65 12.3651V26.9592H67.04V0.443787H74.13L78.97 17.6904L83.82 0.443787H90.91V26.9592H85.3V12.3651L81.34 26.9592H76.61Z" fill="#20ABDC"/>
<path d="M93.86 26.9592V0.443787H100.06V26.9592H93.86Z" fill="#20ABDC"/>
<path d="M103.01 18.5275V8.87543C103.01 2.77356 105.76 0.0302429 111.69 0.0302429C117.62 0.0302429 119.19 3.3081 120.08 5.68834L115.65 8.60311C114.7 6.72717 113.91 5.71859 112.16 5.71859C109.53 5.71859 108.91 7.18102 108.91 9.83357V17.5794C108.91 20.232 109.62 21.6944 112.25 21.6944C113.99 21.6944 114.88 20.6858 115.82 18.7998L120.25 21.7146C119.36 24.0948 117.71 27.3727 111.77 27.3727C105.83 27.3727 103 24.6293 103 18.5275H103.01Z" fill="#20ABDC"/>
<path d="M122.32 0.443787H137V6.10188H128.23V10.7817H136.71V16.3187H128.23V21.291H137.39V26.9491H122.33V0.443787H122.32Z" fill="#20ABDC"/>
<path d="M146.84 11.881H174.6V15.2496H146.84V11.881ZM169.79 7.18103H173.28V10.8119H148.17V7.18103H151.63L151.28 4.67977H158.22L158.52 7.18103H162.95L163.25 4.67977H170.19L169.81 7.18103H169.79ZM148.17 20.5547H166.48V19.3948H148.17V16.3288H173.28V23.298H154.97V24.4579H173.73V27.7055H148.18V20.5547H148.17ZM148.46 0.151276H172.98V3.78214H148.46V0.151276Z" fill="#114092"/>
<path d="M193.68 17.3979C193.68 24.6394 185.11 27.7055 179.03 28.2098L176.73 23.3585C183.79 22.9753 187.48 20.3833 187.48 17.3979V17.0953H193.68V17.3979ZM190.69 15.6127H176.81V5.93041H184.84V4.34695H176.95V0.302572H189.95V9.92436H181.92V11.5078H190.69V15.6228V15.6127ZM191.79 0H196.75V4.97226H198.29V0H203.25V18.2955H198.29V10.3379H196.75V15.9052H191.79V0ZM194.56 19.8084C196.54 21.7751 199.34 23.0257 204.4 23.409L201.77 28.23C197.22 27.9274 194.21 26.4448 191.88 24.4175C193.12 23.2577 194.1 21.886 194.57 19.7983L194.56 19.8084Z" fill="#114092"/>
<path d="M228.26 7.53403H231.75V11.4069H222.3V12.9299H233.08V16.9541H205.32V12.9299H216.1V11.4069H206.65V7.53403H210.11L209.76 4.91174H216.7L217 7.53403H221.43L221.73 4.91174H228.67L228.29 7.53403H228.26ZM206.64 18.2652H218.57V22.1079H212.54V23.8023H218.57V27.645H206.64V18.2652ZM206.94 0.151276H231.46V4.0242H206.94V0.151276ZM219.81 18.2652H231.74V27.645H219.81V23.8023H225.84V22.1079H219.81V18.2652Z" fill="#114092"/>
</g>
<defs>
<clipPath id="clip0_5_161">
<rect width="235" height="40" fill="white"/>
</clipPath>
</defs>
</svg>
