<svg xmlns="http://www.w3.org/2000/svg" viewBox="0 0 283.46 163.65"><defs><style>.cls-1{fill:#662483;}.cls-2{fill:#00b6ed;}</style></defs><g id="Layer_2" data-name="Layer 2"><g id="Layer_1-2" data-name="Layer 1"><path class="cls-1" d="M0,99.3a110.46,110.46,0,0,0,30.85,13.46C39.06,114.87,53,114.47,53,98.83c0-3.69-.7-12-10.18-17.68C45,79.9,50.2,75.77,50.2,66.62c0-5.79-1.66-10.26-5.27-14.17s-8.51-6.63-20.28-6.63H0ZM17.73,60.85c2.8.47,5.6.68,8.4,1,2,.26,5.88,1,5.88,6s-3.84,4.59-5.88,4.21c-2.8-.52-5.6-.93-8.4-1.61Zm0,23.53q5.41,1.8,10.85,3.06c2,.47,6.37,1.63,6.37,6.13s-4.24,4.26-6.24,3.82a68,68,0,0,1-11-3.66Z"/><path class="cls-1" d="M76.63,45.74c-6,0-12,0-18,0V92c0,22.34,19,24.31,27.26,23.33,9.16-1.09,24.85-7.77,24.85-32V45.74c-5.91.06-11.82-.05-17.72,0V86.19c0,10.69-5.17,13.37-8.18,13.65-2.71.25-8.18-.54-8.18-8.66Z"/><path class="cls-1" d="M115.53,103.14c16.1,3.27,31.81-4,37.35-8.53,6.68-5.43,10.82-10.77,10.93-18,.17-10.58-11.07-10.94-17.91-11-4.69,0-8.23.07-10.05-.7-1-.44-1.61-1-1.61-2,0-2.06,1.8-3,2.83-3.45,6.87-2.78,16.24.06,18.89.83l5.56-11.91a55,55,0,0,0-20.17-3.75c-15.26,0-20.26,7.49-22.12,10.91a23,23,0,0,0-2.79,11.09c0,8.75,5.16,12.74,12.48,14,3.64.62,11.5-.19,13.55,0,2.72.25,3.54,1,3.54,2.11,0,2.8-5.29,4.51-7.47,5.06a35.21,35.21,0,0,1-17.15-.34Z"/><path class="cls-1" d="M186.46,45.82c-7.8,10.34-15.31,27-23.11,46.88,6.12-1.78,12.23-3.45,18.34-4.9q1.8-5,3.58-9.53c6.79-1.45,13.57-2.62,20.35-3.41,1.19,2.57,2.38,5.27,3.58,8.12a140,140,0,0,1,18.64-.67C220.05,64.94,212.37,53.92,205,45.82Zm3.8,20.5q2.6-5.77,5.19-10.55c1.72,2.84,3.45,5.84,5.17,9.07C197.17,65.25,193.72,65.76,190.26,66.32Z"/><path class="cls-1" d="M230.74,82.44a112.79,112.79,0,0,1,17.58,2.38V64.94a166.5,166.5,0,0,1,20.32,26.49,115.62,115.62,0,0,1,14.82,7.87V45.82H265.89V65.31c-6.84-8.18-13.51-15.05-19-19.49H230.74Z"/><path class="cls-2" d="M37.3,162.4c10.35,0,12.9-3.68,12.9-6.46,0-1.93-1.08-5-7.39-7.91a13.32,13.32,0,0,0,7.43-3.14,7.86,7.86,0,0,0,2.48-6q0-5.68-5.77-9.85c-3.85-2.81-9.46-4.82-16.85-6.78A110.87,110.87,0,0,1,0,109V162.4Zm-8-28.83c2,.52,5.22,1.91,5.22,4.73,0,1.6-1.26,3.2-5.58,2.23-3.63-.81-7.62-1.95-11.23-3.15v-7.45C21.34,131.28,25.71,132.62,29.32,133.57Zm-3.19,21.26c-2.8-.37-5.6-.77-8.4-1.24v-6.25c2.8.68,5.6,1.31,8.4,1.83,2.24.41,5.88,1.26,5.88,3.73C32,154.36,30.69,155.44,26.13,154.83Z"/><path class="cls-2" d="M76.63,145.52c0-7.9,5.9-9.24,8.4-9.61s8-.24,8,7.32v19.19h17.72V140.13c0-19.51-18.58-18.64-26.78-17.3s-25.33,6-25.33,24.31v15.28h18Z"/><path class="cls-2" d="M204.29,162.43c7.79-27.29,15.76-52.19,23.55-70.47a140,140,0,0,0-18.64.67c-1.2,3.36-2.39,6.88-3.59,10.53-6.78.78-13.56,2-20.34,3.4-1.19-3.17-2.38-6.2-3.58-9.12-6.11,1.46-12.22,3.12-18.34,4.9a397.6,397.6,0,0,1,23.53,60.09Zm-3.67-43.32c-1.72,5.75-3.45,11.73-5.18,17.88q-2.58-8.72-5.17-16.41C193.72,120,197.17,119.52,200.62,119.11Z"/><path class="cls-2" d="M265.89,162.43h17.57V109a115.62,115.62,0,0,0-14.82-7.87c-6.28,5.67-14.13,15.26-20.32,24V94.46a112.77,112.77,0,0,0-17.58-2.37v70.34h14.5a188.93,188.93,0,0,1,20.65-31.91Z"/><path class="cls-2" d="M121.4,131.72,115.59,121c6.42-5.48,22.67-14.4,34.4-14.4s13.82,8.43,13.82,13.09c0,5.52-1.62,12.71-11.24,18.22-6.83,3.9-11.47,4.66-15.68,6.86-2.83,1.48-2.78,2.65-2.56,3.56s1.59,1.91,4.79,1.82c3.47-.1,9.81-1.29,17-6.51l5.42,14.44c-4.33,3.15-10.83,5.58-20.42,5.58-10.3,0-24.67-3.66-24.67-14.08,0-6.91,5-10.91,9.44-13.8,5.89-3.86,14.79-7.06,18.09-9.44,2.29-1.66,2.31-3.38,1.74-4.19s-2.12-1-5.56-.21C135.78,122.93,128.28,126.41,121.4,131.72Z"/><path class="cls-1" d="M42.59,12a5.73,5.73,0,0,1-2.45,2.34,8.91,8.91,0,0,1-4.21.88H32.48v7.91H28.35V2.54h7.58A9.05,9.05,0,0,1,40,3.37a5.71,5.71,0,0,1,2.52,2.27,6.41,6.41,0,0,1,.84,3.28A6.39,6.39,0,0,1,42.59,12Zm-4.29-.9a2.87,2.87,0,0,0,.82-2.19q0-3-3.36-3H32.48v6h3.28A3.56,3.56,0,0,0,38.3,11.11Z"/><path class="cls-1" d="M50.43,1.3V23.14H46.29V1.3Z"/><path class="cls-1" d="M54.43,10.51a7.25,7.25,0,0,1,2.68-2.95,7.16,7.16,0,0,1,3.8-1,6.69,6.69,0,0,1,3.2.74,6.5,6.5,0,0,1,2.2,1.86V6.79h4.16V23.14H66.31V20.75a6.15,6.15,0,0,1-2.2,1.91,6.75,6.75,0,0,1-3.23.75,7,7,0,0,1-3.77-1.06,7.45,7.45,0,0,1-2.68-3,9.61,9.61,0,0,1-1-4.44A9.45,9.45,0,0,1,54.43,10.51Zm11.29,1.87a4.17,4.17,0,0,0-1.6-1.65A4.25,4.25,0,0,0,62,10.15a4.15,4.15,0,0,0-2.13.57,4.27,4.27,0,0,0-1.58,1.63,5.18,5.18,0,0,0-.6,2.56,5.34,5.34,0,0,0,.6,2.58,4.45,4.45,0,0,0,1.6,1.7,4.08,4.08,0,0,0,2.11.59,4.16,4.16,0,0,0,2.15-.58,4.1,4.1,0,0,0,1.6-1.65A5.34,5.34,0,0,0,66.31,15,5.36,5.36,0,0,0,65.72,12.38Z"/><path class="cls-1" d="M90.16,6.79,80,30.88h-4.4l3.54-8.15L72.63,6.79h4.63l4.22,11.42L85.76,6.79Z"/><path class="cls-1" d="M133.91,2.54l-5.76,20.6h-4.87L119.42,8.47l-4,14.67-4.84,0L105,2.54h4.43l3.63,16,4.19-16h4.61l4,15.91,3.66-15.91Z"/><path class="cls-1" d="M139.61,22.36a7.57,7.57,0,0,1-3-3A8.83,8.83,0,0,1,135.56,15a8.67,8.67,0,0,1,1.11-4.43,7.72,7.72,0,0,1,3-3,9.25,9.25,0,0,1,8.56,0,7.76,7.76,0,0,1,3,3A8.67,8.67,0,0,1,152.39,15a8.46,8.46,0,0,1-1.14,4.42,7.89,7.89,0,0,1-3.07,3,8.91,8.91,0,0,1-4.32,1.05A8.58,8.58,0,0,1,139.61,22.36Zm6.36-3.1a4,4,0,0,0,1.58-1.64,5.52,5.52,0,0,0,.59-2.65,4.92,4.92,0,0,0-1.23-3.59,4,4,0,0,0-3-1.25,3.93,3.93,0,0,0-3,1.25,5,5,0,0,0-1.2,3.59,5,5,0,0,0,1.17,3.58,3.84,3.84,0,0,0,2.94,1.26A4.26,4.26,0,0,0,146,19.26Z"/><path class="cls-1" d="M161.64,7.29a5.84,5.84,0,0,1,2.94-.74v4.34h-1.09a4.19,4.19,0,0,0-2.94.92,4.21,4.21,0,0,0-1,3.19v8.14h-4.13V6.79h4.13V9.33A5.8,5.8,0,0,1,161.64,7.29Z"/><path class="cls-1" d="M177,23.14l-5.55-7v7h-4.13V1.3h4.13V13.73L177,6.79h5.37L175.15,15l7.26,8.14Z"/><path class="cls-1" d="M204.61,19.87h6.79v3.27H200.48V2.54h4.13Z"/><path class="cls-1" d="M214.31,4.15a2.27,2.27,0,0,1-.73-1.73,2.29,2.29,0,0,1,.73-1.73A2.51,2.51,0,0,1,216.12,0a2.55,2.55,0,0,1,1.82.69,2.32,2.32,0,0,1,.72,1.73,2.3,2.3,0,0,1-.72,1.73,2.55,2.55,0,0,1-1.82.69A2.51,2.51,0,0,1,214.31,4.15Zm3.85,2.64V23.14H214V6.79Z"/><path class="cls-1" d="M229.05,19.34l4.13-12.55h4.4l-6.05,16.35h-5l-6-16.35h4.43Z"/><path class="cls-1" d="M255,16.21H243A4.1,4.1,0,0,0,244.28,19,3.84,3.84,0,0,0,247,20a3.37,3.37,0,0,0,3.28-2h4.45A7.41,7.41,0,0,1,252,21.89a8,8,0,0,1-4.93,1.52,8.52,8.52,0,0,1-4.24-1.05,7.39,7.39,0,0,1-2.92-3A9,9,0,0,1,238.85,15a9.24,9.24,0,0,1,1-4.46,7.15,7.15,0,0,1,2.89-2.95,9.24,9.24,0,0,1,8.46,0,7.07,7.07,0,0,1,2.86,2.85,8.6,8.6,0,0,1,1,4.23A9.74,9.74,0,0,1,255,16.21Zm-4.16-2.78a3.3,3.3,0,0,0-1.15-2.55,4.1,4.1,0,0,0-2.75-1,3.75,3.75,0,0,0-2.58.93,4.1,4.1,0,0,0-1.29,2.58Z"/><circle class="cls-1" cx="92.88" cy="20.81" r="2.54"/><circle class="cls-1" cx="187.58" cy="20.81" r="2.54"/></g></g></svg>