<svg xmlns="http://www.w3.org/2000/svg" viewBox="0 0 283.76 49.85"><defs><style>.cls-1{fill:#dc2f34;}.cls-2{fill:#9ca0a3;}.cls-3{fill:#1d1d1b;}</style></defs><g id="Layer_2" data-name="Layer 2"><g id="Layer_1-2" data-name="Layer 1"><path class="cls-1" d="M42.4,21.39v-3.6a14.29,14.29,0,0,0-11.69,0V0h-6.9V7.41a14.38,14.38,0,0,0-8.46-2.74,14.71,14.71,0,0,0-11,5A17.33,17.33,0,0,0,0,21.31,17.35,17.35,0,0,0,4.37,33a14.71,14.71,0,0,0,11,5,14.28,14.28,0,0,0,6.22-1.42,16.9,16.9,0,0,0,4.07,8.31,14.55,14.55,0,0,0,22,0c.33-.37.65-.75.95-1.15l-5-5a8.2,8.2,0,0,1-7,4.22c-4.66,0-8.46-4.38-8.46-9.75s3.8-9.74,8.46-9.74a8.16,8.16,0,0,1,7,4.22h0a17.91,17.91,0,0,1-1.16-6.29Zm-27,9.67c-4.66,0-8.45-4.37-8.45-9.75s3.79-9.74,8.45-9.74,8.46,4.37,8.46,9.74-3.8,9.75-8.46,9.75"/><path class="cls-2" d="M68.74,9.67a14.7,14.7,0,0,0-11-5,14.38,14.38,0,0,0-8.45,2.74V0H42.4V21.39h0a17.91,17.91,0,0,0,1.16,6.29A17.12,17.12,0,0,0,46.78,33a14.56,14.56,0,0,0,22,0,17.36,17.36,0,0,0,4.38-11.65A17.34,17.34,0,0,0,68.74,9.67m-11,21.39c-4.66,0-8.45-4.37-8.45-9.75s3.79-9.74,8.45-9.74,8.46,4.37,8.46,9.74-3.8,9.75-8.46,9.75"/><path class="cls-3" d="M89.38,35.26H86.06V46.63h3.42c3.83,0,6-2.09,6-5.73s-2.18-5.64-6.13-5.64m-1.22,1.55h1.09c2.71,0,4.09,1.38,4.09,4.09s-1.42,4.16-4.09,4.16H88.16Z"/><polygon class="cls-3" points="99.54 41.49 104.15 41.49 104.15 39.88 99.54 39.88 99.54 36.86 104.99 36.86 104.99 35.26 97.44 35.26 97.44 46.63 105.18 46.63 105.18 45.02 99.54 45.02 99.54 41.49"/><path class="cls-3" d="M113.11,40.4l-1.73-.66c-1-.35-2-.71-2-1.64s.79-1.39,2.06-1.39a4.18,4.18,0,0,1,2.73,1l0,0,1.08-1.18,0,0,0,0A5.78,5.78,0,0,0,111.45,35c-2.43,0-4.2,1.33-4.2,3.17,0,1.34.88,2.35,2.61,3l1.74.68.05,0c1.12.44,1.93.76,1.93,1.73s-.89,1.53-2.32,1.53A5.1,5.1,0,0,1,108,43.85l0,0-1.2,1.26,0,0,0,.05a6.79,6.79,0,0,0,4.52,1.66c2.64,0,4.48-1.37,4.48-3.33s-1.39-2.64-2.6-3.1"/><rect class="cls-3" x="117.63" y="35.26" width="2.1" height="11.38"/><path class="cls-3" d="M127.39,42.09h2.49v2.56a3.34,3.34,0,0,1-1.92.52c-2.49,0-3.92-1.55-3.92-4.25s1.5-4.21,3.83-4.21a3.53,3.53,0,0,1,2.56,1l0,0,1.11-1.17,0,0,0,0A5.37,5.37,0,0,0,127.81,35,5.61,5.61,0,0,0,121.89,41a5.49,5.49,0,0,0,5.87,5.85,6.19,6.19,0,0,0,4-1.33l0,0v-5h-4.41Z"/><path class="cls-3" d="M141.56,40.56c0,1,.1,2.11.19,3.09q0,.3.06.57l-1.29-2.33-4.17-6.6,0,0h-2.12V46.63h2V41.27c0-1-.1-2-.19-3l-.06-.65,1.28,2.3,4.17,6.64,0,0h2.13V35.26h-2Z"/><path class="cls-3" d="M159.78,44l0,0A3.76,3.76,0,0,1,157,45.17c-2.2,0-3.57-1.63-3.57-4.25s1.42-4.21,3.62-4.21a3.46,3.46,0,0,1,2.42,1l0,0,1.12-1.17,0,0,0,0A5.18,5.18,0,0,0,157,35,5.59,5.59,0,0,0,151.28,41c0,3.5,2.27,5.85,5.65,5.85a5.28,5.28,0,0,0,3.95-1.64l0,0L159.83,44Z"/><path class="cls-3" d="M167.25,35c-3.36,0-5.53,2.3-5.53,5.86s2.17,5.93,5.53,5.93,5.54-2.38,5.54-5.93S170.61,35,167.25,35m3.39,5.86c0,2.59-1.33,4.27-3.39,4.27s-3.38-1.68-3.38-4.27,1.29-4.19,3.38-4.19,3.39,1.6,3.39,4.19"/><path class="cls-3" d="M182.15,41.86c0,2.23-.88,3.31-2.69,3.31s-2.65-1.08-2.65-3.31v-6.6h-2.1v6.48c0,3.38,1.6,5.09,4.75,5.09s4.72-1.71,4.72-5.09V35.26h-2Z"/><path class="cls-3" d="M194.1,40.56c0,1,.1,2.11.19,3.09,0,.2,0,.39.05.57l-1.28-2.33-4.17-6.6,0,0h-2.12V46.63h2V41.27a29.6,29.6,0,0,0-.19-3l-.06-.63,1.29,2.3L194,46.61l0,0h2.12V35.26h-2Z"/><path class="cls-3" d="M206.71,44l0,0a3.77,3.77,0,0,1-2.75,1.18c-2.19,0-3.56-1.63-3.56-4.25s1.42-4.21,3.62-4.21a3.47,3.47,0,0,1,2.42,1l0,0,1.12-1.17,0,0,0,0A5.15,5.15,0,0,0,203.94,35,5.59,5.59,0,0,0,198.21,41c0,3.5,2.27,5.85,5.65,5.85a5.28,5.28,0,0,0,3.95-1.64l0,0L206.75,44Z"/><rect class="cls-3" x="209.82" y="35.26" width="2.1" height="11.38"/><polygon class="cls-3" points="216.86 35.26 214.76 35.26 214.76 46.63 222.17 46.63 222.17 45.02 216.86 45.02 216.86 35.26"/><path class="cls-3" d="M237.14,40.55a2.57,2.57,0,0,0,1.77-2.46c0-1.88-1.52-2.83-4.51-2.83h-4V46.63h4.26c3.06,0,4.88-1.25,4.88-3.36a2.72,2.72,0,0,0-2.45-2.72m.39,2.63c0,1.29-1,1.94-3,1.94h-1.94v-3.7h1.94c2,0,3,.57,3,1.76m-5-3.22V36.75h1.68c1.83,0,2.61.47,2.61,1.56S236,40,234.18,40Z"/><path class="cls-3" d="M248.87,41.86c0,2.23-.88,3.31-2.69,3.31s-2.64-1.08-2.64-3.31v-6.6h-2.1v6.48c0,3.38,1.6,5.09,4.74,5.09s4.73-1.71,4.73-5.09V35.26h-2Z"/><path class="cls-3" d="M258.66,40.4l-1.73-.66c-1-.35-2-.71-2-1.64s.79-1.39,2.07-1.39a4.2,4.2,0,0,1,2.73,1l0,0,1.08-1.18,0,0,0,0A5.8,5.8,0,0,0,257,35c-2.43,0-4.2,1.33-4.2,3.17,0,1.34.88,2.35,2.6,3l1.74.68.06,0c1.12.44,1.93.76,1.93,1.73s-.89,1.53-2.32,1.53a5.1,5.1,0,0,1-3.31-1.32l-.05,0-1.2,1.26,0,0,0,.05a6.79,6.79,0,0,0,4.51,1.66c2.64,0,4.49-1.37,4.49-3.33s-1.39-2.64-2.6-3.1"/><path class="cls-3" d="M268.63,35.26h-2.37l-4.21,11.37h2.14l1.08-3.21h4.29l1.06,3.21h2.23l-4.2-11.33Zm.41,6.65h-3.27l.48-1.44c.46-1.37.83-2.54,1.15-3.67l.17.57c.32,1,.65,2.09,1,3.1Z"/><path class="cls-3" d="M281.48,35.26v5.3c0,1,.1,2.11.19,3.09,0,.19,0,.39.06.57l-1.29-2.33-4.17-6.6,0,0h-2.12V46.63h2V41.27c0-1-.1-2-.19-3l-.06-.63,1.28,2.3,4.17,6.64,0,0h2.13V35.26Z"/><path class="cls-3" d="M248,18.3c-.14,0-.27,0-.41,0H236.12v2.29h6.53A5.27,5.27,0,0,0,241.44,24c0,3.37,2.84,5.72,6.51,5.72s6.49-2.35,6.47-5.72a5.24,5.24,0,0,0-1.18-3.38h6.51V18.33h-11.4c-.14,0-.27,0-.4,0m3.57,5.61A3.28,3.28,0,0,1,248,27.19c-2.07,0-3.62-1.26-3.6-3.28s1.53-3.25,3.6-3.25a3.3,3.3,0,0,1,3.57,3.25"/><polygon class="cls-3" points="84.97 20.72 95.12 20.72 95.12 28.2 98.25 28.2 98.25 20.72 108.52 20.72 108.52 18.35 84.97 18.35 84.97 20.72"/><path class="cls-3" d="M88.24,15.81h16.4a1.29,1.29,0,0,0,1.3-1.27V5.3h-3.23V8.13H90.11V5.3H86.94v9.24a1.28,1.28,0,0,0,1.3,1.27m1.87-5.31h12.6v2.89H90.11Z"/><path class="cls-3" d="M117.76,12.37a11,11,0,0,0,6,5.1l1.63-2.38a6.87,6.87,0,0,1-1.78-.52A7.52,7.52,0,0,1,120,11.15c-.94-1.85-.75-3.92-.75-5.93h-3.19c0,2.75.09,5.37-1.71,7.68a7.2,7.2,0,0,1-4.27,2.46l1.77,2.37a9.55,9.55,0,0,0,5.89-5.36"/><path class="cls-3" d="M115.94,20.32h-3.25v6.46a1.29,1.29,0,0,0,1.3,1.28h17.27V25.63H115.94Z"/><polygon class="cls-3" points="130.79 5.13 127.63 5.13 127.63 20.66 130.79 20.66 130.79 13.9 134.39 13.9 134.39 11.36 130.79 11.36 130.79 5.13"/><path class="cls-3" d="M169.58,11.09V9h5.19V6.56H161.13V9h5.41v2.05c0,4.06-2.42,8.62-6.37,10.47L162,23.9a12.57,12.57,0,0,0,6.14-7.55,12,12,0,0,0,6,7l1.7-2.37a11.15,11.15,0,0,1-6.2-9.85"/><polygon class="cls-3" points="180.9 5.13 177.73 5.13 177.73 28.2 180.9 28.2 180.9 16.16 184.86 16.16 184.86 13.65 180.9 13.65 180.9 5.13"/><path class="cls-3" d="M192,20h-3.2v6.76a1.29,1.29,0,0,0,1.3,1.28h17.26V25.63H192Z"/><path class="cls-3" d="M200.26,11.19c0-3.54-3-6.08-6.92-6.09s-7,2.55-7,6.09,3,6.13,7,6.13,6.94-2.53,6.92-6.13m-10.77,0c0-2.1,1.64-3.47,3.85-3.47a3.5,3.5,0,1,1,0,7c-2.21,0-3.87-1.35-3.85-3.51"/><rect class="cls-3" x="204.2" y="5.13" width="3.19" height="15.65"/><path class="cls-3" d="M219.45,13.54a10,10,0,0,0,6.16,5l1.6-2.32C223.15,15,221,12.09,221,9.09V8.4h5.36V6h-14V8.4h5.5v.69c0,3.17-2.22,6.29-6.32,7.57L213.12,19a10.29,10.29,0,0,0,6.33-5.47"/><path class="cls-3" d="M217.24,20.26H214v6.52a1.29,1.29,0,0,0,1.3,1.28H232.6V25.63H217.24Z"/><rect class="cls-3" x="229.41" y="5.13" width="3.19" height="15.57"/><path class="cls-3" d="M268.57,23.39h3.08V17.67h6.06V15.21c-5.58,0-10.57,0-15.32,0v2.46h6.18Z"/><path class="cls-3" d="M266.91,25.63V20.86h-3.16v5.92a1.29,1.29,0,0,0,1.3,1.28h18.71V25.63Z"/><polygon class="cls-3" points="274.93 21.43 279.97 21.43 279.97 23.39 283.16 23.39 283.16 5.22 279.97 5.22 279.97 19.32 274.93 19.32 274.93 21.43"/><path class="cls-3" d="M153.75,20.15c-3.68,0-10.27,0-13.46,0V8.83h10.33V6.37H137.1v15a1.29,1.29,0,0,0,1.3,1.28h15.35V28.2h3.19V5.13h-3.19Z"/><path class="cls-3" d="M242.09,12.39c0,3,2.56,5.15,5.86,5.15s5.84-2.12,5.82-5.15a4.76,4.76,0,0,0-1.65-3.66h6.21V6.46h-8.79V4.28h-3.13V6.46h-8.88V8.73h6.24a4.79,4.79,0,0,0-1.68,3.66m5.85-2.74a2.77,2.77,0,1,1-3,2.74,2.78,2.78,0,0,1,3-2.74"/><path class="cls-3" d="M269.73,14c3.18,0,5.62-2,5.61-4.8a4.73,4.73,0,0,0,0-.65c-.34-2.43-2.65-4.11-5.57-4.12-3.18,0-5.64,2-5.64,4.77s2.46,4.8,5.64,4.8m0-7.25a2.54,2.54,0,0,1,2.79,2.45,2.82,2.82,0,0,1-5.6,0,2.53,2.53,0,0,1,2.81-2.45"/></g></g></svg>