<svg xmlns="http://www.w3.org/2000/svg" viewBox="0 0 418.62 100.45"><defs><style>.cls-1{fill:#6d6e71;}.cls-2{fill:#80c342;}.cls-3{fill:#ec008c;}.cls-4{fill:#00aeef;}.cls-5{fill:#2e3192;}</style></defs><g id="Layer_2" data-name="Layer 2"><g id="Layer_1-2" data-name="Layer 1"><path class="cls-1" d="M19.08,20.24c-5.82,0-10.54,3.84-10.54,8.56s4.72,8.56,10.54,8.56,10.55-3.83,10.55-8.56S24.91,20.24,19.08,20.24Zm0,13.59c-3.13,0-5.66-2.25-5.66-5s2.53-5,5.66-5,5.65,2.25,5.65,5S22.21,33.83,19.09,33.83Z"/><path class="cls-1" d="M17.1,16.25h7.56v4.08h4.88V1.93A1.47,1.47,0,0,0,28,.48H24.66V4.09H16.94a10,10,0,0,0-7.2-3A9.47,9.47,0,0,0,0,10.25a9.47,9.47,0,0,0,9.74,9.18A9.92,9.92,0,0,0,17.1,16.25Zm7.56-8.64v5.12H19.11a8.86,8.86,0,0,0,.37-2.48,8.58,8.58,0,0,0-.42-2.64ZM4.87,10.25C4.87,7.13,7,4.6,9.74,4.6s4.86,2.53,4.86,5.65-2.18,5.66-4.86,5.66S4.87,13.38,4.87,10.25Z"/><path class="cls-1" d="M102.47.48H99.1V24.3a48.12,48.12,0,0,1-10.88,1.34l-15,0v3.5H85.53c6.73,0,10.78-.82,13.57-1.77V36H104V1.93A1.48,1.48,0,0,0,102.47.48Z"/><path class="cls-1" d="M127.73,13.47H134V28.35h4.88V1.94a1.48,1.48,0,0,0-1.5-1.46H134V10h-6.24Z"/><path class="cls-1" d="M119.68,14.89c2.72,4.37,8.53,7.76,8.53,7.76l2.86-2.93c-8.55-5.35-9-9.81-8.95-14.22V5.43h7.45V1.91H109.78V5.43h7.46V5.5c.06,4.41-.41,8.87-8.95,14.22l2.85,2.93S117,19.26,119.68,14.89Z"/><path class="cls-1" d="M121,31.12h0V24.84h-4.87v7A4.22,4.22,0,0,0,120.4,36h18.77V32.51H122.36A1.42,1.42,0,0,1,121,31.12Z"/><path class="cls-1" d="M160.69,20.25c-5.82,0-10.54,3.83-10.54,8.56s4.72,8.56,10.54,8.56,10.54-3.84,10.54-8.56S166.52,20.25,160.69,20.25Zm0,13.59c-3.13,0-5.66-2.26-5.66-5s2.53-5,5.66-5,5.66,2.25,5.66,5S163.82,33.84,160.7,33.84Z"/><path class="cls-1" d="M171.32,8.49V1.94a1.48,1.48,0,0,0-1.5-1.46h-3.37V13.76a81.46,81.46,0,0,1-12.69,1.56c-2.65.07-3.88-.12-3.91-2.64V5.46h12V1.94H145V12.78c0,4.35,1.75,6.12,6.28,6.32,3.14.14,10.79-1.07,15.2-2.12v3.37h4.87V12h5.18V8.49Z"/><path class="cls-1" d="M65.44,1.93A1.48,1.48,0,0,0,63.94.48H60.57V24.31a48.44,48.44,0,0,1-10.86,1.33h0V21.87a9.35,9.35,0,0,0,7-9A9.22,9.22,0,0,0,54.62,7h3.59V3.52H49.67V0H44.79V3.52H36.25V7h3.59a9.22,9.22,0,0,0-2.07,5.82,9.36,9.36,0,0,0,7,9v3.79H34.69v3.51H47c6.72,0,10.78-.83,13.56-1.78V36h4.87V15.7H71V12.18H65.44ZM42.65,12.86C42.65,9.64,44.7,7,47.23,7s4.57,2.6,4.57,5.82-2,5.81-4.57,5.81S42.65,16.07,42.65,12.86Z"/><path class="cls-1" d="M84.55,21.73A10.31,10.31,0,1,0,74.17,11.42,10.35,10.35,0,0,0,84.55,21.73Zm0-17.09c3,0,5.49,3,5.49,6.78s-2.46,6.78-5.49,6.78-5.49-3-5.49-6.78S81.51,4.64,84.54,4.64Z"/><path class="cls-2" d="M193.8,60.34c16,4.1,32.86,11.1,53.38,16.1a236.94,236.94,0,0,0,35-13.23A130.91,130.91,0,0,1,327,51H123.86c3.89.19,7.78.4,11.67.69C156.07,53.25,173.86,55.22,193.8,60.34Z"/><path class="cls-3" d="M139.33,73.51c34,11.93,69.23,14,107.85,2.93-20.52-5-37.42-12-53.38-16.1-19.94-5.12-37.73-7.09-58.27-8.63-3.89-.29-7.78-.5-11.67-.69H1.47V66.9A174.59,174.59,0,0,1,23.4,59.7C62.78,49.8,101.85,60.35,139.33,73.51Z"/><path class="cls-3" d="M347,51a128.44,128.44,0,0,1,58.62,20.16L418.62,51Z"/><path class="cls-4" d="M327,51a130.91,130.91,0,0,0-44.83,12.19,236.94,236.94,0,0,1-35,13.23,202.76,202.76,0,0,0,31.93,5.22c24.13,1.94,38.63-3.21,59.49-8.87,42.86-11.65,67-1.61,67-1.61A128.44,128.44,0,0,0,347,51Z"/><path class="cls-5" d="M338.6,72.79c-20.86,5.66-35.36,10.81-59.49,8.87a202.76,202.76,0,0,1-31.93-5.22c-38.62,11-73.87,9-107.85-2.93C101.85,60.35,62.78,49.8,23.4,59.7A174.59,174.59,0,0,0,1.47,66.9h0s101.07,2.5,170.61,19.55S268,103.75,308,93.74s66.41-22.53,97.54-22.56C405.57,71.18,381.46,61.14,338.6,72.79Z"/></g></g></svg>