<svg width="5960" height="533" viewBox="0 0 5960 533" fill="none" xmlns="http://www.w3.org/2000/svg">
<path fill-rule="evenodd" clip-rule="evenodd" d="M5960 532.78H0V171.383C162.423 265.336 380.429 257.704 481.413 135.599C596.823 -3.7197 786.316 21.8885 909.534 142.891C953.576 186.222 1174.38 272.967 1258.56 187.07C1354.46 89.216 1575.09 5.18381 1706.37 135.599C2071.27 496.573 2387.55 -239.027 2648.32 127.119C2754.48 276.02 2963.32 183.932 3072.12 101.172C3428.95 -170.173 3527.05 190.207 3761.27 190.207C4069.06 171.637 4046.4 16.8856 4207.8 7.55808C4298.35 2.04638 4421.23 190.292 4729.69 190.292C5005.15 190.292 4917.32 27.3154 5141.27 10.3563C5354.69 -5.83958 5566.84 345.298 5837.8 145.35C5875.36 118.272 5916.48 96.5007 5960 80.6516V532.78Z" fill="url(#paint0_linear_1035_11)"/>
<defs>
<linearGradient id="paint0_linear_1035_11" x1="1198.4" y1="27" x2="1198.4" y2="266" gradientUnits="userSpaceOnUse">
<stop stop-color="#CEF6FF"/>
<stop offset="1" stop-color="#88E0F4"/>
</linearGradient>
</defs>
</svg>
