<svg width="6044" height="563" viewBox="0 0 6044 563" fill="none" xmlns="http://www.w3.org/2000/svg">
<path d="M1770.44 170.86C2007.12 170.86 2106.32 -152.888 2466.89 90.9082C2576.79 165.067 2787.83 247.723 2895.01 114.083C3158.93 -214.841 3479.28 445.246 3847.23 121.267C3979.95 4.93076 4202.8 79.9391 4299.54 167.848C4384.57 244.941 4607.75 166.844 4652.22 128.22C4776.88 19.6085 4968.41 -3.33455 5085 121.73C5197.1 241.852 5452.2 238.376 5618.44 125.979C5812.17 -4.87932 5847.39 27.7192 5960 101.337V323H6044V563H84V478H0V152.089C132.382 98.5557 254.581 0.991505 376.44 9.17967C602.678 24.3976 513.915 170.706 792.257 170.706C1103.61 170.706 1228.1 1.76312 1319.58 6.70701C1482.68 15.3588 1459.6 153.943 1770.44 170.86Z" fill="url(#paint0_linear_972_2)"/>
<defs>
<linearGradient id="paint0_linear_972_2" x1="2345" y1="563" x2="2345" y2="29.5" gradientUnits="userSpaceOnUse">
<stop stop-color="#73E3FF"/>
<stop offset="1" stop-color="#D9F6FF"/>
</linearGradient>
</defs>
</svg>
